<?xml version="1.0" encoding="UTF-8"?>
<svg width="52px" height="56px" viewBox="0 0 52 56" version="1.1" xmlns="http://www.w3.org/2000/svg" xmlns:xlink="http://www.w3.org/1999/xlink">
    <!-- Generator: Sketch 64 (93537) - https://sketch.com -->
    <title>pen</title>
    <desc>Created with Sketch.</desc>
    <g id="UI" stroke="none" stroke-width="1" fill="none" fill-rule="evenodd">
        <g id="bp-ui-home" transform="translate(-694.000000, -6494.000000)" fill="#FFFFFF" fill-rule="nonzero">
            <g id="Courses" transform="translate(162.000000, 6298.000000)">
                <g id="course" transform="translate(380.000000, 144.000000)">
                    <g id="course-6" transform="translate(0.000000, 10.000000)">
                        <g id="pen" transform="translate(152.000000, 42.000000)">
                            <path d="M35.3521875,33.4917188 C34.8887656,33.4917188 34.4654844,33.1871094 34.3164063,32.7490625 C34.1715938,32.3234844 34.3090781,31.8413594 34.6553594,31.5547969 C34.9971563,31.2720625 35.4893438,31.2265625 35.8780625,31.4394063 C36.2733438,31.6558594 36.5016094,32.1119531 36.43325,32.5583125 C36.3524219,33.0864844 35.8888906,33.4917188 35.3521875,33.4917188 L35.3521875,33.4917188 Z" id="Path"></path>
                            <path d="M28.3962656,19.1187812 L7.8159375,19.1187812 C7.21185938,19.1187812 6.7221875,18.629 6.7221875,18.0250312 C6.7221875,17.4210625 7.21185938,16.9312812 7.8159375,16.9312812 L28.3962656,16.9312812 C29.0002344,16.9312812 29.4900156,17.4210625 29.4900156,18.0250312 C29.4900156,18.629 29.0002344,19.1187812 28.3962656,19.1187812 Z" id="Path"></path>
                            <path d="M28.3962656,26.3975469 L7.8159375,26.3975469 C7.21185938,26.3975469 6.7221875,25.9077656 6.7221875,25.3037969 C6.7221875,24.6998281 7.21185938,24.2100469 7.8159375,24.2100469 L28.3962656,24.2100469 C29.0002344,24.2100469 29.4900156,24.6998281 29.4900156,25.3037969 C29.4900156,25.9077656 29.0002344,26.3975469 28.3962656,26.3975469 Z" id="Path"></path>
                            <path d="M28.3962656,33.3989688 L7.8159375,33.3989688 C7.21185938,33.3989688 6.7221875,32.9091875 6.7221875,32.3052188 C6.7221875,31.70125 7.21185938,31.2114688 7.8159375,31.2114688 L28.3962656,31.2114688 C29.0002344,31.2114688 29.4900156,31.70125 29.4900156,32.3052188 C29.4900156,32.9091875 29.0002344,33.3989688 28.3962656,33.3989688 Z" id="Path"></path>
                            <path d="M21.6949688,40.4006094 L7.8159375,40.4006094 C7.21185938,40.4006094 6.7221875,39.9108281 6.7221875,39.3068594 C6.7221875,38.7027813 7.21185938,38.2131094 7.8159375,38.2131094 L21.6949688,38.2131094 C22.2990469,38.2131094 22.7887188,38.7027813 22.7887188,39.3068594 C22.7887188,39.9108281 22.2990469,40.4006094 21.6949688,40.4006094 Z" id="Path"></path>
                            <path d="M32.4868906,2.1888125 L29.7282344,2.1888125 L29.7282344,1.09375 C29.7282344,0.489671875 29.2384531,0 28.6344844,0 C28.0305156,0 27.5407344,0.489671875 27.5407344,1.09375 L27.5407344,2.1888125 L22.7887188,2.1888125 L22.7887188,1.09375 C22.7887188,0.489671875 22.2990469,0 21.6949688,0 C21.0908906,0 20.6012188,0.489671875 20.6012188,1.09375 L20.6012188,2.1888125 L15.8492031,2.1888125 L15.8492031,1.09375 C15.8492031,0.489671875 15.3595313,0 14.7554531,0 C14.151375,0 13.6617031,0.489671875 13.6617031,1.09375 L13.6617031,2.1888125 L8.9096875,2.1888125 L8.9096875,1.09375 C8.9096875,0.489671875 8.42001563,0 7.8159375,0 C7.21185938,0 6.7221875,0.489671875 6.7221875,1.09375 L6.7221875,2.1888125 L3.96353125,2.1888125 C1.78073438,2.1888125 0.004921875,3.964625 0.004921875,6.14742188 L0.004921875,52.0413906 C0.004921875,54.2241875 1.78073438,56 3.96353125,56 L32.4867813,56 C34.6696875,56 36.4456094,54.2241875 36.4456094,52.0413906 L36.4456094,37.3220312 C36.4456094,36.7180625 35.9558281,36.2282812 35.35175,36.2282812 C34.7477813,36.2282812 34.258,36.7180625 34.258,37.3220312 L34.258,52.0412812 C34.258,53.0178906 33.4633906,53.8123906 32.4867813,53.8123906 L3.96353125,53.8123906 C2.98692188,53.8123906 2.19242188,53.0177812 2.19242188,52.0412812 L2.19242188,6.14742187 C2.19242188,5.1708125 2.98692188,4.3763125 3.96353125,4.3763125 L6.7221875,4.3763125 L6.7221875,5.68629687 C6.7221875,6.29026562 7.21185938,6.78004687 7.8159375,6.78004687 C8.42001563,6.78004687 8.9096875,6.29026562 8.9096875,5.68629687 L8.9096875,4.3763125 L13.6617031,4.3763125 L13.6617031,5.68629687 C13.6617031,6.29026562 14.151375,6.78004687 14.7554531,6.78004687 C15.3595313,6.78004687 15.8492031,6.29026562 15.8492031,5.68629687 L15.8492031,4.3763125 L20.6012188,4.3763125 L20.6012188,5.68629687 C20.6012188,6.29026562 21.0908906,6.78004687 21.6949688,6.78004687 C22.2990469,6.78004687 22.7887188,6.29026562 22.7887188,5.68629687 L22.7887188,4.3763125 L27.5407344,4.3763125 L27.5407344,5.68629687 C27.5407344,6.29026562 28.0305156,6.78004687 28.6344844,6.78004687 C29.2384531,6.78004687 29.7282344,6.29026562 29.7282344,5.68629687 L29.7282344,4.3763125 L32.4868906,4.3763125 C33.4636094,4.3763125 34.2581094,5.17092187 34.2581094,6.14742187 L34.2581094,27.4331094 C34.2581094,28.0370781 34.7478906,28.5268594 35.3518594,28.5268594 C35.9559375,28.5268594 36.4456094,28.0370781 36.4456094,27.4331094 L36.4456094,6.14742187 C36.4456094,3.964625 34.6696875,2.1888125 32.4868906,2.1888125 Z" id="Path"></path>
                            <path d="M51.1825781,49.1477656 L51.1730625,5.88207812 C51.1724063,3.90665625 49.5648125,2.2990625 47.5898281,2.29840625 L44.4839063,2.29621875 L44.4828125,2.29621875 C43.5253438,2.29621875 42.6251875,2.66907813 41.9480469,3.34621875 C41.2706875,4.02357812 40.8977188,4.92417187 40.8980467,5.88207812 L40.9075625,49.1444844 L40.9075625,49.2025625 C40.9075625,49.4291875 40.9781094,49.6503437 41.1091406,49.8352969 L45.1541563,55.5389844 C45.3592344,55.8281719 45.6918438,56 46.0463281,56 C46.4008125,56 46.7334219,55.8281719 46.9385,55.5389844 L50.9808906,49.8390156 C51.1120312,49.6540625 51.1824687,49.4329062 51.1824687,49.2062812 L51.1824687,49.1477656 L51.1825781,49.1477656 Z M48.9870938,11.2301875 L48.9879688,14.8230469 L43.0880625,14.8230469 L43.0871875,11.2274531 L46.001375,11.2287656 L48.9870938,11.2301875 Z M43.0883906,17.0105469 L48.9882969,17.0105469 L48.9944219,46.2919844 L48.5013594,45.7428125 C48.2867656,45.5037188 47.9809531,45.3712656 47.6565469,45.3802344 C47.3354219,45.3893125 47.0343125,45.5392656 46.8336094,45.7900625 L46.0447969,46.7756406 L45.2543438,45.7883125 C45.0535313,45.5375156 44.7525313,45.3876719 44.4314063,45.3785938 C44.421125,45.3782656 44.4108438,45.3781563 44.4005625,45.3781563 C44.0904844,45.3781563 43.7944063,45.5098438 43.5867031,45.7411719 L43.0945156,46.2893594 L43.0883906,17.0105469 Z M43.4948281,4.89289062 C43.75875,4.62907812 44.109625,4.48371875 44.482375,4.48371875 L44.4828125,4.48371875 L47.5888438,4.48590625 C48.3587344,4.486125 48.9853438,5.11273437 48.9855625,5.88273437 L48.9865469,9.04279687 L46.0775,9.04148437 L43.0866406,9.0400625 L43.0856562,5.88142187 C43.0855469,5.50790625 43.2309063,5.15692187 43.4948281,4.89289062 Z M46.0464375,53.0155937 L43.3760469,49.25025 L44.3527656,48.1622969 L45.1910156,49.2094531 C45.3986094,49.4686719 45.7128438,49.6196094 46.0449063,49.6196094 C46.3770781,49.6196094 46.6912031,49.4686719 46.8989063,49.2093437 L47.7354063,48.1640469 L48.7140938,49.2539687 L46.0464375,53.0155937 Z" id="Shape"></path>
                        </g>
                    </g>
                </g>
            </g>
        </g>
    </g>
</svg>