<?xml version="1.0" encoding="UTF-8"?>
<svg width="44px" height="56px" viewBox="0 0 44 56" version="1.1" xmlns="http://www.w3.org/2000/svg" xmlns:xlink="http://www.w3.org/1999/xlink">
    <!-- Generator: Sketch 64 (93537) - https://sketch.com -->
    <title>plan</title>
    <desc>Created with Sketch.</desc>
    <g id="UI" stroke="none" stroke-width="1" fill="none" fill-rule="evenodd">
        <g id="bp-ui-home" transform="translate(-318.000000, -6494.000000)" fill="#FFFFFF" fill-rule="nonzero">
            <g id="Courses" transform="translate(162.000000, 6298.000000)">
                <g id="course" transform="translate(0.000000, 144.000000)">
                    <g id="course-5" transform="translate(0.000000, 10.000000)">
                        <g id="plan" transform="translate(156.000000, 42.000000)">
                            <path d="M7.65625,21.875 C8.2599487,21.875 8.75,21.3849487 8.75,20.78125 C8.75,20.1775513 8.2599487,19.6875 7.65625,19.6875 C7.0525513,19.6875 6.5625,20.1775513 6.5625,20.78125 C6.5625,21.3849487 7.0525513,21.875 7.65625,21.875 Z" id="Path"></path>
                            <path d="M40.46875,6.5625 L37.1875,6.5625 L37.1875,3.28125 C37.1875,1.47186277 35.7156372,0 33.90625,0 L15.1245117,0 C14.2550659,0 13.4155273,0.350341797 12.8045654,0.961303656 L0.961303656,12.8041382 C0.3584595,13.4069824 0,14.2443848 0,15.1245117 L0,45.5 C0,47.3093872 1.47186277,48.78125 3.28125,48.78125 L6.5625,48.78125 L6.5625,52.71875 C6.5625,54.5281372 8.03436277,56 9.84375,56 L40.46875,56 C42.2781372,56 43.75,54.5281372 43.75,52.71875 L43.75,9.84375 C43.75,8.03436277 42.2781372,6.5625 40.46875,6.5625 Z M13.125,3.73455808 L13.125,13.125 L3.73413086,13.125 L13.125,3.73455808 Z M3.28125,46.59375 C2.67797852,46.59375 2.1875,46.1032715 2.1875,45.5 L2.1875,15.3125 L14.21875,15.3125 C14.822876,15.3125 15.3125,14.822876 15.3125,14.21875 L15.3125,2.1875 L33.90625,2.1875 C34.5095215,2.1875 35,2.67797852 35,3.28125 L35,45.5 C35,46.1032715 34.5095215,46.59375 33.90625,46.59375 L3.28125,46.59375 Z M41.5625,52.71875 C41.5625,53.3220215 41.0720215,53.8125 40.46875,53.8125 L9.84375,53.8125 C9.24047852,53.8125 8.75,53.3220215 8.75,52.71875 L8.75,48.78125 L33.90625,48.78125 C35.7156372,48.78125 37.1875,47.3093872 37.1875,45.5 L37.1875,8.75 L40.46875,8.75 C41.0720215,8.75 41.5625,9.24047852 41.5625,9.84375 L41.5625,52.71875 Z" id="Shape"></path>
                            <path d="M29.53125,6.5625 L20.78125,6.5625 C20.177124,6.5625 19.6875,7.05212397 19.6875,7.65625 L19.6875,14.21875 C19.6875,14.822876 20.177124,15.3125 20.78125,15.3125 L29.53125,15.3125 C30.135376,15.3125 30.625,14.822876 30.625,14.21875 L30.625,7.65625 C30.625,7.05212397 30.135376,6.5625 29.53125,6.5625 Z M28.4375,13.125 L21.875,13.125 L21.875,8.75 L28.4375,8.75 L28.4375,13.125 Z" id="Shape"></path>
                            <path d="M29.53125,19.6875 L12.03125,19.6875 C11.427124,19.6875 10.9375,20.177124 10.9375,20.78125 C10.9375,21.385376 11.427124,21.875 12.03125,21.875 L29.53125,21.875 C30.135376,21.875 30.625,21.385376 30.625,20.78125 C30.625,20.177124 30.135376,19.6875 29.53125,19.6875 Z" id="Path"></path>
                            <path d="M29.53125,26.25 L7.65625,26.25 C7.05212397,26.25 6.5625,26.739624 6.5625,27.34375 C6.5625,27.947876 7.05212397,28.4375 7.65625,28.4375 L29.53125,28.4375 C30.135376,28.4375 30.625,27.947876 30.625,27.34375 C30.625,26.739624 30.135376,26.25 29.53125,26.25 Z" id="Path"></path>
                            <path d="M29.53125,32.8125 L7.65625,32.8125 C7.05212397,32.8125 6.5625,33.302124 6.5625,33.90625 C6.5625,34.510376 7.05212397,35 7.65625,35 L29.53125,35 C30.135376,35 30.625,34.510376 30.625,33.90625 C30.625,33.302124 30.135376,32.8125 29.53125,32.8125 Z" id="Path"></path>
                            <path d="M29.53125,39.375 L7.65625,39.375 C7.05212397,39.375 6.5625,39.864624 6.5625,40.46875 C6.5625,41.072876 7.05212397,41.5625 7.65625,41.5625 L29.53125,41.5625 C30.135376,41.5625 30.625,41.072876 30.625,40.46875 C30.625,39.864624 30.135376,39.375 29.53125,39.375 Z" id="Path"></path>
                        </g>
                    </g>
                </g>
            </g>
        </g>
    </g>
</svg>