<?xml version="1.0" encoding="UTF-8"?>
<svg width="72px" height="72px" viewBox="0 0 72 72" version="1.1" xmlns="http://www.w3.org/2000/svg" xmlns:xlink="http://www.w3.org/1999/xlink">
    <!-- Generator: Sketch 58 (84663) - https://sketch.com -->
    <title>results</title>
    <desc>Created with Sketch.</desc>
    <g id="UI-Final" stroke="none" stroke-width="1" fill="none" fill-rule="evenodd">
        <g id="bp-ui-program-overview" transform="translate(-162.000000, -6263.000000)" fill="#DE3C7D" fill-rule="nonzero">
            <g id="Benefits" transform="translate(162.000000, 6119.000000)">
                <g id="1" transform="translate(0.000000, 144.000000)">
                    <g id="cover">
                        <g id="results">
                            <path d="M5.68980278,43.5924163 C5.96446005,43.8641388 6.32426128,44 6.68406252,44 C7.04386375,44 7.40366498,43.8641388 7.67832225,43.5924163 L28.9631726,22.5355544 L41.8489993,35.2842298 C42.1126704,35.5450834 42.4708236,35.6918134 42.843259,35.6918134 C43.2162438,35.6918134 43.5738478,35.5450834 43.8380682,35.2842298 L51.3120455,27.8895741 C51.8613603,27.3466726 51.8613603,26.4657483 51.3120455,25.9223034 C50.7627307,25.3788584 49.8728407,25.3788584 49.3235259,25.9223034 L42.843259,32.3327801 L29.9574323,19.5841047 C29.6932119,19.3232512 29.3356079,19.1765211 28.9631726,19.1765211 C28.5901878,19.1765211 28.2325838,19.3232512 27.9683634,19.5841047 L6.68406252,40.6415101 L3.39476544,37.3873617 L28.9631726,12.092716 L41.8495486,24.8413914 C42.1132197,25.102245 42.4708236,25.248975 42.8438084,25.248975 C43.2167931,25.248975 43.5743971,25.102245 43.8380682,24.8413914 L60.8206848,8.03970338 C61.3699996,7.49680197 61.3699996,6.61587772 60.8206848,6.07243276 L60.3026809,5.55942072 L68.6044757,3.35901196 L66.3802999,11.5720958 L66.0985014,11.293852 C65.8348303,11.0329984 65.4772265,10.8862682 65.1042417,10.8862682 C64.7312569,10.8862682 64.3736529,11.0329984 64.1099818,11.293852 L57.2787029,18.0521334 C56.7293881,18.5955783 56.7293881,19.4765027 57.2787029,20.0199477 C57.8280177,20.5628492 58.7179077,20.5628492 59.2677719,20.0199477 L65.104791,14.2453014 L66.1138823,15.2436098 C66.469289,15.5946753 66.9867435,15.7327104 67.4723379,15.6039138 C67.9573828,15.4751174 68.33641,15.1001403 68.4665976,14.6202785 L71.952,1.75150183 C72.0821878,1.27109649 71.943211,0.759171264 71.5878043,0.407562478 C71.232947,0.0559535525 70.7149431,-0.0809945779 70.2298981,0.0472584331 L57.2221234,3.49541668 C56.7370786,3.6242131 56.3580513,3.9991902 56.2278637,4.47959554 C56.0976761,4.95945748 56.2366527,5.47192597 56.5915102,5.82299149 L57.8379054,7.05606807 L42.8438084,21.8899418 L29.9574323,9.14126636 C29.4086668,8.59836494 28.5182275,8.5978214 27.9689127,9.14126636 L0.411986106,36.4037264 C-0.137328702,36.9471714 -0.137328702,37.8280956 0.411986106,38.3715406 L5.68980278,43.5924163 Z" id="Path"></path>
                            <path d="M70.59375,69.1715035 L69.1875,69.1715035 L69.1875,26.4142483 C69.1875,25.633097 68.5579835,25 67.78125,25 L59.90625,25 C59.1295165,25 58.5,25.633097 58.5,26.4142483 L58.5,69.1715035 L55.265625,69.1715035 L55.265625,43.2907601 C55.265625,42.5101614 54.6361085,41.8765118 53.859375,41.8765118 L45.984375,41.8765118 C45.2076415,41.8765118 44.578125,42.5101614 44.578125,43.2907601 L44.578125,69.1715035 L41.34375,69.1715035 L41.34375,50.7862759 C41.34375,50.0056772 40.7142335,49.3720277 39.9375,49.3720277 L32.0625,49.3720277 C31.2857665,49.3720277 30.65625,50.0056772 30.65625,50.7862759 L30.65625,69.1715035 L27.421875,69.1715035 L27.421875,43.2907601 C27.421875,42.5101614 26.7923585,41.8765118 26.015625,41.8765118 L18.140625,41.8765118 C17.3638915,41.8765118 16.734375,42.5101614 16.734375,43.2907601 L16.734375,69.1715035 L13.5,69.1715035 L13.5,56.2073768 C13.5,55.4267781 12.8704835,54.7931285 12.09375,54.7931285 L4.21875,54.7931285 C3.44201653,54.7931285 2.8125,55.4267781 2.8125,56.2073768 L2.8125,69.1715035 L1.40625,69.1715035 C0.629516531,69.1715035 0,69.805153 0,70.5857517 C0,71.366903 0.629516531,72 1.40625,72 L70.59375,72 C71.3704835,72 72,71.366903 72,70.5857517 C72,69.805153 71.3704835,69.1715035 70.59375,69.1715035 Z M5.625,69.1715035 L5.625,57.6216251 L10.6875,57.6216251 L10.6875,69.1715035 L5.625,69.1715035 Z M19.546875,69.1715035 L19.546875,44.7050084 L24.609375,44.7050084 L24.609375,69.1715035 L19.546875,69.1715035 Z M33.46875,69.1715035 L33.46875,52.2005242 L38.53125,52.2005242 L38.53125,69.1715035 L33.46875,69.1715035 Z M47.390625,69.1715035 L47.390625,44.7050084 L52.453125,44.7050084 L52.453125,69.1715035 L47.390625,69.1715035 Z M61.3125,69.1715035 L61.3125,27.8284965 L66.375,27.8284965 L66.375,69.1715035 L61.3125,69.1715035 Z" id="Shape"></path>
                            <path d="M53.4394532,22.4394531 C53.1605469,22.7183595 53,23.1056641 53,23.5 C53,23.8960937 53.1605469,24.2816405 53.4394532,24.5605469 C53.7183595,24.8412109 54.1050782,25 54.5,25 C54.8943361,25 55.2810548,24.8412109 55.560547,24.5605469 C55.840625,24.2816405 56,23.894922 56,23.5 C56,23.1056641 55.840625,22.7201172 55.560547,22.4394531 C55.2810548,22.160547 54.8943361,22 54.5,22 C54.1050782,22 53.7183595,22.160547 53.4394532,22.4394531 Z" id="Path"></path>
                        </g>
                    </g>
                </g>
            </g>
        </g>
    </g>
</svg>