<?xml version="1.0" encoding="UTF-8"?>
<svg width="72px" height="72px" viewBox="0 0 72 72" version="1.1" xmlns="http://www.w3.org/2000/svg" xmlns:xlink="http://www.w3.org/1999/xlink">
    <!-- Generator: Sketch 58 (84663) - https://sketch.com -->
    <title>efficient</title>
    <desc>Created with Sketch.</desc>
    <g id="UI-Final" stroke="none" stroke-width="1" fill="none" fill-rule="evenodd">
        <g id="bp-ui-program-overview" transform="translate(-162.000000, -2616.000000)" fill="#DE3C7D" fill-rule="nonzero">
            <g id="Benefits" transform="translate(162.000000, 2472.000000)">
                <g id="1" transform="translate(0.000000, 144.000000)">
                    <g id="cover">
                        <g id="efficient">
                            <path d="M61.4557969,10.5442031 C54.6562969,3.7445625 45.6159375,0 36,0 C26.3840625,0 17.3437031,3.7445625 10.5442031,10.5442031 C3.7445625,17.3437031 0,26.3840625 0,36 C0,45.6159375 3.7445625,54.6562969 10.5442031,61.4557969 C17.3437031,68.2554375 26.3840625,72 36,72 C45.6159375,72 54.6562969,68.2554375 61.4557969,61.4557969 C68.2554375,54.6562969 72,45.6159375 72,36 C72,26.3840625 68.2554375,17.3437031 61.4557969,10.5442031 Z M36,69.1875 C17.7003281,69.1875 2.8125,54.2996719 2.8125,36 C2.8125,17.7003281 17.7003281,2.8125 36,2.8125 C54.2996719,2.8125 69.1875,17.7003281 69.1875,36 C69.1875,54.2996719 54.2996719,69.1875 36,69.1875 Z" id="XMLID_56_"></path>
                            <path d="M56.7548089,15.247863 C46.7735992,5.26922243 31.0844775,3.79816634 19.4495424,11.7496777 C18.8136873,12.1843016 18.6505045,13.0518761 19.0852403,13.6877069 C19.5201155,14.3236773 20.3880529,14.4865392 21.0237685,14.0519153 C31.5517104,6.85684752 45.7493131,8.1891642 54.7822494,17.2197754 C59.8006092,22.2368435 62.5643962,28.9073509 62.5643962,36.0024426 C62.5643962,43.0976738 59.8007487,49.7680417 54.7823888,54.7851099 C49.7640289,59.8021781 43.0918042,62.5651142 35.9948857,62.5651142 C28.8979672,62.5651142 22.2257425,59.8021781 17.2073826,54.7851099 C8.26761399,45.8477818 6.87149431,31.7479532 13.8875188,21.2588352 C14.3156993,20.6186818 14.1437297,19.7527806 13.5034115,19.3247102 C12.8630933,18.8965004 11.9969691,19.0685652 11.5687885,19.7087186 C3.81509402,31.3005012 5.35696247,46.8817042 15.2349625,56.7571617 C20.78011,62.3007424 28.1527657,65.3538462 35.9948857,65.3538462 C43.8370057,65.3538462 51.2096614,62.3007424 56.7548089,56.7570222 C62.2999564,51.213302 65.3538462,43.8425441 65.3538462,36.0024426 C65.3538462,28.1623411 62.2999564,20.7915832 56.7548089,15.247863 Z" id="XMLID_55_"></path>
                            <path d="M15.4917633,17.7230769 C15.7724328,17.7230769 16.0531024,17.6153894 16.2664156,17.4001238 L16.2896682,17.3767277 L16.2963275,17.3700587 C16.7231722,16.9436819 16.7207705,16.2547006 16.2949083,15.8272305 C15.8691552,15.3997603 15.174741,15.4021656 14.747787,15.8285424 L14.7170018,15.8594821 C14.2922312,16.2879361 14.2946329,16.9801972 14.7224602,17.4055902 C14.9355551,17.617248 15.2137138,17.7230769 15.4917633,17.7230769 Z" id="XMLID_54_"></path>
                            <path d="M59.300037,37.6615385 C60.1964419,37.6615385 60.9230769,37.1656246 60.9230769,36.5538462 C60.9230769,35.9420677 60.1964419,35.4461538 59.300037,35.4461538 L57.0076553,35.4461538 C56.1112504,35.4461538 55.3846154,35.9420677 55.3846154,36.5538462 C55.3846154,37.1656246 56.1112504,37.6615385 57.0076553,37.6615385 L59.300037,37.6615385 Z" id="XMLID_53_"></path>
                            <path d="M13.8076553,35.4461538 C12.9112504,35.4461538 12.1846154,35.9420677 12.1846154,36.5538462 C12.1846154,37.1656246 12.9112504,37.6615385 13.8076553,37.6615385 L16.100037,37.6615385 C16.9964419,37.6615385 17.7230769,37.1656246 17.7230769,36.5538462 C17.7230769,35.9420677 16.9964419,35.4461538 16.100037,35.4461538 L13.8076553,35.4461538 L13.8076553,35.4461538 Z" id="XMLID_52_"></path>
                            <path d="M35.4461538,57.0076553 L35.4461538,59.300037 C35.4461538,60.1964419 35.9420677,60.9230769 36.5538462,60.9230769 C37.1656246,60.9230769 37.6615385,60.1964419 37.6615385,59.300037 L37.6615385,57.0076553 C37.6615385,56.1112504 37.1656246,55.3846154 36.5538462,55.3846154 C35.9420677,55.3846154 35.4461538,56.1114127 35.4461538,57.0076553 Z" id="XMLID_51_"></path>
                            <path d="M37.6615385,16.0999894 L37.6615385,13.8077029 C37.6615385,12.9112717 37.1656246,12.1846154 36.5538462,12.1846154 C35.9420677,12.1846154 35.4461538,12.9112717 35.4461538,13.8077029 L35.4461538,16.0999894 C35.4461538,16.9964206 35.9420677,17.7230769 36.5538462,17.7230769 C37.1656246,17.7230769 37.6615385,16.9964206 37.6615385,16.0999894 Z" id="XMLID_50_"></path>
                            <path d="M54.8764538,44.0822706 C53.5499805,47.3334413 51.4214568,50.2148349 48.7212725,52.4148956 C48.547172,52.5567571 48.3685457,52.6974826 48.1902023,52.833238 C47.5680511,53.3073878 47.4462797,54.1981759 47.918515,54.8228494 C48.1967081,55.1909226 48.6190185,55.3846154 49.0462789,55.3846154 C49.3441308,55.3846154 49.6445285,55.290467 49.9002342,55.0957802 C50.1027621,54.9414224 50.3057144,54.7815264 50.5037166,54.6203524 C53.571195,52.1209483 55.988519,48.849187 57.4940429,45.1587993 C57.7901976,44.4331613 57.4442595,43.6037187 56.72141,43.3065053 C55.9982777,43.0088659 55.1723256,43.3564905 54.8764538,44.0822706 Z" id="XMLID_49_"></path>
                            <path d="M44.265223,57.6 C44.4027568,57.6 44.5425261,57.5725618 44.6771858,57.5146366 L44.7673492,57.4756569 C45.3083299,57.2402543 45.5602978,56.600791 45.3301522,56.0474532 C45.1000065,55.4941155 44.4750366,55.2363921 43.9338431,55.4717947 L43.8523021,55.5070724 C43.3103635,55.7400797 43.0556278,56.3783453 43.2834315,56.9326629 C43.4546037,57.3493539 43.8495344,57.6 44.265223,57.6 Z" id="XMLID_48_"></path>
                            <path d="M20.3645957,51.6336821 C20.6487578,51.9189684 21.0210932,52.0615385 21.3934286,52.0615385 C21.765764,52.0615385 22.1382449,51.9189684 22.4222616,51.6336821 L33.8050445,40.20587 C34.617664,40.6775492 35.5591967,40.9489583 36.5632946,40.9489583 C39.6119633,40.9489583 42.0923077,38.4588019 42.0923077,35.398073 C42.0923077,32.337344 39.6119633,29.8471877 36.5632946,29.8471877 C35.5663262,29.8471877 34.6309045,30.1147988 33.8223591,30.5803427 L28.0618549,24.7970506 C27.4936761,24.2266241 26.5723679,24.2266241 26.0040435,24.7970506 C25.4357192,25.3674771 25.4358647,26.2924299 26.0040435,26.8630025 L31.7645477,32.6462946 C31.3008381,33.4580385 31.0342815,34.3971607 31.0342815,35.398073 C31.0342815,36.3919736 31.2970551,37.3248145 31.7546537,38.1326143 L20.3645957,49.5677302 C19.7964168,50.1383028 19.7964168,51.0632556 20.3645957,51.6336821 Z M39.1823008,35.398073 C39.1823008,36.8478765 38.0073855,38.0274397 36.5632946,38.0274397 C35.1192037,38.0274397 33.9442884,36.8478765 33.9442884,35.398073 C33.9442884,33.9482694 35.1192037,32.7687062 36.5632946,32.7687062 C38.0073855,32.7687062 39.1823008,33.9482694 39.1823008,35.398073 Z" id="XMLID_44_"></path>
                        </g>
                    </g>
                </g>
            </g>
        </g>
    </g>
</svg>