<?xml version="1.0" encoding="UTF-8"?>
<svg width="72px" height="72px" viewBox="0 0 72 72" version="1.1" xmlns="http://www.w3.org/2000/svg" xmlns:xlink="http://www.w3.org/1999/xlink">
    <!-- Generator: Sketch 58 (84663) - https://sketch.com -->
    <title>methodic_approach</title>
    <desc>Created with Sketch.</desc>
    <g id="UI-Final" stroke="none" stroke-width="1" fill="none" fill-rule="evenodd">
        <g id="bp-ui-program-overview" transform="translate(-932.000000, -6263.000000)" fill="#2D8EF6" fill-rule="nonzero">
            <g id="Benefits" transform="translate(162.000000, 6119.000000)">
                <g id="2" transform="translate(770.000000, 144.000000)">
                    <g id="cover">
                        <g id="methodic_approach">
                            <path d="M72,34.8387097 L72,0 L23.2258065,0 L23.2258065,11.6129032 L16.7922581,11.6129032 C17.900129,10.3784516 18.5806452,8.75380645 18.5806452,6.96774194 C18.5806452,3.12503226 15.4556129,0 11.6129032,0 C7.77019355,0 4.64516129,3.12503226 4.64516129,6.96774194 C4.64516129,9.05341935 5.57070968,10.9230968 7.02696774,12.2005161 C2.94387097,13.6230968 0,17.5018065 0,22.0645161 L0,25.5483871 C0,28.1101935 2.08335484,30.1935484 4.64516129,30.1935484 L4.64516129,42.3870968 C4.64516129,43.0130323 4.7996129,43.5994839 5.05277419,44.1290323 L0,44.1290323 L0,53.4193548 L5.0516129,53.4193548 C4.79380645,54.1474839 4.64516129,54.9267097 4.64516129,55.7419355 C4.64516129,57.8276129 5.57070968,59.6972903 7.02696774,60.9747097 C2.94387097,62.3972903 0,66.276 0,70.8387097 L0,72 L20.9032258,72 L23.2258065,72 L41.8064516,72 L44.1290323,72 L65.0322581,72 L65.0322581,70.8387097 C65.0322581,66.276 62.0883871,62.3972903 58.0052903,60.9747097 C59.4615484,59.6972903 60.3870968,57.8276129 60.3870968,55.7419355 C60.3870968,54.9267097 60.2384516,54.1474839 59.9806452,53.4193548 L72,53.4193548 L72,44.1290323 L64.5282581,44.1290323 L58.9540645,34.8387097 L72,34.8387097 Z M25.5483871,2.32258065 L69.6774194,2.32258065 L69.6774194,32.516129 L25.5483871,32.516129 L25.5483871,18.5806452 L29.0322581,18.5806452 C30.5442581,18.5806452 31.8216774,17.6063226 32.3024516,16.2580645 L46.4516129,16.2580645 L46.4516129,4.64516129 L27.8709677,4.64516129 L27.8709677,11.6129032 L25.5483871,11.6129032 L25.5483871,2.32258065 Z M18.1730323,44.1290323 C18.4261935,43.5994839 18.5806452,43.0130323 18.5806452,42.3870968 L18.5806452,18.5806452 L23.2258065,18.5806452 L23.2258065,34.8387097 L36.2717419,34.8387097 L30.6975484,44.1290323 L18.1730323,44.1290323 Z M38.979871,34.8387097 L42.0781935,34.8387097 L36.504,44.1290323 L33.4056774,44.1290323 L38.979871,34.8387097 Z M44.1290323,35.9349677 L44.1290323,44.1290323 L39.212129,44.1290323 L44.1290323,35.9349677 Z M46.4516129,34.8387097 L48.7741935,34.8387097 L48.7741935,44.1290323 L46.4516129,44.1290323 L46.4516129,34.8387097 Z M51.0967742,35.9349677 L56.0136774,44.1290323 L51.0967742,44.1290323 L51.0967742,35.9349677 Z M32.3024516,13.9354839 C31.9517419,12.951871 31.1771613,12.1772903 30.1935484,11.8265806 L30.1935484,6.96774194 L44.1290323,6.96774194 L44.1290323,13.9354839 L32.3024516,13.9354839 Z M11.6129032,2.32258065 C14.1747097,2.32258065 16.2580645,4.40593548 16.2580645,6.96774194 C16.2580645,9.52954839 14.1747097,11.6129032 11.6129032,11.6129032 C9.05109677,11.6129032 6.96774194,9.52954839 6.96774194,6.96774194 C6.96774194,4.40593548 9.05109677,2.32258065 11.6129032,2.32258065 Z M6.96774194,42.3870968 L6.96774194,22.0645161 L4.64516129,22.0645161 L4.64516129,27.8709677 C3.36425806,27.8709677 2.32258065,26.8292903 2.32258065,25.5483871 L2.32258065,22.0645161 C2.32258065,17.5819355 5.96903226,13.9354839 10.4516129,13.9354839 L29.0322581,13.9354839 C29.672129,13.9354839 30.1935484,14.4569032 30.1935484,15.0967742 C30.1935484,15.7366452 29.672129,16.2580645 29.0322581,16.2580645 L16.2580645,16.2580645 L16.2580645,42.3870968 C16.2580645,43.3474839 15.4765161,44.1290323 14.516129,44.1290323 C13.5557419,44.1290323 12.7741935,43.3474839 12.7741935,42.3870968 L12.7741935,26.7096774 L10.4516129,26.7096774 L10.4516129,42.3870968 C10.4516129,43.3474839 9.67006452,44.1290323 8.70967742,44.1290323 C7.74929032,44.1290323 6.96774194,43.3474839 6.96774194,42.3870968 Z M11.6129032,51.0967742 C14.1747097,51.0967742 16.2580645,53.180129 16.2580645,55.7419355 C16.2580645,58.3037419 14.1747097,60.3870968 11.6129032,60.3870968 C9.05109677,60.3870968 6.96774194,58.3037419 6.96774194,55.7419355 C6.96774194,53.180129 9.05109677,51.0967742 11.6129032,51.0967742 Z M2.40503226,69.6774194 C2.97058065,65.7429677 6.36270968,62.7096774 10.4516129,62.7096774 L12.7741935,62.7096774 C16.8630968,62.7096774 20.2552258,65.7429677 20.8207742,69.6774194 L2.40503226,69.6774194 Z M16.1988387,60.9747097 C17.6550968,59.6972903 18.5806452,57.8276129 18.5806452,55.7419355 C18.5806452,54.9267097 18.432,54.1474839 18.1741935,53.4193548 L25.9548387,53.4193548 C25.6970323,54.1474839 25.5483871,54.9267097 25.5483871,55.7419355 C25.5483871,57.8276129 26.4739355,59.6972903 27.9301935,60.9747097 C25.3834839,61.8619355 23.2850323,63.7014194 22.0645161,66.0716129 C20.8428387,63.7014194 18.7443871,61.8619355 16.1988387,60.9747097 L16.1988387,60.9747097 Z M37.1612903,55.7419355 C37.1612903,58.3037419 35.0779355,60.3870968 32.516129,60.3870968 C29.9543226,60.3870968 27.8709677,58.3037419 27.8709677,55.7419355 C27.8709677,53.180129 29.9543226,51.0967742 32.516129,51.0967742 C35.0779355,51.0967742 37.1612903,53.180129 37.1612903,55.7419355 Z M23.3082581,69.6774194 C23.8738065,65.7429677 27.2659355,62.7096774 31.3548387,62.7096774 L33.6774194,62.7096774 C37.7663226,62.7096774 41.1584516,65.7429677 41.724,69.6774194 L23.3082581,69.6774194 Z M37.1020645,60.9747097 C38.5583226,59.6972903 39.483871,57.8276129 39.483871,55.7419355 C39.483871,54.9267097 39.3352258,54.1474839 39.0774194,53.4193548 L46.8580645,53.4193548 C46.6002581,54.1474839 46.4516129,54.9267097 46.4516129,55.7419355 C46.4516129,57.8276129 47.3771613,59.6972903 48.8334194,60.9747097 C46.2867097,61.8619355 44.1882581,63.7014194 42.9677419,66.0716129 C41.7460645,63.7014194 39.6476129,61.8619355 37.1020645,60.9747097 Z M54.5806452,62.7096774 C58.6695484,62.7096774 62.0616774,65.7429677 62.6272258,69.6774194 L44.2114839,69.6774194 C44.7770323,65.7429677 48.1691613,62.7096774 52.2580645,62.7096774 L54.5806452,62.7096774 Z M53.4193548,60.3870968 C50.8575484,60.3870968 48.7741935,58.3037419 48.7741935,55.7419355 C48.7741935,53.180129 50.8575484,51.0967742 53.4193548,51.0967742 C55.9811613,51.0967742 58.0645161,53.180129 58.0645161,55.7419355 C58.0645161,58.3037419 55.9811613,60.3870968 53.4193548,60.3870968 Z M69.6774194,51.0967742 L58.5987097,51.0967742 C57.3224516,49.6753548 55.4771613,48.7741935 53.4193548,48.7741935 C51.3615484,48.7741935 49.5174194,49.6753548 48.24,51.0967742 L37.6954839,51.0967742 C36.4192258,49.6753548 34.5739355,48.7741935 32.516129,48.7741935 C30.4583226,48.7741935 28.6141935,49.6753548 27.3367742,51.0967742 L16.7922581,51.0967742 C15.516,49.6753548 13.6707097,48.7741935 11.6129032,48.7741935 C9.55509677,48.7741935 7.71096774,49.6753548 6.43354839,51.0967742 L2.32258065,51.0967742 L2.32258065,46.4516129 L69.6774194,46.4516129 L69.6774194,51.0967742 Z M61.820129,44.1290323 L58.7218065,44.1290323 L53.1476129,34.8387097 L56.2459355,34.8387097 L61.820129,44.1290323 Z" id="Shape"></path>
                            <polygon id="Path" points="46 25.4285714 46 27.7142857 43.6666667 27.7142857 43.6666667 18.5714286 41.3333333 18.5714286 41.3333333 27.7142857 39 27.7142857 39 30 67 30 67 14 64.6666667 14 64.6666667 27.7142857 62.3333333 27.7142857 62.3333333 16.2857143 60 16.2857143 60 27.7142857 57.6666667 27.7142857 57.6666667 23.1428571 55.3333333 23.1428571 55.3333333 27.7142857 53 27.7142857 53 20.8571429 50.6666667 20.8571429 50.6666667 27.7142857 48.3333333 27.7142857 48.3333333 25.4285714"></polygon>
                            <path d="M50.9095216,5.6111742 C50.704355,5.11059478 50.1269899,4.86933808 49.6194119,5.07145172 C49.1122153,5.27394172 48.8673881,5.84377433 49.0725548,6.34473021 L49.0904783,6.38876612 C49.2464508,6.76928182 49.6175052,7 50.0095337,7 C50.1330915,7 50.2589372,6.97704112 50.3805881,6.9284886 C50.8877847,6.72599861 51.1326119,6.15578963 50.9274452,5.65521021 L50.9095216,5.6111742 Z" id="Path"></path>
                            <rect id="Rectangle" x="55" y="5" width="13" height="2" rx="1"></rect>
                            <rect id="Rectangle" x="49" y="9" width="19" height="2" rx="1"></rect>
                            <path d="M29.9095216,23.6111742 C29.704355,23.1105948 29.1269899,22.8693381 28.6194119,23.0714517 C28.1122153,23.2739417 27.8673881,23.8437743 28.0725548,24.3447302 L28.0904783,24.3887661 C28.2464508,24.7692818 28.6175052,25 29.0095337,25 C29.1330915,25 29.2589372,24.9770411 29.3805881,24.9284886 C29.8877847,24.7259986 30.1326119,24.1557896 29.9274452,23.6552102 L29.9095216,23.6111742 Z" id="Path"></path>
                            <path d="M29.9095216,28.6111742 C29.704355,28.1105948 29.1269899,27.8693381 28.6194119,28.0714517 C28.1122153,28.2739417 27.8673881,28.8437743 28.0725548,29.3447302 L28.0904783,29.3887661 C28.2464508,29.7692818 28.6175052,30 29.0095337,30 C29.1330915,30 29.2589372,29.9770411 29.3805881,29.9284886 C29.8877847,29.7259986 30.1326119,29.1557896 29.9274452,28.6552102 L29.9095216,28.6111742 Z" id="Path"></path>
                        </g>
                    </g>
                </g>
            </g>
        </g>
    </g>
</svg>