<?xml version="1.0" encoding="UTF-8"?>
<svg width="74px" height="72px" viewBox="0 0 74 72" version="1.1" xmlns="http://www.w3.org/2000/svg" xmlns:xlink="http://www.w3.org/1999/xlink">
    <!-- Generator: Sketch 58 (84663) - https://sketch.com -->
    <title>student_portal</title>
    <desc>Created with Sketch.</desc>
    <g id="UI-Final" stroke="none" stroke-width="1" fill="none" fill-rule="evenodd">
        <g id="bp-ui-program-overview" transform="translate(-732.000000, -2904.000000)" fill="#FFC654" fill-rule="nonzero">
            <g id="Benefits" transform="translate(162.000000, 2472.000000)">
                <g id="1" transform="translate(570.000000, 432.000000)">
                    <g id="cover">
                        <g id="student_portal">
                            <path d="M38,33 C37.8215556,33 37.6443333,32.9591117 37.4793333,32.8786128 L16.7015556,22.6565325 C16.2737778,22.4457021 16,21.9946529 16,21.5001597 C16,21.0056666 16.2737778,20.5546173 16.7015556,20.3437869 L37.4793333,10.1217066 C37.8093333,9.95943112 38.1906667,9.95943112 38.5206667,10.1217066 L59.2984444,20.3437869 C59.7262222,20.5546173 60,21.0056666 60,21.5001597 C60,21.9946529 59.7262222,22.4457021 59.2984444,22.6565325 L38.5206667,32.8786128 C38.3556667,32.9591117 38.1784444,33 38,33 Z M20.0932222,21.5001597 L38,30.3103151 L55.9067778,21.5001597 L38,12.6900043 L20.0932222,21.5001597 Z" id="Shape"></path>
                            <path d="M38,42 C37.8116923,42 37.6221538,41.9552625 37.4498462,41.8657876 L22.6806154,34.1965058 C22.2633846,33.9792095 22,33.5369476 22,33.0525046 L22,23.278005 C22,22.840856 22.2153846,22.4331058 22.5710769,22.1991927 C22.9267692,21.9640014 23.3735385,21.9371589 23.7538462,22.1212217 L38,29.0836513 L52.2449231,22.1212217 C52.6264615,21.9358807 53.0732308,21.9640014 53.4276923,22.1991927 C53.7846154,22.4331058 54,22.840856 54,23.278005 L54,33.0525046 C54,33.5369476 53.7366154,33.9792095 53.3193846,34.1965058 L38.5501538,41.8657876 C38.3778462,41.9552625 38.1883077,42 38,42 L38,42 Z M24.4615385,32.2625686 L38,39.2927435 L51.5384615,32.2625686 L51.5384615,25.2924697 L38.5243077,31.6528607 C38.192,31.8151938 37.808,31.8151938 37.4756923,31.6528607 L24.4615385,25.2924697 L24.4615385,32.2625686 Z" id="Shape"></path>
                            <path d="M58.7368421,23 L37.2631579,23 C36.5658947,23 36,22.552 36,22 C36,21.448 36.5658947,21 37.2631579,21 L58.7368421,21 C59.4341053,21 60,21.448 60,22 C60,22.552 59.4341053,23 58.7368421,23 Z" id="Path"></path>
                            <path d="M58,33 C57.448,33 57,32.4705455 57,31.8181818 L57,21.1818182 C57,20.5294545 57.448,20 58,20 C58.552,20 59,20.5294545 59,21.1818182 L59,31.8181818 C59,32.4705455 58.552,33 58,33 Z" id="Path"></path>
                            <path d="M37,25 C36.448,25 36,24.4773333 36,23.8333333 L36,19.1666667 C36,18.5226667 36.448,18 37,18 C37.552,18 38,18.5226667 38,19.1666667 L38,23.8333333 C38,24.4773333 37.552,25 37,25 Z" id="Path"></path>
                            <path d="M56.2486701,37 C56.0111549,37 55.7698895,36.9352131 55.5561259,36.7984408 C54.9823392,36.4313152 54.8273293,35.6862661 55.2098537,35.1343779 L57.7100134,31.5351069 C58.0925378,30.9832187 58.8675873,30.8332491 59.4438741,31.2027743 C60.0176608,31.5698999 60.1726707,32.314949 59.7901463,32.8668372 L57.2899866,36.4661081 C57.0487212,36.8128379 56.6524459,37 56.2486701,37 Z" id="Path"></path>
                            <path d="M60.7513299,37 C60.3475541,37 59.9512788,36.8128379 59.7100134,36.4661081 L57.2098537,32.8668372 C56.8273293,32.3161487 56.9823392,31.5698999 57.5561259,31.2027743 C58.1299125,30.8332491 58.9062121,30.9832187 59.2899866,31.5351069 L61.7901463,35.1343779 C62.1726707,35.6850663 62.0176608,36.4313152 61.4438741,36.7984408 C61.2301105,36.9352131 60.9888451,37 60.7513299,37 Z" id="Path"></path>
                            <path d="M37,36 C36.448,36 36,35.4624 36,34.8 L36,31.2 C36,30.5376 36.448,30 37,30 C37.552,30 38,30.5376 38,31.2 L38,34.8 C38,35.4624 37.552,36 37,36 Z" id="Path"></path>
                            <path d="M72.7666667,47 L1.23333333,47 C0.552533333,47 0,46.4458947 0,45.7631579 L0,4.94860526 C0,2.22013158 2.21383333,0 4.93456667,0 L69.0654333,0 C71.7861667,0 74,2.22013158 74,4.94860526 L74,45.7631579 C74,46.4458947 73.4474667,47 72.7666667,47 L72.7666667,47 Z M2.46666667,44.5263158 L71.5333333,44.5263158 L71.5333333,4.94860526 C71.5333333,3.58313158 70.4270333,2.47368421 69.0654333,2.47368421 L4.93456667,2.47368421 C3.57296667,2.47368421 2.46666667,3.58313158 2.46666667,4.94860526 L2.46666667,44.5263158 Z" id="Shape"></path>
                            <path d="M69.0654333,56 L4.93456667,56 C2.21383333,56 0,53.846 0,51.1988 L0,45.2 C0,44.5376 0.552533333,44 1.23333333,44 L72.7666667,44 C73.4474667,44 74,44.5376 74,45.2 L74,51.1988 C74,53.846 71.7861667,56 69.0654333,56 Z M2.46666667,46.4 L2.46666667,51.1988 C2.46666667,52.5236 3.57296667,53.6 4.93456667,53.6 L69.0654333,53.6 C70.4270333,53.6 71.5333333,52.5236 71.5333333,51.1988 L71.5333333,46.4 L2.46666667,46.4 Z" id="Shape"></path>
                            <path d="M40.75,51 L33.25,51 C32.56,51 32,50.552 32,50 C32,49.448 32.56,49 33.25,49 L40.75,49 C41.44,49 42,49.448 42,50 C42,50.552 41.44,51 40.75,51 Z" id="Path"></path>
                            <path d="M67.7692308,47 L6.23076923,47 C5.55138462,47 5,46.4465882 5,45.7647059 L5,6.23529412 C5,5.55341176 5.55138462,5 6.23076923,5 L67.7692308,5 C68.4486154,5 69,5.55341176 69,6.23529412 L69,45.7647059 C69,46.4465882 68.4486154,47 67.7692308,47 Z M7.46153846,44.5294118 L66.5384615,44.5294118 L66.5384615,7.47058824 L7.46153846,7.47058824 L7.46153846,44.5294118 Z" id="Shape"></path>
                            <path d="M53.34375,72 L21.65625,72 C19.6404375,72 18,70.4296667 18,68.5 C18,66.5703333 19.6404375,65 21.65625,65 L53.34375,65 C55.3595625,65 57,66.5703333 57,68.5 C57,70.4296667 55.3595625,72 53.34375,72 Z M21.65625,67.3333333 C20.9847188,67.3333333 20.4375,67.8571667 20.4375,68.5 C20.4375,69.1428333 20.9847188,69.6666667 21.65625,69.6666667 L53.34375,69.6666667 C54.0152812,69.6666667 54.5625,69.1428333 54.5625,68.5 C54.5625,67.8571667 54.0152812,67.3333333 53.34375,67.3333333 L21.65625,67.3333333 Z" id="Shape"></path>
                            <path d="M51.75,67 L24.25,67 C23.56,67 23,66.4624 23,65.8 C23,65.1376 23.56,64.6 24.25,64.6 C28.3975,64.6 30.5,61.774 30.5,56.2 C30.5,55.5376 31.06,55 31.75,55 L44.25,55 C44.94,55 45.5,55.5376 45.5,56.2 C45.5,61.774 47.6025,64.6 51.75,64.6 C52.44,64.6 53,65.1376 53,65.8 C53,66.4624 52.44,67 51.75,67 Z M30.33875,64.6 L45.6625,64.6 C44.1225,62.9632 43.21625,60.526 43.035,57.4 L32.96625,57.4 C32.78375,60.526 31.87875,62.9632 30.33875,64.6 Z" id="Shape"></path>
                        </g>
                    </g>
                </g>
            </g>
        </g>
    </g>
</svg>