<?xml version="1.0" encoding="UTF-8"?>
<svg width="72px" height="72px" viewBox="0 0 72 72" version="1.1" xmlns="http://www.w3.org/2000/svg" xmlns:xlink="http://www.w3.org/1999/xlink">
    <!-- Generator: Sketch 58 (84663) - https://sketch.com -->
    <title>materials</title>
    <desc>Created with Sketch.</desc>
    <g id="UI-Final" stroke="none" stroke-width="1" fill="none" fill-rule="evenodd">
        <g id="bp-ui-program-overview" transform="translate(-162.000000, -3480.000000)" fill="#2D8EF6" fill-rule="nonzero">
            <g id="Benefits" transform="translate(162.000000, 2472.000000)">
                <g id="1" transform="translate(0.000000, 1008.000000)">
                    <g id="cover">
                        <g id="materials">
                            <path d="M32,7 L32,18 L43,12.5 L32,7 Z M33.9579922,10.1680313 L38.6219295,12.5 L33.9579922,14.8319687 L33.9579922,10.1680313 Z" id="Shape"></path>
                            <path d="M68.516129,11.6129032 L48.7149677,11.6129032 C48.1261935,5.112 42.651871,0 36,0 C29.348129,0 23.8738065,5.112 23.2850323,11.6129032 L3.48387097,11.6129032 C1.56309677,11.6129032 0,13.176 0,15.0967742 L0,68.516129 C0,70.4369032 1.56309677,72 3.48387097,72 L68.516129,72 C70.4369032,72 72,70.4369032 72,68.516129 L72,15.0967742 C72,13.176 70.4369032,11.6129032 68.516129,11.6129032 Z M36,2.32258065 C41.7634839,2.32258065 46.4516129,7.01070968 46.4516129,12.7741935 C46.4516129,18.5376774 41.7634839,23.2258065 36,23.2258065 C30.2365161,23.2258065 25.5483871,18.5376774 25.5483871,12.7741935 C25.5483871,7.01070968 30.2365161,2.32258065 36,2.32258065 Z M3.48387097,13.9354839 L23.2850323,13.9354839 C23.8738065,20.4363871 29.348129,25.5483871 36,25.5483871 C42.651871,25.5483871 48.1261935,20.4363871 48.7149677,13.9354839 L68.516129,13.9354839 C69.1571613,13.9354839 69.6774194,14.4557419 69.6774194,15.0967742 L69.6774194,51.0967742 L32.516129,51.0967742 L32.516129,42.9677419 C32.516129,37.8824516 28.863871,33.6390968 24.0456774,32.7100645 C25.6772903,31.2224516 26.7096774,29.0868387 26.7096774,26.7096774 C26.7096774,22.2282581 23.0620645,18.5806452 18.5806452,18.5806452 C14.0992258,18.5806452 10.4516129,22.2282581 10.4516129,26.7096774 C10.4516129,29.0868387 11.484,31.2224516 13.1156129,32.7100645 C8.29741935,33.6390968 4.64516129,37.8824516 4.64516129,42.9677419 L4.64516129,51.0967742 L2.32258065,51.0967742 L2.32258065,15.0967742 C2.32258065,14.4557419 2.84283871,13.9354839 3.48387097,13.9354839 Z M24.3870968,39.483871 L24.3870968,51.0967742 L12.7741935,51.0967742 L12.7741935,39.483871 L10.4516129,39.483871 L10.4516129,51.0967742 L6.96774194,51.0967742 L6.96774194,42.9677419 C6.96774194,38.4863226 10.6153548,34.8387097 15.0967742,34.8387097 L15.9178065,34.8387097 L15.0538065,44.5668387 L18.5806452,48.0936774 L22.1074839,44.5668387 L21.2423226,34.8387097 L22.0645161,34.8387097 C26.5459355,34.8387097 30.1935484,38.4863226 30.1935484,42.9677419 L30.1935484,51.0967742 L26.7096774,51.0967742 L26.7096774,39.483871 L24.3870968,39.483871 Z M19.6989677,43.6912258 L18.5806452,44.8095484 L17.4623226,43.6912258 L18.2496774,34.8387097 L18.5806452,34.8387097 L18.9116129,34.8387097 L19.6989677,43.6912258 Z M18.5806452,32.516129 C15.3789677,32.516129 12.7741935,29.9113548 12.7741935,26.7096774 C12.7741935,23.508 15.3789677,20.9032258 18.5806452,20.9032258 C21.7823226,20.9032258 24.3870968,23.508 24.3870968,26.7096774 C24.3870968,29.9113548 21.7823226,32.516129 18.5806452,32.516129 Z M68.516129,69.6774194 L3.48387097,69.6774194 C2.84283871,69.6774194 2.32258065,69.1571613 2.32258065,68.516129 L2.32258065,53.4193548 L69.6774194,53.4193548 L69.6774194,68.516129 C69.6774194,69.1571613 69.1571613,69.6774194 68.516129,69.6774194 Z" id="Shape"></path>
                            <circle id="Oval" cx="22.5" cy="62" r="1"></circle>
                            <path d="M64.5,58.4 L27.1363333,58.4 C26.07,56.9516 24.397,56 22.5,56 C20.603,56 18.9288333,56.9516 17.8636667,58.4 L8.5,58.4 C6.57033333,58.4 5,60.0152 5,62 C5,63.9848 6.57033333,65.6 8.5,65.6 L17.8636667,65.6 C18.93,67.0484 20.603,68 22.5,68 C24.397,68 26.0711667,67.0484 27.1363333,65.6 L64.5,65.6 C66.4296667,65.6 68,63.9848 68,62 C68,60.0152 66.4296667,58.4 64.5,58.4 Z M8.5,63.2 C7.856,63.2 7.33333333,62.6624 7.33333333,62 C7.33333333,61.3376 7.856,60.8 8.5,60.8 L16.7845,60.8 C16.7075,61.1876 16.6666667,61.5896 16.6666667,62 C16.6666667,62.4104 16.7075,62.8124 16.7845,63.2 L8.5,63.2 Z M22.5,65.6 C20.5703333,65.6 19,63.9848 19,62 C19,60.0152 20.5703333,58.4 22.5,58.4 C24.4296667,58.4 26,60.0152 26,62 C26,63.9848 24.4296667,65.6 22.5,65.6 Z M64.5,63.2 L28.2155,63.2 C28.2925,62.8124 28.3333333,62.4104 28.3333333,62 C28.3333333,61.5896 28.2925,61.1876 28.2155,60.8 L64.5,60.8 C65.144,60.8 65.6666667,61.3376 65.6666667,62 C65.6666667,62.6624 65.144,63.2 64.5,63.2 Z" id="Shape"></path>
                            <path d="M45.5454545,49 L64.4545455,49 C66.4092727,49 68,47.4296667 68,45.5 L68,31.5 C68,29.5703333 66.4092727,28 64.4545455,28 L45.5454545,28 C43.5907273,28 42,29.5703333 42,31.5 L42,45.5 C42,47.4296667 43.5907273,49 45.5454545,49 Z M44.3636364,31.5 C44.3636364,30.856 44.8930909,30.3333333 45.5454545,30.3333333 L64.4545455,30.3333333 C65.1069091,30.3333333 65.6363636,30.856 65.6363636,31.5 L65.6363636,45.5 C65.6363636,46.144 65.1069091,46.6666667 64.4545455,46.6666667 L45.5454545,46.6666667 C44.8930909,46.6666667 44.3636364,46.144 44.3636364,45.5 L44.3636364,31.5 Z" id="Shape"></path>
                            <rect id="Rectangle" x="46" y="33" width="16" height="2" rx="1"></rect>
                            <rect id="Rectangle" x="46" y="37.5" width="16" height="2" rx="1"></rect>
                            <path d="M62.9095216,42.6111742 C62.704355,42.1105948 62.1269899,41.8693381 61.6194119,42.0714517 C61.1122153,42.2739417 60.8673881,42.8437743 61.0725548,43.3447302 L61.0904783,43.3887661 C61.2464508,43.7692818 61.6175052,44 62.0095337,44 C62.1330915,44 62.2589372,43.9770411 62.3805881,43.9284886 C62.8877847,43.7259986 63.1326119,43.1557896 62.9274452,42.6552102 L62.9095216,42.6111742 Z" id="Path"></path>
                            <rect id="Rectangle" x="46" y="42" width="11" height="2" rx="1"></rect>
                            <path d="M6.90952165,16.6111742 C6.70435496,16.1105948 6.12698987,15.8693381 5.61941191,16.0714517 C5.11221528,16.2739417 4.86738811,16.8437743 5.0725548,17.3447302 L5.09047831,17.3887661 C5.24645077,17.7692818 5.61750519,18 6.00953372,18 C6.13309149,18 6.25893721,17.9770411 6.38058814,17.9284886 C6.88778468,17.7259986 7.13261195,17.1557896 6.92744516,16.6552102 L6.90952165,16.6111742 Z" id="Path"></path>
                            <path d="M6.90952165,21.6111742 C6.70435496,21.1105948 6.12698987,20.8693381 5.61941191,21.0714517 C5.11221528,21.2739417 4.86738811,21.8437743 5.0725548,22.3447302 L5.09047831,22.3887661 C5.24645077,22.7692818 5.61750519,23 6.00953372,23 C6.13309149,23 6.25893721,22.9770411 6.38058814,22.9284886 C6.88778468,22.7259986 7.13261195,22.1557896 6.92744516,21.6552102 L6.90952165,21.6111742 Z" id="Path"></path>
                            <path d="M6.90952165,26.6111742 C6.70435496,26.1105948 6.12698987,25.8693381 5.61941191,26.0714517 C5.11221528,26.2739417 4.86738811,26.8437743 5.0725548,27.3447302 L5.09047831,27.3887661 C5.24645077,27.7692818 5.61750519,28 6.00953372,28 C6.13309149,28 6.25893721,27.9770411 6.38058814,27.9284886 C6.88778468,27.7259986 7.13261195,27.1557896 6.92744516,26.6552102 L6.90952165,26.6111742 Z" id="Path"></path>
                        </g>
                    </g>
                </g>
            </g>
        </g>
    </g>
</svg>