<?xml version="1.0" encoding="UTF-8"?>
<svg width="72px" height="72px" viewBox="0 0 72 72" version="1.1" xmlns="http://www.w3.org/2000/svg" xmlns:xlink="http://www.w3.org/1999/xlink">
    <!-- Generator: Sketch 58 (84663) - https://sketch.com -->
    <title>quizzes</title>
    <desc>Created with Sketch.</desc>
    <g id="UI-Final" stroke="none" stroke-width="1" fill="none" fill-rule="evenodd">
        <g id="bp-ui-program-overview" transform="translate(-732.000000, -3480.000000)" fill="#DE3C7D" fill-rule="nonzero">
            <g id="Benefits" transform="translate(162.000000, 2472.000000)">
                <g id="3" transform="translate(570.000000, 1008.000000)">
                    <g id="cover">
                        <g id="quizzes">
                            <path d="M70.5808125,61.0568714 C69.7967705,61.0568714 69.1610756,61.6933044 69.1610756,62.4777068 L69.1610756,67.5625706 C69.1610756,68.4415855 68.4468117,69.1572289 67.5682671,69.1572289 L37.356552,69.1572289 L37.356552,59.9028206 L39.837795,59.9028206 C43.7299839,59.9028206 46.8958212,56.7327567 46.8958212,52.8365982 C46.8958212,48.9404395 43.7299839,45.7703756 39.837795,45.7703756 L37.356552,45.7703756 L37.356552,37.470892 L48.3194042,37.470892 C49.1028967,37.470892 49.7385917,36.834459 49.7385917,36.0495065 L49.7385917,32.1439966 C49.7385917,29.8474467 51.5786453,27.9733521 53.8598944,27.9210953 C56.1411434,27.9733521 57.9811971,29.8474467 57.9811971,32.1439966 L57.9811971,36.0495065 C57.9811971,36.834459 58.6163426,37.470892 59.4003846,37.470892 L69.1610756,37.470892 L69.1610756,51.1797817 C69.1610756,51.9647342 69.7967705,52.6011673 70.5808125,52.6011673 C71.3643052,52.6011673 72,51.9647342 72,51.1797817 L72,36.0495065 C72,35.8800843 71.9703306,35.7178131 71.9159367,35.5670935 L71.9159367,4.43742937 C71.9159367,1.99070993 69.9275358,0 67.4836543,0 L4.51579626,0 C2.07191481,0 0.0840633329,1.99070993 0.0840633329,4.43742937 L0.0840633329,35.5670935 C0.0296694943,35.7178131 0,35.8800843 0,36.0495065 L0,67.5625706 C0,70.0092901 1.98840088,72 4.43173278,72 L35.8527518,72 C35.867037,72 35.8813222,72 35.8950582,71.9988998 C35.908794,72 35.9230793,72 35.9368152,72 L67.5682671,72 C70.0121485,72 72,70.0092901 72,67.5625706 L72,62.4777068 C72,61.6933044 71.3643052,61.0568714 70.5808125,61.0568714 Z M69.0770123,4.43742937 L69.0770123,34.6286709 L61.0157199,34.6286709 L61.0157199,32.1439966 C61.0157199,28.2478379 57.849333,25.0777741 53.9576937,25.0777741 C53.925277,25.0777741 53.892311,25.0783241 53.8598944,25.0783241 C53.8274778,25.0783241 53.7950613,25.0777741 53.7620951,25.0777741 C49.8704558,25.0777741 46.7046183,28.2478379 46.7046183,32.1439966 L46.7046183,34.6286709 L37.356552,34.6286709 L37.356552,24.1162484 C37.356552,23.3312961 36.720857,22.6948629 35.9368152,22.6948629 L32.0358353,22.6948629 C29.7095326,22.6948629 27.8167333,20.8004157 27.8167333,18.4714115 C27.8167333,16.1424074 29.7095326,14.24741 32.0358353,14.24741 L35.9368152,14.24741 C36.720857,14.24741 37.356552,13.611527 37.356552,12.8265747 L37.356552,2.8422211 L67.4842037,2.8422211 C68.3627484,2.8422211 69.0770123,3.5578645 69.0770123,4.43742937 Z M2.9229877,4.43742937 C2.9229877,3.5578645 3.63780101,2.8422211 4.51634565,2.8422211 L34.5176277,2.8422211 L34.5176277,11.4051891 L32.0358353,11.4051891 C28.1441958,11.4051891 24.9778089,14.5747028 24.9778089,18.4714115 C24.9778089,22.3675702 28.1441958,25.537084 32.0358353,25.537084 L34.5176277,25.537084 L34.5176277,34.6281209 L24.3855194,34.6281209 C23.6014774,34.6281209 22.9657825,35.2645539 22.9657825,36.0495065 L22.9657825,39.8945085 C22.9657825,42.2235125 21.0735326,44.1185099 18.7472299,44.1185099 C16.420378,44.1185099 14.5281279,42.2235125 14.5281279,39.8945085 L14.5281279,36.5324696 C14.5825219,36.3817498 14.6121914,36.2189286 14.6121914,36.0495065 C14.6121914,35.2645539 13.9764965,34.6286709 13.1924545,34.6286709 L2.9229877,34.6286709 L2.9229877,4.43742937 Z M2.83892437,67.5625706 L2.83892437,37.470892 L11.6892037,37.470892 L11.6892037,39.8945085 C11.6892037,43.7912171 14.855041,46.960731 18.7472299,46.960731 C22.6388694,46.960731 25.8047069,43.7912171 25.8047069,39.8945085 L25.8047069,37.470892 L34.5176277,37.470892 L34.5176277,47.1917611 C34.5176277,47.9767137 35.1533225,48.6125967 35.9373645,48.6125967 L39.8383444,48.6125967 C42.1646471,48.6125967 44.0568968,50.507594 44.0568968,52.8365982 C44.0568968,55.1656022 42.1646471,57.0605995 39.8383444,57.0605995 L35.9373645,57.0605995 C35.1533225,57.0605995 34.5176277,57.6970326 34.5176277,58.4819851 L34.5176277,69.1577789 L4.43173278,69.1577789 C3.55373768,69.1572289 2.83892437,68.4421355 2.83892437,67.5625706 L2.83892437,67.5625706 Z" id="Shape"></path>
                            <path d="M15,6.45970374 C15,5.65359022 14.3963127,5 13.6517479,5 L8.62867407,5 C7.17919866,5 6,6.27667587 6,7.8459703 L6,12.5408611 C6,13.3469746 6.60368714,14 7.34773021,14 C8.09229515,14 8.69598229,13.3469746 8.69598229,12.5408611 L8.69598229,7.91884262 L13.6517479,7.91884262 C14.3963127,7.91884262 15,7.26581726 15,6.45970374 Z" id="Path"></path>
                            <path d="M19.1396609,7.08606488 C19.3734627,7.65479844 19.9289574,8 20.516047,8 C20.7010203,8 20.8894405,7.96604561 21.0721161,7.89304402 C21.8321155,7.5902853 22.1986157,6.73803383 21.891284,5.9893427 L21.8602636,5.91407749 C21.5529321,5.16538636 20.6872335,4.80433963 19.9278086,5.10709835 C19.1683835,5.40985692 18.8013089,6.26210854 19.1086405,7.01079952 L19.1396609,7.08606488 Z" id="Path"></path>
                            <path d="M71.8605075,55.9139049 C71.5525833,55.1651518 70.6874083,54.8040752 69.9279385,55.1074249 C69.1678944,55.4102085 68.8013726,56.2625307 69.1087224,57.0112838 L69.1397445,57.0859893 C69.3735601,57.65477 69.9290876,58 70.5156371,58 C70.701196,58 70.8902016,57.965477 71.0723135,57.8930353 C71.8323577,57.5896856 72.1988794,56.7373636 71.8909552,55.9886104 L71.8605075,55.9139049 Z" id="Path"></path>
                        </g>
                    </g>
                </g>
            </g>
        </g>
    </g>
</svg>