<?xml version="1.0" encoding="UTF-8"?>
<svg width="110px" height="110px" viewBox="0 0 110 110" version="1.1" xmlns="http://www.w3.org/2000/svg" xmlns:xlink="http://www.w3.org/1999/xlink">
    <!-- Generator: Sketch 64 (93537) - https://sketch.com -->
    <title>cover</title>
    <desc>Created with Sketch.</desc>
    <g id="Page-1" stroke="none" stroke-width="1" fill="none" fill-rule="evenodd">
        <g id="bp-ui-Our-Achievers" transform="translate(-236.000000, -3040.000000)">
            <g id="about" transform="translate(0.000000, 730.000000)">
                <g id="students" transform="translate(0.000000, 308.000000)">
                    <g id="Nums" transform="translate(0.000000, 1752.000000)">
                        <g id="nums" transform="translate(171.000000, 250.000000)">
                            <g id="1">
                                <g id="cover" transform="translate(65.000000, 0.000000)">
                                    <circle id="Oval" fill="#DE3C7D" cx="55" cy="55" r="55"></circle>
                                    <path d="M40.5553914,66 L38.0531758,59.5768688 L27.8493353,59.5768688 L25.4121123,66 L22,66 L31.1639586,43 L34.8360414,43 L44,66 L40.5553914,66 Z M32.9672131,47 L29,57 L37,57 L32.9672131,47 Z M56.6451128,67 C53.4471018,67 50.7067783,65.9174668 48.4240602,63.7523681 C46.141342,61.5872693 45,58.6644298 45,54.9837618 C45,52.5155492 45.5734278,50.3504829 46.7203008,48.488498 C47.8671737,46.626513 49.3117707,45.2462832 51.0541353,44.3477673 C52.7964999,43.4492513 54.6601405,43 56.6451128,43 C59.2917426,43 61.5248029,43.6549326 63.3443609,44.9648173 C65.1639189,46.2747021 66.3714256,48.0554691 66.9669173,50.3071719 L63.956391,51.3464141 C63.515286,49.614335 62.6661717,48.2774066 61.4090226,47.3355886 C60.1518734,46.3937707 58.5639194,45.9228687 56.6451128,45.9228687 C54.351367,45.9228687 52.3884793,46.7185306 50.756391,48.3098782 C49.1243026,49.9012258 48.3082707,52.1258314 48.3082707,54.9837618 C48.3082707,57.8416922 49.1243026,60.0717105 50.756391,61.6738836 C52.3884793,63.2760567 54.351367,64.0771313 56.6451128,64.0771313 C58.5639194,64.0771313 60.1629009,63.5737533 61.4421053,62.5669824 C62.7213097,61.5602115 63.6145338,60.223283 64.1218045,58.556157 L67,59.5953992 C66.3603978,61.8254509 65.1308362,63.6170433 63.3112782,64.97023 C61.4917202,66.3234168 59.2696873,67 56.6451128,67 Z M88,45.9520451 L80.1276224,45.9520451 L80.1276224,66 L76.8723776,66 L76.8723776,45.9520451 L69,45.9520451 L69,43 L88,43 L88,45.9520451 Z" id="ACT" fill="#FFFFFF" fill-rule="nonzero"></path>
                                </g>
                            </g>
                        </g>
                    </g>
                </g>
            </g>
        </g>
    </g>
</svg>