<?xml version="1.0" encoding="UTF-8"?>
<svg width="110px" height="110px" viewBox="0 0 110 110" version="1.1" xmlns="http://www.w3.org/2000/svg" xmlns:xlink="http://www.w3.org/1999/xlink">
    <!-- Generator: Sketch 64 (93537) - https://sketch.com -->
    <title>cover</title>
    <desc>Created with Sketch.</desc>
    <g id="Page-1" stroke="none" stroke-width="1" fill="none" fill-rule="evenodd">
        <g id="bp-ui-Our-Achievers" transform="translate(-806.000000, -3040.000000)">
            <g id="about" transform="translate(0.000000, 730.000000)">
                <g id="students" transform="translate(0.000000, 308.000000)">
                    <g id="Nums" transform="translate(0.000000, 1752.000000)">
                        <g id="nums" transform="translate(171.000000, 250.000000)">
                            <g id="1" transform="translate(570.000000, 0.000000)">
                                <g id="cover" transform="translate(65.000000, 0.000000)">
                                    <circle id="Oval" fill="#DE3C7D" cx="55" cy="55" r="55"></circle>
                                    <g id="contract" transform="translate(35.000000, 35.000000)" fill="#FFFFFF" fill-rule="nonzero">
                                        <path d="M36.6693878,29.6501589 L33.355102,29.6501589 L30.9959184,25.4470673 C32.0734694,24.035155 32.7183673,22.2723049 32.7183673,20.3788733 C32.7183673,15.7024238 28.8489796,11.899238 24.0897959,11.899238 C19.3306122,11.899238 15.4612245,15.7024238 15.4612245,20.3788733 C15.4612245,22.2804662 16.0979592,24.035155 17.1836735,25.4552286 L14.8244898,29.6583203 L3.33061224,29.6583203 L3.33061224,3.27269852 L36.6612245,3.27269852 L36.6612245,29.6501589 L36.6693878,29.6501589 Z M30.4163265,32.9473415 C29.7142857,32.8738894 29.044898,33.2329885 28.7346939,33.8614119 L28.277551,34.791805 L25.5510204,29.9276446 C25.2571429,29.4053186 24.7020408,29.0788649 24.0897959,29.0788649 C23.477551,29.0788649 22.922449,29.4053186 22.6285714,29.9276446 L19.9020408,34.791805 L19.444898,33.8614119 C19.1346939,33.2329885 18.4571429,32.8738894 17.7632653,32.9473415 L16.7183673,33.0616003 L19.7306122,27.6832753 C22.3510204,29.201285 25.8367347,29.201285 28.4571429,27.6832753 L31.4693878,33.0616003 L30.4163265,32.9473415 L30.4163265,32.9473415 Z M24.0897959,25.5694874 C21.1673469,25.5694874 18.7918367,23.2353434 18.7918367,20.3625506 C18.7918367,17.4897579 21.1673469,15.1556138 24.0897959,15.1556138 C27.0122449,15.1556138 29.3877551,17.4897579 29.3877551,20.3625506 C29.3795918,23.2353434 27.0040816,25.5694874 24.0897959,25.5694874 Z M38.3346939,0 L1.66530612,0 C0.742857143,0 0,0.734520865 0,1.64042993 L0,31.2905888 C0,32.1964979 0.742857143,32.9310188 1.66530612,32.9310188 L12.9877551,32.9310188 L12.244898,34.2613177 C11.9428571,34.7999663 11.9755102,35.4528737 12.3183673,35.958877 C12.6612245,36.4648803 13.2734694,36.7423659 13.8857143,36.6770752 L16.9632653,36.3424601 L18.3183673,39.07651 C18.5877551,39.62332 19.1510204,39.9824191 19.7714286,39.9987418 C20.4081633,40.0232258 20.9714286,39.6886107 21.2734694,39.1499621 L24.0897959,34.1225748 L26.9061224,39.1499621 C27.2,39.672288 27.7632653,39.9987418 28.3673469,39.9987418 C28.3836735,39.9987418 28.3918367,39.9987418 28.4081633,39.9987418 C29.0285714,39.9824191 29.5918367,39.6314813 29.8612245,39.07651 L31.2163265,36.3424601 L34.2938776,36.6770752 C34.9142857,36.7505273 35.5183673,36.4648803 35.8612245,35.958877 C36.2040816,35.4528737 36.2367347,34.791805 35.9346939,34.2613177 L35.1918367,32.9310188 L38.3346939,32.9310188 C39.2571429,32.9310188 40,32.1964979 40,31.2905888 L40,1.64042993 C40,0.734520865 39.2571429,0 38.3346939,0 Z" id="Shape"></path>
                                        <path d="M10.2718562,9.84615385 L30.0358361,9.84615385 C30.9533914,9.84615385 31.6923077,9.08840413 31.6923077,8.15384615 C31.6923077,7.21928817 30.9533914,6.46153846 30.0358361,6.46153846 L10.2718562,6.46153846 C9.35430087,6.46153846 8.61538462,7.21928817 8.61538462,8.15384615 C8.61538462,9.08840413 9.35430087,9.84615385 10.2718562,9.84615385 Z" id="Path"></path>
                                    </g>
                                </g>
                            </g>
                        </g>
                    </g>
                </g>
            </g>
        </g>
    </g>
</svg>