<?xml version="1.0" encoding="UTF-8"?>
<svg width="365px" height="361px" viewBox="0 0 365 361" version="1.1" xmlns="http://www.w3.org/2000/svg" xmlns:xlink="http://www.w3.org/1999/xlink">
    <!-- Generator: Sketch 64 (93537) - https://sketch.com -->
    <title>blog</title>
    <desc>Created with Sketch.</desc>
    <defs>
        <filter x="-6.8%" y="-11.6%" width="113.7%" height="123.2%" filterUnits="objectBoundingBox" id="filter-1">
            <feGaussianBlur stdDeviation="2" in="SourceGraphic"></feGaussianBlur>
        </filter>
        <filter x="-2.4%" y="-4.1%" width="104.9%" height="108.3%" filterUnits="objectBoundingBox" id="filter-2">
            <feGaussianBlur stdDeviation="2" in="SourceGraphic"></feGaussianBlur>
        </filter>
        <filter x="-7.9%" y="-12.8%" width="115.7%" height="125.7%" filterUnits="objectBoundingBox" id="filter-3">
            <feGaussianBlur stdDeviation="2" in="SourceGraphic"></feGaussianBlur>
        </filter>
        <filter x="-7.3%" y="-12.9%" width="114.6%" height="125.9%" filterUnits="objectBoundingBox" id="filter-4">
            <feGaussianBlur stdDeviation="2" in="SourceGraphic"></feGaussianBlur>
        </filter>
        <filter x="-7.3%" y="-12.9%" width="114.6%" height="125.9%" filterUnits="objectBoundingBox" id="filter-5">
            <feGaussianBlur stdDeviation="2" in="SourceGraphic"></feGaussianBlur>
        </filter>
        <filter x="-4.7%" y="-8.1%" width="109.3%" height="116.1%" filterUnits="objectBoundingBox" id="filter-6">
            <feGaussianBlur stdDeviation="2" in="SourceGraphic"></feGaussianBlur>
        </filter>
    </defs>
    <g id="UI" stroke="none" stroke-width="1" fill="none" fill-rule="evenodd">
        <g id="bp-ui-Blog" transform="translate(-878.000000, -198.000000)">
            <g id="Main">
                <g id="blog" transform="translate(0.000000, 136.000000)">
                    <g transform="translate(882.000000, 62.000000)">
                        <polygon id="Path" fill="#3CD8DE" fill-rule="nonzero" points="45.9676426 169.993574 41.2480989 167.250722 40.9722814 72.2009506 45.7071483 74.9591255"></polygon>
                        <g id="Group" opacity="0.5" transform="translate(258.798406, 303.657795)" fill="#27235B" fill-rule="nonzero">
                            <polygon id="Path" filter="url(#filter-1)" points="87.7949783 31.3052852 51.8161189 52.3287072 0.0390467063 21.6823194 36.0025828 0.658897338"></polygon>
                        </g>
                        <g id="Group" transform="translate(282.205323, 303.657795)" fill-rule="nonzero">
                            <polygon id="Path" fill="#5245B0" points="34.3239544 41.8323194 71.7891635 20.0580608 71.7585171 27.4285171 34.293308 49.1874525"></polygon>
                            <polygon id="Path" fill="#3B3D6B" points="0.459695817 22.279924 37.9249049 0.505665399 71.7891635 20.0580608 34.3239544 41.8323194"></polygon>
                            <polygon id="Path" fill="#2C2E50" points="34.3239544 41.8323194 34.293308 49.1874525 0.42904943 29.6503802 0.459695817 22.279924"></polygon>
                        </g>
                        <g id="Group" transform="translate(282.205323, 292.931559)" fill-rule="nonzero">
                            <polygon id="Path" fill="#3CD8DE" points="34.3239544 42.3073384 71.7891635 20.5330798 71.7585171 27.8882129 34.293308 49.6624715"></polygon>
                            <polygon id="Path" fill="#BCF0F2" points="0.459695817 22.754943 37.9249049 0.980684411 71.7891635 20.5330798 34.3239544 42.3073384"></polygon>
                            <polygon id="Path" fill="#3CD8DE" points="34.3239544 42.3073384 34.293308 49.6624715 0.42904943 30.110076 0.459695817 22.754943"></polygon>
                        </g>
                        <g id="Group" transform="translate(282.205323, 283.315516)" fill-rule="nonzero">
                            <polygon id="Path" fill="#EFE7C5" points="34.3239544 41.6568414 71.7891635 19.8825828 71.7585171 27.2530391 34.293308 49.0272977"></polygon>
                            <polygon id="Path" fill="#FEC1AE" points="0.459695817 22.1044459 37.9249049 0.330187391 71.7891635 19.8825828 34.3239544 41.6568414"></polygon>
                            <polygon id="Path" fill="#FD6B3F" points="34.3239544 41.6568414 34.293308 49.0272977 0.42904943 29.4749022 0.459695817 22.1044459"></polygon>
                        </g>
                        <g id="Group" transform="translate(312.851711, 92.197719)" fill-rule="nonzero">
                            <polygon id="Path" fill="#FD6B3F" points="43.1960837 28.0874144 47.808365 25.4058555 47.6857795 66.9163878 43.0734981 69.5979468"></polygon>
                            <polygon id="Path" fill="#FD6B3F" points="0.475019011 3.43239544 5.08730038 0.750836502 47.808365 25.4058555 43.1960837 28.0874144"></polygon>
                            <polygon id="Path" fill="#FEC1AE" points="43.1960837 28.0874144 43.0734981 69.5979468 0.367756654 44.9429278 0.475019011 3.43239544"></polygon>
                        </g>
                        <path d="M331.668593,132.712243 L331.668593,121.986008 L339.697947,131.961407 L331.637947,132.650951 M345.719962,125.40308 L323.348099,112.470304 C322.53597,112.010608 321.815779,112.378365 321.815779,113.31308 L321.815779,130.015361 C321.859078,131.04527 322.402528,131.989157 323.271483,132.543688 L345.658669,145.461141 C346.470798,145.93616 347.190989,145.568403 347.190989,144.618365 L347.190989,127.931407 C347.123049,126.889187 346.55116,125.945571 345.658669,125.40308" id="Shape" fill="#FFFFFF" fill-rule="nonzero"></path>
                        <polyline id="Path" stroke="#5F36F7" stroke-linecap="round" stroke-linejoin="round" points="229.41692 124.514335 180.413346 151.529125 180.413346 174.038897"></polyline>
                        <circle id="Oval" fill="#5F36F7" fill-rule="nonzero" cx="180.413346" cy="173.242091" r="3.95338403"></circle>
                        <path d="M177.042243,175.264753 L175.831711,192.717871 L180.428669,192.717871 L180.428669,174.023574 C179.271655,174.355858 178.139947,174.770647 177.042243,175.264753 L177.042243,175.264753 Z" id="Path" fill="#5F36F7" fill-rule="nonzero"></path>
                        <path d="M183.784449,175.264753 L184.994981,192.717871 L180.398023,192.717871 L180.398023,174.023574 C181.555037,174.355858 182.686745,174.770647 183.784449,175.264753 L183.784449,175.264753 Z" id="Path" fill="#5F36F7" fill-rule="nonzero"></path>
                        <g id="Group" opacity="0.5" transform="translate(75.342205, 174.520839)" fill="#27235B" fill-rule="nonzero">
                            <polygon id="Path" filter="url(#filter-2)" points="246.749392 86.3239516 145.861483 145.302925 0.612927757 59.3551304 101.485513 0.376156972"></polygon>
                        </g>
                        <polygon id="Path" fill="#FEC1AE" fill-rule="nonzero" points="243.253764 289.039468 115.749468 214.936502 197.360798 167.817681 324.880418 241.920646"></polygon>
                        <path d="M232.987224,306.829696 C232.987224,306.461939 232.987224,306.078859 232.987224,305.695779 C232.979634,305.573311 232.979634,305.450491 232.987224,305.328023 L233.079163,304.59251 L233.217072,303.765057 C233.217072,303.565856 233.293688,303.381977 233.324335,303.198099 L233.462243,302.67711 C233.462243,302.431939 233.584829,302.186768 233.661445,301.941597 C233.693163,301.796125 233.734108,301.652818 233.78403,301.512548 L234.059848,300.685095 C234.059848,300.577833 234.059848,300.455247 234.182433,300.347985 C234.320342,299.964905 234.473574,299.581825 234.642129,299.214068 C234.636657,299.17339 234.636657,299.132161 234.642129,299.091483 C234.780038,298.754373 234.948593,298.417262 235.101825,298.080152 C235.101825,297.988213 235.209087,297.880951 235.27038,297.773688 C235.331673,297.666426 235.592167,297.16076 235.760722,296.854297 C235.802088,296.796454 235.837997,296.734898 235.867985,296.670418 L236.664791,295.597795 C236.736367,295.504392 236.802864,295.407205 236.863992,295.306654 C237.025212,295.052902 237.199094,294.80742 237.384981,294.571141 L237.660798,294.172738 C237.81403,293.973536 237.967262,293.774335 238.135817,293.590456 C238.260101,293.420269 238.393078,293.256604 238.534221,293.100114 L238.9173,292.655741 C239.152256,292.400355 239.382104,292.155184 239.606844,291.920228 L240.051217,291.475856 L240.388327,291.154068 L240.985932,290.648403 L241.338365,290.357262 C241.537567,290.188707 241.767414,290.020152 241.981939,289.86692 L242.288403,289.637072 C242.61019,289.422548 242.9473,289.208023 243.269087,289.024144 L115.764791,214.921179 C115.427681,215.105057 115.105894,215.319582 114.784106,215.534106 L114.462319,215.763954 L113.818745,216.254297 L113.466312,216.545437 L112.88403,217.051103 L112.54692,217.449506 L112.332395,217.66403 L112.117871,217.893878 C111.888023,218.139049 111.658175,218.368897 111.428327,218.629392 L111.213802,218.85924 L111.014601,218.981825 C110.876692,219.135057 110.754106,219.303612 110.616198,219.472167 C110.478289,219.640722 110.447643,219.671369 110.355703,219.778631 L110.156502,220.054449 L109.865361,220.452852 L109.66616,220.713346 L109.359696,221.188365 L109.160494,221.479506 L109.068555,221.602091 L108.547567,222.475513 L108.547567,222.475513 C108.5062,222.533356 108.470292,222.594912 108.440304,222.659392 C108.317719,222.858593 108.195133,223.073118 108.087871,223.287643 C108.042835,223.387751 107.991661,223.484983 107.934639,223.578783 L107.781407,223.90057 L107.643498,224.161065 L107.306388,224.896578 L107.306388,225.019163 L107.306388,225.019163 L106.938631,225.953878 C106.929997,226.009732 106.929997,226.06658 106.938631,226.122433 C106.891222,226.232314 106.85029,226.344877 106.816046,226.459544 C106.816046,226.612776 106.69346,226.766008 106.64749,226.91924 C106.604699,227.039662 106.568885,227.162451 106.540228,227.286996 L106.402319,227.716046 C106.381802,227.804276 106.356221,227.891251 106.325703,227.97654 C106.325703,228.129772 106.249087,228.283004 106.203118,228.451559 C106.157148,228.620114 106.126502,228.803992 106.080532,228.972548 L106.080532,229.156426 C106.073171,229.284013 106.073171,229.411919 106.080532,229.539506 C106.019694,229.812638 105.973658,230.088858 105.942432,230.366958 L105.942432,230.581483 L105.942432,231.102471 L105.942432,231.470228 C105.942432,231.853308 105.942432,232.236388 105.942432,232.604144 C105.936095,233.699728 106.096267,234.78993 106.417643,235.837338 C106.679457,236.69963 107.117793,237.498027 107.704791,238.181787 C107.888569,238.391105 108.088375,238.585788 108.302395,238.764068 C108.509488,238.934533 108.729816,239.08825 108.961293,239.223764 L236.465589,313.32673 C234.136464,312.361369 233.002548,310.078213 232.987224,306.829696 Z" id="Path" fill="#FD6B3F" fill-rule="nonzero"></path>
                        <path d="M324.941711,265.610304 L243.315057,312.729125 C237.630152,316.008289 233.002548,313.3727 232.987224,306.829696 C233.364163,299.593958 237.180392,292.975364 243.253764,289.024144 L324.880418,241.966616 L324.880418,245.490951 L322.060951,247.130532 L322.060951,260.921407 L324.895741,262.177909 L324.941711,265.610304 Z" id="Path" fill="#EFE7C5" fill-rule="nonzero"></path>
                        <path d="M324.451369,262.361787 L241.798061,310.078213 C240.881692,310.675779 239.825468,311.024333 238.733422,311.089544 C238.57548,311.105417 238.416345,311.105417 238.258403,311.089544 C238.144203,311.066053 238.031607,311.035345 237.921293,310.997605 C237.854502,310.979475 237.791992,310.948221 237.737414,310.905665 L237.47692,310.78308 L237.216426,310.583878 C237.102756,310.482542 237.000039,310.369553 236.909962,310.246768 C236.827743,310.141584 236.7559,310.028687 236.695437,309.909658 C236.561162,309.664481 236.448371,309.408137 236.358327,309.143498 L236.358327,309.143498 C236.358327,308.95962 236.266388,308.760418 236.220418,308.57654 C236.174851,308.379922 236.144118,308.180158 236.128479,307.978935 C236.11322,307.826083 236.11322,307.672092 236.128479,307.51924 C236.12086,307.412112 236.12086,307.30458 236.128479,307.197452 C236.121225,307.095427 236.121225,306.993014 236.128479,306.890989 C236.50503,300.746245 239.744791,295.13482 244.878023,291.73635 L322.15289,247.115209 L321.708517,261.181901 L324.451369,262.361787 Z" id="Path" fill="#4620D5" fill-rule="nonzero"></path>
                        <path d="M324.926388,262.08597 L241.798061,310.078213 C240.881692,310.675779 239.825468,311.024333 238.733422,311.089544 C238.57548,311.105417 238.416345,311.105417 238.258403,311.089544 C238.144203,311.066053 238.031607,311.035345 237.921293,310.997605 C237.854502,310.979475 237.791992,310.948221 237.737414,310.905665 L237.47692,310.78308 L237.216426,310.583878 C237.102756,310.482542 237.000039,310.369553 236.909962,310.246768 C236.827743,310.141584 236.7559,310.028687 236.695437,309.909658 C236.561162,309.664481 236.448371,309.408137 236.358327,309.143498 L236.358327,309.143498 C236.358327,308.95962 236.266388,308.760418 236.220418,308.57654 C236.174851,308.379922 236.144118,308.180158 236.128479,307.978935 C236.11322,307.826083 236.11322,307.672092 236.128479,307.51924 C236.12086,307.412112 236.12086,307.30458 236.128479,307.197452 C236.121225,307.095427 236.121225,306.993014 236.128479,306.890989 C236.50503,300.746245 239.744791,295.13482 244.878023,291.73635 L322.15289,247.115209 L322.15289,260.906084 L324.926388,262.08597 Z" id="Path" fill="#FEC1AE" fill-rule="nonzero"></path>
                        <path d="M322.091597,260.829468 L240.204449,308.19346 C239.285084,308.784771 238.230541,309.13277 237.13981,309.204791 C236.880776,309.203462 236.62309,309.167386 236.37365,309.097529 C236.170546,308.359015 236.072535,307.595564 236.081818,306.829696 C236.454335,300.68353 239.695227,295.070145 244.832053,291.675057 L322.10692,247.06924 L322.091597,260.829468 Z" id="Path" fill="#FFFFFF" fill-rule="nonzero"></path>
                        <polygon id="Path" fill="#BCF0F2" fill-rule="nonzero" points="243.253764 253.98 115.749468 179.877034 197.360798 132.758213 324.880418 206.861179"></polygon>
                        <path d="M232.987224,271.770228 C232.987224,271.402471 232.987224,271.019392 232.987224,270.636312 C232.979634,270.513844 232.979634,270.391023 232.987224,270.268555 L233.079163,269.517719 L233.217072,268.705589 C233.217072,268.506388 233.293688,268.32251 233.324335,268.138631 L233.462243,267.617643 C233.462243,267.372471 233.584829,267.1273 233.661445,266.882129 C233.693163,266.736657 233.734108,266.593351 233.78403,266.45308 L234.059848,265.625627 C234.059848,265.518365 234.059848,265.395779 234.182433,265.288517 C234.320342,264.905437 234.473574,264.522357 234.642129,264.154601 C234.636657,264.113922 234.636657,264.072694 234.642129,264.032015 C234.780038,263.694905 234.948593,263.357795 235.101825,263.020684 C235.101825,262.928745 235.209087,262.821483 235.27038,262.714221 C235.331673,262.606958 235.592167,262.101293 235.760722,261.794829 C235.802088,261.736987 235.837997,261.67543 235.867985,261.610951 L236.511559,260.55365 L236.71076,260.26251 C236.87198,260.008757 237.045862,259.763276 237.231749,259.526996 L237.507567,259.128593 C237.660798,258.929392 237.81403,258.73019 237.982586,258.546312 C238.106869,258.376124 238.239846,258.212459 238.380989,258.05597 L238.764068,257.611597 C238.999024,257.35621 239.228872,257.111039 239.453612,256.876084 L239.897985,256.431711 L240.235095,256.109924 L240.8327,255.604259 L241.185133,255.313118 C241.384335,255.144563 241.614183,254.976008 241.828707,254.822776 L242.135171,254.592928 C242.456958,254.378403 242.794068,254.163878 243.115856,253.98 L115.611559,179.877034 C115.274449,180.060913 114.952662,180.275437 114.630875,180.489962 L114.309087,180.71981 L113.665513,181.210152 L113.31308,181.501293 L112.730798,182.006958 L112.378365,182.328745 L112.16384,182.54327 L111.949316,182.773118 C111.724575,182.997858 111.494728,183.243029 111.259772,183.508631 L111.045247,183.738479 L110.861369,183.953004 C110.72346,184.106236 110.600875,184.274791 110.462966,184.443346 C110.325057,184.611901 110.294411,184.642548 110.202471,184.74981 L110.00327,185.025627 L109.712129,185.42403 L109.512928,185.684525 L109.206464,186.159544 L109.007262,186.450684 L108.915323,186.57327 L108.394335,187.446692 L108.394335,187.446692 C108.352969,187.504534 108.31706,187.566091 108.287072,187.63057 C108.164487,187.829772 108.041901,188.044297 107.934639,188.258821 C107.889603,188.35893 107.838429,188.456162 107.781407,188.549962 C107.781407,188.657224 107.674144,188.764487 107.628175,188.856426 L107.490266,189.132243 L107.153156,189.867757 L107.153156,189.990342 L107.153156,189.990342 L106.785399,190.925057 C106.776765,190.98091 106.776765,191.037759 106.785399,191.093612 C106.737991,191.203492 106.697059,191.316055 106.662814,191.430722 C106.662814,191.583954 106.540228,191.737186 106.494259,191.890418 C106.451467,192.010841 106.415653,192.13363 106.386996,192.258175 L106.249087,192.687224 C106.22857,192.775454 106.202989,192.86243 106.172471,192.947719 C106.172471,193.100951 106.095856,193.254183 106.049886,193.422738 C106.003916,193.591293 105.97327,193.775171 105.9273,193.943726 L105.9273,194.127605 C105.918755,194.255155 105.918755,194.383134 105.9273,194.510684 C105.867725,194.778907 105.821697,195.04996 105.7892,195.322814 L105.7892,195.552662 L105.7892,196.07365 L105.7892,196.441407 C105.7892,196.824487 105.7892,197.207567 105.7892,197.575323 C105.782863,198.670907 105.943035,199.761109 106.264411,200.808517 C106.526225,201.670809 106.964561,202.469206 107.551559,203.152966 C107.735337,203.362284 107.935143,203.556967 108.149163,203.735247 C108.356256,203.905712 108.576584,204.059429 108.808061,204.194943 L236.312357,278.282586 C234.136464,277.301901 233.002548,275.018745 232.987224,271.770228 Z" id="Path" fill="#3CD8DE" fill-rule="nonzero"></path>
                        <path d="M324.941711,230.535513 L243.315057,277.669658 C237.630152,280.948821 233.002548,278.313232 232.987224,271.770228 C233.364163,264.534491 237.180392,257.915896 243.253764,253.964677 L324.880418,206.845856 L324.880418,210.37019 L322.060951,212.009772 L322.060951,225.800646 L324.895741,227.057148 L324.941711,230.535513 Z" id="Path" fill="#CCEDF6" fill-rule="nonzero"></path>
                        <path d="M324.926388,227.026502 L241.798061,275.018745 C240.878406,275.609447 239.824024,275.957393 238.733422,276.030076 C236.41962,276.030076 236.067186,273.348517 236.067186,271.770228 C236.439011,265.624063 239.679904,260.010678 244.81673,256.615589 L322.091597,212.009772 L322.091597,225.800646 L324.926388,227.026502 Z" id="Path" fill="#4620D5" fill-rule="nonzero"></path>
                        <path d="M324.451369,227.302319 L241.798061,275.018745 C240.878406,275.609447 239.824024,275.957393 238.733422,276.030076 C237.571319,276.00847 236.581924,275.178654 236.358327,274.038061 C236.155222,273.299548 236.057212,272.536096 236.066495,271.770228 C236.439011,265.624063 239.679904,260.010678 244.81673,256.615589 L322.091597,212.009772 L321.647224,226.045817 L324.451369,227.302319 Z" id="Path" fill="#3CD8DE" fill-rule="nonzero"></path>
                        <path d="M322.091597,225.77 L240.204449,273.133992 C239.281978,273.718766 238.229145,274.0662 237.13981,274.145323 C236.880776,274.143994 236.62309,274.107918 236.37365,274.038061 C236.170546,273.299548 236.072535,272.536096 236.081818,271.770228 C236.454335,265.624063 239.695227,260.010678 244.832053,256.615589 L322.10692,212.009772 L322.091597,225.77 Z" id="Path" fill="#FFFFFF" fill-rule="nonzero"></path>
                        <path d="M254.884068,174.621179 C233.845323,165.534525 199.797186,165.534525 178.911673,174.621179 C158.02616,183.707833 158.133422,198.448745 179.156844,207.520076 C200.180266,216.591407 234.197757,216.622053 255.12924,207.520076 C276.060722,198.418099 275.90749,183.69251 254.884068,174.621179" id="Path" fill="#3CD8DE" fill-rule="nonzero" opacity="0.4"></path>
                        <path d="M273.057376,183.355399 C273.057376,218.797947 173.211445,218.797947 173.211445,183.355399 L173.211445,130.1073 L273.057376,130.1073 L273.057376,183.355399 Z" id="Path" fill="#434676" fill-rule="nonzero"></path>
                        <g id="Group" transform="translate(144.296578, 90.665399)" fill-rule="nonzero">
                            <polygon id="Path" fill="#5245B0" points="156.465133 45.6631179 156.44981 50.7810646 78.8225095 95.9078707 78.8378327 90.7746008"></polygon>
                            <polygon id="Path" fill="#1D1E33" points="78.8378327 90.7746008 78.8225095 95.9078707 0.70486692 50.7963878 0.720190114 45.6631179"></polygon>
                            <polygon id="Path" fill="#434676" points="156.465133 45.6631179 78.8378327 90.7746008 0.720190114 45.6631179 78.3474905 0.551634981"></polygon>
                        </g>
                        <polyline id="Path" stroke="#BCF0F2" stroke-width="2" stroke-linecap="round" stroke-linejoin="round" points="224.544144 136.328517 263.465057 157.995513 263.465057 188.320114"></polyline>
                        <path d="M230.658099,133.662281 C226.702868,132.199267 222.354775,132.199267 218.399544,133.662281 C215.013118,135.194601 215.043764,137.523726 218.399544,138.994753 C222.355977,140.451035 226.701666,140.451035 230.658099,138.994753 C234.044525,137.462433 234.013878,135.133308 230.658099,133.662281" id="Path" fill="#BCF0F2" fill-rule="nonzero"></path>
                        <path d="M263.465057,172.031559 L257.580951,188.335437 C257.580951,191.645247 269.364487,191.645247 269.364487,188.335437 L263.465057,172.016236 L257.580951,188.335437 L269.364487,188.335437 L263.465057,172.031559 Z" id="Path" fill="#BCF0F2" fill-rule="nonzero"></path>
                        <g id="Group" opacity="0.5" transform="translate(81.471483, 299.060837)" fill="#2D2866" fill-rule="nonzero">
                            <polygon id="Path" filter="url(#filter-3)" points="77.0909886 42.5065399 68.908403 47.8696578 0.796806084 10.4657414 16.6409886 1.08794677"></polygon>
                        </g>
                        <g id="Group" opacity="0.5" transform="translate(0.258555, 266.460003)" fill="#27235B" fill-rule="nonzero">
                            <path d="M82.3315209,42.9286665 C61.6452091,48.5063091 34.0481369,47.4030391 15.9974144,39.6188566 C-5.0260076,30.5475258 -5.17923954,15.8066132 15.7522433,6.70463606 C24.7622814,2.78189842 36.2393536,0.575358493 48.0535361,0.0390467063 C44.7895806,0.900409083 41.5936704,2.00156405 38.4918631,3.3335334 C17.5603802,12.4201874 17.7136122,27.1610999 38.7370342,36.2324307 C50.6738023,41.3963471 66.7938023,43.679503 82.3315209,42.9286665 Z" id="Path" filter="url(#filter-4)"></path>
                        </g>
                        <g id="Group" opacity="0.5" transform="translate(29.372624, 256.155894)" fill="#27235B" fill-rule="nonzero">
                            <path d="M0.965361217,43.5178707 C21.651673,49.0955133 49.2640684,47.9922433 67.3147909,40.2080608 C88.3382129,31.13673 88.4914449,16.3958175 67.559962,7.2938403 C58.549924,3.37110266 47.0728517,1.16456274 35.243346,0.628250951 C38.5129964,1.48727602 41.7141717,2.58848034 44.8203422,3.92273764 C65.7518251,13.0093916 65.5985932,27.7503042 44.5751711,36.821635 C32.6077567,41.9702281 16.5030798,44.2074144 0.965361217,43.5178707 Z" id="Path" filter="url(#filter-5)"></path>
                        </g>
                        <g id="Group" transform="translate(22.821219, 248.072170)" fill-rule="nonzero">
                            <g transform="translate(5.019085, 3.486765)" id="Path">
                                <path d="M78.8072325,22.8009125 L78.8072325,34.8296198 C78.8072325,29.0374525 75.0070342,23.229962 67.3607605,18.8168821 C65.5690214,17.7889781 63.704889,16.8927606 61.7831179,16.1353232 L61.7831179,4.10661597 C63.704889,4.86405339 65.5690214,5.7602709 67.3607605,6.7881749 C75.0223574,11.2012548 78.8225095,17.0087452 78.8072325,22.8009125" fill="#375D7F"></path>
                                <path d="M67.3607605,6.7881749 C65.5499171,5.78240586 63.6647694,4.91667226 61.7218251,4.19855513 L61.7218251,4.19855513 L61.400038,4.09129278 L60.7104943,3.83079848 C59.9443346,3.55498099 59.1781749,3.2791635 58.3660456,3.0339924 L57.5385932,2.7734981 L57.0176046,2.62026616 L56.021597,2.37509506 C55.2247909,2.16057034 54.4892776,1.96136882 53.6005323,1.77749049 L52.9569582,1.62425856 L51.991597,1.45570342 L49.9229658,1.08794677 C49.6471483,1.08794677 49.386654,0.996007605 49.1108365,0.950038023 L48.1914449,0.842775665 L46.2453992,0.628250951 L45.3260076,0.536311787 C45.0348669,0.536311787 44.7437262,0.536311787 44.4525856,0.536311787 C43.7936882,0.536311787 43.1347909,0.444372624 42.4758935,0.42904943 L41.4952091,0.42904943 L37.5111787,0.42904943 L36.8829278,0.42904943 C36.0095057,0.42904943 35.1207605,0.536311787 34.2473384,0.612927757 L33.190038,0.612927757 L32.6996958,0.612927757 L31.9182129,0.70486692 C31.0141445,0.812129278 30.1253992,0.934714829 29.236654,1.08794677 L28.5624335,1.19520913 L28.2406464,1.19520913 C27.811597,1.2718251 27.4131939,1.37908745 26.9841445,1.47102662 C26.2639544,1.60893536 25.5590875,1.74684411 24.8542205,1.91539924 L23.3219011,2.32912548 L21.3145627,2.89608365 L20.8855133,3.0339924 C17.9310006,3.96851644 15.0850849,5.21681523 12.3964639,6.75752852 L11.9367681,7.03334601 C10.1803484,8.06991097 8.53696405,9.28704252 7.03334601,10.664943 L6.57365019,11.1093156 L6.06798479,11.614981 C5.88410646,11.8141825 5.68490494,12.013384 5.50102662,12.2279087 L4.99536122,12.8101901 C4.87277567,12.9634221 4.73486692,13.1013308 4.62760456,13.2545627 C3.53359834,14.6195121 2.65509905,16.1439668 2.0226616,17.7749049 L2.0226616,17.7749049 C1.88475285,18.173308 1.7621673,18.571711 1.63958175,18.9547909 C1.63958175,18.9547909 1.63958175,18.9547909 1.63958175,19.0620532 C1.54680313,19.3590679 1.47007621,19.6608605 1.40973384,19.9661217 C1.41843383,20.0065204 1.41843383,20.0483085 1.40973384,20.0887072 C1.40973384,20.2112928 1.40973384,20.3338783 1.40973384,20.4717871 C1.40973384,20.6096958 1.33311787,20.9774525 1.30247148,21.2379468 C1.2718251,21.4984411 1.30247148,21.5444106 1.30247148,21.7129658 C1.30247148,21.8815209 1.30247148,22.0347529 1.30247148,22.203308 L1.30247148,22.4484791 C1.30247148,22.4484791 1.30247148,22.4484791 1.30247148,22.5404183 L1.30247148,34.5691255 C1.29995303,34.0569017 1.3306639,33.545054 1.39441065,33.0368061 C1.39441065,33.0368061 1.39441065,33.0368061 1.39441065,32.9448669 C1.44355126,32.5174545 1.51515859,32.0929253 1.60893536,31.6730418 L1.70087452,31.3206084 C1.79281369,30.9528517 1.90007605,30.6004183 2.0073384,30.263308 C2.0338295,30.1581433 2.06972832,30.0555753 2.11460076,29.9568441 C2.26928309,29.4909849 2.45353581,29.0354712 2.66623574,28.5930798 L2.66623574,28.5930798 C2.83479087,28.2406464 3.0339924,27.8728897 3.23319392,27.5204563 L3.44771863,27.183346 C3.60167239,26.9038136 3.77046867,26.6327165 3.95338403,26.3712167 L4.09129278,26.1720152 C4.32114068,25.8502281 4.5356654,25.5437643 4.7808365,25.2373004 C5.0260076,24.9308365 5.43973384,24.4404943 5.7921673,24.0574144 L6.08330798,23.7509506 C6.35912548,23.4598099 6.65026616,23.1686692 6.95673004,22.8928517 L7.37045627,22.4944487 L7.93741445,22.0041065 L8.47372624,21.5597338 L9.0713308,21.0847148 L9.65361217,20.6556654 L10.3125095,20.1959696 L10.9254373,19.7822433 C11.1552852,19.6290114 11.3851331,19.4757795 11.6303042,19.3378707 L12.5190494,18.7862357 C13.19327,18.3878327 13.8828137,18.020076 14.6030038,17.6676426 L14.6796198,17.6676426 C16.8608817,16.599524 19.1198398,15.6979896 21.4371483,14.9707605 L23.4444867,14.4038023 L24.9768061,13.990076 C25.681673,13.8215209 26.4018631,13.6836122 27.1220532,13.5457034 C27.8422433,13.4077947 28.1640304,13.3158555 28.6543726,13.2239163 L29.31327,13.116654 C30.2020152,12.9634221 31.1060837,12.8408365 32.0101521,12.7335741 L32.791635,12.641635 C33.2973004,12.641635 33.818289,12.5496958 34.3239544,12.5190494 C35.1973764,12.4424335 36.0707985,12.3811407 36.9595437,12.3351711 L38.6450951,12.3351711 L40.775019,12.3351711 L42.5525095,12.3351711 L44.5292015,12.4271103 L46.3220152,12.5803422 L48.2680608,12.7948669 L49.9995817,13.040038 C50.6891255,13.1473004 51.3786692,13.2698859 52.0528897,13.4077947 C52.7271103,13.5457034 53.1408365,13.6069962 53.6771483,13.7295817 C54.4892776,13.9134601 55.2860837,14.1126616 56.0828897,14.3271863 L57.6152091,14.7255894 L58.4426616,14.9860837 C59.2394677,15.2312548 59.974981,15.5070722 60.7871103,15.7828897 L61.476654,16.043384 C63.5115668,16.8207306 65.4838325,17.7530744 67.3760837,18.8322053 C75.0376806,23.2452852 78.8378327,29.0527757 78.8225557,34.844943 L78.8225557,22.8162357 C78.8225557,17.0087452 75.0070342,11.2012548 67.3607605,6.7881749 Z" fill="#5245B0"></path>
                                <path d="M1.21053232,22.2339544 L1.21053232,34.2626616 L1.21053232,34.5997719 L1.21053232,22.5710646 C1.20289344,22.4588244 1.20289344,22.3461946 1.21053232,22.2339544" fill="#3D678E"></path>
                            </g>
                            <g transform="translate(0.000000, 24.939237)" id="Path">
                                <path d="M89.7257007,1.34844106 L89.7257007,13.3771483 C89.7257007,13.515057 89.7257007,13.6529658 89.7257007,13.7755513 L89.7257007,1.74684411 C89.7336637,1.61416246 89.7336637,1.48112271 89.7257007,1.34844106" fill="#3D678E"></path>
                                <path d="M89.7257007,1.74684411 L89.7257007,13.7755513 C89.7044725,14.6405372 89.6070487,15.5019689 89.43456,16.3498479 L89.43456,4.32114068 C89.6070487,3.4732617 89.7044725,2.61182993 89.7257007,1.74684411" fill="#3F6B93"></path>
                                <path d="M89.4192368,4.32114068 L89.4192368,16.3498479 C89.2433043,17.2095862 89.0025533,18.0547758 88.6990467,18.8781749 L88.6990467,6.84946768 C89.0025533,6.02606861 89.2433043,5.18087903 89.4192368,4.32114068" fill="#416E98"></path>
                                <path d="M88.6990467,6.84946768 L88.6990467,18.8781749 C88.3669574,19.7556633 87.9673578,20.6060934 87.5038376,21.4218251 L87.5038376,9.39311787 C87.9673578,8.57738614 88.3669574,7.7269561 88.6990467,6.84946768" fill="#43729D"></path>
                                <path d="M87.5038376,9.39311787 L87.5038376,21.4218251 C86.9668022,22.3533815 86.3624842,23.2444945 85.6957007,24.0880608 L85.6957007,12.0593536 C86.3627984,11.2193628 86.9622795,10.3278268 87.4885144,9.39311787" fill="#4575A2"></path>
                                <path d="M85.7110239,12.0593536 L85.7110239,24.0880608 C84.8735286,25.1614256 83.9456382,26.1610866 82.9375258,27.0760837 L82.9375258,15.0473764 C83.9377006,14.1243857 84.8649669,13.1253972 85.7110239,12.0593536" fill="#4779A7"></path>
                                <path d="M82.9375258,15.0473764 L82.9375258,27.0760837 C81.2038518,28.6571978 79.3145759,30.058753 77.2985904,31.2593156 L77.2985904,19.2306084 C79.3167669,18.0261975 81.2107553,16.6249541 82.952849,15.0473764" fill="#4A7DAB"></path>
                                <path d="M76.7469555,19.521749 C75.7815942,20.073384 74.7549402,20.5943726 73.6823167,21.0540684 L72.8701874,21.4371483 C71.9201494,21.8661977 70.9701113,22.279924 69.9894269,22.6630038 L69.6216703,22.8162357 C68.5796931,23.2146388 67.5070695,23.5670722 66.4191228,23.9195057 C65.6682862,24.1493536 64.8868034,24.3638783 64.1206437,24.5630798 C63.354484,24.7622814 62.9560809,24.9001901 62.3584764,25.0380989 C61.7608718,25.1760076 60.7188946,25.4058555 59.8914421,25.5744106 L58.0833053,25.9421673 L57.3171456,26.0647529 C56.2904916,26.233308 55.2638376,26.3712167 54.2525068,26.4938023 L53.3484383,26.6010646 L51.5556247,26.7542966 C50.5442939,26.8462357 49.5329631,26.9075285 48.4909859,26.9534981 L46.5602634,26.9534981 L44.0932292,26.9534981 L42.0552444,26.9534981 L39.7874117,26.8309125 L37.7187805,26.6623574 L35.4815942,26.4018631 C34.8073737,26.3252471 34.1331532,26.233308 33.4742558,26.1260456 C32.8153585,26.0187833 31.9419364,25.8655513 31.0991608,25.7123194 L29.2450543,25.3445627 C28.3103395,25.130038 27.3756247,24.9001901 26.456233,24.655019 L24.6940657,24.18 L23.7593509,23.8888593 C22.8399593,23.5926109 21.9358908,23.286147 21.0471456,22.9694677 L20.2656627,22.678327 C19.4535334,22.3718631 18.7333433,22.0194297 17.8905676,21.6823194 L16.7413281,21.176654 C15.6074117,20.6403422 14.519465,20.073384 13.4621646,19.4604563 C4.66665127,14.3731559 0.268894615,7.69224335 0.284177905,1.07262357 L0.284177905,13.1013308 C0.284177905,19.7822433 4.66665127,26.4631559 13.4621646,31.4891635 C14.519465,32.1020913 15.6074117,32.6690494 16.7413281,33.2053612 L17.8905676,33.6957034 C18.549465,34.0021673 19.2083623,34.3086312 19.8825828,34.5691255 L20.2656627,34.7070342 L21.0471456,34.9981749 C21.9358908,35.3148542 22.8399593,35.6213181 23.7593509,35.9175665 L24.6940657,36.2087072 L25.3069935,36.4079087 L26.456233,36.6837262 C27.3756247,36.9288973 28.3103395,37.1587452 29.2450543,37.37327 L29.9805676,37.5418251 L31.0991608,37.7410266 C31.8806437,37.8942586 32.6314802,38.0321673 33.4742558,38.1547529 L34.4089707,38.323308 L35.466271,38.4305703 L37.7187805,38.6910646 L38.7607577,38.798327 L39.7720885,38.798327 L42.0552444,38.9209125 L43.1891608,38.9209125 L47.7861189,38.9209125 C48.0312901,38.9209125 48.2764612,38.9209125 48.5063091,38.9209125 C49.5329631,38.9209125 50.5442939,38.8136502 51.5709478,38.721711 L52.7814802,38.6450951 L53.3484383,38.5684791 L54.26783,38.4612167 C55.294484,38.3386312 56.3364612,38.2007224 57.3324688,38.0321673 L58.0986285,37.9095817 L58.4817083,37.9095817 L59.9220885,37.6031179 C60.749541,37.4345627 61.5769935,37.2660076 62.3891228,37.0668061 C63.201252,36.8676046 63.5536855,36.7603422 64.1512901,36.5917871 C64.7488946,36.4232319 65.6836094,36.1780608 66.4497691,35.9482129 L66.9554345,35.794981 C67.859503,35.5038403 68.7635714,35.1820532 69.6523167,34.844943 L70.0200733,34.691711 C71.0007577,34.3086312 71.9507958,33.8949049 72.8855106,33.4658555 L73.7129631,33.0827757 C74.739617,32.5771103 75.7509478,32.0561217 76.7776018,31.5504563 L77.3292368,31.2286692 L77.3292368,31.2286692 C85.5884383,26.2486312 89.7410239,19.8128897 89.7716703,13.3618251 L89.7716703,1.33311787 C89.7257007,7.95273764 85.3739136,14.5263878 76.7469555,19.521749 Z" fill="#1D1E33"></path>
                            </g>
                            <path d="M76.5477539,7.8538756 C94.0468414,17.9518604 94.1234574,34.3936475 76.7469555,44.4916323 C59.3704536,54.589617 30.9918984,54.589617 13.492811,44.4916323 C-4.00627649,34.3936475 -4.08289246,17.9518604 13.2936094,7.8538756 C30.6701113,-2.24410919 59.0793129,-2.24410919 76.5477539,7.8538756 Z M17.7066893,42.0705676 C32.8919745,50.8354345 57.5469935,50.8354345 72.6096931,42.0705676 C87.6723927,33.3057007 87.6110999,19.0857767 72.4258148,10.2749402 C57.2405296,1.46410374 32.5855106,1.51007332 17.522811,10.2749402 C2.46011135,19.0398072 2.52140412,33.2597311 17.7066893,42.0705676" id="Shape" fill="#262354"></path>
                        </g>
                        <g id="Group" transform="translate(87.600760, 295.996198)" fill-rule="nonzero">
                            <path d="M70.3641065,34.216692 L70.6705703,34.293308 C70.8696614,34.3566039 71.0642062,34.4333979 71.2528517,34.5231559 L71.589962,34.6763878 L71.589962,34.6763878 L9.04068441,0.643574144 L8.85680608,0.551634981 L8.68825095,0.551634981 C8.50316857,0.457706718 8.30775159,0.385710989 8.10596958,0.337110266 L7.95273764,0.337110266 L7.8148289,0.337110266 L7.20190114,0.245171103 L6.91076046,0.245171103 C6.59992725,0.214835257 6.28687883,0.214835257 5.97604563,0.245171103 C5.62286948,0.306652788 5.27462701,0.393713404 4.93406844,0.505665399 L4.64292776,0.628250951 L4.2904943,0.750836502 L3.98403042,0.934714829 L3.57030418,1.16456274 L3.35577947,1.28714829 L2.89608365,1.65490494 L2.72752852,1.79281369 L2.72752852,1.79281369 C2.52200085,1.9805454 2.32757807,2.18008458 2.14524715,2.39041825 L2.03798479,2.5130038 L1.88475285,2.71220532 L1.62425856,3.0339924 C1.53231939,3.17190114 1.45570342,3.30980989 1.37908745,3.44771863 L1.24117871,3.67756654 C1.21022485,3.71478349 1.18445213,3.75601984 1.16456274,3.80015209 C1.02898943,4.05210147 0.911223634,4.31323431 0.812129278,4.58163498 L0.735513308,4.73486692 L0.735513308,4.73486692 C0.647889379,4.98546447 0.576237496,5.24136406 0.520988593,5.50102662 C0.470993938,5.62957819 0.435031234,5.76315395 0.413726236,5.89942966 C0.334270278,6.31359675 0.293234165,6.73421691 0.291140684,7.15593156 C0.210166804,9.14033533 1.22935336,11.0078621 2.94205323,12.013384 L65.506654,46.0461977 C63.7880589,45.0446539 62.7625579,43.1763561 62.8404183,41.1887452 C62.8425117,40.7670306 62.8835478,40.3464104 62.9630038,39.9322433 C62.9630038,39.7943346 63.0396198,39.671749 63.0702662,39.5338403 C63.1009125,39.3959316 63.2081749,38.9975285 63.3001141,38.7370342 C63.3192665,38.6781598 63.344966,38.6216209 63.37673,38.5684791 C63.4990237,38.2652089 63.6371217,37.968554 63.7904563,37.6797338 L63.9436882,37.4498859 C64.0946604,37.1966234 64.2583159,36.9511402 64.4340304,36.7143726 L64.6025856,36.5151711 C64.8291407,36.2375689 65.0804529,35.9811279 65.3534221,35.7490114 L65.5219772,35.6111027 C65.7376517,35.4355401 65.962725,35.2718505 66.1961977,35.1207605 L66.609924,34.8909125 L67.2534981,34.5691255 L67.5446388,34.4618631 C67.8841599,34.346355 68.2326818,34.2592245 68.586616,34.2013688 C68.9028941,34.1788241 69.2203759,34.1788241 69.536654,34.2013688 L69.8124715,34.2013688 C69.9657034,34.1553992 70.1649049,34.1707224 70.3641065,34.216692 Z" id="Path" fill="#1D1E33"></path>
                            <path d="M68.5253232,34.140076 C70.0367293,33.9326032 71.5610185,34.4185784 72.673429,35.4625786 C73.7858394,36.5065787 74.3674536,37.9969996 74.2561977,39.5185171 C74.2607135,42.9229855 71.8512578,45.8528837 68.51,46.5058935 C66.9985939,46.7133663 65.4743047,46.2273912 64.3618942,45.183391 C63.2494838,44.1393909 62.6678696,42.6489699 62.7791255,41.1274525 C62.7806415,37.7251443 65.1873498,34.798587 68.5253232,34.140076 L68.5253232,34.140076 Z" id="Path" fill="#5245B0"></path>
                        </g>
                        <polygon id="Path" fill="#3CD8DE" fill-rule="nonzero" points="45.7071483 74.9591255 40.9722814 72.2009506 164.98289 0.610988593 169.702433 3.3538403"></polygon>
                        <g id="Group" opacity="0.5" transform="translate(43.163498, 111.695744)" fill="#27235B" fill-rule="nonzero">
                            <polygon id="Path" filter="url(#filter-6)" points="5.0413308 74.739617 0.306463878 71.9967653 124.317072 0.40680336 129.036616 3.14965507"></polygon>
                        </g>
                        <polygon id="Path" fill="#CCEDF6" fill-rule="nonzero" points="169.702433 3.3538403 169.978251 98.4036122 45.9676426 169.993574 45.7071483 74.9591255"></polygon>
                        <polygon id="Path" fill="#BCF0F2" fill-rule="nonzero" points="169.978251 98.388289 45.9676426 169.993574 45.7071483 74.9438023 45.9523194 74.8058935 169.702433 3.3538403 169.717757 9.77425856"></polygon>
                        <polygon id="Path" fill="#FFFFFF" fill-rule="nonzero" points="169.717757 9.77425856 45.9676426 81.2263118 45.9523194 74.8058935 169.702433 3.3538403"></polygon>
                        <polygon id="Path" fill="#FFFFFF" fill-rule="nonzero" points="93.6074525 62.1642586 93.6074525 133.509049 56.2495057 155.084106 56.0503042 83.8619011 56.2341825 83.7546388"></polygon>
                        <polygon id="Path" fill="#FD6B3F" fill-rule="nonzero" points="93.6074525 62.1642586 93.6074525 68.7225856 56.2495057 90.2976426 56.2341825 83.7546388"></polygon>
                        <g id="Group" opacity="0.5" transform="translate(63.083650, 83.003802)" fill="#9D9ED2" fill-rule="nonzero">
                            <g id="Path">
                                <g>
                                    <polyline points="25.0993916 0.505665399 0.398403042 14.7715589 0.413726236 16.7635741 25.1147148 2.49768061 25.0993916 0.505665399"></polyline>
                                    <polyline points="25.1147148 4.12193916 0.413726236 18.3878327 0.413726236 20.3951711 25.1147148 6.12927757 25.1147148 4.12193916"></polyline>
                                    <polyline points="25.130038 7.73821293 0.42904943 22.0041065 0.42904943 24.0114449 25.130038 9.74555133 25.130038 7.73821293"></polyline>
                                    <polyline points="25.130038 11.3698099 0.42904943 25.6203802 0.444372624 27.6277186 25.1453612 13.3618251 25.130038 11.3698099"></polyline>
                                    <polyline points="25.1453612 14.9860837 0.444372624 29.2519772 0.444372624 31.2439924 25.1453612 16.9780989 25.1453612 14.9860837"></polyline>
                                    <polyline points="25.1760076 26.156692 0.475019011 40.4225856 0.475019011 42.4146008 25.1913308 28.1487072 25.1760076 26.156692"></polyline>
                                    <polyline points="25.2526236 30.5238023 0.551634981 44.7896958 0.566958175 46.781711 25.2679468 32.5311407 25.2526236 30.5238023"></polyline>
                                    <polyline points="25.3445627 34.9062357 0.628250951 49.1721293 0.628250951 51.1794677 25.3445627 36.898251 25.3445627 34.9062357"></polyline>
                                    <polyline points="25.4058555 39.2886692 0.70486692 53.5545627 0.720190114 55.5465779 25.4211787 41.2806844 25.4058555 39.2886692"></polyline>
                                    <polyline points="11.1859316 26.6776806 0.459695817 32.8835741 0.459695817 34.8602662 11.1859316 28.6696958 11.1859316 26.6776806"></polyline>
                                    <polyline points="25.1606844 18.6176806 14.4344487 24.808251 14.4344487 26.8002662 25.1606844 20.6096958 25.1606844 18.6176806"></polyline>
                                    <polyline points="11.2012548 30.2939544 0.459695817 36.4998479 0.475019011 38.4918631 11.2012548 32.2859696 11.2012548 30.2939544"></polyline>
                                    <polyline points="25.1606844 22.2339544 14.4497719 28.4245247 14.4497719 30.4165399 25.1760076 24.2259696 25.1606844 22.2339544"></polyline>
                                </g>
                            </g>
                        </g>
                        <polygon id="Path" fill="#FFFFFF" fill-rule="nonzero" points="136.818859 87.6314068 136.818859 110.156502 99.4609125 131.731559 99.3996198 109.23711 99.4455894 109.206464"></polygon>
                        <polygon id="Path" fill="#FD6B3F" fill-rule="nonzero" points="136.818859 87.6314068 136.818859 91.7839924 99.4609125 113.359049 99.4455894 109.206464"></polygon>
                        <g id="Group" transform="translate(104.456274, 102.923954)" fill="#9D9ED2" fill-rule="nonzero" opacity="0.5">
                            <g transform="translate(0.000000, 7.661597)" id="Path">
                                <polyline points="6.2978327 1.13391635 0 4.7808365 0.0306463878 12.0287072 6.32847909 8.39711027 6.2978327 1.13391635"></polyline>
                            </g>
                            <g transform="translate(7.661597, 0.000000)" id="Path">
                                <polyline points="15.1393156 0.0612927757 1.5169962 7.92209125 1.5169962 9.46973384 15.1393156 1.60893536 15.1393156 0.0612927757"></polyline>
                            </g>
                            <g transform="translate(7.661597, 0.000000)" id="Path">
                                <polyline points="21.3911787 0.597604563 1.5169962 12.0593536 1.53231939 13.6223194 21.3911787 2.14524715 21.3911787 0.597604563"></polyline>
                            </g>
                        </g>
                        <polygon id="Path" fill="#FFFFFF" fill-rule="nonzero" points="136.818859 59.6206084 136.818859 82.1457034 99.4609125 103.72076 99.3996198 81.2263118 99.4455894 81.1956654"></polygon>
                        <polygon id="Path" fill="#FD6B3F" fill-rule="nonzero" points="136.818859 59.6206084 136.818859 63.7731939 99.4609125 85.348251 99.4455894 81.1956654"></polygon>
                        <g id="Group" transform="translate(104.456274, 73.809886)" fill="#9D9ED2" fill-rule="nonzero" opacity="0.5">
                            <g transform="translate(0.000000, 9.193916)" id="Path">
                                <polyline points="6.2978327 0.70486692 0 4.35178707 0.0306463878 11.5996578 6.32847909 7.96806084 6.2978327 0.70486692"></polyline>
                            </g>
                            <g transform="translate(7.661597, 0.000000)" id="Path">
                                <polyline points="15.1393156 1.16456274 1.5169962 9.02536122 1.5169962 10.5730038 15.1393156 2.71220532 15.1393156 1.16456274"></polyline>
                            </g>
                            <g transform="translate(7.661597, 1.532319)" id="Path">
                                <polyline points="21.3911787 0.153231939 1.5169962 11.6303042 1.53231939 13.19327 21.3911787 1.71619772 21.3911787 0.153231939"></polyline>
                            </g>
                        </g>
                        <g id="Group" transform="translate(233.171103, 30.904943)" fill-rule="nonzero">
                            <polygon id="Path" fill="#5245B0" points="43.5178707 27.811597 48.1301521 25.130038 48.0075665 66.6405703 43.3952852 69.3221293"></polygon>
                            <polygon id="Path" fill="#5245B0" points="0.796806084 3.14125475 5.40908745 0.459695817 48.1301521 25.130038 43.5178707 27.811597"></polygon>
                            <polygon id="Path" fill="#FFFFFF" points="43.5178707 27.811597 43.3952852 69.3221293 0.689543726 44.6517871 0.796806084 3.14125475"></polygon>
                        </g>
                        <path d="M247.191825,72.4307985 L247.191825,70.8984791 L260.9827,78.8818631 L260.9827,80.4141825 L247.191825,72.4307985 M247.191825,69.2742205 L247.191825,67.7419011 L260.9827,75.709962 L260.9827,77.2422814 L247.191825,69.2588973 M247.191825,66.1176426 L247.191825,64.5853232 L260.9827,72.553384 L260.9827,74.0857034 L247.191825,66.1023194 M247.191825,62.9457414 L247.191825,61.4134221 L260.9827,69.3968061 L260.9827,70.9291255 L247.191825,62.9457414 M247.191825,59.7891635 L247.191825,58.2568441 L260.9827,66.2402281 L260.9827,67.7725475 L247.191825,59.7891635 M247.191825,56.6325856 L247.191825,55.1002662 L260.9827,63.0836502 L260.9827,64.6159696 L247.191825,56.6325856 M247.191825,53.5679468 L247.191825,52.0356274 L260.9827,60.0036882 L260.9827,61.5360076 L247.191825,53.5526236 M263.756198,56.6172624 L244.494943,45.5079468 L244.418327,76.1543346 L263.710228,87.2023574 L263.802167,56.5559696" id="Shape" fill="#CACBE8" fill-rule="nonzero"></path>
                        <g id="Group" transform="translate(294.463878, 13.627303)" fill-rule="nonzero">
                            <polygon id="Path" fill="#3CD8DE" points="48.6511407 30.562849 53.7844106 27.5748262 53.6618251 73.7742558 48.5285551 76.7622786"></polygon>
                            <polygon id="Path" fill="#3CD8DE" points="1.11859316 3.11900868 6.25186312 0.13098587 53.7844106 27.5748262 48.6511407 30.562849"></polygon>
                            <polygon id="Path" fill="#BCF0F2" points="48.6511407 30.562849 48.5285551 76.7622786 0.980684411 49.3184383 1.11859316 3.11900868"></polygon>
                        </g>
                        <g id="Group" transform="translate(303.657795, 32.437262)" fill="#FFFFFF" fill-rule="nonzero">
                            <polyline id="Path" points="27.6430418 15.9361217 0.658897338 0.367756654 14.1279848 18.7862357 27.6430418 15.9361217"></polyline>
                            <polyline id="Path" points="27.9188593 18.4950951 14.1126616 21.4065019 0.383079848 4.13726236 0.321787072 23.1839924 27.8575665 39.0741445 27.9188593 18.4950951"></polyline>
                        </g>
                    </g>
                </g>
            </g>
        </g>
    </g>
</svg>