<?xml version="1.0" encoding="UTF-8"?>
<svg width="222px" height="419px" viewBox="0 0 222 419" version="1.1" xmlns="http://www.w3.org/2000/svg" xmlns:xlink="http://www.w3.org/1999/xlink">
    <!-- Generator: Sketch 64 (93537) - https://sketch.com -->
    <title>chess</title>
    <desc>Created with Sketch.</desc>
    <g id="UI" stroke="none" stroke-width="1" fill="none" fill-rule="evenodd">
        <g id="bp-ui-home" transform="translate(-495.000000, -4120.000000)">
            <g id="Game" transform="translate(162.000000, 3871.000000)">
                <g id="game" transform="translate(0.000000, 188.000000)">
                    <g id="chess" transform="translate(336.000000, 0.000000)">
                        <g transform="translate(0.000000, 64.000000)">
                            <path d="M113.244616,103.128588 C113.248648,103.4708 113.250672,103.813487 113.250672,104.156635 C113.250672,120.941163 108.397365,136.588215 100.043878,149.824566 C99.2524742,150.899888 96.3887074,154.691617 92.2099003,159.325701 C86.9609433,165.053012 80.8605397,169.8458 74.7626076,174.644998 C69.895633,178.475407 65.0289811,182.308724 60.5693567,186.601818 C38.500379,207.846702 25.4913973,237.23232 24.5320384,267.752909 L24.4642586,269.095113 C24.3717536,271.381336 24.3880593,273.670025 24.4049319,275.958243 C24.4114617,276.843785 24.4180045,277.729254 24.4180045,278.614473 C24.4180045,283.9851 26.2028955,288.939118 29.2140011,292.923207 C31.8165403,296.36671 35.335973,299.084894 39.4110955,300.720366 C38.9549985,301.143196 38.5706445,301.637778 38.2719398,302.180895 C37.3486574,303.859643 37.2445548,305.998883 38.3681491,307.896576 L47.0340545,318.277365 C45.9547703,319.501962 44.1922108,321.497484 43.7760287,321.942219 C42.2156329,323.612116 40.6076689,325.236323 38.9537114,326.812723 C35.7272328,329.888051 32.3267073,332.781459 28.7748145,335.473734 C25.2123378,338.173226 21.496597,340.670579 17.6504498,342.947565 C16.8390912,343.428081 16.0140006,343.904006 15.1852455,344.382084 C10.5021161,347.083603 5.73240911,349.877144 2.5279681,353.79555 C0.0736106969,356.79675 -1.5,360.439554 -1.5,365.16651 C-1.5,369.818914 0.354554777,374.037695 3.34557433,377.123023 C4.83065572,378.654931 6.59564695,379.907078 8.55256808,380.79489 C8.02139471,381.036127 7.50444358,381.303549 7.00368209,381.595749 C2.03296449,384.494416 -1.36036964,389.832135 -1.50005622,396.388124 L-1.49673034,397.35514 C-1.40814855,401.841943 0.471094682,405.8898 3.45615979,408.813039 C6.4318245,411.727073 10.5061005,413.523641 15,413.523641 L201.104286,413.520423 C205.592136,413.432522 209.641003,411.553128 212.564813,408.567481 C215.478846,405.591816 217.275414,401.51754 217.275414,397.023641 L217.272181,396.065817 C217.183733,391.47121 215.289012,387.319929 212.269818,384.294477 C210.813881,382.835522 209.096508,381.6384 207.194167,380.779501 C209.149356,379.897394 210.909993,378.657783 212.391929,377.143547 C215.412657,374.056981 217.275414,369.829567 217.275414,365.16651 C217.275414,360.439554 215.701803,356.79675 213.247446,353.79555 C210.043005,349.877144 205.273298,347.083603 200.590168,344.382084 C199.761413,343.904006 198.936323,343.428081 198.125173,342.947689 C194.278817,340.670579 190.563076,338.173226 187.000428,335.473604 C183.448706,332.781459 180.048181,329.888051 176.821728,326.812747 C175.167745,325.236323 173.559781,323.612116 172.000136,321.943021 C171.522765,321.4329 169.279229,318.888395 168.299754,317.776022 L176.545332,307.691909 C177.592324,305.758006 177.403573,303.602297 176.3943,301.950039 C176.053423,301.391999 175.619444,300.891489 175.108564,300.47608 C179.040568,299.106308 182.366522,297.118977 184.958732,294.584545 C188.909257,290.722073 191.192675,285.585129 191.302073,279.198052 C191.213238,277.961221 191.133237,276.722047 191.057345,275.481702 C190.649172,268.796995 190.41792,262.06468 190.41792,255.277326 C190.41792,230.463714 192.795043,203.786612 198.562345,179.014369 C199.736633,173.970511 201.051755,169.004944 202.516093,164.15103 C209.498837,140.999658 209.500354,115.604047 200.356298,93.0331473 C193.395361,75.8501186 181.699617,60.6921491 166.859079,49.5166064 C159.422984,43.9171944 151.193121,39.4054373 142.551224,35.9188088 C138.807887,34.4087737 132.620034,32.6522444 127.087208,31.3149529 C123.831695,30.5280908 120.803696,29.8858123 118.637368,29.5208154 C117.851484,29.3884048 117.172937,29.2921735 116.629114,29.2357336 L116.624482,2.61354732 C116.552199,1.08803937 115.705827,-0.175636525 114.5205,-0.883988636 C113.359499,-1.5778035 111.87791,-1.73886583 110.494561,-1.09983241 C97.6971352,4.81336371 88.2052512,16.4569893 84.7322985,30.5891648 C77.6899547,31.0922672 72.5119784,34.8783839 67.8675842,41.1027036 L17.8698671,103.546017 C14.5570093,107.64968 12.7282692,112.999943 13.2262435,118.785919 C13.6702363,123.937905 15.996945,128.596052 19.5112191,132.064635 C23.0236264,135.531376 27.7203231,137.807624 32.8968226,138.206353 C35.8050209,138.430689 38.6021014,138.074559 41.1833899,137.244188 C41.3762303,137.182154 41.568506,137.117267 41.7601557,137.049517 C41.8514835,136.88037 41.9436866,136.710579 42.0371214,136.541386 C47.421135,126.791927 56.6629649,119.446677 67.7258165,116.557378 C69.0624033,116.260919 70.4330561,116.114566 71.8031252,116.114566 C72.9735303,116.114566 74.1451447,116.217352 75.2921561,116.44375 C75.9040349,116.564251 76.4977729,116.762474 77.0925702,116.957112 C77.5881801,117.119293 78.0841626,117.280583 78.587058,117.411331 C81.1193544,118.07025 83.7333192,118.409406 86.3509708,118.409406 C93.0913199,118.409406 99.3252711,116.28123 104.424133,112.669862 C107.992296,110.142642 111.004142,106.888558 113.244616,103.128588 Z" id="Combined-Shape" stroke="#FFFFFF" stroke-width="3" fill="#76C8EB"></path>
                            <path d="M111.123607,0.261895114 C112.990018,-0.600287254 115.12939,0.772970474 115.12939,2.82197687 L115.12939,2.82197687 L115.12939,30.8176147 C115.12939,29.8395729 134.086551,34.1216669 141.989996,37.3098597 C150.51026,40.7474149 158.62522,45.1941823 165.956748,50.7148548 C180.58081,61.7273819 192.106594,76.6638387 198.966054,93.5963711 C207.98261,115.852556 207.964295,140.892896 201.08002,163.717793 C199.606507,168.60212 198.283062,173.598779 197.101415,178.674245 C191.308391,203.55697 188.91792,230.352845 188.91792,255.277326 C188.91792,262.095389 189.150113,268.858168 189.560145,275.57331 C189.636361,276.818946 189.716713,278.063406 189.805927,279.305513 C189.592049,291.139054 181.083601,298.715039 167.956686,300.667757 C167.84127,300.684926 167.720491,300.701869 167.594438,300.718587 L171.535841,300.718676 C174.751502,300.718676 176.776133,304.208583 175.197109,307.030587 L175.197109,307.030587 L165.939299,318.293144 L166.756664,318.293144 C166.756664,318.293144 170.289249,322.310052 170.90415,322.967138 C172.483555,324.65738 174.111893,326.302163 175.786806,327.898536 C179.054094,331.012761 182.497657,333.942789 186.094503,336.669138 C189.702551,339.403162 193.465651,341.932326 197.36081,344.238328 C205.81614,349.245884 215.775414,353.774055 215.775414,365.16651 C215.775414,373.789519 208.794548,380.780142 200.183577,380.780142 L200.183577,380.780142 L200.497896,380.783253 C208.964351,380.950969 215.775414,387.879291 215.775414,396.401891 L215.775414,396.401891 L215.775414,397.023641 C215.775414,405.307912 209.059685,412.023641 200.775414,412.023641 L200.775414,412.023641 L15,412.023641 C6.71572875,412.023641 1.01453063e-15,405.307912 0,397.023641 L0,397.023641 L0,396.401891 L0.00422088109,396.034752 C0.13342519,390.420978 3.21804156,385.539756 7.75966119,382.891317 C10.0606761,381.548647 12.7366449,380.780142 15.5918371,380.780142 L15.5918371,380.780142 L15.2775385,380.777033 C6.81163842,380.609396 0,373.68436 0,365.16651 C0,353.774055 9.9592734,349.245884 18.414604,344.238328 C22.3097629,341.932326 26.0728625,339.403162 29.6809104,336.669138 C33.2777568,333.942789 36.7213202,331.012761 39.988608,327.898536 C41.6635205,326.302163 43.2918584,324.65738 44.8712637,322.967138 C45.4861647,322.310052 49.0187501,318.293144 49.0187501,318.293144 L49.0187501,318.293144 L48.8598747,318.293144 L39.6026533,307.034732 C38.0218653,304.210951 40.0482603,300.718676 43.2656841,300.718676 L43.2656841,300.718676 L45.1031481,300.718653 C43.9990413,300.523652 42.9514801,300.305239 42.1343354,300.070817 C32.7697839,297.385466 25.9180045,288.799517 25.9180045,278.614473 C25.9180045,275.014597 25.8104746,271.410604 26.0308518,267.814257 L26.0308518,267.814257 L26.0343967,267.779558 C26.9743968,237.677278 39.8183075,208.660078 61.6096484,187.682463 C71.6796431,177.988499 83.8500151,170.667594 93.323869,160.330227 C97.5925683,155.596458 100.504737,151.730752 101.273398,150.686841 C109.797208,137.205391 114.750672,121.261486 114.750672,104.156635 C114.750672,101.747112 114.652595,99.3599368 114.461168,96.9998155 L114.461168,96.9998155 L114.445216,96.9639402 C110.415209,108.564586 99.3756735,116.909406 86.3509708,116.909406 C83.86065,116.909406 81.3738741,116.586529 78.9644961,115.959594 C77.8289335,115.664358 76.7323652,115.198568 75.5826228,114.972142 C74.3401211,114.726897 73.0710323,114.614566 71.8031252,114.614566 C70.3189767,114.614566 68.8342374,114.773946 67.38672,115.095647 C55.9040665,118.082703 46.3102755,125.700608 40.7240399,135.816254 C38.3217518,136.589042 35.7185837,136.919565 33.0120215,136.710783 C23.3839628,135.969165 15.546099,128.234812 14.7207187,118.657295 C14.244515,113.124272 16.0559796,108.0194 19.3084627,104.158987 L19.3084627,104.158987 L69.0546146,42.0201043 C73.7268463,35.7513445 78.9461806,32.0350209 86.3509708,32.0350209 L86.3509708,32.0350209 L86.3852385,32.0367853 L86.3621964,31.9826783 C89.0669861,17.8678238 98.4043597,6.1389677 111.123607,0.261895114 Z" id="Combined-Shape" fill="#FFC654"></path>
                            <path d="M154.139565,105.966903 L149.755565,105.966903 L149.755565,92.0789031 L144.763565,92.0789031 L144.763565,89.1029031 C146.256906,89.0815696 147.504893,88.7029068 148.507565,87.9669031 C149.510237,87.2308994 150.118231,86.308242 150.331565,85.1989031 L154.139565,85.1989031 L154.139565,105.966903 Z" id="1" fill="#FFFFFF" fill-rule="nonzero"></path>
                            <path d="M125.613479,133.748604 C129.997642,133.75164 132.715763,135.892418 132.715763,139.335275 C132.715763,140.46184 132.429164,141.675251 131.853534,142.963969 L131.853534,142.963969 L131.81459,143.048386 C131.294332,144.206531 126.801249,154.365661 126.800641,159.895852 C126.800641,163.693987 127.869756,167.40892 129.907586,170.647112 C130.088307,170.932549 130.272071,171.212521 130.466787,171.485204 C134.467603,177.210343 141.116562,180.626478 148.259007,180.626478 C155.398409,180.626478 162.052845,177.210343 166.054269,171.484597 C166.247768,171.209484 166.434574,170.926476 166.612253,170.646505 C168.644606,167.413779 169.717981,163.697631 169.717981,159.895852 C169.714939,154.362625 165.213337,144.188312 164.727154,143.10608 L164.727154,143.10608 L164.652918,142.935426 C164.086415,141.675251 163.796774,140.46184 163.796774,139.335275 C163.796774,135.892418 166.52098,133.75164 170.901492,133.748604 L170.901492,133.748604 L205.971883,133.748088 C205.697181,143.882343 204.010779,154.000827 201.08002,163.717793 C199.606507,168.60212 198.283062,173.598779 197.101415,178.674245 C191.308391,203.55697 188.91792,230.352845 188.91792,255.277326 C188.91792,262.095389 189.150113,268.858168 189.560145,275.57331 C189.636361,276.818946 189.716713,278.063406 189.805927,279.305513 C189.592049,291.139054 181.083601,298.715039 167.956686,300.667757 C167.84127,300.684926 167.720491,300.701869 167.594438,300.718587 L171.535841,300.718676 C174.687188,300.718676 176.694671,304.070382 175.287545,306.860499 L175.197109,307.030587 L165.939299,318.293144 L166.756664,318.293144 L166.792021,318.333341 C167.162166,318.754096 170.32542,322.348704 170.90415,322.967138 C172.483555,324.65738 174.111893,326.302163 175.786806,327.898536 C179.054094,331.012761 182.497657,333.942789 186.094503,336.669138 C189.702551,339.403162 193.465651,341.932326 197.36081,344.238328 C205.81614,349.245884 215.775414,353.774055 215.775414,365.16651 C215.775414,373.68436 208.963775,380.609396 200.497875,380.777033 L200.183577,380.780142 L200.497896,380.783253 C208.85852,380.948872 215.604878,387.707139 215.772231,396.083051 L215.775414,396.401891 L215.775414,397.023641 C215.775414,405.203048 209.228627,411.853371 201.089242,412.020423 L200.775414,412.023641 L15,412.023641 C6.82059295,412.023641 0.170269778,405.476854 0.00321775869,397.337469 L0,397.023641 L0,396.401891 L0.00422088109,396.034752 C0.13342519,390.420978 3.21804156,385.539756 7.75966119,382.891317 C9.93957001,381.619314 12.4560026,380.862628 15.1425352,380.7865 L15.5918371,380.780142 L15.2775385,380.777033 C6.81163842,380.609396 0,373.68436 0,365.16651 C0,353.774055 9.9592734,349.245884 18.414604,344.238328 C22.3097629,341.932326 26.0728625,339.403162 29.6809104,336.669138 C33.2777568,333.942789 36.7213202,331.012761 39.988608,327.898536 C41.6635205,326.302163 43.2918584,324.65738 44.8712637,322.967138 C45.4680793,322.329378 48.8134749,318.526526 49.0097466,318.303381 L49.0187501,318.293144 L48.8598747,318.293144 L39.6026533,307.034732 C38.053481,304.267427 39.9686473,300.8581 43.0740872,300.722834 L43.2656841,300.718676 L45.1031481,300.718653 C43.9990413,300.523652 42.9514801,300.305239 42.1343354,300.070817 C32.7697839,297.385466 25.9180045,288.799517 25.9180045,278.614473 C25.9180045,275.464582 25.8356769,272.311538 25.9627305,269.163223 L26.0308518,267.814257 L26.0343967,267.779558 C26.9743968,237.677278 39.8183075,208.660078 61.6096484,187.682463 C71.6796431,177.988499 83.8500151,170.667594 93.323869,160.330227 C97.5925683,155.596458 100.504737,151.730752 101.273398,150.686841 C104.619911,145.393922 107.416087,139.721438 109.578226,133.748153 Z" id="Combined-Shape" fill="#5AC8F7"></path>
                            <path d="M75.4576927,349.555877 L75.4576927,362.099877 L78.8816927,362.099877 L78.8816927,365.875877 L75.4576927,365.875877 L75.4576927,370.323877 L71.1056927,370.323877 L71.1056927,365.875877 L61.2816927,365.875877 L61.2816927,361.267877 L70.0176927,349.555877 L75.4576927,349.555877 Z M71.1056927,354.163877 L65.1856927,362.099877 L71.1056927,362.099877 L71.1056927,354.163877 Z" id="4" fill="#FFFFFF" fill-rule="nonzero"></path>
                            <path d="M125.613479,133.761295 C129.997642,133.764331 132.715763,135.905109 132.715763,139.347966 C132.715763,140.372116 132.478905,141.46804 132.00336,142.627068 L131.853534,142.97666 L131.81459,143.061077 C131.294332,144.219222 126.801249,154.378352 126.800641,159.908543 C126.800641,163.706678 127.869756,167.421611 129.907586,170.659803 C130.088307,170.94524 130.272071,171.225212 130.466787,171.497895 C134.467603,177.223034 141.116562,180.639169 148.259007,180.639169 C155.398409,180.639169 162.052845,177.223034 166.054269,171.497288 C166.247768,171.222175 166.434574,170.939167 166.612253,170.659196 C168.644606,167.42647 169.717981,163.710322 169.717981,159.908543 C169.714989,154.467536 165.362141,144.538858 164.75477,143.180396 L164.727154,143.118772 L164.652918,142.948117 C164.086415,141.687942 163.796774,140.474531 163.796774,139.347966 C163.796774,135.979954 166.403823,133.858024 170.618166,133.764515 L170.901492,133.761295 L205.971883,133.760779 C205.697181,143.895035 204.010779,154.013518 201.08002,163.730484 C199.606507,168.614811 198.283062,173.61147 197.101415,178.686936 C191.308391,203.569661 188.91792,230.365536 188.91792,255.290017 C188.91792,262.10808 189.150113,268.870859 189.560145,275.586001 C189.636361,276.831637 189.716713,278.076097 189.805927,279.318204 C189.592049,291.151745 181.083601,298.72773 167.956686,300.680448 C167.84127,300.697617 167.720491,300.71456 167.594438,300.731278 L171.535841,300.731367 C174.687188,300.731367 176.694671,304.083073 175.287545,306.87319 L175.197109,307.043278 L165.939299,318.305835 L166.756664,318.305835 L166.792021,318.346032 C167.162166,318.766787 170.32542,322.361395 170.90415,322.979829 C172.483555,324.670071 174.111893,326.314854 175.786806,327.911227 C179.054094,331.025452 182.497657,333.95548 186.094503,336.681829 C189.702551,339.415853 193.465651,341.945017 197.36081,344.251019 C205.81614,349.258575 215.775414,353.786746 215.775414,365.179201 C215.775414,373.697051 208.963775,380.622087 200.497875,380.789724 L200.183577,380.792833 L200.497896,380.795944 C208.85852,380.961563 215.604878,387.71983 215.772231,396.095742 L215.775414,396.414582 L215.775414,397.036332 C215.775414,405.215739 209.228627,411.866062 201.089242,412.033114 L200.775414,412.036332 L121.773159,412.036229 L153.876993,385.09872 L111.464507,334.553487 C109.66801,332.412505 109.024916,330.150402 109.660054,328.165859 C110.292104,326.191834 112.158044,324.635638 114.907193,323.793112 C115.390502,323.64681 126.911026,320.090773 131.454858,316.278045 C140.519215,308.672147 141.91443,295.35904 134.566045,286.601576 C127.218051,277.844577 113.864143,276.905869 104.799786,284.511768 C100.255954,288.324495 94.7526426,299.051567 94.5258088,299.503524 C93.2179172,302.063674 91.3617364,303.631501 89.3059954,303.908836 C87.2428722,304.191574 85.125247,303.163579 83.3295303,301.023527 L83.3295303,301.023527 L40.9186056,250.480155 L26.3041371,262.741897 C28.4423396,234.462332 41.0397376,207.496949 61.6096484,187.695154 C71.6796431,178.00119 83.8500151,170.680285 93.323869,160.342919 C97.5925683,155.609149 100.504737,151.743443 101.273398,150.699532 C104.619911,145.406613 107.416087,139.734129 109.578226,133.760844 L125.613479,133.761295 Z" id="Combined-Shape" stroke="#FFFFFF" stroke-width="2" fill="#2D8EF6" stroke-linejoin="round"></path>
                            <path d="M132.313409,233.204804 L130.361409,230.132804 L135.801409,225.460804 L126.713409,225.460804 L126.713409,221.652804 L141.401409,221.652804 L141.401409,225.204804 L136.025409,229.684804 C137.668084,229.748804 139.081403,230.362131 140.265409,231.524804 C141.449415,232.687476 142.041409,234.186128 142.041409,236.020804 C142.041409,237.898147 141.316083,239.51413 139.865409,240.868804 C138.414735,242.223477 136.484088,242.900804 134.073409,242.900804 C131.748064,242.900804 129.860083,242.255477 128.409409,240.964804 C126.958735,239.674131 126.16941,238.11148 126.041409,236.276804 L130.297409,235.444804 C130.340076,236.511476 130.708072,237.386134 131.401409,238.068804 C132.094746,238.751474 132.985404,239.092804 134.073409,239.092804 C135.140081,239.092804 135.993406,238.79414 136.633409,238.196804 C137.273412,237.599467 137.593409,236.852808 137.593409,235.956804 C137.593409,234.996799 137.278745,234.244807 136.649409,233.700804 C136.020073,233.156801 135.204081,232.884804 134.201409,232.884804 C133.540072,232.884804 132.910745,232.991469 132.313409,233.204804 Z" id="3" fill="#FFFFFF" fill-rule="nonzero"></path>
                        </g>
                    </g>
                </g>
            </g>
        </g>
    </g>
</svg>