<?xml version="1.0" encoding="UTF-8"?>
<svg width="219px" height="544px" viewBox="0 0 219 544" version="1.1" xmlns="http://www.w3.org/2000/svg" xmlns:xlink="http://www.w3.org/1999/xlink">
    <!-- Generator: Sketch 64 (93537) - https://sketch.com -->
    <title>chess</title>
    <desc>Created with Sketch.</desc>
    <g id="UI" stroke="none" stroke-width="1" fill="none" fill-rule="evenodd">
        <g id="bp-ui-home" transform="translate(-737.000000, -4059.000000)">
            <g id="Game" transform="translate(162.000000, 3871.000000)">
                <g id="game" transform="translate(0.000000, 188.000000)">
                    <g id="chess" transform="translate(336.000000, 0.000000)">
                        <g transform="translate(240.000000, 0.000000)">
                            <path d="M108.888689,23.7635468 L132.710903,35.1065339 L120.838057,71.4859524 L148.226776,63.3526484 L148.226776,100.020983 L120.838057,91.8884319 L132.534,127.729 L138.052869,127.729064 C142.5817,127.729064 145.159893,131.706877 145.259257,135.427001 L145.26224,135.649866 C145.26224,139.432912 142.642973,142.591795 139.143104,143.378851 C138.937201,143.424811 138.727753,143.459996 138.515789,143.487383 C139.670162,143.631878 140.823878,143.786857 141.9764,143.950378 C146.802578,144.63498 151.606976,145.46854 156.381333,146.451057 C160.331799,147.263552 163.938289,148.160306 167.318717,150.462376 C173.207615,154.472189 176.883952,161.146686 176.883952,168.306423 C176.883952,170.326376 176.576777,172.566756 175.947406,174.426467 C175.946434,174.430362 166.27046,200.292122 156.478976,227.213531 C158.819382,228.759954 160.084918,231.756894 160.084918,234.568966 C160.084918,238.58826 157.470304,241.943602 153.976651,242.779809 C153.622636,242.863915 153.25812,242.914864 152.888354,242.946404 L152.888354,242.946404 L152.888354,242.985222 L160.401963,242.985222 C167.603887,242.985222 170.954882,248.675956 170.954882,253.876473 C170.954882,259.078488 167.28417,263.420746 162.379834,264.503125 C161.612212,264.671778 160.817444,264.768473 159.998547,264.768473 L159.998547,264.768473 L143.08007,264.769406 C143.079955,264.769739 143.079839,264.770072 143.079724,264.770406 L143.622737,264.768473 C143.345697,265.900861 143.079202,267.037408 142.823377,268.178005 L143.958393,268.17862 C143.430375,269.705302 142.530534,271.468699 141.75737,273.278369 C139.572668,284.516332 138.421968,296.124572 138.421968,308.002985 C138.421968,311.392923 138.541362,314.753509 138.728337,318.096783 C142.13219,357.993289 151.898462,396.853395 167.002168,431.1133 L167.002168,431.1133 L172.654007,431.1133 C175.885975,431.1133 177.920416,434.652785 176.333732,437.514155 L176.333732,437.514155 L167.030743,448.935961 L167.248766,448.935961 C167.248766,448.935961 170.791299,452.945877 171.407163,453.602454 C172.991565,455.290367 174.624844,456.931809 176.304747,458.525282 C179.581834,461.634279 183.034883,464.558895 186.642837,467.281141 C190.261319,470.010133 194.035459,472.534507 197.941946,474.837023 C206.422669,479.835553 216.411093,484.35589 216.411093,495.729063 C216.411093,504.337267 209.409496,511.315271 200.773115,511.315271 L200.773115,511.315271 L201.088367,511.318426 C209.579959,511.48852 216.411093,518.515076 216.411093,527.157635 L216.411093,527.157635 L216.411093,528 C216.411093,536.284271 209.695364,543 201.411093,543 L201.411093,543 L15,543 C6.71572875,543 -7.61826213e-16,536.284271 0,528 L0,528 L0,527.157635 L0.00423291676,526.785312 C0.133805814,521.09226 3.22723338,516.142303 7.78289463,513.456687 C10.0906921,512.095353 12.7744748,511.315271 15.6379784,511.315271 L15.6379784,511.315271 L15.3227524,511.312167 C6.83186791,511.144833 0,504.232289 0,495.729063 C0,484.35589 9.9884241,479.835553 18.4691474,474.837023 C22.3756341,472.534507 26.149774,470.010133 29.768256,467.281141 C33.3762105,464.558895 36.829259,461.634279 40.1063464,458.525282 C41.7862485,456.931809 43.4195284,455.290367 45.0039302,453.602454 C45.6197941,452.945877 49.1623271,448.935961 49.1623271,448.935961 L49.1623271,448.935961 L49.3802012,448.935961 L40.0779636,437.517973 C38.4897767,434.654312 40.5257212,431.1133 43.7591916,431.1133 L43.7591916,431.1133 L49.4089253,431.1133 C64.8332672,396.578678 74.8270634,358.35983 78.327783,318.481387 C78.5275238,315.011668 78.652174,311.522379 78.652174,308.002985 C78.652174,293.100502 76.8409909,278.623266 73.4514052,264.768473 L73.7571845,266.036694 C73.6114924,265.616945 73.4640154,265.192772 73.314824,264.764359 L56.3220603,264.763975 C50.3130422,264.714504 45.4562113,259.861039 45.4562113,253.876473 C45.4562113,247.861174 50.3613014,242.985222 56.4125462,242.985222 L56.4125462,242.985222 L60.179052,242.985222 C55.8678636,242.985222 52.3734609,239.216628 52.3734609,234.568966 C52.3734609,230.16409 55.511222,226.550018 59.5084026,226.183334 C49.8516074,199.63667 40.4638691,174.430209 40.4629351,174.426467 C39.8328132,172.566756 39.5271403,170.326376 39.5271403,168.306423 C39.5271403,161.146686 43.2019752,154.472189 49.0908737,150.462376 C52.4728033,148.160306 56.0785426,147.263552 60.0290089,146.451057 C64.8033652,145.46854 69.6077631,144.63498 74.4339412,143.950378 C75.5735141,143.788694 76.7142542,143.635362 77.856041,143.490368 C74.0645221,142.944736 71.1488525,139.642431 71.1488525,135.649866 C71.1488525,131.275385 74.6502251,127.729064 78.9690855,127.729064 L78.9690855,127.729064 L85.242,127.729 L96.977582,91.7530022 L69.1724955,100.020983 L69.1724955,63.3526484 L96.977582,71.6206296 L85.0672252,35.1065339 L108.888689,23.7635468 Z M108.699636,0 C115.248242,0 120.557778,5.31935268 120.557778,11.8817734 C120.557778,18.4434296 115.248242,23.7635468 108.699636,23.7635468 C102.15103,23.7635468 96.8414937,18.4434296 96.8414937,11.8817734 C96.8414937,5.31935268 102.15103,0 108.699636,0 Z" id="Combined-Shape" fill="#724FEA"></path>
                            <path d="M104.714492,188.52578 L100.522492,188.39778 C100.415825,187.928444 100.362492,187.448449 100.362492,186.95778 C100.362492,185.037771 101.045152,183.400454 102.410492,182.04578 C103.775832,180.691107 105.621147,180.01378 107.946492,180.01378 C110.207837,180.01378 112.021152,180.659107 113.386492,181.94978 C114.751832,183.240453 115.434492,184.824437 115.434492,186.70178 C115.434492,189.347127 114.090506,191.491105 111.402492,193.13378 L107.402492,195.56578 C106.463821,196.163116 105.866493,196.792443 105.610492,197.45378 L115.562492,197.45378 L115.562492,201.26178 L100.202492,201.26178 C100.223826,199.320437 100.602488,197.624454 101.338492,196.17378 C102.074496,194.723106 103.327817,193.464452 105.098492,192.39778 L108.522492,190.34978 C110.165167,189.368442 110.986492,188.173787 110.986492,186.76578 C110.986492,185.976443 110.714495,185.30445 110.170492,184.74978 C109.626489,184.195111 108.853164,183.91778 107.850492,183.91778 C106.78382,183.91778 105.967828,184.237777 105.402492,184.87778 C104.837156,185.517783 104.554492,186.349775 104.554492,187.37378 C104.554492,187.757782 104.607825,188.141778 104.714492,188.52578 Z" id="2" fill="#FFFFFF" fill-rule="nonzero"></path>
                            <path d="M73.724,265.900351 L87.1347248,265.900833 C89.9505537,265.900833 92.1129047,266.869461 93.2332399,268.64487 C94.3474564,270.411083 94.340114,272.859014 93.2099888,275.52642 C93.0099071,275.994181 88.2936079,287.188578 88.2936079,293.164644 C88.2936079,305.086125 97.6650193,314.784666 109.182873,314.784666 C120.700115,314.784666 130.07275,305.086125 130.07275,293.164644 C130.07275,287.188578 125.357675,275.994181 125.155757,275.52642 C124.026856,272.859014 124.018902,270.411083 125.136177,268.64487 C126.254065,266.869461 128.418864,265.900833 131.233469,265.900833 L131.233469,265.900833 L143.349,265.900351 L143.309595,266.069177 C140.121721,279.528509 138.421968,293.566204 138.421968,308.002985 C138.421968,311.392923 138.541362,314.753509 138.728337,318.096783 C142.087984,357.475152 151.645866,395.843867 166.416415,429.776179 L167.002168,431.1133 L172.654007,431.1133 C175.822603,431.1133 177.840174,434.515343 176.422908,437.345089 L176.333732,437.514155 L167.030743,448.935961 L167.248766,448.935961 L167.284223,448.976087 C167.655408,449.396112 170.827526,452.984499 171.407163,453.602454 C172.991565,455.290367 174.624844,456.931809 176.304747,458.525282 C179.581834,461.634279 183.034883,464.558895 186.642837,467.281141 C190.261319,470.010133 194.035459,472.534507 197.941946,474.837023 C206.422669,479.835553 216.411093,484.35589 216.411093,495.729063 C216.411093,504.232289 209.579225,511.144833 201.088341,511.312167 L200.773115,511.315271 L201.088367,511.318426 C209.473814,511.486394 216.240055,518.340484 216.407901,526.834307 L216.411093,527.157635 L216.411093,528 C216.411093,536.179407 209.864307,542.82973 201.724921,542.996782 L201.411093,543 L15,543 C6.82059295,543 0.170269778,536.453214 0.00321775869,528.313828 L0,528 L0,527.157635 L0.00423291676,526.785312 C0.133805814,521.09226 3.22723338,516.142303 7.78289463,513.456687 C9.96922906,512.167002 12.4930129,511.398995 15.1873684,511.321725 L15.6379784,511.315271 L15.3227524,511.312167 C6.83186791,511.144833 0,504.232289 0,495.729063 C0,484.35589 9.9884241,479.835553 18.4691474,474.837023 C22.3756341,472.534507 26.149774,470.010133 29.768256,467.281141 C33.3762105,464.558895 36.829259,461.634279 40.1063464,458.525282 C41.7862485,456.931809 43.4195284,455.290367 45.0039302,453.602454 C45.5835668,452.984499 48.7556854,449.396112 49.1268701,448.976087 L49.1623271,448.935961 L49.3802012,448.935961 L40.0779636,437.517973 C38.5209177,434.710463 40.4472736,431.251903 43.5703869,431.117353 L43.7591916,431.1133 L49.4089253,431.1133 C64.8332672,396.578678 74.8270634,358.35983 78.327783,318.481387 C78.5275238,315.011668 78.652174,311.522379 78.652174,308.002985 C78.652174,293.566204 76.9524211,279.528509 73.7645475,266.069177 L73.724,265.900351 Z" id="Combined-Shape" stroke="#FFFFFF" stroke-width="2" fill="#DE3C7D" stroke-linejoin="round"></path>
                            <path d="M87.1347248,265.600808 C89.9505537,265.600808 92.1129047,266.569436 93.2332399,268.344845 C94.3474564,270.111059 94.340114,272.55899 93.2099888,275.226395 C93.0099071,275.694157 88.2936079,286.888553 88.2936079,292.86462 C88.2936079,304.7861 97.6650193,314.484641 109.182873,314.484641 C120.700115,314.484641 130.07275,304.7861 130.07275,292.86462 C130.07275,286.888553 125.357675,275.694157 125.155757,275.226395 C124.026856,272.55899 124.018902,270.111059 125.136177,268.344845 C126.212662,266.635192 128.259944,265.673665 130.923429,265.604786 L131.233469,265.600808 L143.349,265.600326 L143.309595,265.769153 C140.121721,279.228484 138.421968,293.26618 138.421968,307.70296 C138.421968,311.092899 138.541362,314.453484 138.728337,317.796758 C141.526647,350.595705 148.624996,382.694202 159.453884,412.112141 L138.725451,448.014918 C136.514268,451.83868 133.277127,453.131885 130.273149,451.397538 C129.290192,450.830028 128.375836,449.968705 127.541373,448.817258 L127.541373,448.817258 L127.487335,448.740754 C126.738905,447.703397 120.138214,438.665384 115.313292,435.879006 C111.999325,433.965687 108.219384,433.02711 104.36742,433.173919 C104.02733,433.187814 103.690477,433.207116 103.354465,433.239646 C96.3437187,433.846404 90.0136266,437.9269 86.4156028,444.15886 C82.8191118,450.388165 82.4475859,457.915212 85.4277141,464.290912 C85.570281,464.598334 85.7231082,464.903893 85.877884,465.199958 C87.674715,468.601731 90.3764309,471.410295 93.693577,473.32545 C98.5229881,476.110173 109.668021,477.307748 110.857211,477.428718 L110.857211,477.428718 L111.043508,477.449914 C112.428419,477.590441 113.633057,477.948982 114.616013,478.516492 C117.619991,480.250839 118.115548,483.706198 115.911504,487.529834 L115.911504,487.529834 L84.058,542.699326 L15,542.699976 C6.82059295,542.699976 0.170269778,536.153189 0.00321775869,528.013804 L0,527.699976 L0,526.857611 L0.00423291676,526.485287 C0.133805814,520.792235 3.22723338,515.842278 7.78289463,513.156662 C9.96922906,511.866977 12.4930129,511.09897 15.1873684,511.0217 L15.6379784,511.015246 L15.3227524,511.012143 C6.83186791,510.844809 0,503.932264 0,495.429038 C0,484.055866 9.9884241,479.535528 18.4691474,474.536999 C22.3756341,472.234482 26.149774,469.710108 29.768256,466.981117 C33.3762105,464.258871 36.829259,461.334255 40.1063464,458.225258 C41.7862485,456.631785 43.4195284,454.990342 45.0039302,453.30243 C45.5835668,452.684475 48.7556854,449.096088 49.1268701,448.676063 L49.1623271,448.635936 L49.3802012,448.635936 L40.0779636,437.217948 C38.5209177,434.410438 40.4472736,430.951879 43.5703869,430.817328 L43.7591916,430.813276 L49.4089253,430.813276 C64.8332672,396.278653 74.8270634,358.059805 78.327783,318.181363 C78.5275238,314.711643 78.652174,311.222355 78.652174,307.70296 C78.652174,293.26618 76.9524211,279.228484 73.7645475,265.769153 L73.724,265.600326 L87.1347248,265.600808 Z" id="Combined-Shape" stroke="#FFFFFF" stroke-width="2" fill="#FD6B3F" stroke-linejoin="round"></path>
                            <path d="M98.7940163,390.802427 L102.922016,389.874427 C102.964683,390.855766 103.33268,391.682424 104.026016,392.354427 C104.719353,393.026431 105.610011,393.362427 106.698016,393.362427 C107.722021,393.362427 108.575346,393.053097 109.258016,392.434427 C109.940686,391.815758 110.282016,390.994433 110.282016,389.970427 C110.282016,388.839755 109.924687,387.975764 109.210016,387.378427 C108.495346,386.781091 107.626021,386.482427 106.602016,386.482427 C105.300676,386.482427 104.23402,386.951756 103.402016,387.890427 C101.887342,387.314425 100.543356,386.855762 99.3700163,386.514427 L101.834016,375.858427 L113.546016,375.858427 L113.546016,379.666427 L104.842016,379.666427 L103.818016,384.242427 C104.735354,383.38909 105.983342,382.962427 107.562016,382.962427 C109.69536,382.962427 111.412676,383.575755 112.714016,384.802427 C114.015356,386.0291 114.666016,387.730417 114.666016,389.906427 C114.666016,391.911771 113.94069,393.61842 112.490016,395.026427 C111.039342,396.434434 109.108695,397.138427 106.698016,397.138427 C104.522005,397.138427 102.69269,396.5091 101.210016,395.250427 C99.7273422,393.991754 98.922017,392.509103 98.7940163,390.802427 Z" id="5" fill="#FFFFFF" fill-rule="nonzero"></path>
                            <path d="M157.498982,487.518721 C159.312324,487.518721 160.762977,487.838718 161.850982,488.478721 L160.634982,492.062721 C159.482976,491.572052 158.341654,491.326721 157.210982,491.326721 C155.39764,491.326721 153.856322,491.844049 152.586982,492.878721 C151.317642,493.913393 150.56565,495.380045 150.330982,497.278721 C150.757651,496.638718 151.402978,496.094723 152.266982,495.646721 C153.130986,495.198719 154.12831,494.974721 155.258982,494.974721 C157.413659,494.974721 159.146975,495.604048 160.458982,496.862721 C161.770989,498.121394 162.426982,499.817377 162.426982,501.950721 C162.426982,504.062732 161.664323,505.806714 160.138982,507.182721 C158.613641,508.558728 156.698994,509.246721 154.394982,509.246721 C152.005637,509.246721 150.005657,508.409396 148.394982,506.734721 C146.784307,505.060046 145.978982,502.718736 145.978982,499.710721 C145.978982,495.998702 147.034971,493.038732 149.146982,490.830721 C151.258993,488.62271 154.042965,487.518721 157.498982,487.518721 Z M154.362982,498.590721 C153.338977,498.590721 152.474986,498.905385 151.770982,499.534721 C151.066979,500.164058 150.714982,501.001382 150.714982,502.046721 C150.714982,503.070726 151.072312,503.908051 151.786982,504.558721 C152.501652,505.209391 153.36031,505.534721 154.362982,505.534721 C155.408321,505.534721 156.282979,505.214724 156.986982,504.574721 C157.690986,503.934718 158.042982,503.09206 158.042982,502.046721 C158.042982,501.001382 157.690986,500.164058 156.986982,499.534721 C156.282979,498.905385 155.408321,498.590721 154.362982,498.590721 Z" id="6" fill="#FFFFFF" fill-rule="nonzero"></path>
                        </g>
                    </g>
                </g>
            </g>
        </g>
    </g>
</svg>