<?xml version="1.0" encoding="UTF-8"?>
<svg width="72px" height="72px" viewBox="0 0 72 72" version="1.1" xmlns="http://www.w3.org/2000/svg" xmlns:xlink="http://www.w3.org/1999/xlink">
    <!-- Generator: Sketch 58 (84663) - https://sketch.com -->
    <title>customize</title>
    <desc>Created with Sketch.</desc>
    <g id="UI-Final" stroke="none" stroke-width="1" fill="none" fill-rule="evenodd">
        <g id="bp-ui-home" transform="translate(-542.000000, -3201.000000)" fill="#FFC654" fill-rule="nonzero">
            <g id="Benefits" transform="translate(162.000000, 3005.000000)">
                <g id="2" transform="translate(380.000000, 196.000000)">
                    <g id="cover">
                        <g id="customize">
                            <path d="M35.965393,54.2922363 C31.0819703,54.2922363 26.4913329,52.390503 23.0383301,48.9375 C15.9104004,41.8095703 15.9104004,30.2118531 23.0383301,23.0839234 C25.494873,20.6273804 28.5776367,18.9294434 31.9526367,18.1730347 C35.2359008,17.4380493 38.6531983,17.6176758 41.8348389,18.6937867 C42.5703735,18.942627 42.965332,19.7407837 42.7164917,20.4763184 C42.4676514,21.2118531 41.6694946,21.6068116 40.93396,21.3579712 C35.3139038,19.4573364 29.218689,20.8811645 25.0268555,25.072998 C18.9959106,31.1044922 18.9959106,40.9180298 25.0268555,46.9489746 C27.9486695,49.8707886 31.8334351,51.4797363 35.965393,51.4797363 C40.0968017,51.4797363 43.9815673,49.8707886 46.9033813,46.9489746 C51.1397094,42.7126465 52.5514527,36.3367309 50.4997559,30.7045898 C50.2338867,29.9750977 50.6101684,29.1676025 51.3396606,28.9022828 C52.0697022,28.6364136 52.876648,29.012146 53.1425171,29.7421875 C55.5666504,36.3966064 53.8983765,43.9315796 48.8919067,48.9375 C45.4389038,52.390503 40.8482665,54.2922363 35.965393,54.2922363 Z" id="Path"></path>
                            <path d="M42.1875,72 L29.8125,72 C29.0357665,72 28.40625,71.3704835 28.40625,70.59375 L28.40625,64.5847778 C25.8640137,63.9129639 23.4338379,62.9066163 21.156372,61.5827637 L16.907959,65.8311767 C16.6442871,66.0948486 16.2866821,66.2431641 15.9136962,66.2431641 C15.5407105,66.2431641 15.1831055,66.0948486 14.9194336,65.8311767 L6.16882331,57.0805664 C5.90515144,56.8168945 5.75683594,56.4592895 5.75683594,56.0863038 C5.75683594,55.7133179 5.90515144,55.3557129 6.16882331,55.092041 L10.4172363,50.843628 C9.09338372,48.5661621 8.08703606,46.1359863 7.4152222,43.59375 L1.40625,43.59375 C0.629516531,43.59375 0,42.9642335 0,42.1875 L0,29.8125 C0,29.0357665 0.629516531,28.40625 1.40625,28.40625 L7.42456055,28.40625 C8.09857181,25.8684082 9.10656731,23.442627 10.4304199,21.1695556 L6.16882331,16.907959 C5.90515144,16.6442871 5.75683594,16.2866821 5.75683594,15.9136962 C5.75683594,15.5407105 5.90515144,15.1831055 6.16882331,14.9194336 L14.9194336,6.16882331 C15.1831055,5.90515144 15.5407105,5.75683594 15.9136962,5.75683594 C16.2866821,5.75683594 16.6442871,5.90515144 16.907959,6.16882331 L21.1794434,10.4403077 C23.4503173,9.12249759 25.8728027,8.12054447 28.40625,7.45092773 L28.40625,1.40625 C28.40625,0.629516531 29.0357665,0 29.8125,0 L42.1875,0 C42.9642335,0 43.59375,0.629516531 43.59375,1.40625 L43.59375,7.46026608 C46.1222535,8.13208008 48.5408936,9.13568119 50.807373,10.4534913 L55.0914917,6.16882331 C55.3551636,5.90515144 55.7133179,5.75683594 56.0863038,5.75683594 C56.4587402,5.75683594 56.8168945,5.90515144 57.0805664,6.16882331 L65.8311767,14.9194336 C66.0948486,15.1831055 66.2426148,15.5407105 66.2426148,15.9136962 C66.2426148,16.2866821 66.0948486,16.6442871 65.8311767,16.907959 L61.5465087,21.1920777 C62.8643188,23.4591064 63.8679199,25.8771973 64.5397339,28.40625 L70.59375,28.40625 C71.3704835,28.40625 72,29.0357665 72,29.8125 L72,42.1875 C72,42.9642335 71.3704835,43.59375 70.59375,43.59375 L64.5490723,43.59375 C63.8794555,46.1271973 62.8775024,48.5496827 61.5596923,50.8205566 L65.8311767,55.092041 C66.0948486,55.3557129 66.2431641,55.7133179 66.2431641,56.0863038 C66.2431641,56.4592895 66.0948486,56.8168945 65.8311767,57.0805664 L57.0805664,65.8311767 C56.5317993,66.3799438 55.6413574,66.3799438 55.092041,65.8311767 L50.8304444,61.5695801 C48.557373,62.8934327 46.1310425,63.9014282 43.59375,64.5754395 L43.59375,70.59375 C43.59375,71.3704835 42.9642335,72 42.1875,72 Z M31.21875,69.1875 L40.78125,69.1875 L40.78125,63.4729614 C40.78125,62.8148804 41.2371827,62.2452392 41.8787843,62.1007691 C44.8670655,61.4284058 47.6971436,60.2528687 50.2899171,58.6071167 C50.8458251,58.2539062 51.5725708,58.3341064 52.0383911,58.7999267 L56.0863038,62.8478394 L62.8483887,56.0863038 L58.791687,52.029602 C58.326416,51.5648804 58.2456665,50.8397828 58.597229,50.2838745 C60.2358398,47.6921997 61.4047852,44.8648681 62.0727539,41.8804321 C62.2161255,41.2382812 62.786316,40.78125 63.4449462,40.78125 L69.1875,40.78125 L69.1875,31.21875 L63.4372559,31.21875 C62.7791749,31.21875 62.2095337,30.7628173 62.0650634,30.1212158 C61.3943481,27.1417236 60.2232055,24.3187867 58.5840454,21.730957 C58.2319336,21.1750488 58.3121337,20.4494019 58.7774047,19.9841309 L62.8478394,15.9136962 L56.0863038,9.15216061 L52.0158691,13.2225953 C51.5505981,13.6878663 50.8249512,13.7680664 50.269043,13.4159546 C47.6817626,11.7767945 44.8588257,10.6056519 41.8787843,9.93493659 C41.2371827,9.79046634 40.78125,9.22082513 40.78125,8.56329342 L40.78125,2.8125 L31.21875,2.8125 L31.21875,8.55505378 C31.21875,9.21368405 30.762268,9.78387455 30.1195679,9.92724609 C27.1351319,10.5952148 24.3078003,11.7641602 21.7161255,13.402771 C21.1602173,13.7543335 20.4351196,13.673584 19.970398,13.208313 L15.9136962,9.15161133 L9.15216061,15.9136962 L13.2006226,19.9616089 C13.6664429,20.4274292 13.7460938,21.1541749 13.3934327,21.7100829 C11.7471313,24.3028564 10.5721436,27.1329345 9.89923092,30.1212158 C9.75476081,30.7628173 9.18511959,31.21875 8.52758789,31.21875 L2.8125,31.21875 L2.8125,40.78125 L8.51934811,40.78125 C9.17797852,40.78125 9.74816888,41.237732 9.89208984,41.8804321 C10.5611572,44.8736572 11.7350464,47.7075805 13.3802491,50.3047485 C13.7323609,50.8606567 13.6521606,51.5863038 13.1868897,52.0515747 L9.15216061,56.0863038 L15.9136962,62.8478394 L19.9484253,58.8136597 C20.4136962,58.3478394 21.1393433,58.2676391 21.6952515,58.6197509 C24.2924195,60.2649536 27.1268921,61.4388428 30.1195679,62.1084594 C30.762268,62.2518311 31.2192993,62.8220215 31.2192993,63.4806519 L31.2192993,69.1875 L31.21875,69.1875 Z" id="Shape"></path>
                            <path d="M35.9818726,45.8618774 C30.5540772,45.8618774 26.1381226,41.4459228 26.1381226,36.0181274 C26.1381226,30.5897827 30.5540772,26.1743774 35.9818726,26.1743774 C41.4102172,26.1743774 45.8256226,30.5897827 45.8256226,36.0181274 C45.8256226,41.4459228 41.4102172,45.8618774 35.9818726,45.8618774 Z M35.9818726,28.9868774 C32.1053467,28.9868774 28.9506226,32.1410523 28.9506226,36.0181274 C28.9506226,39.8946532 32.1053467,43.0493774 35.9818726,43.0493774 C39.8589477,43.0493774 43.0131226,39.8946532 43.0131226,36.0181274 C43.0131226,32.1410523 39.8589477,28.9868774 35.9818726,28.9868774 Z" id="Shape"></path>
                            <path d="M47.8635864,25.5184937 C47.5043335,25.5184937 47.1445312,25.3811645 46.869873,25.1070556 C46.3205566,24.5582886 46.3200074,23.6678467 46.8687743,23.1185303 L46.9368897,23.050415 C47.4856567,22.5010986 48.3760986,22.5005493 48.925415,23.0498657 C49.4747314,23.5986328 49.4752808,24.4890747 48.9265137,25.0383911 L48.8589477,25.105957 C48.5842895,25.3811645 48.223938,25.5184937 47.8635864,25.5184937 Z" id="Path"></path>
                        </g>
                    </g>
                </g>
            </g>
        </g>
    </g>
</svg>