<?xml version="1.0" encoding="UTF-8"?>
<svg width="18px" height="16px" viewBox="0 0 18 16" version="1.1" xmlns="http://www.w3.org/2000/svg" xmlns:xlink="http://www.w3.org/1999/xlink">
    <!-- Generator: Sketch 58 (84663) - https://sketch.com -->
    <title>error</title>
    <desc>Created with Sketch.</desc>
    <g id="UI-Final" stroke="none" stroke-width="1" fill="none" fill-rule="evenodd">
        <g id="error" transform="translate(-637.000000, -154.000000)" fill="#DE3C3C" fill-rule="nonzero">
            <g id="email">
                <g id="error" transform="translate(637.000000, 154.000000)">
                    <path d="M17.8281914,14.0902239 L10.0974023,0.636592032 C9.86835937,0.237971397 9.45812109,0 9,0 C8.54187891,0 8.13164062,0.237971397 7.90259766,0.636592032 L0.171808594,14.0902239 C-0.0572695312,14.4888445 -0.0572695312,14.9648227 0.171808594,15.363408 C0.400851563,15.7620286 0.811089844,16 1.26921094,16 L16.7307891,16 C17.1889102,16 17.5991484,15.7620286 17.8281914,15.363408 C18.0572695,14.9648227 18.0572695,14.4888445 17.8281914,14.0902239 Z M16.913707,14.8329264 C16.8909609,14.8725588 16.8368555,14.9390368 16.7308242,14.9390368 L1.26921094,14.9390368 C1.16310938,14.9390368 1.10903906,14.8725942 1.08632813,14.8329264 C1.06358203,14.7933292 1.03327734,14.7130399 1.08632813,14.6207408 L8.81708203,1.16707362 C8.87013281,1.07477448 8.9544375,1.06096317 8.99996484,1.06096317 C9.04552734,1.06096317 9.12983203,1.07473916 9.18284766,1.16707362 L16.9136719,14.6207408 C16.9667578,14.7130399 16.9364531,14.7933292 16.913707,14.8329264 Z" id="Shape"></path>
                    <rect id="Rectangle" x="8.5" y="4.875" width="1" height="5.625"></rect>
                    <circle id="Oval" cx="9.0625" cy="12.1875" r="1"></circle>
                </g>
            </g>
        </g>
    </g>
</svg>