<?xml version="1.0" encoding="UTF-8"?>
<svg width="110px" height="110px" viewBox="0 0 110 110" version="1.1" xmlns="http://www.w3.org/2000/svg" xmlns:xlink="http://www.w3.org/1999/xlink">
    <!-- Generator: Sketch 64 (93537) - https://sketch.com -->
    <title>cover</title>
    <desc>Created with Sketch.</desc>
    <g id="Page-1" stroke="none" stroke-width="1" fill="none" fill-rule="evenodd">
        <g id="bp-ui-Our-Achievers" transform="translate(-236.000000, -3040.000000)">
            <g id="content" transform="translate(0.000000, 730.000000)">
                <g id="students" transform="translate(0.000000, 308.000000)">
                    <g id="Nums" transform="translate(0.000000, 1752.000000)">
                        <g id="nums" transform="translate(171.000000, 250.000000)">
                            <g id="1">
                                <g id="cover" transform="translate(65.000000, 0.000000)">
                                    <circle id="Oval" fill="#DE3C7D" cx="55" cy="55" r="55"></circle>
                                    <g id="start" transform="translate(35.000000, 33.000000)" fill="#FFFFFF" fill-rule="nonzero">
                                        <path d="M38.7534375,3.0515625 C38.368125,2.7928125 37.8759375,2.7421875 37.4428125,2.91375 C37.3471875,2.953125 28.08,6.620625 20.289375,2.9475 C13.60125,-0.2109375 6.2353125,1.265625 2.8125,2.2640625 L2.8125,1.40625 C2.8125,0.63 2.1825,0 1.40625,0 C0.63,0 0,0.63 0,1.40625 L0,43.59375 C0,44.37 0.63,45 1.40625,45 C2.1825,45 2.8125,44.37 2.8125,43.59375 L2.8125,27.7115625 C5.304375,26.89875 12.69,24.9665625 19.0884375,27.99 C22.12875,29.4271875 25.3096875,29.9053125 28.198125,29.9053125 C33.7528125,29.9053125 38.2190625,28.13625 38.4975,28.02375 C39.02625,27.8071875 39.375,27.2925 39.375,26.71875 L39.375,4.21875 C39.375,3.751875 39.1415625,3.3159375 38.7534375,3.0515625 Z M36.5625,25.723125 C34.0565625,26.5359375 26.67375,28.4596875 20.2865625,25.4446875 C13.60125,22.2890625 6.2353125,23.765625 2.8125,24.7640625 L2.8125,5.214375 C5.304375,4.4015625 12.69,2.469375 19.0884375,5.4928125 C25.768125,8.645625 33.1396875,7.171875 36.5625,6.170625 L36.5625,25.723125 Z" id="Shape"></path>
                                    </g>
                                </g>
                            </g>
                        </g>
                    </g>
                </g>
            </g>
        </g>
    </g>
</svg>