<?xml version="1.0" encoding="UTF-8"?>
<svg width="110px" height="110px" viewBox="0 0 110 110" version="1.1" xmlns="http://www.w3.org/2000/svg" xmlns:xlink="http://www.w3.org/1999/xlink">
    <!-- Generator: Sketch 64 (93537) - https://sketch.com -->
    <title>cover</title>
    <desc>Created with Sketch.</desc>
    <g id="Page-1" stroke="none" stroke-width="1" fill="none" fill-rule="evenodd">
        <g id="bp-ui-Our-Achievers" transform="translate(-806.000000, -3040.000000)">
            <g id="content" transform="translate(0.000000, 730.000000)">
                <g id="students" transform="translate(0.000000, 308.000000)">
                    <g id="Nums" transform="translate(0.000000, 1752.000000)">
                        <g id="nums" transform="translate(171.000000, 250.000000)">
                            <g id="1" transform="translate(570.000000, 0.000000)">
                                <g id="cover" transform="translate(65.000000, 0.000000)">
                                    <circle id="Oval" fill="#DE3C7D" cx="55" cy="55" r="55"></circle>
                                    <path d="M41.8117647,48.7158322 L39.0509804,49.7225981 C38.9045744,48.7266527 38.4339909,47.8227375 37.6392157,47.0108254 C36.8444405,46.1989134 35.7464122,45.7929635 34.345098,45.7929635 C33.1111049,45.7929635 32.0862786,46.1610247 31.2705882,46.8971583 C30.4548979,47.6332919 30.0470588,48.5426198 30.0470588,49.6251691 C30.0470588,50.4695577 30.292808,51.1840296 30.7843137,51.7686062 C31.2758195,52.3531829 31.9816947,52.7537202 32.9019608,52.97023 L36.227451,53.7171854 C38.0679831,54.1285542 39.4901911,54.9025654 40.4941176,56.0392422 C41.4980442,57.1759191 42,58.5561488 42,60.1799729 C42,62.0419579 41.288896,63.644107 39.8666667,64.9864682 C38.4444373,66.3288294 36.5934755,67 34.3137255,67 C31.8248242,67 29.8745169,66.3234168 28.4627451,64.97023 C27.0509733,63.6170433 26.2300665,62.0094816 26,60.1474966 L28.9490196,59.173207 C29.0745104,60.5588703 29.597381,61.7280061 30.5176471,62.6806495 C31.4379131,63.633293 32.6928025,64.1096076 34.2823529,64.1096076 C35.7464125,64.1096076 36.875813,63.763197 37.6705882,63.0703654 C38.4653635,62.3775337 38.8627451,61.5006819 38.8627451,60.4397835 C38.8627451,59.573744 38.580395,58.8213834 38.0156863,58.1826793 C37.4509776,57.5439752 36.624842,57.1055492 35.5372549,56.8673884 L32.3686275,56.1529093 C30.7163316,55.7848425 29.3986977,55.0595453 28.4156863,53.9769959 C27.4326748,52.8944465 26.9411765,51.5196294 26.9411765,49.8525034 C26.9411765,48.0338204 27.6575092,46.437084 29.0901961,45.0622463 C30.522883,43.6874086 32.2535846,43 34.2823529,43 C36.5621029,43 38.3084907,43.5737426 39.5215686,44.7212449 C40.7346466,45.8687473 41.4980376,47.2002631 41.8117647,48.7158322 Z M63.5553914,66 L61.0531758,59.5768688 L50.8493353,59.5768688 L48.4121123,66 L45,66 L54.1639586,43 L57.8360414,43 L67,66 L63.5553914,66 Z M54.9672131,47 L51,58 L59,58 L54.9672131,47 Z M85,45.9520451 L77.541958,45.9520451 L77.541958,66 L74.458042,66 L74.458042,45.9520451 L67,45.9520451 L67,43 L85,43 L85,45.9520451 Z" id="SAT" fill="#FFFFFF" fill-rule="nonzero"></path>
                                </g>
                            </g>
                        </g>
                    </g>
                </g>
            </g>
        </g>
    </g>
</svg>