<?xml version="1.0" encoding="UTF-8"?>
<svg width="110px" height="110px" viewBox="0 0 110 110" version="1.1" xmlns="http://www.w3.org/2000/svg" xmlns:xlink="http://www.w3.org/1999/xlink">
    <!-- Generator: Sketch 64 (93537) - https://sketch.com -->
    <title>cover</title>
    <desc>Created with Sketch.</desc>
    <g id="Page-1" stroke="none" stroke-width="1" fill="none" fill-rule="evenodd">
        <g id="bp-ui-Our-Achievers" transform="translate(-1090.000000, -3040.000000)">
            <g id="content" transform="translate(0.000000, 730.000000)">
                <g id="students" transform="translate(0.000000, 308.000000)">
                    <g id="Nums" transform="translate(0.000000, 1752.000000)">
                        <g id="nums" transform="translate(171.000000, 250.000000)">
                            <g id="1" transform="translate(854.000000, 0.000000)">
                                <g id="cover" transform="translate(65.000000, 0.000000)">
                                    <circle id="Oval" fill="#DE3C7D" cx="55" cy="55" r="55"></circle>
                                    <g id="mortarboard" transform="translate(18.000000, 35.000000)" fill="#FFFFFF" fill-rule="nonzero">
                                        <path d="M73.4172511,13.6347425 C73.118072,13.2069757 72.7420025,12.8778577 72.2855737,12.6439273 C72.2362886,12.6192651 71.9587891,12.5147031 71.9063244,12.4962425 L39.0751034,0.361568236 C38.9888184,0.330704414 38.9023889,0.306186424 38.8130687,0.290754513 C37.5796414,-0.096918171 36.4233937,-0.096918171 35.1931461,0.290754513 C35.1068611,0.303157731 35.0173965,0.327675721 34.9280763,0.361568236 L2.12142554,12.4841277 C2.04121086,12.5118186 1.77296138,12.6163806 1.69910606,12.653446 C1.25510692,12.8810307 0.875857664,13.2134658 0.604573038,13.6041671 C0.56757311,13.6533473 0.456573327,13.8226657 0.4256437,13.8779033 C0.14192941,14.3671093 0,14.8747759 0,15.3854712 C0,15.8961665 0.14192941,16.4039773 0.570319199,17.1239409 C0.869498302,17.5547364 1.24874756,17.890056 1.71110213,18.1268709 C1.76053172,18.1515331 2.03803118,18.2560951 2.09035139,18.2745557 L15.4165402,23.2005083 L15.4165402,32.3076435 C15.4165402,37.3566187 26.2729838,39.9995137 36.9999277,39.9995137 C47.7268716,39.9995137 58.5831707,37.3564744 58.5831707,32.3076435 L58.5831707,23.1973354 L64.7498735,20.9174508 L64.7498735,31.9354027 L61.8236996,37.7750109 C61.4444503,38.5350686 61.7528794,39.4579546 62.5144131,39.8395699 C63.2760913,40.2148394 64.2009449,39.9102394 64.5833739,39.1503259 L66.2884057,35.7505461 L67.993582,39.1503259 C68.2650112,39.6888564 68.8075805,39.9995137 69.3748645,39.9995137 C69.6091492,39.9995137 69.8434339,39.9473048 70.0593632,39.8395699 C70.8210414,39.4579546 71.1323611,38.5349244 70.7500767,37.7750109 L67.8332972,31.9538633 L67.8332972,20.0006222 C67.8332972,19.9267798 67.8023676,19.8653406 67.7900824,19.7943826 L71.8753948,18.283786 C71.9556095,18.2560951 72.2238589,18.1515331 72.2978588,18.1144677 C72.7448931,17.886883 73.1241423,17.5514193 73.3986066,17.1545163 L72.1621442,16.2376877 L73.5743563,16.8930391 C73.8580706,16.4038331 74,15.8961665 74,15.3854712 L74,15.3854712 C74,14.8746317 73.8580706,14.3669651 73.4172511,13.6347425 Z M37.0000723,36.9227945 C25.5238798,36.9227945 18.5001084,33.9353495 18.5001084,32.3076435 C18.5001084,30.6799374 25.5238798,27.6924925 37.0000723,27.6924925 C48.4762647,27.6924925 55.5000361,30.6799374 55.5000361,32.3076435 C55.5000361,33.9353495 48.4761202,36.9227945 37.0000723,36.9227945 Z M55.5000361,28.1786698 C47.560372,23.5943826 26.439628,23.5943826 18.5001084,28.1786698 L18.5001084,20.0006222 C18.5001084,18.3729161 25.5238798,15.3854712 37.0000723,15.3854712 C48.4762647,15.3854712 55.5000361,18.3729161 55.5000361,20.0006222 L55.5000361,28.1786698 Z M58.5710301,19.9205782 C58.3335658,9.93339141 15.6633991,9.93339141 15.4259347,19.9205782 L3.16045867,15.3792696 L35.7819653,3.32449518 C35.8467151,3.30920749 35.911465,3.29074689 35.9762149,3.26911337 C36.7069635,3.01066491 37.283642,3.01066491 38.0143906,3.26911337 C38.0761053,3.29060266 38.1408552,3.30920749 38.2056051,3.32132226 L70.8302913,15.3883557 L58.5710301,19.9205782 Z" id="Shape"></path>
                                    </g>
                                </g>
                            </g>
                        </g>
                    </g>
                </g>
            </g>
        </g>
    </g>
</svg>