<?xml version="1.0" encoding="UTF-8"?>
<svg width="56px" height="56px" viewBox="0 0 56 56" version="1.1" xmlns="http://www.w3.org/2000/svg" xmlns:xlink="http://www.w3.org/1999/xlink">
    <!-- Generator: Sketch 64 (93537) - https://sketch.com -->
    <title>Virtual_live_group_classes</title>
    <desc>Created with Sketch.</desc>
    <g id="Page-1" stroke="none" stroke-width="1" fill="none" fill-rule="evenodd">
        <g id="Virtual_live_group_classes" fill="#DE3C7D" fill-rule="nonzero">
            <path d="M12.6483438,45.2831094 C13.6234219,44.2135313 14.21875,42.7922031 14.21875,41.234375 C14.21875,37.9173594 11.5201406,35.21875 8.203125,35.21875 C4.88610937,35.21875 2.1875,37.9173594 2.1875,41.234375 C2.1875,42.7922031 2.78282812,44.2135313 3.75790625,45.2831094 C1.49898437,46.7457812 0,49.2862344 0,52.171875 L0,54.359375 C0,55.2654375 0.7345625,56 1.640625,56 L14.765625,56 C15.6716875,56 16.40625,55.2654375 16.40625,54.359375 L16.40625,52.171875 C16.40625,49.2862344 14.9072656,46.7457812 12.6483438,45.2831094 Z M5.46875,41.234375 C5.46875,39.7266406 6.69539062,38.5 8.203125,38.5 C9.71085938,38.5 10.9375,39.7266406 10.9375,41.234375 C10.9375,42.7421094 9.71085938,43.96875 8.203125,43.96875 C6.69539062,43.96875 5.46875,42.7421094 5.46875,41.234375 Z M13.125,52.71875 L3.28125,52.71875 L3.28125,52.171875 C3.28125,49.4579531 5.48920312,47.25 8.203125,47.25 C10.9170469,47.25 13.125,49.4579531 13.125,52.171875 L13.125,52.71875 Z" id="Shape"></path>
            <path d="M52.2409531,45.2831094 C53.2159219,44.2135313 53.81125,42.7922031 53.81125,41.234375 C53.81125,37.9173594 51.1126406,35.21875 47.795625,35.21875 C44.4786094,35.21875 41.78,37.9173594 41.78,41.234375 C41.78,42.7922031 42.3753281,44.2135313 43.3504063,45.2831094 C41.0914844,46.7457812 39.5925,49.2862344 39.5925,52.171875 L39.5925,54.359375 C39.5925,55.2654375 40.3270625,56 41.233125,56 L54.358125,56 C55.2641875,56 55.99875,55.2654375 55.99875,54.359375 L55.99875,52.171875 C55.99875,49.2862344 54.4997656,46.7457812 52.2409531,45.2831094 L52.2409531,45.2831094 Z M45.06125,41.234375 C45.06125,39.7266406 46.2878906,38.5 47.795625,38.5 C49.3033594,38.5 50.53,39.7266406 50.53,41.234375 C50.53,42.7421094 49.3033594,43.96875 47.795625,43.96875 C46.2878906,43.96875 45.06125,42.7421094 45.06125,41.234375 L45.06125,41.234375 Z M52.7175,52.71875 L42.87375,52.71875 L42.87375,52.171875 C42.87375,49.4579531 45.0817031,47.25 47.795625,47.25 C50.5095469,47.25 52.7175,49.4579531 52.7175,52.171875 L52.7175,52.71875 Z" id="Shape"></path>
            <path d="M32.4447031,45.2831094 C33.4196719,44.2135313 34.015,42.7922031 34.015,41.234375 C34.015,37.9173594 31.3163906,35.21875 27.999375,35.21875 C24.6823594,35.21875 21.98375,37.9173594 21.98375,41.234375 C21.98375,42.7922031 22.5790781,44.2135313 23.5540469,45.2831094 C21.2952344,46.7457812 19.79625,49.2862344 19.79625,52.171875 L19.79625,54.359375 C19.79625,55.2654375 20.5308125,56 21.436875,56 L34.561875,56 C35.4679375,56 36.2025,55.2654375 36.2025,54.359375 L36.2025,52.171875 C36.2025,49.2862344 34.7035156,46.7457812 32.4447031,45.2831094 L32.4447031,45.2831094 Z M25.265,41.234375 C25.265,39.7266406 26.4916406,38.5 27.999375,38.5 C29.5071094,38.5 30.73375,39.7266406 30.73375,41.234375 C30.73375,42.7421094 29.5071094,43.96875 27.999375,43.96875 C26.4916406,43.96875 25.265,42.7421094 25.265,41.234375 Z M32.92125,52.71875 L23.0775,52.71875 L23.0775,52.171875 C23.0775,49.4579531 25.2854531,47.25 27.999375,47.25 C30.7132969,47.25 32.92125,49.4579531 32.92125,52.171875 L32.92125,52.71875 Z" id="Shape"></path>
            <path d="M41.125,26.25 L44.40625,26.25 C47.1201719,26.25 49.328125,24.0420469 49.328125,21.328125 L49.328125,18.046875 C49.328125,15.3329531 47.1201719,13.125 44.40625,13.125 L42.6739688,13.125 C41.8551875,5.75246875 35.5872344,0 28,0 C20.4127656,0 14.1448125,5.75246875 13.3260312,13.125 L11.59375,13.125 C8.87982812,13.125 6.671875,15.3329531 6.671875,18.046875 L6.671875,21.328125 C6.671875,24.0420469 8.87982812,26.25 11.59375,26.25 L13.234375,26.25 L13.234375,26.796875 C13.234375,28.9077031 14.9516719,30.625 17.0625,30.625 L26.359375,30.625 C26.359375,31.5310625 27.0939375,32.265625 28,32.265625 C28.9060625,32.265625 29.640625,31.5310625 29.640625,30.625 L29.640625,27.34375 C29.640625,26.4376875 28.9060625,25.703125 28,25.703125 C27.0939375,25.703125 26.359375,26.4376875 26.359375,27.34375 L17.0625,27.34375 C16.7609531,27.34375 16.515625,27.0984219 16.515625,26.796875 L16.515625,14.765625 C16.515625,8.43314063 21.6675156,3.28125 28,3.28125 C34.3324844,3.28125 39.484375,8.43314063 39.484375,14.765625 L39.484375,24.609375 C39.484375,25.5154375 40.2189375,26.25 41.125,26.25 Z M9.953125,21.328125 L9.953125,18.046875 C9.953125,17.1422344 10.6891094,16.40625 11.59375,16.40625 L13.234375,16.40625 L13.234375,22.96875 L11.59375,22.96875 C10.6891094,22.96875 9.953125,22.2327656 9.953125,21.328125 Z M46.046875,18.046875 L46.046875,21.328125 C46.046875,22.2327656 45.3108906,22.96875 44.40625,22.96875 L42.765625,22.96875 L42.765625,16.40625 L44.40625,16.40625 C45.3108906,16.40625 46.046875,17.1422344 46.046875,18.046875 Z" id="Shape"></path>
        </g>
    </g>
</svg>