<?xml version="1.0" encoding="UTF-8"?>
<svg width="56px" height="56px" viewBox="0 0 56 56" version="1.1" xmlns="http://www.w3.org/2000/svg" xmlns:xlink="http://www.w3.org/1999/xlink">
    <!-- Generator: Sketch 64 (93537) - https://sketch.com -->
    <title>In-person_one-on-one_classes</title>
    <desc>Created with Sketch.</desc>
    <g id="Page-1" stroke="none" stroke-width="1" fill="none" fill-rule="evenodd">
        <g id="In-person_one-on-one_classes" fill="#FD6B3F" fill-rule="nonzero">
            <path d="M26.1035469,49.8807969 L22.8224062,36.7564531 C22.6225781,35.9582344 22.2349531,35.2481719 21.7146562,34.6670625 C22.4940625,33.7961094 22.9691875,32.6472344 22.9691875,31.3889844 C22.9691875,28.6752812 20.7614531,26.4675469 18.04775,26.4675469 L14.5278437,26.4675469 L12.6072187,22.6265156 C12.6001094,22.6124062 12.5922344,22.5989531 12.585125,22.5848437 C14.8385781,21.5447969 16.4072344,19.2650937 16.4072344,16.6245625 C16.4072344,13.0063281 13.4635156,10.0626094 9.84528125,10.0626094 C6.22704687,10.0626094 3.28332812,13.0063281 3.28332812,16.6245625 C3.28332812,18.3401094 3.94592187,19.9032969 5.02753125,21.0737187 C4.26660937,21.7167344 3.69140625,22.5943594 3.43,23.6329844 L0.14896875,36.7567812 C-0.221046875,38.2367344 0.105546875,39.7756406 1.04485938,40.9789844 C1.5526875,41.6294375 2.19985937,42.1282969 2.92775,42.4508437 L0.0511875,53.9579687 C-0.168546875,54.8369062 0.365859375,55.7276562 1.24490625,55.9472812 C2.12384375,56.1670156 3.01459375,55.6325 3.23432812,54.7536719 L4.56410937,49.4343281 L15.8454844,49.4343281 L16.554125,52.2697656 C17.2195625,54.9261562 19.9006719,56.5090312 22.5225,55.8497187 C25.1543906,55.192375 26.7607812,52.5150937 26.1035469,49.8807969 Z M9.84517187,13.3435312 C11.6543437,13.3435312 13.1262031,14.8153906 13.1262031,16.6244531 C13.1262031,18.4335156 11.6543437,19.9054844 9.84517187,19.9054844 C8.036,19.9054844 6.56414062,18.433625 6.56414062,16.6244531 C6.56414062,14.8152812 8.036,13.3435312 9.84517187,13.3435312 Z M5.38420312,46.1532969 L6.20440625,42.872375 L14.2050781,42.872375 L15.0251719,46.1532969 L5.38420312,46.1532969 Z M21.7248281,52.667125 C20.8632812,52.8840156 19.9614844,52.3694062 19.7369375,51.4731875 L17.0775937,40.8340625 C16.8950469,40.1037656 16.2389062,39.5913437 15.4860781,39.5913437 L4.92373437,39.5913437 C4.41557812,39.5913437 3.94439062,39.3612187 3.63114063,38.9599219 C3.31778125,38.5584062 3.20873437,38.0454375 3.332,37.552375 L6.61248437,24.430875 C6.9838125,22.9550781 8.9954375,22.7400469 9.67246875,24.0933437 C9.67301562,24.0944375 9.67367187,24.0953125 9.67421875,24.0964062 L12.0466719,28.8413125 C12.3245937,29.3971562 12.8925781,29.7481406 13.5140469,29.7481406 L18.0478594,29.7481406 C18.9523906,29.7481406 19.688375,30.4840156 19.688375,31.3886562 C19.688375,32.2932969 18.9525,33.0291719 18.0478594,33.0291719 C17.2365156,33.0291719 12.1972812,33.0291719 11.4859062,33.0291719 C10.8601719,33.0291719 10.297875,32.6816875 10.0183125,32.1225625 C9.61307812,31.3123125 8.62760937,30.98375 7.81735937,31.3889844 C7.007,31.7942187 6.67854687,32.7795781 7.08378125,33.5899375 C7.9226875,35.2679687 9.60957812,36.3103125 11.4860156,36.3103125 C12.1975,36.3103125 17.2379375,36.3103125 18.0479687,36.3103125 C18.8021094,36.3103125 19.4567187,36.8213125 19.6397031,37.5524844 L22.920625,50.6757344 C23.1395937,51.5544531 22.6044219,52.4475 21.7248281,52.667125 Z" id="Shape"></path>
            <path d="M53.07225,42.450625 C55.1887656,41.5127344 56.44975,39.15275 55.8508125,36.7566719 L52.5692344,23.6303594 C52.3081562,22.5927187 51.7332812,21.71575 50.9726875,21.0731719 C52.0540781,19.9028594 52.7165625,18.3397813 52.7165625,16.6243437 C52.7165625,13.0061094 49.7728437,10.0623906 46.1546094,10.0623906 C42.536375,10.0623906 39.5926562,13.0061094 39.5926562,16.6243437 C39.5926562,19.2647656 41.1612031,21.5444688 43.4146562,22.584625 C43.4075469,22.5985156 43.3997812,22.61175 43.3927812,22.6256406 L41.4719375,26.4672187 L37.9521406,26.4672187 C35.2384375,26.4672187 33.0307031,28.6749531 33.0307031,31.3886562 C33.0307031,32.6467969 33.5058281,33.7955625 34.2853437,34.6667344 C33.7648281,35.2480625 33.3773125,35.958125 33.1774844,36.7565625 L29.8963437,49.881125 C29.2392187,52.5146562 30.8456094,55.1920469 33.474875,55.8487344 C36.0794219,56.5038906 38.7758437,54.9433281 39.4460937,52.2685625 L40.1545156,49.434 L51.4358906,49.434 L52.7656719,54.7533437 C52.9855156,55.6325 53.8762656,56.1666875 54.7549844,55.9469531 C55.6339219,55.7272187 56.1684375,54.8365781 55.9487031,53.9575312 L53.07225,42.450625 Z M42.8735781,16.6244531 C42.8735781,14.8152812 44.3454375,13.3435312 46.1545,13.3435312 C47.9636719,13.3435312 49.4355313,14.8153906 49.4355313,16.6244531 C49.4355313,18.4335156 47.9636719,19.9054844 46.1545,19.9054844 C44.3454375,19.9054844 42.8735781,18.433625 42.8735781,16.6244531 Z M40.9745,46.1532969 L41.7945937,42.872375 L49.7952656,42.872375 L50.6154687,46.1532969 L40.9745,46.1532969 Z M51.0760469,39.5913437 L40.5138125,39.5913437 C39.7610937,39.5913437 39.1048437,40.1037656 38.9222969,40.8340625 L36.2631719,51.4723125 C36.0375312,52.3725781 35.1343125,52.88325 34.2724375,52.6664687 C33.3954687,52.4473906 32.8602969,51.5544531 33.079375,50.6763906 L36.3602969,37.5529219 C36.5433906,36.8214219 37.198,36.3103125 37.9521406,36.3103125 C38.7634844,36.3103125 43.8027187,36.3103125 44.5140937,36.3103125 C46.3905312,36.3103125 48.0773125,35.2679687 48.9163281,33.5899375 C49.3215625,32.7795781 48.993,31.7941094 48.18275,31.3889844 C47.3725,30.9838594 46.3869219,31.3123125 45.9817969,32.1225625 C45.702125,32.6819062 45.1398281,33.0291719 44.5142031,33.0291719 C43.8027187,33.0291719 38.7622812,33.0291719 37.95225,33.0291719 C37.0477187,33.0291719 36.3117344,32.2932969 36.3117344,31.3886562 C36.3117344,30.4840156 37.0476094,29.7481406 37.95225,29.7481406 L42.4860625,29.7481406 C43.1075312,29.7481406 43.6754062,29.3970469 43.9534375,28.8413125 C44.0226719,28.7027344 46.2864062,24.1749375 46.3276406,24.0932344 C47.014625,22.7199219 49.0211094,22.9737812 49.3870781,24.4283594 L52.6681094,37.5522656 C52.9262344,38.5865156 52.1432188,39.5913437 51.0760469,39.5913437 Z" id="Shape"></path>
            <path d="M34.6711094,0.000875 L21.3284531,0.000875 C18.61475,0.000875 16.4070156,2.20860937 16.4070156,4.9223125 L16.4070156,8.42198437 C16.4070156,11.1356875 18.61475,13.3434219 21.3284531,13.3434219 L27.3282187,13.3434219 L33.5207031,19.4344062 C33.992,19.8979375 34.6952812,20.0333437 35.3051562,19.7778437 C35.9149219,19.5223437 36.311625,18.9259219 36.311625,18.2648594 L36.311625,13.0623281 C38.2213125,12.3852969 39.5926562,10.5608125 39.5926562,8.421875 L39.5926562,4.9223125 C39.5926562,2.20860937 37.3848125,0.000875 34.6711094,0.000875 Z M36.311625,8.42209375 C36.311625,9.326625 35.57575,10.0626094 34.6711094,10.0626094 C33.7650469,10.0626094 33.0305937,10.7969531 33.0305937,11.703125 L33.0305937,14.3504375 L29.1501875,10.5335781 C28.8432812,10.2317031 28.4302812,10.0626094 27.9997812,10.0626094 L21.3284531,10.0626094 C20.4239219,10.0626094 19.6879375,9.32673437 19.6879375,8.42209375 L19.6879375,4.9223125 C19.6879375,4.01778125 20.4238125,3.28179687 21.3284531,3.28179687 L34.6711094,3.28179687 C35.5756406,3.28179687 36.311625,4.01767187 36.311625,4.9223125 L36.311625,8.42209375 L36.311625,8.42209375 Z" id="Shape"></path>
        </g>
    </g>
</svg>