<?xml version="1.0" encoding="UTF-8"?>
<svg width="56px" height="56px" viewBox="0 0 56 56" version="1.1" xmlns="http://www.w3.org/2000/svg" xmlns:xlink="http://www.w3.org/1999/xlink">
    <!-- Generator: Sketch 64 (93537) - https://sketch.com -->
    <title>Shape</title>
    <desc>Created with Sketch.</desc>
    <g id="Page-1" stroke="none" stroke-width="1" fill="none" fill-rule="evenodd">
        <g id="Virtual_one-on-one_classes" fill="#FFC654" fill-rule="nonzero">
            <path d="M54.3589375,0 L1.6410625,0 C0.73478125,0 -2.84217094e-14,0.73478125 -2.84217094e-14,1.64117188 L-2.84217094e-14,41.2339375 C-2.84217094e-14,42.1402187 0.73478125,42.875 1.6410625,42.875 L19.5539531,42.875 L19.5539531,46.178125 C15.3005781,46.4771562 11.9307344,50.03075 11.9307344,54.3589375 C11.9307344,55.2653281 12.6655156,56.0001094 13.5717969,56.0001094 L42.4279844,56.0001094 C43.334375,56.0001094 44.0690469,55.2653281 44.0690469,54.3589375 C44.0690469,50.0402656 40.7139687,46.4929062 36.4738281,46.1803125 L36.4738281,42.875 L54.3586094,42.875 C55.265,42.875 55.999672,42.1402187 55.999672,41.2338281 L55.999672,1.64117187 C55.999672,0.73478125 55.2652187,0 54.3589375,0 Z M52.7177656,26.4625156 L37.2895469,26.4625156 C40.6913281,23.7345938 42.8735781,19.5459688 42.8735781,14.8561875 C42.8735781,10.1843438 40.7068594,6.01092188 37.3273906,3.282125 L52.7177656,3.282125 L52.7177656,26.4625156 Z M27.3677031,3.28223438 L28.6321875,3.28223438 C34.7307187,3.61167188 39.5912344,8.67682813 39.5912344,14.8562969 C39.5912344,17.3323281 38.8104062,19.6292031 37.4828125,21.5145 C36.9097969,20.1735625 36.0522969,18.9580781 34.9525312,17.9534687 C34.2505625,17.3122031 33.4709375,16.7788906 32.6377187,16.3595469 C33.5080156,15.3137031 34.0324687,13.9703594 34.0324687,12.5064844 C34.0324687,9.1800625 31.3262031,6.47379687 27.9998906,6.47379687 C24.6735781,6.47379687 21.9673125,9.1800625 21.9673125,12.5064844 C21.9673125,13.9700312 22.4915469,15.3131562 23.3615156,16.3588906 C22.5019375,16.7914687 21.6996719,17.3462187 20.9799844,18.015375 C19.9104062,19.0098125 19.0786094,20.2034219 18.5180625,21.5161406 C17.1897031,19.6305156 16.4085469,17.3330938 16.4085469,14.8564063 C16.4085469,8.67682813 21.2691719,3.61178125 27.3677031,3.28223438 Z M28,15.2568281 C26.4835156,15.2568281 25.2496562,14.0229688 25.2496562,12.5064844 C25.2496562,10.9898906 26.4835156,9.75614063 28,9.75614063 C29.5164844,9.75614063 30.7503437,10.99 30.7503437,12.5064844 C30.7503437,14.0230781 29.5164844,15.2568281 28,15.2568281 Z M28,18.5391719 C29.7586406,18.5391719 31.4415937,19.1918125 32.7388906,20.3767813 C33.8490469,21.3909063 34.5964062,22.7189375 34.8893125,24.1722031 C32.9620156,25.6012969 30.5780781,26.44775 27.9998906,26.44775 C25.42225,26.44775 23.03875,25.601625 21.1115625,24.1729688 C21.7645312,20.953625 24.6394531,18.5391719 28,18.5391719 L28,18.5391719 Z M18.6726094,3.28223438 C15.2931406,6.01092188 13.1265312,10.1844531 13.1265312,14.8562969 C13.1265312,19.5459688 15.3087812,23.7347031 18.7105625,26.462625 L3.28223437,26.462625 L3.28223437,3.28223438 L18.6726094,3.28223438 Z M40.5057187,52.7177656 L15.4942812,52.7177656 C16.1716406,50.808625 17.9959062,49.4376094 20.1341875,49.4376094 L35.8655937,49.4376094 C38.0040937,49.4375 39.8283594,50.808625 40.5057187,52.7177656 Z M33.1918125,46.1552656 L22.8361875,46.1552656 L22.8361875,42.875 L33.1918125,42.875 L33.1918125,46.1552656 Z M3.28223437,39.5927656 L3.28223437,29.7448594 L52.7177656,29.7448594 L52.7177656,39.5927656 L3.28223437,39.5927656 Z" id="Shape"></path>
        </g>
    </g>
</svg>