<?xml version="1.0" encoding="UTF-8"?>
<svg width="56px" height="56px" viewBox="0 0 56 56" version="1.1" xmlns="http://www.w3.org/2000/svg" xmlns:xlink="http://www.w3.org/1999/xlink">
    <!-- Generator: Sketch 64 (93537) - https://sketch.com -->
    <title>In-person_group_classes</title>
    <desc>Created with Sketch.</desc>
    <g id="Page-1" stroke="none" stroke-width="1" fill="none" fill-rule="evenodd">
        <g id="bp-ui-ACT,-SAT,-CAG-overview" transform="translate(-420.000000, -1898.000000)" fill="#5AC8F7" fill-rule="nonzero">
            <g id="delivery-methods" transform="translate(162.000000, 1778.000000)">
                <g id="1" transform="translate(226.000000, 72.000000)">
                    <g id="cover" transform="translate(32.000000, 40.000000)">
                        <g id="In-person_group_classes" transform="translate(0.000000, 8.000000)">
                            <path d="M50.5667969,43.0420156 C51.8928594,41.7498594 52.71875,39.9465937 52.71875,37.953125 C52.71875,34.0330156 49.5294844,30.8436406 45.609375,30.8436406 C41.6892656,30.8436406 38.5,34.0330156 38.5,37.953125 C38.5,39.9465937 39.3258906,41.7498594 40.6519531,43.0420156 C39.11075,43.8822344 37.8044844,45.1013281 36.859375,46.5732969 C35.9142656,45.1012187 34.608,43.882125 33.0666875,43.0419062 C34.3928594,41.74975 35.2186406,39.9464844 35.2186406,37.9530156 C35.2186406,34.0329062 32.029375,30.8436406 28.1092656,30.8436406 C24.1891562,30.8436406 20.9998906,34.0329062 20.9998906,37.9530156 C20.9998906,39.9464844 21.8257812,41.74975 23.1519531,43.0420156 C21.61075,43.8822344 20.3045937,45.1013281 19.359375,46.5732969 C18.4142656,45.1012188 17.108,43.8822344 15.5666875,43.0419063 C16.8928594,41.74975 17.7186406,39.946375 17.7186406,37.9530156 C17.7186406,34.0329063 14.5294844,30.8436406 10.6092656,30.8436406 C6.68904688,30.8436406 3.49989063,34.0329063 3.49989063,37.9530156 C3.49989063,39.9464844 4.32578125,41.74975 5.65184375,43.0420156 C2.41795312,44.8051406 0.21875,48.2364531 0.21875,52.171875 L0.21875,54.359375 C0.21875,55.2654375 0.9533125,56 1.859375,56 L54.359375,56 C55.2654375,56 56,55.2654375 56,54.359375 L56,52.171875 C56,48.2364531 53.8007969,44.8051406 50.5667969,43.0420156 L50.5667969,43.0420156 Z M41.78125,37.953125 C41.78125,35.8422969 43.4985469,34.125 45.609375,34.125 C47.7202031,34.125 49.4375,35.8422969 49.4375,37.953125 C49.4375,40.0639531 47.7202031,41.78125 45.609375,41.78125 C43.4985469,41.78125 41.78125,40.0639531 41.78125,37.953125 Z M28.1092656,34.125 C30.2200938,34.125 31.9373906,35.8422969 31.9373906,37.953125 C31.9373906,40.0639531 30.2200938,41.78125 28.1092656,41.78125 C25.9984375,41.78125 24.2811406,40.0639531 24.2811406,37.953125 C24.2811406,35.8422969 25.9984375,34.125 28.1092656,34.125 Z M10.6092656,34.125 C12.7200937,34.125 14.4373906,35.8422969 14.4373906,37.953125 C14.4373906,40.0639531 12.7200937,41.78125 10.6092656,41.78125 C8.4984375,41.78125 6.78114062,40.0639531 6.78114062,37.953125 C6.78114062,35.8422969 8.4984375,34.125 10.6092656,34.125 Z M3.5,52.171875 C3.5,48.2517656 6.68926562,45.0625 10.609375,45.0625 C14.5294844,45.0625 17.71875,48.2517656 17.71875,52.171875 L17.71875,52.71875 L3.5,52.71875 L3.5,52.171875 Z M21,52.171875 C21,48.2517656 24.1892656,45.0625 28.109375,45.0625 C32.0294844,45.0625 35.21875,48.2517656 35.21875,52.171875 L35.21875,52.71875 L21,52.71875 L21,52.171875 Z M52.71875,52.71875 L38.5,52.71875 L38.5,52.171875 C38.5,48.2517656 41.6892656,45.0625 45.609375,45.0625 C49.5294844,45.0625 52.71875,48.2517656 52.71875,52.171875 L52.71875,52.71875 Z" id="Shape"></path>
                            <path d="M1.640625,25.15625 L30.078125,25.15625 C30.9841875,25.15625 31.71875,24.4216875 31.71875,23.515625 L31.71875,1.640625 C31.71875,0.7345625 30.9841875,0 30.078125,0 L1.640625,0 C0.7345625,0 0,0.7345625 0,1.640625 L0,23.515625 C0,24.4216875 0.7345625,25.15625 1.640625,25.15625 Z M3.28125,3.28125 L28.4375,3.28125 L28.4375,21.875 L3.28125,21.875 L3.28125,3.28125 Z" id="Shape"></path>
                            <path d="M50.5667969,12.1982656 C51.8928594,10.9061094 52.71875,9.10284375 52.71875,7.109375 C52.71875,3.18926562 49.5294844,0 45.609375,0 C41.6892656,0 38.5,3.18926562 38.5,7.109375 C38.5,9.10284375 39.3258906,10.9061094 40.6519531,12.1982656 C37.4179531,13.9613906 35.21875,17.3927031 35.21875,21.328125 L35.21875,23.515625 C35.21875,24.4216875 35.9533125,25.15625 36.859375,25.15625 L54.359375,25.15625 C55.2654375,25.15625 56,24.4216875 56,23.515625 L56,21.328125 C56,17.3927031 53.8007969,13.9613906 50.5667969,12.1982656 Z M41.78125,7.109375 C41.78125,4.99854687 43.4985469,3.28125 45.609375,3.28125 C47.7202031,3.28125 49.4375,4.99854687 49.4375,7.109375 C49.4375,9.22020313 47.7202031,10.9375 45.609375,10.9375 C43.4985469,10.9375 41.78125,9.22020313 41.78125,7.109375 Z M52.71875,21.875 L38.5,21.875 L38.5,21.328125 C38.5,17.4080156 41.6892656,14.21875 45.609375,14.21875 C49.5294844,14.21875 52.71875,17.4080156 52.71875,21.328125 L52.71875,21.875 Z" id="Shape"></path>
                            <path d="M23.515625,6.5625 L19.140625,6.5625 C18.2345625,6.5625 17.5,7.2970625 17.5,8.203125 C17.5,9.1091875 18.2345625,9.84375 19.140625,9.84375 L19.5548281,9.84375 L15.859375,13.5392031 L13.7381562,11.4180938 C13.0975469,10.777375 12.0587031,10.777375 11.4179844,11.4180938 L7.04298438,15.7930938 C6.40226563,16.4338125 6.40226563,17.4725469 7.04298438,18.1132656 C7.36334375,18.433625 7.78323438,18.59375 8.203125,18.59375 C8.62301563,18.59375 9.04290625,18.433625 9.36315625,18.1131562 L12.578125,14.8982969 L14.6993438,17.0194062 C15.3399531,17.660125 16.3787969,17.660125 17.0195156,17.0194062 L21.875,12.1639219 L21.875,12.578125 C21.875,13.4841875 22.6095625,14.21875 23.515625,14.21875 C24.4216875,14.21875 25.15625,13.4841875 25.15625,12.578125 L25.15625,8.203125 C25.15625,7.2970625 24.4216875,6.5625 23.515625,6.5625 Z" id="Path"></path>
                        </g>
                    </g>
                </g>
            </g>
        </g>
    </g>
</svg>