<?xml version="1.0" encoding="UTF-8"?>
<svg width="76px" height="72px" viewBox="0 0 76 72" version="1.1" xmlns="http://www.w3.org/2000/svg" xmlns:xlink="http://www.w3.org/1999/xlink">
    <!-- Generator: Sketch 58 (84663) - https://sketch.com -->
    <title>instruction</title>
    <desc>Created with Sketch.</desc>
    <g id="UI-Final" stroke="none" stroke-width="1" fill="none" fill-rule="evenodd">
        <g id="bp-ui-program-details" transform="translate(-542.000000, -2700.000000)" fill="#DE3C7D" fill-rule="nonzero">
            <g id="Program" transform="translate(162.000000, 1784.000000)">
                <g id="line" transform="translate(380.000000, 0.000000)">
                    <g id="4-1" transform="translate(0.000000, 916.000000)">
                        <g id="icon">
                            <g id="instruction">
                                <path d="M74.512496,44.6771013 L70.86469,44.6771013 C73.9923159,42.1717652 76,38.3162203 76,33.9984754 C76,26.4654647 69.8900774,20.3369515 62.380116,20.3369515 L39.4074019,20.3369515 L39.4074019,17.0162402 C39.4074019,17.0059492 39.4060631,16.9961057 39.4059144,16.9858147 L45.8230066,16.9858147 C49.983109,16.9858147 53.3677756,13.5923207 53.3677756,9.42103606 L53.3677756,1.49144903 C53.3677756,0.667870874 52.70182,0 51.8802716,0 L43.9771629,0 C41.4988325,0 39.2961366,1.20464338 37.9198979,3.06030426 C36.5436592,1.20464338 34.3409633,0 31.8626329,0 L23.9595242,0 C23.1379758,0 22.4720202,0.667870874 22.4720202,1.49144903 L22.4720202,9.42133435 C22.4720202,13.592619 25.8565381,16.986113 30.0167892,16.986113 L36.4338814,16.986113 C36.4337327,16.996404 36.4323939,17.0062475 36.4323939,17.0165385 L36.4323939,20.3372498 L8.33002233,20.3372498 C7.50847388,20.3372498 6.84251834,21.0051206 6.84251834,21.8286988 L6.84251834,28.3818275 C6.84251834,29.2054057 7.50847388,29.8732765 8.33002233,29.8732765 L9.17537085,29.8732765 L9.17537085,38.1239726 L8.33002233,38.1239726 C7.50847388,38.1239726 6.84251834,38.7918434 6.84251834,39.6154216 L6.84251834,46.1685503 C6.84251834,46.27325 6.85352587,46.3752651 6.87390468,46.4738499 C2.77092243,48.8303394 0,53.2657596 0,58.3384761 C0,65.8714868 6.10977388,72 13.619884,72 L40.197564,72 C41.0191125,72 41.685068,71.3321291 41.685068,70.508551 C41.685068,69.6849728 41.0191125,69.0171019 40.197564,69.0171019 L13.619884,69.0171019 C7.75034203,69.0171019 2.97500798,64.2267168 2.97500798,58.3384761 C2.97500798,52.4502353 7.75034203,47.6599993 13.619884,47.6599993 L62.3802647,47.6599993 L73.0251408,47.6599993 L73.0251408,51.23023 L72.1797923,51.23023 L14.553144,51.23023 C10.6453223,51.23023 7.46608002,54.418948 7.46608002,58.3384761 C7.46608002,62.2580041 10.6453223,65.4467221 14.553144,65.4467221 L72.1796435,65.4467221 L73.024992,65.4467221 L73.024992,69.0169528 L55.9649575,69.0169528 C55.1434091,69.0169528 54.4774535,69.6848237 54.4774535,70.5084018 C54.4774535,71.33198 55.1434091,72 55.9649575,72 L74.512496,72 C75.3340445,72 76,71.33198 76,70.5084018 L76,63.9552731 C76,63.1316949 75.3340445,62.4638241 74.512496,62.4638241 L73.6671475,62.4638241 L73.6671475,54.2131281 L74.512496,54.2131281 C75.3340445,54.2131281 76,53.5452572 76,52.721679 L76,46.1685503 C76,45.3449722 75.3340445,44.6771013 74.512496,44.6771013 Z M43.9771629,2.98289805 L50.3927676,2.98289805 L50.3927676,9.42133435 C50.3927676,11.9476999 48.3428384,14.0032149 45.8230066,14.0032149 L41.6161966,14.0032149 L44.9554943,10.6535695 C45.5362158,10.0710095 45.5360671,9.12677317 44.955048,8.54436232 C44.374029,7.96195148 43.4321414,7.96210062 42.8512711,8.54480976 L39.4074019,11.999304 L39.4074019,7.56462946 C39.4074019,5.03826395 41.4574799,2.98289805 43.9771629,2.98289805 L43.9771629,2.98289805 Z M25.447177,9.42133435 L25.447177,2.98289805 L31.8627817,2.98289805 C34.3824647,2.98289805 36.4325427,5.03826395 36.4325427,7.5647786 L36.4325427,11.999304 L32.9886734,8.54480976 C32.4078031,7.96210062 31.4660644,7.96195148 30.8848965,8.54436232 C30.3038775,9.12662402 30.3037287,10.0708604 30.8844503,10.6535695 L34.223748,14.0032149 L30.016938,14.0032149 C27.4971062,14.0030658 25.447177,11.9476999 25.447177,9.42133435 Z M12.1503788,29.8732765 L61.446856,29.8732765 C63.7142583,29.8732765 65.558912,31.7238665 65.558912,33.9986246 C65.558912,36.2733826 63.7142583,38.1239726 61.446856,38.1239726 L12.1503788,38.1239726 L12.1503788,29.8732765 Z M13.619884,44.6771013 L9.81752632,44.6771013 L9.81752632,41.1068706 L10.6628748,41.1068706 L61.446856,41.1068706 C65.3546777,41.1068706 68.53392,37.9181526 68.53392,33.9986246 C68.53392,30.0790965 65.3546777,26.8903785 61.446856,26.8903785 L10.6628748,26.8903785 L9.81752632,26.8903785 L9.81752632,23.3201478 L62.380116,23.3201478 C68.249658,23.3201478 73.024992,28.1105329 73.024992,33.9987737 C73.024992,39.8870145 68.249658,44.6773996 62.380116,44.6773996 L13.619884,44.6773996 L13.619884,44.6771013 Z M70.6921395,62.4638241 L14.553144,62.4638241 C12.2857417,62.4638241 10.441088,60.6132341 10.441088,58.3384761 C10.441088,56.063718 12.2857417,54.2131281 14.553144,54.2131281 L70.6921395,54.2131281 L70.6921395,62.4638241 Z" id="Shape"></path>
                                <path d="M48.500431,72 C47.8697944,72 47.3023867,71.5927062 47.0876188,71.0031744 C46.8755543,70.4211544 47.0583323,69.7527479 47.5288692,69.3526655 C48.021033,68.9341039 48.7440348,68.8849762 49.2928193,69.2221091 C49.8196764,69.5457206 50.0916657,70.1866337 49.9721166,70.7907386 C49.8349955,71.4839343 49.2073627,72 48.500431,72 L48.500431,72 Z" id="Path"></path>
                            </g>
                        </g>
                    </g>
                </g>
            </g>
        </g>
    </g>
</svg>