<?xml version="1.0" encoding="UTF-8"?>
<svg width="59px" height="72px" viewBox="0 0 59 72" version="1.1" xmlns="http://www.w3.org/2000/svg" xmlns:xlink="http://www.w3.org/1999/xlink">
    <!-- Generator: Sketch 58 (84663) - https://sketch.com -->
    <title>instruction_resumes</title>
    <desc>Created with Sketch.</desc>
    <g id="UI-Final" stroke="none" stroke-width="1" fill="none" fill-rule="evenodd">
        <g id="bp-ui-program-details" transform="translate(-542.000000, -4272.000000)" fill="#FFC654" fill-rule="nonzero">
            <g id="Program" transform="translate(162.000000, 1784.000000)">
                <g id="line" transform="translate(380.000000, 0.000000)">
                    <g id="4-2" transform="translate(0.000000, 2488.000000)">
                        <g id="icon">
                            <g id="instruction_resumes">
                                <path d="M50.5,19 C49.672,19 49,19.672 49,20.5 C49,21.328 49.672,22 50.5,22 C51.328,22 52,21.328 52,20.5 C52,19.672 51.328,19 50.5,19 Z" id="Path"></path>
                                <path d="M16.5,39 C15.672,39 15,39.672 15,40.5 C15,41.328 15.672,42 16.5,42 C17.328,42 18,41.328 18,40.5 C18,39.672 17.328,39 16.5,39 Z" id="Path"></path>
                                <path d="M7.5,63 C6.672,63 6,63.672 6,64.5 C6,65.328 6.672,66 7.5,66 C8.328,66 9,65.328 9,64.5 C9,63.672 8.328,63 7.5,63 Z" id="Path"></path>
                                <path d="M48.2963958,33.8846364 L45.1341936,32.0560591 C45.2163689,31.5191955 45.2568938,31.0041727 45.2568938,30.5 C45.2568938,29.9958273 45.2165096,29.4808045 45.1341936,28.9439409 L48.2963958,27.1153636 C48.9692766,26.7261727 49.1997615,25.8645136 48.811258,25.1905455 L45.9970345,20.3094545 C45.8104515,19.9857864 45.5031383,19.7496227 45.1426363,19.6529591 C44.7819935,19.5561545 44.3979928,19.6068818 44.0749199,19.7937273 L40.9001944,21.6294909 C40.0896981,21.0003318 39.1937901,20.4878455 38.2213352,20.0972455 L38.2213352,16.4090909 C38.2213352,15.63085 37.5913712,15 36.8142234,15 L31.1857766,15 C30.4086288,15 29.7786648,15.63085 29.7786648,16.4090909 L29.7786648,20.0992182 C28.8131048,20.4898182 27.9094576,21.0068136 27.1024791,21.6303364 L23.9249394,19.7937273 C23.2517771,19.4046773 22.391469,19.6356273 22.0029655,20.3095955 L19.188742,25.1906864 C18.8002385,25.8646545 19.0307234,26.7263136 19.7036042,27.1155045 L22.8658064,28.9440818 C22.7836311,29.4808045 22.743247,29.9956864 22.743247,30.5 C22.743247,31.0043136 22.7836311,31.5191955 22.8659471,32.0560591 L19.7037449,33.8846364 C19.0307234,34.2738273 18.8002385,35.1354864 19.188742,35.8094545 L22.0029655,40.6905455 C22.3916097,41.3646545 23.2520586,41.5954636 23.9249394,41.2064136 L27.1024791,39.3698045 C27.9094576,39.9933273 28.8131048,40.5103227 29.7786648,40.9009227 L29.7786648,44.5909091 C29.7786648,45.36915 30.4086288,46 31.1857766,46 L36.8142234,46 C37.5913712,46 38.2213352,45.36915 38.2213352,44.5909091 L38.2213352,40.9027545 C39.1937901,40.5122955 40.0896981,39.9998091 40.9001944,39.3705091 L44.0749199,41.2062727 C44.3981335,41.3932591 44.7821343,41.4438455 45.1426363,41.3470409 C45.5031383,41.2503773 45.8104515,41.0142136 45.9970345,40.6905455 L48.811258,35.8094545 C49.1997615,35.1354864 48.9692766,34.2738273 48.2963958,33.8846364 Z M44.2636136,38.0610409 L41.4465759,36.4321318 C40.9080743,36.1208636 40.2292836,36.2003364 39.7771786,36.6277136 C38.8373687,37.5158636 37.7040809,38.1643273 36.4085531,38.5550682 C35.8140484,38.7343045 35.4072524,39.2825818 35.4072524,39.9042727 L35.4072524,43.1818182 L32.593029,43.1818182 L32.593029,39.9042727 C32.593029,39.2825818 32.1860923,38.7343045 31.5917283,38.5550682 C30.2959191,38.1643273 29.1631942,37.5160045 28.2250728,36.6284182 C27.7731085,36.2006182 27.0940364,36.1205818 26.5552533,36.4321318 L23.7368085,38.0613227 L22.3295561,35.6206364 L25.1439203,33.9931364 C25.682844,33.6814455 25.9532909,33.0522864 25.8089213,32.4459545 C25.6396457,31.7354909 25.5574704,31.0988636 25.5574704,30.5 C25.5574704,29.9011364 25.6396457,29.2645091 25.8089213,28.5540455 C25.9532909,27.9477136 25.682844,27.3185545 25.1439203,27.0068636 L22.3295561,25.3793636 L23.7366678,22.9386773 L26.5551126,24.5678682 C27.0940364,24.8792773 27.7728271,24.7995227 28.2249321,24.3715818 C29.1630535,23.4839955 30.2956377,22.8356727 31.5915876,22.4449318 C32.1860923,22.2656955 32.5928883,21.7174182 32.5928883,21.0957273 L32.5928883,17.8181818 L35.4071117,17.8181818 L35.4071117,21.0957273 C35.4071117,21.7174182 35.8140484,22.2656955 36.4084124,22.4449318 C37.7039402,22.8355318 38.837228,23.4841364 39.7770379,24.3722864 C40.2292836,24.7996636 40.9080743,24.8791364 41.4464352,24.5678682 L44.2634729,22.9389591 L45.6707253,25.3793636 L42.8562205,27.0068636 C42.3172967,27.3185545 42.0468498,27.9477136 42.1912195,28.5540455 C42.360495,29.2645091 42.442811,29.9011364 42.442811,30.5 C42.442811,31.0988636 42.3606357,31.7354909 42.1913602,32.4459545 C42.0469905,33.0522864 42.3174374,33.6814455 42.8563612,33.9931364 L45.6707253,35.6206364 L44.2636136,38.0610409 Z" id="Shape"></path>
                                <path d="M33.5,25 C30.4673,25 28,27.4673 28,30.5 C28,33.5327 30.4671625,36 33.5,36 C36.5327,36 39,33.5327 39,30.5 C39,27.4673 36.5327,25 33.5,25 Z M33.5,33.25 C31.98365,33.25 30.75,32.01635 30.75,30.5 C30.75,28.98365 31.98365,27.75 33.5,27.75 C35.01635,27.75 36.25,28.98365 36.25,30.5 C36.25,32.01635 35.01635,33.25 33.5,33.25 Z" id="Shape"></path>
                                <path d="M47.5600431,15.5686382 C43.65393,11.9777353 38.5476896,10 33.1818716,10 C29.4991128,10 25.8762136,10.9454992 22.7047782,12.7343259 C19.6294257,14.468925 17.0346277,16.9568365 15.2009405,19.9288349 C14.8022034,20.5749215 15.0153481,21.4144243 15.6768796,21.8038519 C15.9027514,21.9367573 16.1516998,22 16.3974315,22 C16.8715524,22 17.3340651,21.7643765 17.5967197,21.3388881 C20.9217199,15.9494605 26.7479528,12.7318672 33.1818716,12.7318672 C37.8321726,12.7318672 42.257581,14.4457041 45.6427204,17.5578473 C46.205232,18.0749898 47.0903976,18.0487638 47.6197627,17.4995219 C48.1492677,16.95028 48.1224148,16.085644 47.5600431,15.5686382 Z" id="Path"></path>
                                <path d="M51.3230784,39.196063 C50.6616847,38.8070424 49.8021106,39.0148023 49.4032325,39.6610302 C46.0782222,45.0504967 40.2521116,48.2681131 33.8181733,48.2681131 C29.1678581,48.2681131 24.7424364,46.5542638 21.3572867,43.4420983 C20.7947734,42.9250887 19.9096051,42.9511782 19.3802384,43.5004241 C18.8507319,44.0496699 18.8775848,44.9143121 19.4399583,45.4313217 C23.3460831,49.0222505 28.4521991,51 33.8181733,51 C37.5009432,51 41.1238534,50.0544939 44.2952984,48.2656544 C47.3706602,46.5310428 49.9654661,44.0431134 51.7991588,41.0710936 C52.1977572,40.4250024 51.9846119,39.5854935 51.3230784,39.196063 Z" id="Path"></path>
                                <path d="M58.374659,60.5136094 C58.3753614,60.5131875 58.3759233,60.5127656 58.3764852,60.5123437 C58.3860376,60.505875 58.3948876,60.4987031 58.4042995,60.4920938 C58.4298661,60.4740938 58.4550113,60.4555312 58.4791732,60.436125 C58.4899898,60.4274062 58.5002446,60.4179844 58.5107803,60.4088437 C58.532554,60.39 58.5540469,60.370875 58.5744159,60.3509062 C58.5846706,60.3409219 58.5946444,60.3306562 58.6046182,60.3203906 C58.6244253,60.2998594 58.6435301,60.2787656 58.6619324,60.25725 C58.6710634,60.2465625 58.6803348,60.235875 58.6891848,60.2247656 C58.7077276,60.2017031 58.7252871,60.1779375 58.7422847,60.15375 C58.7497299,60.1433437 58.7574561,60.1330781 58.7646204,60.1223906 C58.7869561,60.0886406 58.8080275,60.0543281 58.8274132,60.0188906 C58.834156,60.0065156 58.8399155,59.9935781 58.8462369,59.9809219 C58.8584583,59.9570156 58.8703988,59.9329688 58.8812155,59.9083594 C58.8889416,59.8907812 58.895825,59.8727813 58.9028488,59.8547813 C58.9109964,59.8338281 58.918863,59.812875 58.9260273,59.7915 C58.9322082,59.7729375 58.9381082,59.754375 58.9435868,59.7355313 C58.9504701,59.711625 58.9565106,59.6875781 58.9621296,59.6633906 C58.9659225,59.6470781 58.9701368,59.6311875 58.9733677,59.6147344 C58.9813748,59.5739531 58.9878367,59.53275 58.9921915,59.4912656 C58.9928939,59.4842344 58.9930344,59.4772031 58.9935963,59.4701719 C58.9969677,59.4331875 58.9987939,59.3960625 58.9992153,59.3587969 C58.9992153,59.3537344 59,59.3488125 59,59.34375 L59,1.40625 C59,0.629578125 58.3710066,0 57.5951577,0 L7.02379972,0 C3.15087656,0 0,3.15421875 0,7.03125 L0,64.96875 C0,68.8457813 3.15087656,72 7.02379972,72 L57.5951577,72 C58.214095,72 58.7601252,71.5944375 58.939513,71.0014219 C59.1190413,70.4084062 58.889644,69.7677188 58.374659,69.4238906 C56.8614516,68.4133594 55.9935909,66.7895625 55.9935909,64.96875 C55.9935909,63.1479375 56.8614516,61.5241406 58.374659,60.5136094 Z M2.80951989,7.03125 C2.80951989,4.70503125 4.70004582,2.8125 7.02379972,2.8125 L8.42855967,2.8125 L8.42855967,57.9375 L7.02379972,57.9375 C5.48348044,57.9375 4.0190182,58.4319375 2.80951989,59.3443125 L2.80951989,7.03125 Z M7.02379972,69.1875 C4.70004582,69.1875 2.80951989,67.2949687 2.80951989,64.96875 C2.80951989,63.842625 3.24808594,62.7834375 4.04458483,61.9862344 C4.84080277,61.1890312 5.89886796,60.75 7.02379972,60.75 L54.354517,60.75 C53.836863,61.6087969 53.4792111,62.56125 53.3053018,63.5625 L12.6428395,63.5625 C11.8669906,63.5625 11.2380796,64.1920781 11.2380796,64.96875 C11.2380796,65.7454219 11.8669906,66.375 12.6428395,66.375 L53.3054423,66.375 C53.4793516,67.37625 53.836863,68.3287031 54.354517,69.1875 L7.02379972,69.1875 Z M56.1903978,57.9375 L11.2380796,57.9375 L11.2380796,2.8125 L56.1903978,2.8125 L56.1903978,57.9375 Z" id="Shape"></path>
                            </g>
                        </g>
                    </g>
                </g>
            </g>
        </g>
    </g>
</svg>