<?xml version="1.0" encoding="UTF-8"?>
<svg width="15px" height="15px" viewBox="0 0 15 15" version="1.1" xmlns="http://www.w3.org/2000/svg" xmlns:xlink="http://www.w3.org/1999/xlink">
    <!-- Generator: Sketch 64 (93537) - https://sketch.com -->
    <title>Shape</title>
    <desc>Created with Sketch.</desc>
    <g id="Symbols" stroke="none" stroke-width="1" fill="none" fill-rule="evenodd">
        <g id="Footer" transform="translate(-1134.000000, -269.000000)" fill="#FFFFFF">
            <g id="txt">
                <g transform="translate(162.000000, 80.000000)">
                    <g id="1" transform="translate(855.000000, 0.000000)">
                        <g id="social" transform="translate(0.000000, 176.000000)">
                            <g id="instagram" transform="translate(104.000000, 0.000000)">
                                <path d="M20.4999851,14.3513787 C22.5025812,14.3513787 22.7397691,14.3590002 23.5306138,14.395083 C24.2618564,14.4284566 24.6589757,14.550638 24.9232853,14.6533192 C25.2733362,14.789374 25.5232067,14.9519253 25.7856407,15.2143593 C26.0480747,15.4767933 26.210626,15.7266638 26.346651,16.0767147 C26.449362,16.3410243 26.5715434,16.7381436 26.604917,17.4693564 C26.6409998,18.2602309 26.6486213,18.4974188 26.6486213,20.5000149 C26.6486213,22.5026109 26.6409998,22.7397989 26.604917,23.5306436 C26.5715434,24.2618862 26.449362,24.6590055 26.346651,24.9233151 C26.210626,25.273366 26.0480747,25.5232365 25.7856407,25.7856705 C25.5232067,26.0481045 25.2733362,26.2106557 24.9232853,26.3466808 C24.6589757,26.4493918 24.2618564,26.5715732 23.5306138,26.6049468 C22.7398882,26.6410296 22.5027003,26.6486511 20.4999851,26.6486511 C18.49727,26.6486511 18.260082,26.6410296 17.4693564,26.6049468 C16.7381138,26.5715732 16.3409945,26.4493918 16.0767147,26.3466808 C15.726634,26.2106557 15.4767635,26.0481045 15.2143295,25.7856705 C14.9518955,25.5232365 14.7893443,25.273366 14.6533192,24.9233151 C14.5506082,24.6590055 14.4284268,24.2618862 14.3950532,23.5306734 C14.3589704,22.7397989 14.3513489,22.5026109 14.3513489,20.5000149 C14.3513489,18.4974188 14.3589704,18.2602309 14.3950532,17.4693862 C14.4284268,16.7381436 14.5506082,16.3410243 14.6533192,16.0767147 C14.7893443,15.7266638 14.9518955,15.4767933 15.2143295,15.2143593 C15.4767635,14.9519253 15.726634,14.789374 16.0767147,14.6533192 C16.3409945,14.550638 16.7381138,14.4284566 17.4693266,14.395083 C18.2602011,14.3590002 18.4973891,14.3513787 20.4999851,14.3513787 M21.4132998,13.0008846 C22.6421846,13.0038458 22.931403,13.0149814 23.5922106,13.0451333 C24.390528,13.0815734 24.9357,13.2083395 25.412785,13.3937552 C25.9059763,13.5854228 26.3242332,13.8418727 26.7411803,14.2588197 C27.1581273,14.6757668 27.4145772,15.0940237 27.6062448,15.587215 C27.7916605,16.0643 27.9184266,16.609472 27.9548667,17.4077894 C27.9913663,18.2077143 28,18.4631223 28,20.5000149 C28,22.5369075 27.9913663,22.7923154 27.9548667,23.5922404 C27.9184266,24.3905577 27.7916605,24.9357297 27.6062448,25.4128148 C27.4145772,25.9060061 27.1581273,26.324263 26.7411803,26.74121 C26.3242332,27.158157 25.9059763,27.414607 25.412785,27.6062746 C24.9357,27.7916902 24.390528,27.9184564 23.5922106,27.9548965 C22.7922857,27.9913961 22.5368777,28 20.4999851,28 C18.4630925,28 18.2077143,27.9913961 17.4077596,27.9548965 C16.6094423,27.9184564 16.0642703,27.7916902 15.5871852,27.6062746 C15.0939939,27.414607 14.675737,27.158157 14.25879,26.74121 C13.841843,26.324263 13.585393,25.9059763 13.3937254,25.4128148 C13.2083098,24.9357297 13.0815436,24.3905577 13.0451035,23.5922404 C13.0149517,22.9314328 13.0038364,22.6422144 13.0008822,21.4133295 L13.0008822,19.5867002 C13.0038364,18.3578154 13.0149517,18.068597 13.0451035,17.4077894 C13.0815436,16.609472 13.2083098,16.0643 13.3937254,15.587215 C13.585393,15.0940237 13.841843,14.6757668 14.25879,14.2588197 C14.675737,13.8418727 15.0939939,13.5854228 15.5871852,13.3937552 C16.0642703,13.2083395 16.6094423,13.0815734 17.4077596,13.0451333 C18.0685918,13.0149814 18.3577942,13.0038458 19.5866727,13.0008846 Z M20.514881,16.6607143 C18.3862929,16.6607143 16.6607143,18.3862929 16.6607143,20.514881 C16.6607143,22.643469 18.3862929,24.3690476 20.514881,24.3690476 C22.643469,24.3690476 24.3690476,22.643469 24.3690476,20.514881 C24.3690476,18.3862929 22.643469,16.6607143 20.514881,16.6607143 Z M20.514881,18.0130467 C21.8965892,18.0130467 23.0167152,19.1331727 23.0167152,20.514881 C23.0167152,21.8965892 21.8965892,23.0167152 20.514881,23.0167152 C19.1331727,23.0167152 18.0130467,21.8965892 18.0130467,20.514881 C18.0130467,19.1331727 19.1331727,18.0130467 20.514881,18.0130467 Z M24.48811,15.5892857 C23.994994,15.5892857 23.5952381,15.9890121 23.5952381,16.4821281 C23.5952381,16.9752441 23.994994,17.375 24.48811,17.375 C24.981226,17.375 25.3809524,16.9752441 25.3809524,16.4821281 C25.3809524,15.9890121 24.981226,15.5892857 24.48811,15.5892857 Z" id="Shape"></path>
                            </g>
                        </g>
                    </g>
                </g>
            </g>
        </g>
    </g>
</svg>