<?xml version="1.0" encoding="UTF-8"?>
<svg width="14px" height="14px" viewBox="0 0 14 14" version="1.1" xmlns="http://www.w3.org/2000/svg" xmlns:xlink="http://www.w3.org/1999/xlink">
    <!-- Generator: Sketch 64 (93537) - https://sketch.com -->
    <title>Shape</title>
    <desc>Created with Sketch.</desc>
    <g id="Symbols" stroke="none" stroke-width="1" fill="none" fill-rule="evenodd">
        <g id="Footer" transform="translate(-1238.000000, -269.000000)" fill="#FFFFFF">
            <g id="txt">
                <g transform="translate(162.000000, 80.000000)">
                    <g id="1" transform="translate(855.000000, 0.000000)">
                        <g id="social" transform="translate(0.000000, 176.000000)">
                            <g id="linkedin" transform="translate(208.000000, 0.000000)">
                                <path d="M13.3439558,17.3725771 L16.0017959,17.3725771 L16.0017959,26.6354905 L13.3439558,26.6354905 L13.3439558,17.3725771 Z M14.605127,16.2139489 L14.5858847,16.2139489 C13.6237706,16.2139489 13,15.5058499 13,14.6091573 C13,13.6941292 13.6422112,13 14.6235675,13 C15.6041221,13 16.207047,13.6923829 16.2262892,14.6065379 C16.2262892,15.5032305 15.6041221,16.2139489 14.605127,16.2139489 L14.605127,16.2139489 Z M26.6363636,26.6363636 L23.6225413,26.6363636 L23.6225413,21.8420703 C23.6225413,20.5873992 23.1511054,19.7317431 22.1144274,19.7317431 C21.3214851,19.7317431 20.8805161,20.3088744 20.6752651,20.8667971 C20.598296,21.0658681 20.6103224,21.3443928 20.6103224,21.6237907 L20.6103224,26.6363636 L17.6245617,26.6363636 C17.6245617,26.6363636 17.6630463,18.1444138 17.6245617,17.3725771 L20.6103224,17.3725771 L20.6103224,18.8263193 C20.78671,18.1906891 21.7408065,17.283519 23.263352,17.283519 C25.1523027,17.283519 26.6363636,18.6167709 26.6363636,21.4849649 L26.6363636,26.6363636 L26.6363636,26.6363636 Z" id="Shape"></path>
                            </g>
                        </g>
                    </g>
                </g>
            </g>
        </g>
    </g>
</svg>