<?xml version="1.0" encoding="UTF-8"?>
<svg width="24px" height="24px" viewBox="0 0 24 24" version="1.1" xmlns="http://www.w3.org/2000/svg" xmlns:xlink="http://www.w3.org/1999/xlink">
    <!-- Generator: Sketch 58 (84663) - https://sketch.com -->
    <title>log-in</title>
    <desc>Created with Sketch.</desc>
    <g id="UI-Final" stroke="none" stroke-width="1" fill="none" fill-rule="evenodd">
        <g id="bp-ui-home" transform="translate(-1084.000000, -66.000000)" fill="#FFFFFF" fill-rule="nonzero">
            <g id="main" transform="translate(75.000000, 0.000000)">
                <g id="top" transform="translate(0.000000, 50.000000)">
                    <g id="menu" transform="translate(798.000000, 16.000000)">
                        <g id="log-in" transform="translate(211.000000, 0.000000)">
                            <path d="M20.25,0 L3.75,0 C1.68225,0 0,1.68225 0,3.75 L0,5.625 C0,6.14278125 0.41971875,6.5625 0.9375,6.5625 C1.45528125,6.5625 1.875,6.14278125 1.875,5.625 L1.875,3.75 C1.875,2.716125 2.716125,1.875 3.75,1.875 L20.25,1.875 C21.283875,1.875 22.125,2.716125 22.125,3.75 L22.125,20.25 C22.125,21.283875 21.283875,22.125 20.25,22.125 L3.75,22.125 C2.716125,22.125 1.875,21.283875 1.875,20.25 L1.875,18.375 C1.875,17.8572188 1.45528125,17.4375 0.9375,17.4375 C0.41971875,17.4375 0,17.8572188 0,18.375 L0,20.25 C0,22.31775 1.68225,24 3.75,24 L20.25,24 C22.31775,24 24,22.31775 24,20.25 L24,3.75 C24,1.68225 22.31775,0 20.25,0 Z" id="Path"></path>
                            <path d="M15.7462031,10.0109531 L12.2407031,6.50864062 C11.8744219,6.1426875 11.2808437,6.14296875 10.9148906,6.50925 C10.5489375,6.87553125 10.5492188,7.46910937 10.9155,7.8350625 L14.4207187,11.3370469 C14.78625,11.7025781 14.78625,12.2973281 14.4207187,12.6628594 C14.4193594,12.6642187 14.418,12.665625 14.4166406,12.6669844 L10.9111406,16.2161719 C10.5472969,16.5845625 10.5509531,17.1781406 10.9193438,17.5419844 C11.1020156,17.7224531 11.3400938,17.8125 11.5780781,17.8125 C11.8199531,17.8125 12.0617344,17.7194531 12.2451094,17.5337813 L15.7488281,13.9864219 C16.8431719,12.8896406 16.842375,11.107125 15.7462031,10.0109531 Z" id="Path"></path>
                            <path d="M10.921875,11.0625 L0.9375,11.0625 C0.41971875,11.0625 0,11.4822188 0,12 C0,12.5177812 0.41971875,12.9375 0.9375,12.9375 L10.921875,12.9375 C11.4396563,12.9375 11.859375,12.5177812 11.859375,12 C11.859375,11.4822188 11.4396563,11.0625 10.921875,11.0625 Z" id="Path"></path>
                        </g>
                    </g>
                </g>
            </g>
        </g>
    </g>
</svg>