<?xml version="1.0" encoding="UTF-8"?>
<svg width="21px" height="24px" viewBox="0 0 21 24" version="1.1" xmlns="http://www.w3.org/2000/svg" xmlns:xlink="http://www.w3.org/1999/xlink">
    <!-- Generator: Sketch 58 (84663) - https://sketch.com -->
    <title>notification</title>
    <desc>Created with Sketch.</desc>
    <g id="UI-Final" stroke="none" stroke-width="1" fill="none" fill-rule="evenodd">
        <g id="bp-ui-home" transform="translate(-1224.000000, -2356.000000)" fill="#383373" fill-rule="nonzero">
            <g id="Courses" transform="translate(0.000000, 1016.000000)">
                <g id="courses" transform="translate(162.000000, 272.000000)">
                    <g id="course" transform="translate(760.000000, 766.000000)">
                        <g id="notification" transform="translate(302.000000, 302.000000)">
                            <path d="M17.7333336,12.3216563 L17.7333336,10.078125 C17.7333336,6.80521875 15.5674936,4.03120313 12.600016,3.12515625 L12.600016,2.109375 C12.600016,0.946265625 11.6579588,0 10.5000224,0 C9.34208593,0 8.40002881,0.946265625 8.40002881,2.109375 L8.40002881,3.12515625 C5.43250456,4.03120313 3.26671118,6.80517188 3.26671118,10.078125 L3.26671118,12.3216563 C3.26671118,15.1965938 2.17574118,17.9226563 0.194793911,19.9977188 C0.000661171074,20.2010625 -0.0538919954,20.5011094 0.056147668,20.7602344 C0.166187331,21.0193594 0.419586556,21.1875 0.700052365,21.1875 L7.07045288,21.1875 C7.39562522,22.79025 8.80980756,24 10.5000224,24 C12.1902839,24 13.6043729,22.79025 13.9295919,21.1875 L20.2999924,21.1875 C20.5804582,21.1875 20.8338108,21.0193594 20.9438504,20.7602344 C21.0538901,20.5011094 20.9993369,20.2010625 20.8052509,19.9977188 C18.8243036,17.9226563 17.7333336,15.1965469 17.7333336,12.3216563 Z M9.80002453,2.109375 C9.80002453,1.72167188 10.1140436,1.40625 10.5000224,1.40625 C10.8860012,1.40625 11.2000202,1.72167188 11.2000202,2.109375 L11.2000202,2.846625 C10.9696276,2.8243125 10.736155,2.8125 10.5000224,2.8125 C10.2638898,2.8125 10.0304172,2.8243125 9.80002453,2.846625 L9.80002453,2.109375 Z M10.5000224,22.59375 C9.58745851,22.59375 8.80938756,22.0058906 8.52042844,21.1875 L12.4796163,21.1875 C12.1906572,22.0058906 11.4125863,22.59375 10.5000224,22.59375 L10.5000224,22.59375 Z M2.20878108,19.78125 C3.80295621,17.63475 4.6667069,15.037125 4.6667069,12.3216563 L4.6667069,10.078125 C4.6667069,6.84726563 7.28353223,4.21875 10.5000224,4.21875 C13.7165126,4.21875 16.3333379,6.84726563 16.3333379,10.078125 L16.3333379,12.3216563 C16.3333379,15.037125 17.1970886,17.63475 18.7913104,19.78125 L2.20878108,19.78125 Z" id="Shape"></path>
                            <path d="M19.6230637,10.0940905 C19.6230637,10.4839408 19.9313138,10.8 20.3115318,10.8 C20.6917499,10.8 21,10.4839408 21,10.0940905 C21,7.26574623 19.9258061,4.60667911 17.975284,2.60674326 C17.7064601,2.33110911 17.2705221,2.33106205 17.0016523,2.60674326 C16.7327826,2.88242446 16.7327826,3.32935932 17.0016523,3.60504053 C18.692117,5.33833082 19.6230637,7.64284311 19.6230637,10.0940905 L19.6230637,10.0940905 Z" id="Path"></path>
                            <path d="M0.688468158,10.8 C1.06868617,10.8 1.37693632,10.4839397 1.37693632,10.094088 C1.37693632,7.64287911 2.30792886,5.33835875 3.99834768,3.6050624 C4.26721744,3.32938023 4.26721744,2.8824438 3.99834768,2.60676163 C3.72952381,2.33107946 3.29358577,2.33107946 3.02471601,2.60676163 C1.07419392,4.60670448 0,7.26573385 0,10.094088 C0,10.4839397 0.308250143,10.8 0.688468158,10.8 Z" id="Path"></path>
                        </g>
                    </g>
                </g>
            </g>
        </g>
    </g>
</svg>