<?xml version="1.0" encoding="UTF-8"?>
<svg width="110px" height="110px" viewBox="0 0 110 110" version="1.1" xmlns="http://www.w3.org/2000/svg" xmlns:xlink="http://www.w3.org/1999/xlink">
    <!-- Generator: Sketch 64 (93537) - https://sketch.com -->
    <title>cover</title>
    <desc>Created with Sketch.</desc>
    <g id="UI" stroke="none" stroke-width="1" fill="none" fill-rule="evenodd">
        <g id="bp-ui-Tutoring-" transform="translate(-538.000000, -2384.000000)">
            <g id="rates" transform="translate(162.000000, 2120.000000)">
                <g id="1" transform="translate(376.000000, 264.000000)">
                    <g id="cover">
                        <circle id="Oval" fill="#383373" cx="55" cy="55" r="55"></circle>
                        <g id="watch" transform="translate(35.000000, 35.000000)" fill="#FFFFFF" fill-rule="nonzero">
                            <path d="M20,0 C8.97189474,0 0,8.97189474 0,20 C0,31.0281053 8.97189474,40 20,40 C31.0281053,40 40,31.0281053 40,20 C40,8.97189474 31.0281053,0 20,0 Z M20,35.7894737 C11.2936842,35.7894737 4.21052632,28.7063158 4.21052632,20 C4.21052632,11.2936842 11.2936842,4.21052632 20,4.21052632 C28.7063158,4.21052632 35.7894737,11.2936842 35.7894737,20 C35.7894737,28.7063158 28.7063158,35.7894737 20,35.7894737 Z" id="Shape"></path>
                            <path d="M30.7361053,19.3823158 L22.9258947,19.3823158 C22.6421053,18.9198947 22.2518947,18.5296842 21.7894737,18.2458947 L21.7894737,8.85673684 C21.7894737,7.86842105 20.9883158,7.06726316 20,7.06726316 C19.0116842,7.06726316 18.2105263,7.86842105 18.2105263,8.85673684 L18.2105263,18.2458947 C17.2268421,18.8497895 16.5691579,19.9353684 16.5691579,21.1717895 C16.5691579,23.0635789 18.1083158,24.6026316 20,24.6026316 C21.2364211,24.6026316 22.322,23.9449474 22.9258947,22.9612632 L30.7361053,22.9612632 C31.7244211,22.9612632 32.5255789,22.1601053 32.5255789,21.1717895 C32.5255789,20.1834737 31.7244211,19.3823158 30.7361053,19.3823158 Z" id="Path"></path>
                        </g>
                    </g>
                </g>
            </g>
        </g>
    </g>
</svg>