<?xml version="1.0" encoding="UTF-8"?>
<svg width="72px" height="72px" viewBox="0 0 72 72" version="1.1" xmlns="http://www.w3.org/2000/svg" xmlns:xlink="http://www.w3.org/1999/xlink">
    <!-- Generator: Sketch 58 (84663) - https://sketch.com -->
    <title>seminar</title>
    <desc>Created with Sketch.</desc>
    <g id="UI-Final" stroke="none" stroke-width="1" fill="none" fill-rule="evenodd">
        <g id="bp-ui-home" transform="translate(-922.000000, -3201.000000)" fill="#5AC8F7" fill-rule="nonzero">
            <g id="Benefits" transform="translate(162.000000, 3005.000000)">
                <g id="2" transform="translate(760.000000, 196.000000)">
                    <g id="cover">
                        <g id="seminar">
                            <path d="M64.4248634,57.7894076 C65.1616962,56.7503193 65.5952762,55.4888753 65.5952762,54.1290364 L65.5952762,52.8699417 C65.5952762,49.3309058 62.6660809,46.4516129 59.0657083,46.4516129 C55.4653357,46.4516129 52.5361404,49.3309058 52.5361404,52.8699417 L52.5361404,54.1290364 C52.5361404,55.4888753 52.9697204,56.7503193 53.7065533,57.7894076 C51.1552642,57.8641711 48.9083528,59.1463443 47.5373179,61.0745792 C46.1664236,59.1463443 43.9195122,57.8643093 41.3680825,57.7894076 C42.1049154,56.7503193 42.5384953,55.4888753 42.5384953,54.1290364 L42.5384953,52.8699417 C42.5384953,49.3309058 39.6093,46.4516129 36.0089275,46.4516129 C32.4085549,46.4516129 29.4793596,49.3309058 29.4793596,52.8699417 L29.4793596,54.1290364 C29.4793596,55.4888753 29.9129396,56.7503193 30.6497724,57.7894076 C28.0928598,57.8643093 25.8417307,59.1517339 24.4716799,61.0868786 C23.1016291,59.1517339 20.8503594,57.8644475 18.2935873,57.7894076 C19.0304202,56.7503193 19.4640001,55.4888753 19.4640001,54.1290364 L19.4640001,52.8699417 C19.4640001,49.3309058 16.5348048,46.4516129 12.9344323,46.4516129 C9.33405972,46.4516129 6.40486442,49.3309058 6.40486442,52.8699417 L6.40486442,54.1290364 C6.40486442,55.4888753 6.83844437,56.7503193 7.57527723,57.7894076 C3.37711544,57.9125393 0,61.3052267 0,65.4610269 L0,70.6180499 C0,71.3811628 0.629562589,72 1.40590127,72 L70.5940987,72 C71.3704374,72 72,71.3811628 72,70.6180499 L72,65.4610269 C72,61.3052267 68.6228846,57.9125393 64.4248634,57.7894076 Z M55.347943,52.8699417 C55.347943,50.8549204 57.0157637,49.215513 59.0657083,49.215513 C61.115653,49.215513 62.7834736,50.8549204 62.7834736,52.8699417 L62.7834736,54.1290364 C62.7834736,56.1440578 61.115653,57.7834652 59.0657083,57.7834652 C57.0157637,57.7834652 55.347943,56.1440578 55.347943,54.1290364 L55.347943,52.8699417 Z M32.2911622,52.8699417 C32.2911622,50.8549204 33.9589828,49.215513 36.0089275,49.215513 C38.0588721,49.215513 39.7266928,50.8549204 39.7266928,52.8699417 L39.7266928,54.1290364 C39.7266928,56.1440578 38.0588721,57.7834652 36.0089275,57.7834652 C33.9589828,57.7834652 32.2911622,56.1440578 32.2911622,54.1290364 L32.2911622,52.8699417 L32.2911622,52.8699417 Z M9.21652637,52.8699417 C9.21652637,50.8549204 10.884347,49.215513 12.9342917,49.215513 C14.9842363,49.215513 16.652057,50.8549204 16.652057,52.8699417 L16.652057,54.1290364 C16.652057,56.1440578 14.9842363,57.7834652 12.9342917,57.7834652 C10.884347,57.7834652 9.21652637,56.1440578 9.21652637,54.1290364 L9.21652637,52.8699417 Z M23.0569214,69.2360999 L2.81180254,69.2360999 L2.81180254,65.4610269 C2.81180254,62.7517138 5.05421507,60.5473653 7.8106251,60.5473653 L18.0580989,60.5473653 C20.8143683,60.5473653 23.0569214,62.7515756 23.0569214,65.4610269 L23.0569214,69.2360999 L23.0569214,69.2360999 Z M25.8864383,65.4610269 C25.8864383,62.7517138 28.1288509,60.5473653 30.8852609,60.5473653 L41.1327347,60.5473653 C43.8890041,60.5473653 46.1315572,62.7515756 46.1315572,65.4610269 L46.1315572,69.2360999 L25.8864383,69.2360999 L25.8864383,65.4610269 L25.8864383,65.4610269 Z M69.188338,69.2360999 L48.9432192,69.2360999 L48.9432192,65.4610269 C48.9432192,62.7517138 51.1856317,60.5473653 53.9420417,60.5473653 L64.1895155,60.5473653 C66.9457849,60.5473653 69.188338,62.7515756 69.188338,65.4610269 L69.188338,69.2360999 L69.188338,69.2360999 Z" id="XMLID_1259_"></path>
                            <path d="M26.7096774,38.3225806 C26.4042581,38.3225806 26.1046452,38.4467226 25.8886452,38.6628387 C25.6726452,38.8787226 25.5483871,39.1772903 25.5483871,39.483871 C25.5483871,39.7892903 25.672529,40.0889032 25.8886452,40.3047871 C26.1046452,40.5207871 26.4042581,40.6451613 26.7096774,40.6451613 C27.0150968,40.6451613 27.3147097,40.5209032 27.5305935,40.3047871 C27.7465935,40.0876258 27.8709677,39.7892903 27.8709677,39.483871 C27.8709677,39.1783355 27.7467097,38.8787226 27.5305935,38.6628387 C27.3147097,38.4467226 27.0150968,38.3225806 26.7096774,38.3225806 Z" id="XMLID_1309_"></path>
                            <path d="M9.52607325,40.6451613 L21.1215135,40.6451613 C21.8929595,40.6451613 22.5185545,40.0148881 22.5185545,39.2376731 C22.5185545,38.4604582 21.8929595,37.830185 21.1215135,37.830185 L10.9231142,37.830185 L10.9231142,27.8637614 C10.9231142,25.2472409 13.035999,23.1186966 15.6329585,23.1186966 L17.9429658,23.1186966 L17.9429658,29.698563 C17.9429658,30.262825 18.2774174,30.7723357 18.7925064,30.9934521 C19.3077351,31.2144277 19.9041319,31.1043621 20.3080165,30.7135027 L25.3126364,25.8689284 L25.3126364,30.1063123 C25.3126364,30.8835272 25.9382314,31.5138004 26.7096774,31.5138004 C27.4811235,31.5138004 28.1067184,30.8835272 28.1067184,30.1063123 L28.1067184,25.8689284 L33.1113383,30.7135027 C33.3767761,30.9703692 33.7254776,31.1060511 34.0796275,31.1060511 C34.2641766,31.1060511 34.4502624,31.0691749 34.6268484,30.9934521 C35.1420771,30.7723357 35.476389,30.262825 35.476389,29.698563 L35.476389,23.1186966 L37.7863963,23.1186966 C40.3833558,23.1186966 42.4962406,25.2472409 42.4962406,27.8637614 L42.4962406,37.830185 L32.2978414,37.830185 C31.5263953,37.830185 30.9008004,38.4604582 30.9008004,39.2376731 C30.9008004,40.0148881 31.5263953,40.6451613 32.2978414,40.6451613 L43.8932816,40.6451613 C44.6647276,40.6451613 45.2903226,40.0148881 45.2903226,39.2376731 L45.2903226,27.8637614 C45.2903226,23.6952037 41.9240126,20.3037203 37.7863963,20.3037203 L33.2004696,20.3037203 C34.7274354,18.6845459 35.6675042,16.4982946 35.6675042,14.0938826 L35.6675042,10.8586303 L35.6675042,9.36162593 L35.6675042,9.02481402 C35.6675042,4.04863966 31.6490555,0 26.7096774,0 C21.7702993,0 17.7518506,4.04863966 17.7518506,9.02481402 L17.7518506,9.36162593 L17.7518506,10.8586303 L17.7518506,14.0938826 C17.7518506,16.4982946 18.6919195,18.6845459 20.2188853,20.3037203 L15.6329585,20.3037203 C11.4953422,20.3037203 8.12903226,23.6952037 8.12903226,27.8637614 L8.12903226,39.2376731 C8.12903226,40.0148881 8.75462721,40.6451613 9.52607325,40.6451613 Z M20.7370478,23.1186966 L24.1208208,23.1186966 L20.7370478,26.394203 L20.7370478,23.1186966 Z M32.6823071,26.3943438 L29.2985341,23.1188374 L32.6823071,23.1188374 L32.6823071,26.3943438 Z M20.5459326,9.02495476 C20.5459326,5.60081759 23.3109561,2.81511705 26.7096774,2.81511705 C29.8921368,2.81511705 32.5191327,5.25767198 32.8404521,8.3797622 L29.920357,6.65136675 C29.3320631,6.30315418 28.5801756,6.43405058 28.1419238,6.96087339 C26.8256318,8.54345307 24.8952006,9.45114218 22.8457415,9.45114218 L20.5459326,9.45114218 L20.5459326,9.36162593 L20.5459326,9.02495476 Z M20.5459326,14.0938826 L20.5459326,12.2661185 L22.8456017,12.2661185 C25.3219966,12.2661185 27.6741945,11.3228199 29.4603114,9.6438273 L32.873562,11.6641358 L32.873562,14.0938826 C32.873562,17.5180198 30.1085384,20.3037203 26.7098171,20.3037203 C23.3110958,20.3037203 20.5459326,17.5180198 20.5459326,14.0938826 Z" id="XMLID_1315_"></path>
                            <path d="M45.9294696,23.0053638 C46.1539566,23.1515714 46.4105525,23.2258065 46.6683887,23.2258065 C46.8676571,23.2258065 47.0677523,23.1814068 47.2540668,23.0917592 L51.9251597,20.8409532 L69.0428079,20.8409532 C70.6733358,20.8409532 72,19.4798364 72,17.8066496 L72,3.03430365 C72,1.36111687 70.6733358,0 69.0428079,0 L48.2475147,0 C46.6169868,0 45.2903226,1.36111687 45.2903226,3.03430365 L45.2903226,21.8116646 C45.2903226,22.2955355 45.5314842,22.7458947 45.9294696,23.0053638 Z M48.0464548,3.03430365 C48.0464548,2.92047661 48.1365803,2.82800098 48.2475147,2.82800098 L69.0428079,2.82800098 C69.1537422,2.82800098 69.2438678,2.92047661 69.2438678,3.03430365 L69.2438678,17.8065082 C69.2438678,17.9203352 69.1537422,18.0128108 69.0428079,18.0128108 L51.6177131,18.0128108 C51.4151374,18.0128108 51.21518,18.0586245 51.0318972,18.1468581 L48.0464548,19.5854622 L48.0464548,3.03430365 L48.0464548,3.03430365 Z" id="XMLID_1330_"></path>
                            <path d="M51.3454034,9.29032258 L64.7836288,9.29032258 C65.5621864,9.29032258 66.1935484,8.77029677 66.1935484,8.12903226 C66.1935484,7.48776774 65.5621864,6.96774194 64.7836288,6.96774194 L51.3454034,6.96774194 C50.5668459,6.96774194 49.9354839,7.48776774 49.9354839,8.12903226 C49.9354839,8.77029677 50.5667049,9.29032258 51.3454034,9.29032258 Z" id="XMLID_1331_"></path>
                            <path d="M52.4510012,13.9354839 L61.3554504,13.9354839 C62.1032545,13.9354839 62.7096774,13.4154581 62.7096774,12.7741935 C62.7096774,12.132929 62.1032545,11.6129032 61.3554504,11.6129032 L52.4510012,11.6129032 C51.7031971,11.6129032 51.0967742,12.132929 51.0967742,12.7741935 C51.0967742,13.4154581 51.7030616,13.9354839 52.4510012,13.9354839 Z" id="XMLID_1332_"></path>
                        </g>
                    </g>
                </g>
            </g>
        </g>
    </g>
</svg>