<?xml version="1.0" encoding="UTF-8"?>
<svg width="82px" height="64px" viewBox="0 0 82 64" version="1.1" xmlns="http://www.w3.org/2000/svg" xmlns:xlink="http://www.w3.org/1999/xlink">
    <!-- Generator: Sketch 58 (84663) - https://sketch.com -->
    <title>tutorial</title>
    <desc>Created with Sketch.</desc>
    <g id="UI-Final" stroke="none" stroke-width="1" fill="none" fill-rule="evenodd">
        <g id="bp-ui-home" transform="translate(-162.000000, -3501.000000)" fill="#2D8EF6" fill-rule="nonzero">
            <g id="Benefits" transform="translate(162.000000, 3005.000000)">
                <g id="1" transform="translate(0.000000, 496.000000)">
                    <g id="cover">
                        <g id="tutorial">
                            <path d="M76.4711538,0 L4.75961538,0 C2.13562959,0 0,2.15375008 0,4.8 L0,46.4 C0,49.0462499 2.13562959,51.2 4.75961538,51.2 L35.0625,51.2 L35.0625,54.4 L19.0384615,54.4 C17.2883113,54.4 15.8653846,55.835 15.8653846,57.6 L15.8653846,60.8 C15.8653846,62.565 17.2883113,64 19.0384615,64 L62.1923077,64 C63.9424579,64 65.3653846,62.565 65.3653846,60.8 L65.3653846,57.6 C65.3653846,55.835 63.9424579,54.4 62.1923077,54.4 L46.1682692,54.4 L46.1682692,51.2 L76.4711538,51.2 C79.0951396,51.2 81.2307692,49.0462499 81.2307692,46.4 L81.2307692,4.8 C81.2307692,2.15375008 79.0951396,0 76.4711538,0 Z M38.2355769,51.2 L42.9951923,51.2 L42.9951923,54.4 L38.2355769,54.4 L38.2355769,51.2 Z M62.1923077,57.6 L62.194167,60.8 C62.194167,60.8 62.194167,60.8 62.1923077,60.8 L19.0384615,60.8 L19.0384615,57.6 L62.1923077,57.6 Z M78.0576923,46.4 C78.0576923,47.283125 77.3456093,48 76.4711538,48 L4.75961538,48 C3.88515997,48 3.17307692,47.283125 3.17307692,46.4 L3.17307692,4.8 C3.17307692,3.91812496 3.88515997,3.2 4.75961538,3.2 L76.4711538,3.2 C77.3456093,3.2 78.0576923,3.91812496 78.0576923,4.8 L78.0576923,46.4 Z" id="Shape"></path>
                            <path d="M36.0194742,33.2307692 C35.7535297,33.2307692 35.4875853,33.1589743 35.2484177,33.0153844 C34.7621715,32.7237173 34.4615385,32.1794859 34.4615385,31.5897416 L34.4615385,20.1025484 C34.4615385,19.5128041 34.7621715,18.9685727 35.2484177,18.6769056 C35.7346641,18.3845976 36.3328871,18.3903668 36.8142648,18.6910083 L46.0060856,24.4346049 C46.4789436,24.730759 46.7692308,25.2666571 46.7692308,25.846145 C46.7692308,26.4256329 46.4789436,26.9621719 46.0060856,27.2576851 L36.8142648,33.0012817 C36.5696203,33.1538461 36.2945472,33.2307692 36.0194742,33.2307692 Z M37.5774099,22.9839621 L37.5774099,28.7083279 L42.1574976,25.846145 L37.5774099,22.9839621 Z" id="Shape"></path>
                            <path d="M70.6641651,8.61538462 L11.7973734,8.61538462 C10.0423077,8.61538462 8.61538462,10.0331687 8.61538462,11.7769936 L8.61538462,39.915314 C8.61538462,41.659139 10.0423077,43.0769231 11.7973734,43.0769231 L70.6641651,43.0769231 C72.4192308,43.0769231 73.8461538,41.659139 73.8461538,39.915314 L73.8461538,11.7769936 C73.8461538,10.0331687 72.4192308,8.61538462 70.6641651,8.61538462 Z M70.6641651,39.915314 L11.7973734,39.915314 L11.7973734,35.2914608 L22.934334,35.2914608 C23.8124882,35.2914608 24.5253283,34.5831863 24.5253283,33.7106563 C24.5253283,32.8381264 23.8124882,32.1298518 22.934334,32.1298518 L11.7973734,32.1298518 L11.7973734,11.7769936 L70.6641651,11.7769936 L70.6641651,39.915314 Z" id="Shape"></path>
                            <path d="M27.6926682,35.6923077 C26.6731558,35.6923077 25.8461538,34.8658655 25.8461538,33.8461538 C25.8461538,32.8264422 26.6717137,32 27.6912262,32 L27.6926682,32 C28.7121807,32 29.5384615,32.8264422 29.5384615,33.8461538 C29.5384615,34.8658655 28.7121807,35.6923077 27.6926682,35.6923077 Z" id="Path"></path>
                        </g>
                    </g>
                </g>
            </g>
        </g>
    </g>
</svg>