<?xml version="1.0" encoding="UTF-8"?>
<svg width="15px" height="13px" viewBox="0 0 15 13" version="1.1" xmlns="http://www.w3.org/2000/svg" xmlns:xlink="http://www.w3.org/1999/xlink">
    <!-- Generator: Sketch 64 (93537) - https://sketch.com -->
    <title>tw</title>
    <desc>Created with Sketch.</desc>
    <g id="Symbols" stroke="none" stroke-width="1" fill="none" fill-rule="evenodd">
        <g id="Footer" transform="translate(-1186.000000, -270.000000)" fill="#FFFFFF">
            <g id="txt">
                <g transform="translate(162.000000, 80.000000)">
                    <g id="1" transform="translate(855.000000, 0.000000)">
                        <g id="social" transform="translate(0.000000, 176.000000)">
                            <g id="twitter" transform="translate(156.000000, 0.000000)">
                                <path d="M25.6314652,15.9402716 C26.2382462,15.5573582 26.7038371,14.9501924 26.9223455,14.2269116 C26.3542237,14.5823474 25.7264323,14.8393957 25.0566201,14.9785563 C24.522115,14.3758224 23.7581761,14 22.9127167,14 C21.2907122,14 19.9763002,15.3871745 19.9763002,17.0978753 C19.9763002,17.3407417 20.0006723,17.5774034 20.0510973,17.8034286 C17.6105268,17.6740181 15.4464534,16.441959 13.9967344,14.5663927 C13.7437689,15.0255341 13.5992172,15.5573582 13.5992172,16.1246372 C13.5992172,17.1989219 14.1177544,18.1473415 14.9060654,18.7039841 C14.4245066,18.6880294 13.9715219,18.547096 13.5748451,18.3166389 L13.5748451,18.3547529 C13.5748451,19.8562696 14.586707,21.1087153 15.9322144,21.3923549 C15.6851318,21.4650375 15.4262834,21.5013788 15.15735,21.5013788 C14.9682563,21.5013788 14.7833645,21.482765 14.6051962,21.4464236 C14.9783413,22.67671 16.0633194,23.57372 17.3491572,23.5976521 C16.3431782,24.4290704 15.07667,24.9236668 13.7009077,24.9236668 C13.4639101,24.9236668 13.2294338,24.9103712 13,24.8811209 C14.3001249,25.759517 15.8439706,26.2727273 17.5029535,26.2727273 C22.9068338,26.2727273 25.8600586,21.5519021 25.8600586,17.457743 C25.8600586,17.3230142 25.8583778,17.1891718 25.8524948,17.0571021 C26.4264995,16.62012 26.9257072,16.074114 27.3181818,15.4527661 C26.7912405,15.699178 26.2247995,15.8658162 25.6314652,15.9402716 Z" id="tw"></path>
                            </g>
                        </g>
                    </g>
                </g>
            </g>
        </g>
    </g>
</svg>