<?xml version="1.0" encoding="UTF-8"?>
<svg width="56px" height="56px" viewBox="0 0 56 56" version="1.1" xmlns="http://www.w3.org/2000/svg" xmlns:xlink="http://www.w3.org/1999/xlink">
    <!-- Generator: Sketch 58 (84663) - https://sketch.com -->
    <title>Virtual_self-paced</title>
    <desc>Created with Sketch.</desc>
    <g id="UI-Final" stroke="none" stroke-width="1" fill="none" fill-rule="evenodd">
        <g id="bp-ui-program-overview" transform="translate(-1098.000000, -1336.000000)" fill="#B84FEA" fill-rule="nonzero">
            <g id="delivery-methods" transform="translate(162.000000, 1160.000000)">
                <g id="1" transform="translate(904.000000, 128.000000)">
                    <g id="cover" transform="translate(32.000000, 40.000000)">
                        <g id="Virtual_self-paced" transform="translate(0.000000, 8.000000)">
                            <path d="M32.921875,18.046875 C32.921875,15.3330078 30.7138672,13.125 28,13.125 C25.2861328,13.125 23.078125,15.3330078 23.078125,18.046875 C23.078125,20.7607422 25.2861328,22.96875 28,22.96875 C30.7138672,22.96875 32.921875,20.7607422 32.921875,18.046875 Z M28,19.6875 C27.09552,19.6875 26.359375,18.951355 26.359375,18.046875 C26.359375,17.142395 27.09552,16.40625 28,16.40625 C28.90448,16.40625 29.640625,17.142395 29.640625,18.046875 C29.640625,18.951355 28.90448,19.6875 28,19.6875 Z" id="Shape"></path>
                            <path d="M54.359375,0 L1.640625,0 C0.734436062,0 0,0.734436063 0,1.640625 L0,54.359375 C0,55.2655639 0.734436063,56 1.640625,56 L54.359375,56 C55.2655639,56 56,55.2655639 56,54.359375 L56,1.640625 C56,0.734436062 55.2655639,0 54.359375,0 Z M52.71875,52.71875 L3.28125,52.71875 L3.28125,3.28125 L52.71875,3.28125 L52.71875,52.71875 Z" id="Shape"></path>
                            <path d="M8.203125,49.4375 C9.10931394,49.4375 9.84375,48.7030639 9.84375,47.796875 L9.84375,41.234375 C9.84375,40.3281861 9.10931394,39.59375 8.203125,39.59375 C7.29693606,39.59375 6.5625,40.3281861 6.5625,41.234375 L6.5625,47.796875 C6.5625,48.7030639 7.29693606,49.4375 8.203125,49.4375 Z" id="Path"></path>
                            <path d="M14.875,39.59375 C13.9688111,39.59375 13.234375,40.3281861 13.234375,41.234375 L13.234375,47.796875 C13.234375,48.7030639 13.9688111,49.4375 14.875,49.4375 C15.7811889,49.4375 16.515625,48.7030639 16.515625,47.796875 L16.515625,41.234375 C16.515625,40.3281861 15.7811889,39.59375 14.875,39.59375 Z" id="Path"></path>
                            <path d="M47.796875,42.875 L29.640625,42.875 L29.640625,41.234375 C29.640625,40.3281861 28.9061889,39.59375 28,39.59375 C27.0938111,39.59375 26.359375,40.3281861 26.359375,41.234375 L26.359375,42.875 L21.4375,42.875 C20.5313111,42.875 19.796875,43.6094361 19.796875,44.515625 C19.796875,45.4218139 20.5313111,46.15625 21.4375,46.15625 L26.359375,46.15625 L26.359375,47.796875 C26.359375,48.7030639 27.0938111,49.4375 28,49.4375 C28.9061889,49.4375 29.640625,48.7030639 29.640625,47.796875 L29.640625,46.15625 L47.796875,46.15625 C48.7030639,46.15625 49.4375,45.4218139 49.4375,44.515625 C49.4375,43.6094361 48.7030639,42.875 47.796875,42.875 Z" id="Path"></path>
                            <path d="M8.203125,36.3125 L47.796875,36.3125 C48.7030639,36.3125 49.4375,35.5780639 49.4375,34.671875 L49.4375,8.203125 C49.4375,7.29693606 48.7030639,6.5625 47.796875,6.5625 L8.203125,6.5625 C7.29693606,6.5625 6.5625,7.29693606 6.5625,8.203125 L6.5625,34.671875 C6.5625,35.5780639 7.29693606,36.3125 8.203125,36.3125 Z M32.921875,33.03125 L23.078125,33.03125 L23.078125,31.28125 C23.078125,28.5541382 25.3318482,26.25 28,26.25 C30.6681518,26.25 32.921875,28.5541382 32.921875,31.28125 L32.921875,33.03125 Z M9.84375,9.84375 L46.15625,9.84375 L46.15625,33.03125 L42.765625,33.03125 L42.765625,27.890625 C42.765625,27.4556885 42.5930176,27.038269 42.2849732,26.7306518 L39.0037232,23.4494018 C38.3632812,22.8085327 37.3242188,22.8085327 36.6837768,23.4494018 C36.0429077,24.0898438 36.0429077,25.128479 36.6837768,25.7693482 L39.484375,28.5703736 L39.484375,33.03125 L36.203125,33.03125 L36.203125,31.28125 C36.203125,26.7468872 32.5352173,22.96875 28,22.96875 C23.4656372,22.96875 19.796875,26.7460327 19.796875,31.28125 L19.796875,33.03125 L16.515625,33.03125 L16.515625,28.5703736 L19.3162232,25.7693482 C19.9570923,25.1289062 19.9570923,24.090271 19.3162232,23.4494018 C18.6757812,22.8085327 17.6367188,22.8085327 16.9962768,23.4494018 L13.7150268,26.7306518 C13.4074096,27.038269 13.234375,27.4556885 13.234375,27.890625 L13.234375,33.03125 L9.84375,33.03125 L9.84375,9.84375 Z" id="Shape"></path>
                        </g>
                    </g>
                </g>
            </g>
        </g>
    </g>
</svg>