<?xml version="1.0" encoding="UTF-8"?>
<svg width="72px" height="72px" viewBox="0 0 72 72" version="1.1" xmlns="http://www.w3.org/2000/svg" xmlns:xlink="http://www.w3.org/1999/xlink">
    <!-- Generator: Sketch 58 (84663) - https://sketch.com -->
    <title>workshops</title>
    <desc>Created with Sketch.</desc>
    <g id="UI-Final" stroke="none" stroke-width="1" fill="none" fill-rule="evenodd">
        <g id="bp-ui-program-overview" transform="translate(-162.000000, -3192.000000)" fill="#FD6B3F" fill-rule="nonzero">
            <g id="Benefits" transform="translate(162.000000, 2472.000000)">
                <g id="3" transform="translate(0.000000, 720.000000)">
                    <g id="cover">
                        <g id="workshops">
                            <path d="M71.5879687,13.2069375 L58.7910937,0.411890625 C58.5274219,0.14821875 58.1698125,0 57.796875,0 L16.03125,0 C13.7050312,0 11.8125,1.89253125 11.8125,4.21875 L11.8125,6.899625 C4.90429687,9.60946875 0,16.3427344 0,24.2002969 C0,24.9768281 0.62971875,25.6065469 1.40625,25.6065469 L18.5752969,25.6065469 C19.3518281,25.6065469 19.9815469,24.9768281 19.9815469,24.2002969 L19.9815469,7.03125 C19.9815469,6.25471875 19.3518281,5.625 18.5752969,5.625 C17.2199531,5.625 15.8986406,5.77223437 14.625,6.04926562 L14.625,4.21875 C14.625,3.44334375 15.2558437,2.8125 16.03125,2.8125 L56.390625,2.8125 L56.390625,11.390625 C56.390625,13.7168437 58.2831562,15.609375 60.609375,15.609375 L69.1875,15.609375 L69.1875,67.78125 C69.1875,68.5566562 68.5566562,69.1875 67.78125,69.1875 L16.03125,69.1875 C15.2558437,69.1875 14.625,68.5566562 14.625,67.78125 L14.625,55.7343281 C14.625,54.9577969 13.9952812,54.3280781 13.21875,54.3280781 C12.4422187,54.3280781 11.8125,54.9577969 11.8125,55.7343281 L11.8125,67.78125 C11.8125,70.1074687 13.7050312,72 16.03125,72 L67.78125,72 C70.1074687,72 72,70.1074687 72,67.78125 L72,14.2012969 C72,13.8283594 71.8517812,13.4706094 71.5879687,13.2069375 Z M17.1689063,8.49979688 L17.1689063,22.7940469 L2.87465625,22.7940469 C3.54698438,15.2216719 9.59667188,9.172125 17.1689063,8.49979688 Z M60.609375,12.796875 C59.8339688,12.796875 59.203125,12.1660313 59.203125,11.390625 L59.203125,4.8009375 L67.2001875,12.796875 L60.609375,12.796875 Z" id="Shape"></path>
                            <path d="M13.8314222,49.2795556 C13.5835556,49.0314222 13.2395556,48.8888889 12.8888889,48.8888889 C12.5382222,48.8888889 12.1942222,49.0314222 11.9462222,49.2795556 C11.6982222,49.5275556 11.5555556,49.8715556 11.5555556,50.2222222 C11.5555556,50.5728889 11.6980889,50.9168889 11.9462222,51.1647556 C12.1942222,51.4128889 12.5382222,51.5555556 12.8888889,51.5555556 C13.2395556,51.5555556 13.5835556,51.4128889 13.8314222,51.1647556 C14.0795556,50.9168889 14.2222222,50.5728889 14.2222222,50.2222222 C14.2222222,49.8715556 14.0795556,49.5275556 13.8314222,49.2795556 Z" id="Path"></path>
                            <path d="M23.1110405,10.6666667 C22.3306866,10.6666667 21.6978679,11.2994853 21.6978679,12.0798392 L21.6978679,27.9200901 L5.85761698,27.9200901 C5.07726311,27.9200901 4.44444444,28.5529088 4.44444444,29.3332627 C4.44444444,39.6261048 12.8181983,48 23.1110405,48 C33.4038826,48 41.7777778,39.6261048 41.7777778,29.3332627 C41.7777778,19.0404205 33.4038826,10.6666667 23.1110405,10.6666667 Z M24.524213,13.5556153 C27.8324499,13.8492725 30.8511277,15.1649362 33.2627067,17.1832292 L24.524213,25.9215815 L24.524213,13.5556153 Z M23.1110405,45.1736549 C14.8528841,45.1736549 8.05029548,38.8215857 7.33339306,30.7464352 L23.1110405,30.7464352 C23.5010761,30.7464352 23.8540866,30.5884425 24.1098708,30.3329409 C24.1100121,30.3327996 24.1101534,30.3327996 24.1104361,30.332517 L35.2616392,19.1814551 C37.5638386,21.9324781 38.9514327,25.4738885 38.9514327,29.3332627 C38.9514327,38.0676582 31.8454359,45.1736549 23.1110405,45.1736549 Z" id="Shape"></path>
                            <path d="M61.533764,44.4444444 C59.1936147,44.4444444 57.2897501,46.3574672 57.2897501,48.7088731 C57.2897501,49.2982172 57.4094313,49.8598424 57.6254516,50.3708631 L49.475106,58.5604142 C48.9150377,58.2862114 48.2863578,58.1319812 47.622594,58.1319812 C46.9745331,58.1319812 46.3602828,58.2792462 45.8104001,58.5412242 L40.3981507,53.1029405 C40.5857362,52.6219129 40.689856,52.0989518 40.689856,51.5516835 C40.689856,49.2002775 38.7859914,47.2872548 36.4458421,47.2872548 C34.1056929,47.2872548 32.2018283,49.2002775 32.2018283,51.5516835 C32.2018283,52.1887891 32.3425881,52.7932008 32.5929849,53.3366312 L27.4018487,58.5527382 C26.8488537,58.2869221 26.2300765,58.1378093 25.5773472,58.1378093 C23.2371979,58.1378093 21.3333333,60.050832 21.3333333,62.402238 C21.3333333,64.753644 23.2371979,66.6666667 25.5773472,66.6666667 C27.9174964,66.6666667 29.821361,64.753644 29.821361,62.402238 C29.821361,61.7430994 29.6716887,61.1185028 29.4048817,60.5608577 L34.5670172,55.3738909 C35.133876,55.6564804 35.7716098,55.8161121 36.4461251,55.8161121 C37.2079256,55.8161121 37.9227589,55.6124146 38.5413947,55.2578984 L43.801001,60.5428049 C43.5305159,61.1035773 43.3785802,61.7324384 43.3785802,62.3964099 C43.3785802,64.7478159 45.2824448,66.6608386 47.622594,66.6608386 C49.9627432,66.6608386 51.8666078,64.7478159 51.8666078,62.3964099 C51.8666078,61.7485011 51.7214625,61.134139 51.4630021,60.5837434 L59.5372384,52.4706678 C60.1326735,52.7910686 60.8124231,52.9733018 61.533764,52.9733018 C63.8739132,52.9733018 65.7777778,51.0602791 65.7777778,48.7088731 C65.7777778,46.3574672 63.8739132,44.4444444 61.533764,44.4444444 Z M25.5772057,63.8238564 C24.7971559,63.8238564 24.1625344,63.1861821 24.1625344,62.4023801 C24.1625344,61.6185781 24.7971559,60.9809039 25.5772057,60.9809039 C25.9570449,60.9809039 26.3015174,61.1328597 26.5558753,61.3784908 C26.561534,61.384461 26.5664853,61.3908576 26.5722855,61.3966857 C26.5790759,61.4035088 26.5864322,61.4091947 26.5933641,61.4157335 C26.8395169,61.6715992 26.991877,62.0192923 26.991877,62.4023801 C26.991877,63.18604 26.3572554,63.8238564 25.5772057,63.8238564 Z M36.4458421,52.9731597 C35.6657924,52.9731597 35.0311709,52.3354854 35.0311709,51.5516835 C35.0311709,50.7678815 35.6657924,50.1302072 36.4458421,50.1302072 C37.2258919,50.1302072 37.8605134,50.7678815 37.8605134,51.5516835 C37.8605134,52.3354854 37.2258919,52.9731597 36.4458421,52.9731597 Z M47.6223111,63.8178862 C46.8422613,63.8178862 46.2076398,63.1802119 46.2076398,62.3964099 C46.2076398,61.6126079 46.8422613,60.9749337 47.6223111,60.9749337 C48.4023608,60.9749337 49.0369823,61.6126079 49.0369823,62.3964099 C49.0369823,63.1802119 48.4023608,63.8178862 47.6223111,63.8178862 Z M61.533481,50.1302072 C60.7534313,50.1302072 60.1188098,49.492533 60.1188098,48.708731 C60.1188098,47.924929 60.7535728,47.2872548 61.533481,47.2872548 C62.3135308,47.2872548 62.9481523,47.924929 62.9481523,48.708731 C62.9481523,49.492533 62.3135308,50.1302072 61.533481,50.1302072 Z" id="Shape"></path>
                            <path d="M54.5343758,32.8888889 L46.7989576,32.8888889 C45.9896399,32.8888889 45.3333333,33.4859556 45.3333333,34.2222222 C45.3333333,34.9584889 45.9894933,35.5555556 46.7989576,35.5555556 L54.5343758,35.5555556 C55.3436935,35.5555556 56,34.9584889 56,34.2222222 C56,33.4859556 55.3436935,32.8888889 54.5343758,32.8888889 Z" id="Path"></path>
                            <path d="M61.8314222,33.2795556 C61.5835556,33.0315556 61.2395556,32.8888889 60.8888889,32.8888889 C60.5382222,32.8888889 60.1942222,33.0314222 59.9462222,33.2795556 C59.6982222,33.5275556 59.5555556,33.8715556 59.5555556,34.2222222 C59.5555556,34.5728889 59.6980889,34.9168889 59.9462222,35.1647556 C60.1942222,35.4127556 60.5368889,35.5555556 60.8888889,35.5555556 C61.2395556,35.5555556 61.5835556,35.4128889 61.8314222,35.1647556 C62.0794222,34.9168889 62.2222222,34.5728889 62.2222222,34.2222222 C62.2222222,33.8715556 62.0795556,33.5275556 61.8314222,33.2795556 Z" id="Path"></path>
                            <path d="M64.4021179,19.5555556 L47.5978821,19.5555556 C46.8382427,19.5555556 46.2222222,20.1526222 46.2222222,20.8888889 C46.2222222,21.6251556 46.8381052,22.2222222 47.5978821,22.2222222 L64.4021179,22.2222222 C65.1617573,22.2222222 65.7777778,21.6251556 65.7777778,20.8888889 C65.7777778,20.1526222 65.1617573,19.5555556 64.4021179,19.5555556 Z" id="Path"></path>
                            <path d="M64.4021179,26.6666667 L47.5978821,26.6666667 C46.8382427,26.6666667 46.2222222,27.2637333 46.2222222,28 C46.2222222,28.7362667 46.8381052,29.3333333 47.5978821,29.3333333 L64.4021179,29.3333333 C65.1617573,29.3333333 65.7777778,28.7362667 65.7777778,28 C65.7777778,27.2637333 65.1617573,26.6666667 64.4021179,26.6666667 Z" id="Path"></path>
                        </g>
                    </g>
                </g>
            </g>
        </g>
    </g>
</svg>