<?xml version="1.0" encoding="UTF-8"?>
<svg width="15px" height="18px" viewBox="0 0 15 18" version="1.1" xmlns="http://www.w3.org/2000/svg" xmlns:xlink="http://www.w3.org/1999/xlink">
    <!-- Generator: Sketch 64 (93537) - https://sketch.com -->
    <title>Shape</title>
    <desc>Created with Sketch.</desc>
    <g id="Symbols" stroke="none" stroke-width="1" fill="none" fill-rule="evenodd">
        <g id="Footer" transform="translate(-1082.000000, -267.000000)" fill="#FFFFFF">
            <g id="txt">
                <g transform="translate(162.000000, 80.000000)">
                    <g id="1" transform="translate(855.000000, 0.000000)">
                        <g id="social" transform="translate(0.000000, 176.000000)">
                            <g id="youtube" transform="translate(52.000000, 0.000000)">
                                <path d="M16.3583033,23.2844432 L16.3696314,20.5222375 L16.8858689,20.5168246 L17.401567,20.5103292 L17.3956332,20.0848748 L17.38916,19.6588791 L15.8992457,19.6529249 L14.4104102,19.6469707 L14.4104102,20.0789206 L14.4104102,20.5103292 L14.9142407,20.5168246 L15.4180713,20.5222375 L15.424005,23.261709 C15.4267022,24.7681207 15.4342543,26.0141715 15.440188,26.0298689 C15.4482795,26.0520619 15.5529296,26.0574748 15.8987062,26.0526031 L16.3469752,26.046649 L16.3583033,23.2844432 Z M24.9520128,23.0901199 C24.9309749,23.0349083 24.9601043,22.3967267 24.9881548,22.3041661 C25.0534262,22.0865672 25.1920606,21.9804743 25.410531,21.9804743 C25.59232,21.9804743 25.7077586,22.0508421 25.785437,22.2088989 C25.8345254,22.3090377 25.8393803,22.3517996 25.8469324,22.7220424 L25.8544845,23.1253038 L25.4094521,23.1253038 C25.026994,23.1253038 24.9633409,23.1204322 24.9520128,23.0901199 L24.9520128,23.0901199 Z M25.7827399,26.0661354 C26.2186018,25.9432625 26.520145,25.6444701 26.6339654,25.2228047 C26.6528455,25.1508131 26.6749623,24.945664 26.6825144,24.7675794 L26.6954607,24.4438876 L26.2757818,24.4438876 L25.8555633,24.4438876 L25.8453141,24.7340194 C25.8334466,25.0636653 25.7994623,25.176795 25.6797081,25.2823467 C25.5524019,25.3943938 25.3182879,25.4025132 25.1661678,25.299668 C24.9849182,25.176795 24.9401453,24.9694807 24.9493156,24.2961153 L24.9557888,23.818697 L25.8248156,23.8132841 L26.6938424,23.8067886 L26.6825144,23.0966154 C26.6684891,22.3041661 26.6523061,22.1839995 26.5196055,21.9025285 C26.2666114,21.3693573 25.5658877,21.1003359 24.9838394,21.313063 C24.5447408,21.4738263 24.2852734,21.7634168 24.1811628,22.2116054 C24.1444814,22.3696622 24.1401659,22.5114803 24.1401659,23.6709247 C24.1401659,25.092895 24.1450208,25.1508131 24.2895889,25.4420274 C24.5479774,25.9600425 25.1947577,26.2306877 25.7827399,26.0661354 L25.7827399,26.0661354 Z M22.3416958,25.2563647 C22.3950997,25.2200983 22.4301628,25.1697583 22.4576739,25.0912711 C22.4927371,24.9878846 22.4959737,24.856351 22.4911188,23.6368234 C22.4862639,22.3658732 22.4835667,22.2911751 22.4425698,22.2078163 C22.3373803,21.9950891 22.0725186,21.9745201 21.8297737,22.1607241 L21.7499376,22.2213486 L21.7499376,23.6709247 L21.7499376,25.1205008 L21.8292343,25.1811254 C22.0088655,25.3186132 22.2057586,25.3473016 22.3416958,25.2563647 L22.3416958,25.2563647 Z M22.8676431,26.0747961 C22.9998042,26.0363644 23.1594764,25.8788489 23.231221,25.7180856 C23.3693159,25.4100913 23.3698554,25.4025132 23.3698554,23.6709247 C23.3698554,22.2494957 23.3655399,22.0741176 23.3304767,21.920391 C23.2166564,21.4283579 22.9685171,21.2134656 22.5509958,21.2448604 C22.3174213,21.2632643 22.1334746,21.3563663 21.9128464,21.5701761 C21.8168273,21.6627367 21.7310575,21.7390587 21.7213477,21.7390587 C21.7127167,21.7390587 21.7046252,21.2681359 21.7046252,20.6932854 L21.7046252,19.647512 L21.2968138,19.647512 L20.8890023,19.647512 L20.8890023,22.8524934 L20.8890023,26.0580161 L21.2968138,26.0580161 L21.7046252,26.0580161 L21.7046252,25.8420411 C21.7046252,25.6985991 21.7132562,25.6260662 21.7299786,25.6260662 C21.7434644,25.6260662 21.8351681,25.7018469 21.9338843,25.7949488 C22.251071,26.0942825 22.5256425,26.1765587 22.8676431,26.0747961 L22.8676431,26.0747961 Z M18.5268245,26.0536857 C18.6897333,25.9930612 18.8812321,25.8599037 19.0425226,25.6953514 C19.116425,25.6195707 19.1903273,25.5578636 19.2065103,25.5578636 C19.2280876,25.5578636 19.2356397,25.6195707 19.2356397,25.8079398 L19.2356397,26.0580161 L19.6434512,26.0580161 L20.0512626,26.0580161 L20.0512626,23.6822918 L20.0512626,21.3071088 L19.6434512,21.3071088 L19.2356397,21.3071088 L19.2356397,23.1393774 L19.2356397,24.9721872 L19.0597845,25.1470241 C18.9206107,25.2861357 18.862352,25.3283564 18.7760426,25.3521732 C18.6303957,25.39277 18.5376132,25.3646229 18.4777361,25.2612364 C18.4324237,25.1843731 18.4313449,25.1486479 18.4248717,23.244929 L18.4189379,21.3071088 L18.0111264,21.3071088 L17.6043938,21.3071088 L17.6043938,23.3645543 C17.6043938,25.6060384 17.6065516,25.6547546 17.7317001,25.8707295 C17.8687161,26.1067322 18.1891394,26.180889 18.5268245,26.0536857 L18.5268245,26.0536857 Z M22.4409515,18.0534113 L22.9503851,18.0659171 C24.3966567,18.1046165 25.8279955,18.1693615 26.2401792,18.2163398 C26.8362528,18.2845424 27.2548529,18.5941606 27.5445285,19.1814608 C27.7635384,19.6247778 27.8331253,19.9701212 27.9221317,21.0342984 C27.9917186,21.8765465 28.0089805,22.4015984 27.9960341,23.3742975 C27.9814694,24.5380722 27.907567,25.5632765 27.7969832,26.1386683 C27.6804657,26.7470789 27.4053548,27.2656353 27.0487895,27.5465651 C26.774218,27.7636226 26.4813058,27.8605136 26.0200904,27.8864956 C25.8830744,27.8946149 25.7099164,27.9054407 25.6349352,27.9113949 C25.3695341,27.931964 23.9465094,27.9893408 23.1659496,28.0115337 C22.0061684,28.0440111 19.9768208,28.0553782 18.8731406,28.0358917 C18.3434173,28.0266898 17.7165959,28.012075 17.4797848,28.0034143 C15.8900753,27.9460375 14.798802,27.8848717 14.580871,27.8404859 C14.2701575,27.7776962 13.9227626,27.5665928 13.7210146,27.3181405 C13.3984336,26.9202919 13.225815,26.4374607 13.1422028,25.6942688 C12.9485463,23.9664693 12.9528618,21.9512446 13.1540703,20.2840697 C13.2425374,19.5533274 13.4620867,19.0255692 13.8305195,18.6574916 C14.0408984,18.4469296 14.2431859,18.3300108 14.512363,18.2607256 C15.0960297,18.1107881 19.6628708,17.9917042 22.4409515,18.0534113 Z M19.1293105,11.0007545 L19.5905258,11.0034609 L19.5802766,11.0776178 C19.5721851,11.137701 19.2571561,12.1986305 18.9275625,13.27634 C18.8978937,13.3755766 18.8288912,13.6052492 18.7626982,13.8275291 L18.7236567,13.9589074 C18.6475967,14.2149378 18.555893,14.5191431 18.5192116,14.6349793 L18.4528613,14.8460826 L18.4522107,16.7992108 C18.4502194,17.4288167 18.4424417,17.4820536 18.4134827,17.4897457 C18.33041,17.5124799 17.4565283,17.5016541 17.4419636,17.4778373 C17.422544,17.4459011 17.4257806,15.5757423 17.4452002,15.3110512 C17.4705535,14.971662 17.4133736,14.7042645 17.1706287,14.0211558 C17.0918715,13.799768 16.9494611,13.3699833 16.8545209,13.0668605 C16.2136024,11.0212874 16.2023582,10.9966671 16.2572141,11.0020358 L16.2697753,11.0029197 C16.7223598,10.9991306 17.2806731,11.0018371 17.2871463,11.0083326 C17.2911298,11.0123298 17.416457,11.4683206 17.5736052,12.0497628 L17.6135033,12.1975479 C17.7893585,12.8470966 17.9355449,13.3878458 17.9393209,13.3997542 C17.9425575,13.41058 18.0455893,13.0322179 18.1680406,12.5585887 C18.4242713,11.5647793 18.5683,11.0164519 18.5736943,11.0115803 C18.5850224,11.0007545 18.7123286,10.9985893 19.1293105,11.0007545 Z M23.4026999,17.5568657 C23.1750591,17.5265534 23.0418191,17.4383231 22.9506549,17.2569907 C22.8362951,17.0296487 22.8362951,17.0307313 22.8362951,14.7654303 L22.8362951,12.6516907 L23.2958921,12.6516907 L23.7549497,12.6516907 L23.7646595,14.6003367 C23.7749088,16.7167828 23.7722116,16.6675253 23.898439,16.6994615 C24.0144171,16.7281499 24.1428022,16.6659014 24.3024744,16.5024317 L24.4556734,16.3459987 L24.4616072,14.4985741 L24.4670015,12.6516907 L24.9260591,12.6451952 L25.3851167,12.6397823 L25.3851167,15.0588098 L25.3851167,17.4783786 L25.3225425,17.4913695 C25.2475613,17.507067 24.5516925,17.5059844 24.4955915,17.4897457 C24.4616072,17.4805437 24.4562128,17.4491489 24.4562128,17.2596972 L24.4562128,17.0399332 L24.32567,17.1676778 C24.0257452,17.460516 23.7020853,17.5969212 23.4026999,17.5568657 L23.4026999,17.5568657 Z M21.0896105,16.6328827 C21.247125,16.5127162 21.2482039,16.5024317 21.2562954,15.1421685 C21.263308,14.0850281 21.259532,13.9053196 21.2277054,13.7613363 C21.1845508,13.5664717 21.1090301,13.4744523 20.9612255,13.4338555 C20.7702661,13.3829742 20.5954898,13.4923149 20.5339944,13.7017944 C20.4876031,13.863099 20.4881426,16.2610161 20.5350733,16.4223207 C20.5706759,16.5435698 20.6844962,16.676186 20.7686478,16.6945898 C20.8781528,16.7178653 21.0124716,16.6918834 21.09015,16.6328827 L21.0896105,16.6328827 Z M20.7298086,17.5557831 C20.3187606,17.5059844 19.9411574,17.2634862 19.7593684,16.9322164 C19.5743428,16.5949924 19.557081,16.4185317 19.5678696,14.9332304 C19.5765006,13.7829879 19.5797372,13.7109963 19.6250495,13.5459027 C19.7334756,13.153467 19.9433151,12.8860695 20.2685933,12.7242236 C20.7152439,12.5028358 21.1969577,12.5315242 21.618255,12.8054172 C21.8868927,12.9791715 22.0498016,13.2314129 22.1371897,13.6065272 C22.1754895,13.7721621 22.1792655,13.8993654 22.1792655,15.060975 C22.1792655,16.4737433 22.1727923,16.5554782 22.0282242,16.8613073 C21.8895899,17.1563107 21.5756398,17.4161302 21.2482039,17.5076083 C21.1036358,17.5471225 20.8527994,17.5709393 20.7298086,17.5557831 L20.7298086,17.5557831 Z" id="Shape"></path>
                            </g>
                        </g>
                    </g>
                </g>
            </g>
        </g>
    </g>
</svg>