<?xml version="1.0" encoding="UTF-8"?>
<svg width="72px" height="72px" viewBox="0 0 72 72" version="1.1" xmlns="http://www.w3.org/2000/svg" xmlns:xlink="http://www.w3.org/1999/xlink">
    <!-- Generator: Sketch 64 (93537) - https://sketch.com -->
    <title>career_planning</title>
    <desc>Created with Sketch.</desc>
    <g id="UI" stroke="none" stroke-width="1" fill="none" fill-rule="evenodd">
        <g id="bp-ui-Computer-Science-overview" transform="translate(-732.000000, -4358.000000)" fill="#FFC654" fill-rule="nonzero">
            <g id="Benefits" transform="translate(162.000000, 3870.000000)">
                <g id="1" transform="translate(570.000000, 488.000000)">
                    <g id="cover">
                        <g id="career_planning">
                            <path d="M48.5955056,44.591716 C47.8199438,44.591716 47.1910112,45.227503 47.1910112,46.0118343 L47.1910112,55.8106509 C47.1910112,59.7259172 44.0407303,62.9112426 40.1685393,62.9112426 L25.0044944,62.9112426 C24.229073,62.9112426 23.6005618,63.5464615 23.6,64.3303669 L23.5980337,67.1538462 L20.2457865,63.7644497 C20.0287921,63.2607337 19.5321629,62.9112426 18.9577247,62.9112426 L9.83146067,62.9112426 C5.95926966,62.9112426 2.80898876,59.7259172 2.80898876,55.8106509 L2.80898876,33.9408284 C2.80898876,30.0255621 5.95926966,26.8402367 9.83146067,26.8402367 L24.0168539,26.8402367 C24.7924157,26.8402367 25.4213483,26.2044497 25.4213483,25.4201183 C25.4213483,24.635787 24.7924157,24 24.0168539,24 L9.83146067,24 C4.41039326,24 0,28.4594556 0,33.9408284 L0,55.8106509 C0,61.2920237 4.41039326,65.7514793 9.83146067,65.7514793 L18.2384831,65.7514793 L24.006882,71.5840473 C24.2755618,71.855716 24.634691,72 25.0002809,72 C25.1810393,72 25.3634831,71.9646391 25.5369382,71.892071 C26.0617978,71.6725207 26.404073,71.1550296 26.4044944,70.5808757 L26.4078652,65.7514793 L40.1685393,65.7514793 C45.5896067,65.7514793 50,61.2920237 50,55.8106509 L50,46.0118343 C50,45.227503 49.3710674,44.591716 48.5955056,44.591716 Z" id="Path"></path>
                            <path d="M51.3021361,0 L47.6980063,0 C36.2850949,0 27,9.19309129 27,20.4929151 C27,31.7927388 36.2850949,40.9856891 47.6978639,40.9856891 L51.3019937,40.9856891 C53.0833386,40.9856891 54.8464557,40.7616496 56.5553165,40.3189284 L61.8794146,45.5873105 C62.1518354,45.8567501 62.5158228,46 62.8863608,46 C63.0699209,46 63.2550475,45.9648925 63.4312025,45.8925626 C63.9632278,45.6743038 64.3101266,45.1602397 64.3101266,44.5900599 L64.3101266,36.4327106 C66.5642563,34.6253084 68.4367405,32.3421925 69.7508544,29.7916109 C71.2434019,26.894748 72,23.7662319 72,20.4929151 C72,9.19309129 62.7149051,0 51.3021361,0 Z M62.0292247,34.6189637 C61.6722152,34.8853014 61.4620253,35.3023616 61.4620253,35.7452238 L61.4620253,41.1875925 L57.977231,37.7391611 C57.7060918,37.4709905 57.3423892,37.3264716 56.9704272,37.3264716 C56.8308703,37.3264716 56.6898892,37.3469158 56.5523259,37.388791 C54.8572785,37.9045471 53.0908861,38.1659499 51.3021361,38.1659499 L47.6980063,38.1659499 C37.8553956,38.1659499 29.8481013,30.2378569 29.8481013,20.4929151 C29.8481013,10.7479732 37.855538,2.81988016 47.6980063,2.81988016 L51.3021361,2.81988016 C61.1446044,2.81988016 69.1518987,10.7479732 69.1518987,20.4929151 C69.1518987,26.094748 66.5558544,31.2435671 62.0292247,34.6189637 Z" id="Shape"></path>
                            <path d="M55.9852307,15.3956039 C55.7807317,12.5256049 53.3890991,10.2120581 50.4220917,10.0142358 C48.7401828,9.9025067 47.135085,10.4512818 45.9065319,11.5607588 C44.6948432,12.6548817 44,14.2015417 44,15.804272 C44,16.5614253 44.6346131,17.1751815 45.4171797,17.1751815 C46.1997464,17.1751815 46.8343595,16.5614253 46.8343595,15.804272 C46.8343595,14.9462198 47.1917722,14.1509552 47.8405571,13.5651656 C48.4887751,12.9799243 49.3359651,12.6902511 50.2273712,12.7497486 C51.790237,12.8539377 53.049968,14.0725392 53.1576737,15.584241 C53.2665131,17.1110229 52.2309799,18.460272 50.6956073,18.7925805 C49.451607,19.0618271 48.5828758,20.1075569 48.5828758,21.3354805 L48.5828758,24.6290905 C48.5828758,25.3862438 49.2174889,26 50.0000555,26 C50.7827639,26 51.4172353,25.3862438 51.4170935,24.6290905 L51.4170935,21.4450162 C54.2727107,20.7776574 56.188596,18.2499745 55.9852307,15.3956039 Z" id="Path"></path>
                            <path d="M51.5605,29.4395 C51.2815,29.1605 50.8945,29 50.5,29 C50.1055,29 49.7185,29.1605 49.4395,29.4395 C49.1605,29.7185 49,30.1055 49,30.5 C49,30.896 49.16065,31.283 49.4395,31.562 C49.7185,31.841 50.1055,32 50.5,32 C50.8945,32 51.2815,31.841 51.5605,31.562 C51.8395,31.2815 52,30.896 52,30.5 C52,30.1055 51.83935,29.7185 51.5605,29.4395 Z" id="Path"></path>
                            <path d="M38.6147186,43 L9.38528139,43 C8.620329,43 8,43.67155 8,44.5 C8,45.32845 8.620329,46 9.38528139,46 L38.6147186,46 C39.3798095,46 40,45.32845 40,44.5 C40,43.67155 39.379671,43 38.6147186,43 Z" id="Path"></path>
                            <path d="M39.56035,51.4395 C39.2815,51.1605 38.8945,51 38.5,51 C38.1055,51 37.7185,51.1605 37.4395,51.4395 C37.16035,51.7185 37,52.1055 37,52.5 C37,52.8945 37.1605,53.2815 37.4395,53.5605 C37.7185,53.8395 38.1055,54 38.5,54 C38.8945,54 39.2815,53.8395 39.56035,53.5605 C39.8395,53.2815 40,52.896 40,52.5 C40,52.1055 39.83935,51.7185 39.56035,51.4395 Z" id="Path"></path>
                            <path d="M33.5913068,51 L9.4086932,51 C8.63081282,51 8,51.67155 8,52.5 C8,53.32845 8.63081282,54 9.4086932,54 L33.5913068,54 C34.3693281,54 35,53.32845 35,52.5 C35,51.67155 34.3691872,51 33.5913068,51 Z" id="Path"></path>
                            <path d="M29.6144578,36 L9.38554217,36 C8.62044578,36 8,36.67155 8,37.5 C8,38.32845 8.62044578,39 9.38554217,39 L29.6144578,39 C30.3796928,39 31,38.32845 31,37.5 C31,36.67155 30.3795542,36 29.6144578,36 Z" id="Path"></path>
                        </g>
                    </g>
                </g>
            </g>
        </g>
    </g>
</svg>