<?xml version="1.0" encoding="UTF-8"?>
<svg width="72px" height="72px" viewBox="0 0 72 72" version="1.1" xmlns="http://www.w3.org/2000/svg" xmlns:xlink="http://www.w3.org/1999/xlink">
    <!-- Generator: Sketch 64 (93537) - https://sketch.com -->
    <title>certification</title>
    <desc>Created with Sketch.</desc>
    <g id="UI" stroke="none" stroke-width="1" fill="none" fill-rule="evenodd">
        <g id="bp-ui-Computer-Science-overview" transform="translate(-162.000000, -4358.000000)" fill="#5AC8F7" fill-rule="nonzero">
            <g id="Benefits" transform="translate(162.000000, 3870.000000)">
                <g id="2" transform="translate(0.000000, 488.000000)">
                    <g id="cover">
                        <g id="certification">
                            <path d="M63.0005625,13.078125 C63.7772344,13.078125 64.4068125,12.4485469 64.4068125,11.671875 L64.4068125,4.21875 C64.4068125,1.89253125 62.5142812,0 60.1880625,0 L4.2193125,0 C1.89309375,0 0.0005625,1.89253125 0.0005625,4.21875 L0.0005625,67.78125 C0.0005625,70.1074688 1.89309375,72 4.2193125,72 L60.1880625,72 C62.5142812,72 64.4068125,70.1074687 64.4068125,67.78125 L64.4068125,63.84375 C64.4068125,63.0670781 63.7772344,62.4375 63.0005625,62.4375 C62.2238906,62.4375 61.5943125,63.0670781 61.5943125,63.84375 L61.5943125,67.78125 C61.5943125,68.5566563 60.9634687,69.1875 60.1880625,69.1875 L4.2193125,69.1875 C3.44390625,69.1875 2.8130625,68.5566563 2.8130625,67.78125 L2.8130625,4.21875 C2.8130625,3.44334375 3.44390625,2.8125 4.2193125,2.8125 L60.1880625,2.8125 C60.9634687,2.8125 61.5943125,3.44334375 61.5943125,4.21875 L61.5943125,11.671875 C61.5943125,12.4485469 62.2238906,13.078125 63.0005625,13.078125 Z" id="Path"></path>
                            <path d="M56.2514062,6.75 L8.15596875,6.75 C7.37929687,6.75 6.74971875,7.37957813 6.74971875,8.15625 L6.74971875,37.546875 C6.74971875,38.3235469 7.37929687,38.953125 8.15596875,38.953125 C8.93264062,38.953125 9.56221875,38.3235469 9.56221875,37.546875 L9.56221875,9.5625 L54.8451562,9.5625 L54.8451562,11.8125 C54.8451562,12.5891719 55.474875,13.21875 56.2514062,13.21875 C57.0280781,13.21875 57.6576562,12.5891719 57.6576562,11.8125 L57.6576562,8.15625 C57.6576562,7.37957812 57.0280781,6.75 56.2514062,6.75 Z" id="Path"></path>
                            <path d="M9.149625,41.7557812 C8.8880625,41.4942188 8.52665625,41.34375 8.15540625,41.34375 C7.7855625,41.34375 7.42275,41.4942188 7.1611875,41.7557812 C6.899625,42.0173438 6.74915625,42.3801562 6.74915625,42.75 C6.74915625,43.1198438 6.899625,43.4826562 7.1611875,43.7442188 C7.42275,44.0057812 7.7855625,44.15625 8.15540625,44.15625 C8.52665625,44.15625 8.8880625,44.0057812 9.149625,43.7442188 C9.41259375,43.4826562 9.56165625,43.1198438 9.56165625,42.75 C9.56165625,42.3801562 9.41259375,42.0173438 9.149625,41.7557812 Z" id="Path"></path>
                            <path d="M56.2514062,59.34375 C55.4747344,59.34375 54.8451562,59.9733281 54.8451562,60.75 L54.8451562,62.4375 L9.56221875,62.4375 L9.56221875,48.1640625 C9.56221875,47.3873906 8.93264062,46.7578125 8.15596875,46.7578125 C7.37929688,46.7578125 6.74971875,47.3873906 6.74971875,48.1640625 L6.74971875,63.84375 C6.74971875,64.6204219 7.37929688,65.25 8.15596875,65.25 L56.2514062,65.25 C57.0280781,65.25 57.6576562,64.6204219 57.6576562,63.84375 L57.6576562,60.75 C57.6576562,59.9733281 57.0280781,59.34375 56.2514062,59.34375 Z" id="Path"></path>
                            <path d="M43.5808125,49.687875 C43.0316719,49.1385938 42.141375,49.1385938 41.5920938,49.6877344 L38.8127812,52.4671875 L37.0852031,50.7394688 C35.994375,49.6487812 34.2198281,49.6487812 33.129,50.7394688 L32.0048437,51.863625 C31.4557031,52.4127656 31.4557031,53.3032031 32.0048437,53.8524844 C32.5539844,54.401625 33.4444219,54.401625 33.9937031,53.8524844 L35.1071719,52.7390156 L36.83475,54.4667344 C37.3800937,55.0120781 38.0964375,55.28475 38.8127812,55.28475 C39.529125,55.28475 40.2454687,55.0120781 40.7908125,54.4667344 L43.5808125,51.6767344 C44.1299531,51.1275937 44.1299531,50.2371562 43.5808125,49.687875 Z" id="Path"></path>
                            <path d="M71.353125,29.5005937 C71.9728594,28.5337969 72.1579219,27.3429844 71.8606406,26.2337344 C71.5633594,25.1244844 70.8079219,24.1858125 69.7876875,23.6584687 C69.3452812,23.4298125 69.0744375,22.9606875 69.0976406,22.4632969 C69.1509375,21.3160781 68.7158437,20.1924844 67.903875,19.380375 C67.0919062,18.5684062 65.9685937,18.1326094 64.8209531,18.1866094 C64.3211719,18.2107969 63.8544375,17.9388281 63.6257812,17.4965625 C63.0984375,16.4764687 62.1597656,15.7208906 61.0505156,15.4236094 C59.9408437,15.1261875 58.7504531,15.3113906 57.7837969,15.931125 C57.3645937,16.2 56.8229062,16.1998594 56.4038437,15.931125 C55.4370469,15.31125 54.2465156,15.1263281 53.137125,15.4236094 C52.027875,15.7208906 51.0892031,16.4764687 50.5618594,17.4965625 C50.3332031,17.9389687 49.8628125,18.2091094 49.3666875,18.1866094 C48.2190469,18.1330312 47.095875,18.5684062 46.2839062,19.380375 C45.4717969,20.1924844 45.0367031,21.3160781 45.09,22.4631562 C45.1132031,22.9606875 44.8422187,23.4298125 44.3999531,23.6584687 C43.3798594,24.1858125 42.6242812,25.1243437 42.327,26.2337344 C42.1851094,26.7629062 42.1543125,27.3106406 42.2270156,27.84375 L17.6879531,27.84375 C16.9112812,27.84375 16.2812812,28.4733281 16.2812812,29.25 C16.2812812,30.0266719 16.9112812,30.65625 17.6879531,30.65625 L42.9454687,30.65625 C42.9152344,30.7334531 42.8802187,30.80925 42.834375,30.8806875 C42.2146406,31.8474844 42.0295781,33.0382969 42.3268594,34.1475469 C42.3676406,34.2998437 42.4178437,34.448625 42.4755,34.59375 L17.6875312,34.59375 C16.9108594,34.59375 16.2812812,35.2233281 16.2812812,36 C16.2812812,36.7766719 16.9108594,37.40625 17.6875312,37.40625 L45.0060469,37.40625 C45.0672187,37.5669844 45.097875,37.740375 45.0895781,37.9179844 C45.0362812,39.0652031 45.471375,40.1887969 46.2834844,41.0009062 C47.0954531,41.812875 48.218625,42.2488125 49.3662656,42.1946719 C49.8630937,42.1703437 50.3327812,42.4423125 50.5614375,42.8847187 C50.7303281,43.2115312 50.9419687,43.5106406 51.1873594,43.7768437 L51.1873594,56.9102344 C51.1873594,57.4783594 51.5292187,57.9906562 52.05375,58.2087656 C52.5781406,58.426875 53.1825469,58.3079062 53.5854375,57.907125 L57.0936094,54.4172344 L60.6017812,57.907125 C60.8706562,58.1745937 61.2291094,58.316563 61.5938906,58.316563 C61.7755781,58.316563 61.9589531,58.2811875 62.1334687,58.208625 C62.658,57.9905156 62.9998594,57.4782187 62.9998594,56.9100937 L62.9998594,43.7767031 C63.24525,43.5106406 63.4568906,43.2113906 63.6257812,42.8845781 C63.8544375,42.4421719 64.324125,42.1718906 64.8209531,42.1945312 C65.9692969,42.2488125 67.0917656,41.812875 67.9037344,41.0007656 C68.7158437,40.1886562 69.1509375,39.0650625 69.0976406,37.9178437 C69.0744375,37.4204531 69.3454219,36.9513281 69.7876875,36.7226719 C70.8077812,36.1953281 71.5633594,35.2567969 71.8606406,34.1474062 C72.1579219,33.0380156 71.9728594,31.8473437 71.353125,30.8804062 C71.08425,30.4614844 71.08425,29.9197969 71.353125,29.5005937 Z M60.1873594,53.5277812 L58.0852969,51.4366875 C57.5367187,50.8909219 56.6503594,50.8909219 56.1017812,51.4366875 L53.9998594,53.5277812 L53.9998594,45.0914062 C54.8412187,45.1310625 55.6844062,44.911125 56.4037031,44.4501562 C56.8229062,44.1812812 57.3645937,44.1814219 57.7836562,44.4501562 C58.4478281,44.8759687 59.2176094,45.0966094 59.9942812,45.0966094 C60.0586875,45.0966094 60.1229531,45.093375 60.1873594,45.0902812 L60.1873594,53.5277812 Z M69.1439062,33.4196719 C69.0496875,33.771375 68.8194844,34.0572656 68.4960469,34.2244687 C67.0807969,34.9561406 66.2139844,36.4571719 66.2880937,38.0487656 C66.3051094,38.4125625 66.1725,38.7547031 65.9150156,39.0123281 C65.6575312,39.2698125 65.3153906,39.402 64.9515937,39.3854062 C63.3591562,39.3117187 61.8589687,40.1779687 61.1272969,41.5933594 C60.9600937,41.9169375 60.6742031,42.147 60.3223594,42.2412187 C59.9707969,42.3352969 59.6079844,42.2791875 59.3015625,42.0825937 C58.6307812,41.6525625 57.8622656,41.4376875 57.0934687,41.4376875 C56.3249531,41.4376875 55.5561562,41.6527031 54.8855156,42.0825937 C54.5789531,42.2790469 54.2162812,42.3352969 53.8645781,42.2412187 C53.5127344,42.147 53.2269844,41.9167969 53.0596406,41.5933594 C52.3279687,40.1781094 50.8280625,39.3110156 49.2353437,39.3854062 C48.8723906,39.4021406 48.5294062,39.2698125 48.2719219,39.0123281 C48.0142969,38.7547031 47.8818281,38.4125625 47.8988437,38.048625 C47.9510156,36.9253125 47.5329375,35.8484062 46.7857969,35.0540156 C46.7638594,35.0299687 46.7415,35.0063437 46.717875,34.9838437 C46.4211562,34.6830469 46.0773281,34.4242969 45.6908906,34.2244687 C45.3674531,34.0572656 45.1373906,33.7715156 45.0431719,33.4196719 C44.9489531,33.0678281 45.0052031,32.7051562 45.2017969,32.3987344 C46.0617187,31.0574531 46.0617187,29.3241094 45.2017969,27.9828281 C45.0053437,27.6762656 44.9489531,27.3135937 45.0431719,26.96175 C45.1373906,26.6100469 45.3675937,26.3241562 45.6910312,26.1569531 C47.1062812,25.4252812 47.9729531,23.92425 47.8989844,22.3326562 C47.8819687,21.9688594 48.0145781,21.6267187 48.2720625,21.3690937 C48.5295469,21.1114687 48.8723906,20.9792812 49.2354844,20.9960156 C50.8280625,21.0698437 52.32825,20.2034531 53.0597812,18.7880625 C53.2269844,18.4644844 53.512875,18.2344219 53.8647187,18.1402031 C54.2164219,18.046125 54.5790937,18.1022344 54.8855156,18.2988281 C56.2269375,19.1588906 57.9604219,19.1588906 59.3014219,18.2988281 C59.6079844,18.102375 59.9705156,18.0458437 60.3223594,18.1402031 C60.6742031,18.2344219 60.9599531,18.464625 61.1272969,18.7880625 C61.8589687,20.2033125 63.3598594,21.0702656 64.9515937,20.9960156 C65.3155312,20.9794219 65.6575312,21.1114687 65.9150156,21.3690937 C66.1726406,21.6267187 66.3051094,21.9688594 66.2880937,22.3326562 C66.214125,23.9241094 67.0806562,25.4252812 68.4961875,26.1569531 C68.819625,26.3241562 69.0496875,26.6099062 69.1439062,26.96175 C69.238125,27.3135937 69.181875,27.6762656 68.9852812,27.9826875 C68.1253594,29.3239687 68.1253594,31.0573125 68.9852812,32.3985937 C69.181875,32.7051562 69.2382656,33.0678281 69.1439062,33.4196719 Z" id="Shape"></path>
                            <path d="M62.7813125,26.3652188 C62.2321719,25.8160781 61.3417344,25.8160781 60.7925938,26.3652188 L56.1251094,31.0328438 L54.2670313,29.1747656 C53.7178906,28.625625 52.8274531,28.625625 52.2781719,29.1747656 C51.7290313,29.7239063 51.7290313,30.6143438 52.2781719,31.163625 L55.1306094,34.0160625 C55.40525,34.2907031 55.7651094,34.4279531 56.1249688,34.4279531 C56.4848281,34.4279531 56.8448281,34.2907031 57.1193281,34.0160625 L62.7813125,28.3540781 C63.3304531,27.8049375 63.3304531,26.9145 62.7813125,26.3652188 Z" id="Path"></path>
                            <path d="M17.1666562,17.0057813 C16.9050937,16.7442188 16.5422812,16.59375 16.1724375,16.59375 C15.8025937,16.59375 15.4397812,16.7442187 15.1782187,17.0057813 C14.9166562,17.2673438 14.7661875,17.6301562 14.7661875,18 C14.7661875,18.3698437 14.9166562,18.7326563 15.1782187,18.9942187 C15.4397812,19.2557813 15.8025937,19.40625 16.1724375,19.40625 C16.5422812,19.40625 16.9050937,19.2557813 17.1666562,18.9942187 C17.4282187,18.7326562 17.5786875,18.3698437 17.5786875,18 C17.5786875,17.6301562 17.4282187,17.2673438 17.1666562,17.0057813 Z" id="Path"></path>
                            <path d="M28.2652031,16.59375 L21.4214062,16.59375 C20.6447344,16.59375 20.0151563,17.2233281 20.0151563,18 C20.0151563,18.7766719 20.6447344,19.40625 21.4214062,19.40625 L28.2652031,19.40625 C29.041875,19.40625 29.6714531,18.7766719 29.6714531,18 C29.6714531,17.2233281 29.041875,16.59375 28.2652031,16.59375 Z" id="Path"></path>
                            <path d="M42.5865938,41.34375 L26.5100625,41.34375 C25.7333906,41.34375 25.1038125,41.9733281 25.1038125,42.75 C25.1038125,43.5266719 25.7333906,44.15625 26.5100625,44.15625 L42.5864531,44.15625 C43.363125,44.15625 43.9927031,43.5266719 43.9927031,42.75 C43.9927031,41.9733281 43.3632656,41.34375 42.5865938,41.34375 Z" id="Path"></path>
                        </g>
                    </g>
                </g>
            </g>
        </g>
    </g>
</svg>