<?xml version="1.0" encoding="UTF-8"?>
<svg width="79px" height="72px" viewBox="0 0 79 72" version="1.1" xmlns="http://www.w3.org/2000/svg" xmlns:xlink="http://www.w3.org/1999/xlink">
    <!-- Generator: Sketch 64 (93537) - https://sketch.com -->
    <title>computer_science</title>
    <desc>Created with Sketch.</desc>
    <g id="UI" stroke="none" stroke-width="1" fill="none" fill-rule="evenodd">
        <g id="bp-ui-Computer-Science-overview" transform="translate(-162.000000, -4014.000000)" fill="#DE3C7D" fill-rule="nonzero">
            <g id="Benefits" transform="translate(162.000000, 3870.000000)">
                <g id="1" transform="translate(0.000000, 144.000000)">
                    <g id="cover">
                        <g id="computer_science">
                            <path d="M76.5762712,60.7118644 L75.5084746,60.7118644 L75.5084746,21.9679322 C75.5084746,17.9161017 72.3322373,14.5934237 68.3389831,14.3557627 L68.3389831,6.40677966 C68.3389831,2.87405085 65.4649322,0 61.9322034,0 L16.1694915,0 C12.6367627,0 9.76271186,2.87405085 9.76271186,6.40677966 L9.76271186,14.3557627 C5.76945763,14.5934237 2.59322034,17.9161017 2.59322034,21.9679322 L2.59322034,29.2881356 C2.59322034,30.1306271 3.27630508,30.8135593 4.11864407,30.8135593 C4.96098305,30.8135593 5.6440678,30.1306271 5.6440678,29.2881356 L5.6440678,21.9680847 C5.6440678,19.5992542 7.45337288,17.6450339 9.76271186,17.4146949 L9.76271186,49.1186441 C9.76271186,52.6513729 12.6367627,55.5254237 16.1694915,55.5254237 L61.9322034,55.5254237 C65.4649322,55.5254237 68.3389831,52.6513729 68.3389831,49.1186441 L68.3389831,17.4146949 C70.648322,17.6450339 72.4576271,19.5991017 72.4576271,21.9680847 L72.4576271,60.7118644 L5.6440678,60.7118644 L5.6440678,41.7584746 C5.6440678,40.9159831 4.96098305,40.2330508 4.11864407,40.2330508 C3.27630508,40.2330508 2.59322034,40.9159831 2.59322034,41.7584746 L2.59322034,60.7118644 L1.52542373,60.7118644 C0.683084746,60.7118644 0,61.3947966 0,62.2372881 L0,64.3728814 C0,68.5784746 3.42152542,72 7.62711864,72 L70.4745763,72 C74.6801695,72 78.1016949,68.5784746 78.1016949,64.3728814 L78.1016949,62.2372881 C78.1016949,61.3947966 77.4186102,60.7118644 76.5762712,60.7118644 Z M65.2881356,49.1186441 C65.2881356,50.9691356 63.7826949,52.4745763 61.9322034,52.4745763 L16.1694915,52.4745763 C14.319,52.4745763 12.8135593,50.9691356 12.8135593,49.1186441 L12.8135593,14.0338983 L65.2881356,14.0338983 L65.2881356,49.1186441 Z M65.2881356,10.9830508 L12.8135593,10.9830508 L12.8135593,6.40677966 C12.8135593,4.55628814 14.319,3.05084746 16.1694915,3.05084746 L61.9322034,3.05084746 C63.7826949,3.05084746 65.2881356,4.55628814 65.2881356,6.40677966 L65.2881356,10.9830508 Z M75.0508475,64.3728814 C75.0508475,66.8962373 72.9979322,68.9491525 70.4745763,68.9491525 L7.62711864,68.9491525 C5.10376271,68.9491525 3.05084746,66.8962373 3.05084746,64.3728814 L3.05084746,63.7627119 L4.08172881,63.7627119 C4.09408475,63.7630169 4.10613559,63.7645424 4.11864407,63.7645424 L73.9830508,63.7645424 C73.9955593,63.7645424 74.0076102,63.7630169 74.0199661,63.7627119 L75.0508475,63.7627119 L75.0508475,64.3728814 Z" id="Shape"></path>
                            <path d="M41.7966102,64.8305085 L36.2924237,64.8305085 C35.4500847,64.8305085 34.767,65.5134407 34.767,66.3559322 C34.767,67.1984237 35.4500847,67.8813559 36.2924237,67.8813559 L41.7966102,67.8813559 C42.6389492,67.8813559 43.3220339,67.1984237 43.3220339,66.3559322 C43.3220339,65.5134407 42.6389492,64.8305085 41.7966102,64.8305085 Z" id="Path"></path>
                            <path d="M5.1969661,34.2350847 C4.91338983,33.9513559 4.51983051,33.7881356 4.11864407,33.7881356 C3.71745763,33.7881356 3.32389831,33.9513559 3.04016949,34.2350847 C2.75644068,34.5188136 2.59322034,34.9123729 2.59322034,35.3135593 C2.59322034,35.7147458 2.75628814,36.1083051 3.04016949,36.3920339 C3.32405085,36.6757627 3.71745763,36.8389831 4.11864407,36.8389831 C4.51983051,36.8389831 4.91338983,36.6757627 5.1969661,36.3920339 C5.48069492,36.1083051 5.6440678,35.7147458 5.6440678,35.3135593 C5.6440678,34.9123729 5.48084746,34.5188136 5.1969661,34.2350847 Z" id="Path"></path>
                            <path d="M60.719339,5.49152542 L35.2211186,5.49152542 C34.3787797,5.49152542 33.6956949,6.17445763 33.6956949,7.01694915 C33.6956949,7.85944068 34.3786271,8.54237288 35.2211186,8.54237288 L60.719339,8.54237288 C61.561678,8.54237288 62.2447627,7.85944068 62.2447627,7.01694915 C62.2447627,6.17445763 61.561678,5.49152542 60.719339,5.49152542 Z" id="Path"></path>
                            <path d="M22.9742542,5.93847458 C22.690678,5.65474576 22.2971186,5.49152542 21.8959322,5.49152542 C21.4962712,5.49152542 21.1027119,5.65474576 20.8174576,5.93847458 C20.5337288,6.22220339 20.3705085,6.61576271 20.3705085,7.01694915 C20.3705085,7.41813559 20.5335763,7.81169492 20.8174576,8.09542373 C21.101339,8.37915254 21.4947458,8.54237288 21.8959322,8.54237288 C22.2986441,8.54237288 22.690678,8.37915254 22.9742542,8.09542373 C23.2595085,7.81169492 23.4227288,7.41813559 23.4227288,7.01694915 C23.4227288,6.61576271 23.2595085,6.22220339 22.9742542,5.93847458 Z" id="Path"></path>
                            <path d="M18.4605254,5.93847458 C18.1769492,5.65474576 17.7833898,5.49152542 17.3822034,5.49152542 C16.9808644,5.49152542 16.5874576,5.65474576 16.3037288,5.93847458 C16.02,6.22220339 15.8567797,6.61576271 15.8567797,7.01694915 C15.8567797,7.41813559 16.0198475,7.81169492 16.3037288,8.09542373 C16.5876102,8.37915254 16.9808644,8.54237288 17.3822034,8.54237288 C17.7833898,8.54237288 18.1769492,8.37915254 18.4605254,8.09542373 C18.7442542,7.81169492 18.9076271,7.41813559 18.9076271,7.01694915 C18.9076271,6.61576271 18.7444068,6.22220339 18.4605254,5.93847458 Z" id="Path"></path>
                            <path d="M27.489661,5.93847458 C27.2059322,5.65474576 26.8123729,5.49152542 26.4111864,5.49152542 C26.01,5.49152542 25.6164407,5.65474576 25.3327119,5.93847458 C25.0491356,6.22220339 24.8857627,6.61576271 24.8857627,7.01694915 C24.8857627,7.41813559 25.0489831,7.81169492 25.3327119,8.09542373 C25.6164407,8.37915254 26.01,8.54237288 26.4111864,8.54237288 C26.8123729,8.54237288 27.2059322,8.37915254 27.489661,8.09542373 C27.7732373,7.81169492 27.9366102,7.41813559 27.9366102,7.01694915 C27.9366102,6.61576271 27.7733898,6.22220339 27.489661,5.93847458 Z" id="Path"></path>
                            <path d="M26.7864407,25.6127797 L30.8555085,21.5437119 C31.4511864,20.9480339 31.4511864,19.9821356 30.8555085,19.3863051 C30.259678,18.7906271 29.2940847,18.7906271 28.6981017,19.3863051 L23.5504068,24.534 C22.9547288,25.129678 22.9547288,26.0955763 23.5504068,26.6914068 L28.6981017,31.8391017 C28.9960169,32.1370169 29.3863729,32.2858983 29.7767288,32.2858983 C30.1670847,32.2858983 30.5574407,32.1370169 30.8553559,31.8391017 C31.4510339,31.2434237 31.4510339,30.2775254 30.8553559,29.6816949 L26.7864407,25.6127797 Z" id="Path"></path>
                            <path d="M54.5512881,24.534 L49.4035932,19.3863051 C48.8077627,18.7906271 47.8421695,18.7906271 47.2461864,19.3863051 C46.6505085,19.9819831 46.6505085,20.9478814 47.2461864,21.5437119 L51.3152542,25.6127797 L47.2461864,29.6818475 C46.6505085,30.2775254 46.6505085,31.2434237 47.246339,31.8391017 C47.5442542,32.1370169 47.9346102,32.2858983 48.3249661,32.2858983 C48.715322,32.2858983 49.105678,32.1370169 49.4035932,31.8391017 L54.5512881,26.6914068 C55.1469661,26.0957288 55.1469661,25.1298305 54.5512881,24.534 Z" id="Path"></path>
                            <path d="M43.4577966,18.1134915 C42.7313898,17.6868305 41.7966102,17.9293729 41.3697966,18.6557797 L34.1014576,31.0239153 C33.6746441,31.750322 33.9174915,32.6851017 34.6437458,33.1119153 C34.8865932,33.2545424 35.1524746,33.3224237 35.4151525,33.3224237 C35.9382203,33.3224237 36.4477119,33.0531864 36.7317458,32.5696271 L44.0000847,20.2014915 C44.4270508,19.4752373 44.1842034,18.5403051 43.4577966,18.1134915 Z" id="Path"></path>
                            <path d="M57.7324068,37.5272542 L32.371322,37.5272542 C31.5288305,37.5272542 30.8458983,38.2101864 30.8458983,39.052678 C30.8458983,39.8951695 31.5289831,40.5781017 32.371322,40.5781017 L57.7324068,40.5781017 C58.5747458,40.5781017 59.2578305,39.8951695 59.2578305,39.052678 C59.2578305,38.2101864 58.5747458,37.5272542 57.7324068,37.5272542 Z" id="Path"></path>
                            <path d="M26.4108814,37.5272542 L18.939661,37.5272542 C18.097322,37.5272542 17.4142373,38.2101864 17.4142373,39.052678 C17.4142373,39.8951695 18.097322,40.5781017 18.939661,40.5781017 L26.4108814,40.5781017 C27.2532203,40.5781017 27.9363051,39.8951695 27.9363051,39.052678 C27.9363051,38.2101864 27.2532203,37.5272542 26.4108814,37.5272542 Z" id="Path"></path>
                            <path d="M51.9001017,44.8489831 L18.939661,44.8489831 C18.097322,44.8489831 17.4142373,45.5319153 17.4142373,46.3744068 C17.4142373,47.2168983 18.097322,47.8998305 18.939661,47.8998305 L51.9001017,47.8998305 C52.7424407,47.8998305 53.4255254,47.2168983 53.4255254,46.3744068 C53.4255254,45.5319153 52.7425932,44.8489831 51.9001017,44.8489831 Z" id="Path"></path>
                            <path d="M58.8111864,45.2959322 C58.5274576,45.0122034 58.1338983,44.8489831 57.7327119,44.8489831 C57.33,44.8489831 56.9379661,45.0122034 56.6542373,45.2959322 C56.3691356,45.579661 56.2072881,45.9732203 56.2072881,46.3744068 C56.2072881,46.7755932 56.3691356,47.1691525 56.6542373,47.4528814 C56.9379661,47.7366102 57.3315254,47.8998305 57.7327119,47.8998305 C58.1338983,47.8998305 58.5274576,47.7366102 58.8111864,47.4528814 C59.0947627,47.1691525 59.2581356,46.7755932 59.2581356,46.3744068 C59.2581356,45.9732203 59.0949153,45.579661 58.8111864,45.2959322 Z" id="Path"></path>
                        </g>
                    </g>
                </g>
            </g>
        </g>
    </g>
</svg>