<?xml version="1.0" encoding="UTF-8"?>
<svg width="25px" height="25px" viewBox="0 0 25 25" version="1.1" xmlns="http://www.w3.org/2000/svg" xmlns:xlink="http://www.w3.org/1999/xlink">
    <!-- Generator: Sketch 64 (93537) - https://sketch.com -->
    <title>idea</title>
    <desc>Created with Sketch.</desc>
    <g id="UI" stroke="none" stroke-width="1" fill="none" fill-rule="evenodd">
        <g id="bp-ui-Insights-SAT" transform="translate(-180.000000, -978.000000)" fill="#FFFFFF" fill-rule="nonzero">
            <g id="Program" transform="translate(162.000000, 860.000000)">
                <g id="line">
                    <g id="2" transform="translate(0.000000, 100.000000)">
                        <g id="num">
                            <g id="idea" transform="translate(18.000000, 18.000000)">
                                <path d="M12.0960654,2.83470892 C11.7046213,2.83470892 11.38727,3.15206023 11.38727,3.54350428 C11.38727,3.93494834 11.7046213,4.25229965 12.0960654,4.25229965 C14.441422,4.25229965 16.3495464,6.16009325 16.3495464,8.50507182 C16.3495464,8.89651588 16.6668977,9.21386719 17.0583417,9.21386719 C17.4497858,9.21386719 17.7671371,8.89651588 17.7671371,8.50507182 C17.7671371,5.37843372 15.2231288,2.83470892 12.0960654,2.83470892 Z" id="Path"></path>
                                <path d="M10.269736,0.190429688 C7.06739856,0.859579763 4.47084488,3.43127835 3.78761341,6.65350932 C3.21070123,9.37443296 3.92162298,12.1061303 5.73807649,14.1481697 C6.62600806,15.1462954 7.13520665,16.4638514 7.13520665,17.7666646 L7.13520665,19.1842553 C7.13520665,20.1274257 7.75266192,20.9286952 8.60444493,21.2062122 C8.88456086,22.8612494 10.3210528,24.1930286 12.0967742,24.1930286 C13.8720231,24.1930286 15.308893,22.8616746 15.5891035,21.2062122 C16.4408865,20.9286952 17.0583417,20.1274257 17.0583417,19.184208 L17.0583417,17.7666173 C17.0583417,16.4612525 17.5692414,15.1595262 18.4968183,14.1012475 C19.8545867,12.5522933 20.6023185,10.5648311 20.6023185,8.50507182 C20.6023185,3.13878213 15.6904139,-0.94203629 10.269736,0.190429688 Z M12.0967742,22.7754851 C11.1856414,22.7754851 10.3867818,22.148532 10.0917811,21.3059161 L14.10172,21.3059161 C13.8067666,22.148532 13.007907,22.7754851 12.0967742,22.7754851 Z M15.640751,19.1842553 C15.640751,19.5750851 15.3227854,19.8930507 14.9319556,19.8930507 L9.26159274,19.8930507 C8.87076298,19.8930507 8.55279738,19.5750851 8.55279738,19.1842553 L8.55279738,18.4754599 L15.640751,18.4754599 L15.640751,19.1842553 Z M17.4307901,13.1669134 C16.4422568,14.2947014 15.8340631,15.6546434 15.6797348,17.0578692 L8.51395539,17.0578692 C8.35981603,15.6538873 7.7531817,14.2805727 6.79734753,13.2059917 C5.28345514,11.5041268 4.69189453,9.22298702 5.17439516,6.94756489 C5.73760396,4.29128339 7.90179246,2.13347404 10.5597278,1.57810925 C15.0971522,0.629882813 19.1847278,4.03739289 19.1847278,8.50507182 C19.1847278,10.2209236 18.5618385,11.8765278 17.4307901,13.1669134 Z" id="Shape"></path>
                                <path d="M2.12638609,8.50507182 L0.708795363,8.50507182 C0.31735131,8.50507182 0,8.82242314 0,9.21386719 C0,9.60531124 0.31735131,9.92266255 0.708795363,9.92266255 L2.12638609,9.92266255 C2.51783014,9.92266255 2.83518145,9.60531124 2.83518145,9.21386719 C2.83518145,8.82242314 2.51783014,8.50507182 2.12638609,8.50507182 Z" id="Path"></path>
                                <path d="M2.41996913,4.96109501 L1.41759073,3.95871661 C1.14082976,3.68190839 0.692020539,3.68190839 0.415212324,3.95871661 C0.138404108,4.23552482 0.138404108,4.68428679 0.415212324,4.96109501 L1.41759073,5.96347341 C1.69435169,6.24028163 2.14316091,6.24032888 2.41996913,5.96347341 C2.69677734,5.6866652 2.69677734,5.23790323 2.41996913,4.96109501 Z" id="Path"></path>
                                <path d="M2.41996913,12.464261 C2.14316091,12.1874527 1.69435169,12.1874527 1.41759073,12.464261 L0.415212324,13.4666394 C0.138404108,13.7434476 0.138404108,14.1922096 0.415212324,14.4690178 C0.691973286,14.745826 1.14078251,14.7458732 1.41759073,14.4690178 L2.41996913,13.4666394 C2.69677734,13.1898311 2.69677734,12.7410692 2.41996913,12.464261 Z" id="Path"></path>
                                <path d="M23.484753,8.50507182 L22.0671623,8.50507182 C21.6757182,8.50507182 21.3583669,8.82242314 21.3583669,9.21386719 C21.3583669,9.60531124 21.6757182,9.92266255 22.0671623,9.92266255 L23.484753,9.92266255 C23.8761971,9.92266255 24.1935484,9.60531124 24.1935484,9.21386719 C24.1935484,8.82242314 23.8761971,8.50507182 23.484753,8.50507182 Z" id="Path"></path>
                                <path d="M23.7783361,3.95871661 C23.5015751,3.68190839 23.0527659,3.68190839 22.7759577,3.95871661 L21.7735793,4.96109501 C21.496771,5.23790323 21.496771,5.6866652 21.7735793,5.96347341 C22.0503402,6.24023438 22.4991494,6.24028163 22.7759577,5.96347341 L23.7783361,4.96109501 C24.0551443,4.68428679 24.0551443,4.23552482 23.7783361,3.95871661 Z" id="Path"></path>
                                <path d="M23.7783361,13.4666394 L22.7759577,12.464261 C22.4991967,12.1874527 22.0503875,12.1874527 21.7735793,12.464261 C21.496771,12.7410692 21.496771,13.1898311 21.7735793,13.4666394 L22.7759577,14.4690178 C23.0527186,14.7457787 23.5015278,14.745826 23.7783361,14.4690178 C24.0551443,14.1922096 24.0551443,13.7434476 23.7783361,13.4666394 Z" id="Path"></path>
                            </g>
                        </g>
                    </g>
                </g>
            </g>
        </g>
    </g>
</svg>