<?xml version="1.0" encoding="UTF-8"?>
<svg width="430px" height="278px" viewBox="0 0 430 278" version="1.1" xmlns="http://www.w3.org/2000/svg" xmlns:xlink="http://www.w3.org/1999/xlink">
    <!-- Generator: Sketch 64 (93537) - https://sketch.com -->
    <title>insights</title>
    <desc>Created with Sketch.</desc>
    <defs>
        <linearGradient x1="14.0520997%" y1="60.1810341%" x2="96.6379104%" y2="40.3030685%" id="linearGradient-1">
            <stop stop-color="#3CD8DE" offset="0%"></stop>
            <stop stop-color="#72EEF3" offset="100%"></stop>
        </linearGradient>
        <linearGradient x1="18.5934619%" y1="50.8140269%" x2="94.4197131%" y2="48.5418929%" id="linearGradient-2">
            <stop stop-color="#3CD8DE" offset="0%"></stop>
            <stop stop-color="#3CD8DE" offset="100%"></stop>
        </linearGradient>
        <linearGradient x1="18.5934619%" y1="50.9555483%" x2="94.4197131%" y2="48.2883957%" id="linearGradient-3">
            <stop stop-color="#3CD8DE" offset="0%"></stop>
            <stop stop-color="#3CD8DE" offset="100%"></stop>
        </linearGradient>
        <linearGradient x1="42.9065381%" y1="96.3658348%" x2="53.4798849%" y2="12.955677%" id="linearGradient-4">
            <stop stop-color="#FFC654" offset="0%"></stop>
            <stop stop-color="#FDC600" offset="55%"></stop>
            <stop stop-color="#FDE400" offset="100%"></stop>
        </linearGradient>
        <linearGradient x1="88.4255515%" y1="43.7797731%" x2="25.3913549%" y2="53.9714859%" id="linearGradient-5">
            <stop stop-color="#FFFFFF" offset="0%"></stop>
            <stop stop-color="#FFFFFF" stop-opacity="0" offset="100%"></stop>
        </linearGradient>
        <linearGradient x1="35.1092895%" y1="112.868537%" x2="51.8837088%" y2="21.5215903%" id="linearGradient-6">
            <stop stop-color="#FFC654" offset="0%"></stop>
            <stop stop-color="#D37512" stop-opacity="0" offset="100%"></stop>
        </linearGradient>
        <linearGradient x1="0.0172384072%" y1="49.9412456%" x2="100%" y2="49.9412456%" id="linearGradient-7">
            <stop stop-color="#2D8EF6" offset="0%"></stop>
            <stop stop-color="#76B8FF" offset="100%"></stop>
        </linearGradient>
        <linearGradient x1="0.0172384072%" y1="49.9412456%" x2="100%" y2="49.9412456%" id="linearGradient-8">
            <stop stop-color="#2D8EF6" offset="0%"></stop>
            <stop stop-color="#76B8FF" offset="100%"></stop>
        </linearGradient>
        <linearGradient x1="0.0172384072%" y1="49.9412456%" x2="100%" y2="49.9412456%" id="linearGradient-9">
            <stop stop-color="#2D8EF6" offset="0%"></stop>
            <stop stop-color="#76B8FF" offset="100%"></stop>
        </linearGradient>
        <linearGradient x1="103.731753%" y1="77.7630312%" x2="-3.78393748%" y2="22.3276512%" id="linearGradient-10">
            <stop stop-color="#FD9C00" offset="0%"></stop>
            <stop stop-color="#FDC600" offset="55%"></stop>
            <stop stop-color="#FDE400" offset="100%"></stop>
        </linearGradient>
        <linearGradient x1="7.58024893%" y1="86.6726737%" x2="87.0237557%" y2="23.319135%" id="linearGradient-11">
            <stop stop-color="#FD9C00" offset="0%"></stop>
            <stop stop-color="#FDC600" offset="55%"></stop>
            <stop stop-color="#FDE400" offset="100%"></stop>
        </linearGradient>
        <linearGradient x1="47.7520391%" y1="72%" x2="51.6911003%" y2="39.340678%" id="linearGradient-12">
            <stop stop-color="#FD9C00" offset="0%"></stop>
            <stop stop-color="#FDC600" offset="55%"></stop>
            <stop stop-color="#FDE400" offset="100%"></stop>
        </linearGradient>
    </defs>
    <g id="UI" stroke="none" stroke-width="1" fill="none" fill-rule="evenodd">
        <g id="bp-ui-Insights-SAT" transform="translate(-847.000000, -228.000000)">
            <g id="Main">
                <g id="insights" transform="translate(0.000000, 136.000000)">
                    <g transform="translate(847.000000, 96.000000)">
                        <g id="Group" opacity="0.85" transform="translate(0.000000, 56.340426)" fill="#332E6C">
                            <path d="M429.070213,185.864894 L403.091489,20.3031915 C401.830585,12.4320309 394.751565,6.83797758 386.802128,7.43085106 L127.37766,26.762766 C109.660086,5.11263701 80.9855957,-4.28290991 53.8912808,2.68405611 C26.796966,9.65102214 6.21143144,31.7131715 1.13510638,59.2244681 L1.13510638,59.4702128 C0.982978723,60.2659574 0.854255319,61.05 0.737234043,61.8106383 L0.655319149,62.3840426 C0.339361702,64.7244681 0.117021277,67.0648936 0.0234042553,69.4053191 L0.0234042553,69.6744681 L0.0234042553,70.493617 C0.0234042553,71.0904255 0.0234042553,71.6638298 0.0234042553,72.2957447 C0.0234042553,72.9276596 0.0234042553,73.2670213 0.0234042553,73.7585106 C0.0234042553,74.25 0.0234042553,74.8468085 0.0234042553,75.3968085 C0.0234042553,75.9468085 0.0819148936,76.5670213 0.128723404,77.2223404 L0.128723404,77.5851064 C0.128723404,77.912766 0.128723404,78.2287234 0.19893617,78.5446809 C0.280851064,79.562766 0.39787234,80.5808511 0.526595745,81.6106383 C0.526595745,81.8680851 0.608510638,82.137234 0.643617021,82.406383 L0.643617021,82.6989362 C0.74893617,83.4361702 0.865957447,84.1734043 0.994680851,84.9223404 C1.06489362,85.3202128 1.14680851,85.706383 1.21702128,86.0925532 C1.36914894,86.8414894 1.5212766,87.5904255 1.69680851,88.3393617 L1.69680851,88.5968085 L1.87234043,89.3808511 C2.14148936,90.4574468 2.42234043,91.5340426 2.73829787,92.6223404 C5.26595745,101.235106 10.7659574,110.397872 19.1212766,119.853191 C20.2914894,121.198936 21.5670213,122.568085 22.8776596,123.937234 C24.8787234,126.031915 27.0202128,128.138298 29.4191489,130.385106 L36.5340426,137.043617 L38.7457447,139.103191 L42.6893617,142.789362 L44.5265957,144.497872 C53.8180851,153.28617 58.5691489,158.224468 62.0797872,164.262766 C60.9918525,165.091517 60.0907232,166.140177 59.4351064,167.340426 C58.1862771,169.598414 57.8994515,172.264204 58.6393617,174.73617 L59.9148936,179.112766 C60.9105775,182.426389 63.5787794,184.970075 66.9361702,185.806383 C66.4212668,187.579691 66.4212668,189.462862 66.9361702,191.23617 L68.2117021,195.601064 C69.7317445,200.746408 75.1239505,203.696169 80.2765957,202.201064 L80.756383,202.060638 L84.0797872,204.178723 C84.0250113,205.336444 84.1634297,206.495204 84.4893617,207.607447 C85.9976458,212.386414 90.4916404,215.586177 95.5010638,215.447872 C96.5064987,215.443905 97.5080067,215.322153 98.4851064,215.085106 C101.290381,216.481228 104.38578,217.194934 107.519149,217.168816 C109.873943,217.153685 112.214605,216.80298 114.470213,216.126596 C121.643617,214.020213 125.353191,209.912766 127.248936,206.57766 C129.45337,205.656405 131.343477,204.115866 132.690426,202.142553 C134.533577,199.483374 135.087566,196.137973 134.2,193.026596 C133.777933,191.583928 133.047224,190.250285 132.058511,189.118085 L132.38617,188.392553 L413.108511,203.523404 C417.720472,203.768387 422.197089,201.921036 425.294072,198.494828 C428.391055,195.06862 429.778298,190.428754 429.070213,185.864894 Z" id="Path"></path>
                        </g>
                        <path d="M107.121277,82.1904255 L384.543617,61.4659574 C392.493054,60.873084 399.572074,66.4671373 400.832979,74.3382979 L426.8,239.9 C427.520491,244.468361 426.138418,249.117689 423.039429,252.550661 C419.940439,255.983633 415.456321,257.832702 410.838298,257.581915 L112.562766,241.55 L107.121277,82.1904255 Z" id="Path" fill="url(#linearGradient-1)" fill-rule="nonzero"></path>
                        <text id="Insights" font-family="CircularStd-Bold, Circular Std" font-size="48" font-weight="bold" line-spacing="64" fill="#FFFFFF">
                            <tspan x="165" y="175.319149">Insights</tspan>
                        </text>
                        <polygon id="Path" fill="url(#linearGradient-2)" fill-rule="nonzero" points="91.9670213 68.0074468 352.210638 56.7968085 97.1510638 76.6670213"></polygon>
                        <polygon id="Path" fill="url(#linearGradient-3)" fill-rule="nonzero" points="112.305319 254.58617 248.248936 256.282979 113.13617 245.037234"></polygon>
                        <polyline id="Path" stroke="#FFFFFF" stroke-width="2" points="121.210638 95.893617 120.976596 88.8840426 127.974468 88.3574468"></polyline>
                        <path d="M141.888298,87.3276596 L374.374468,69.9734043 C381.641604,69.4514701 388.100854,74.5741485 389.247872,81.7691489 L412.968085,232.995745 C413.609873,237.166657 412.341895,241.405064 409.51498,244.538266 C406.688065,247.671468 402.601964,249.367237 398.387234,249.156383 L139.92234,235.207447" id="Path" stroke="#FFFFFF" stroke-width="2" stroke-dasharray="11.93"></path>
                        <polyline id="Path" stroke="#FFFFFF" stroke-width="2" points="132.959574 234.821277 125.95 234.446809 125.704255 227.425532"></polyline>
                        <path d="M129.004255,227.25 C128.580835,225.818547 127.077265,225.001276 125.645745,225.424468 L123.621277,226.021277 L121.280851,218.145745 C119.829787,201.380496 119.720567,189.85 120.953191,183.554255 C122.497872,175.643617 125.07234,165.884043 128.547872,151.841489 L129.156383,149.325532 C133.26383,132.497872 134.703191,123.241489 130.630851,109.362766 C122.19261,80.5593023 95.0986087,61.3041705 65.1222107,62.8071653 C35.1458127,64.3101602 10.1137303,86.1788561 4.59893617,115.681915 C4.59339237,115.783258 4.59339237,115.884828 4.59893617,115.98617 C4.47021277,116.7 4.35319149,117.41383 4.23617021,118.12766 L4.16595745,118.630851 C3.8728024,120.722553 3.68533022,122.827709 3.60425532,124.938298 C3.60425532,125.265957 3.60425532,125.593617 3.60425532,125.921277 C3.60425532,126.459574 3.60425532,126.997872 3.60425532,127.53617 C3.60425532,128.074468 3.60425532,128.41383 3.60425532,128.858511 C3.60425532,129.303191 3.60425532,129.841489 3.60425532,130.332979 C3.60425532,130.824468 3.60425532,131.432979 3.69787234,131.982979 C3.79148936,132.532979 3.69787234,132.778723 3.77978723,133.153191 C3.86170213,134.07766 3.96702128,135.002128 4.08404255,135.914894 C4.08404255,136.242553 4.17765957,136.581915 4.23617021,136.909574 C4.32978723,137.564894 4.43510638,138.231915 4.55212766,138.898936 C4.55212766,139.261702 4.68085106,139.612766 4.75106383,139.975532 C4.87978723,140.642553 5.03191489,141.321277 5.18404255,141.988298 L5.39468085,142.924468 C5.64042553,143.907447 5.88617021,144.878723 6.1787234,145.861702 C8.84680851,154.954255 15.037234,163.602128 21.0521277,170.43617 C22.2223404,171.805319 23.4510638,173.104255 24.562766,174.309574 C26.9031915,176.731915 29.0446809,178.826596 30.8234043,180.488298 C34.2638298,183.718085 37.3531915,186.596809 40.1851064,189.194681 L44.1521277,192.904255 C44.7723404,193.501064 45.3223404,194.074468 45.9776596,194.624468 C58.7329787,206.701064 63.7180851,212.411702 68.3989362,223.294681 L63.8,224.640426 C62.368203,225.064198 61.54738,226.564684 61.962766,227.998936 L63.25,232.36383 C63.6738717,233.789721 65.1662695,234.608974 66.5968085,234.201064 L71.593617,232.726596 L73.9340426,240.602128 L72.0968085,241.128723 C70.6650116,241.552496 69.8441885,243.052982 70.2595745,244.487234 L71.5468085,248.852128 C71.7450797,249.540826 72.2098314,250.12201 72.8380678,250.466881 C73.4663042,250.811752 74.2061402,250.891828 74.893617,250.689362 L78.4042553,249.647872 L89.3574468,256.669149 C88.0447458,257.636584 87.4405085,259.297084 87.8244681,260.881915 C88.4680851,263.058511 91.1244681,264.205319 93.7574468,263.432979 L96.0978723,262.730851 C97.712766,264.053191 102.007447,266.697872 109.028723,264.638298 C116.05,262.578723 118.08617,258.085106 118.647872,256.119149 L120.379787,255.604255 C123.012766,254.831915 124.639362,252.444681 123.995745,250.256383 C123.29293,248.393874 121.407914,247.253198 119.431915,247.494681 L120.824468,244.475532 L123.960638,237.618085 L124.674468,236.05 L128.430851,234.95 C129.117392,234.749246 129.695784,234.283466 130.038302,233.655515 C130.266648,233.236881 129.921966,231.10171 129.004255,227.25 Z" id="Path" stroke="#FFFFFF" fill="#FFFFFF"></path>
                        <path d="M131.824468,108.192553 C121.258884,74.4353603 85.6032899,55.3594541 51.6576445,65.3029346 C17.7119991,75.2464152 -2.01589099,110.545451 7.30212766,144.668085 C11.5734043,159.225532 24.8553191,172.601064 31.993617,179.282979 C59.5053191,205.02766 64.6893617,208.690426 71.7808511,227.647872 L122.462766,212.78617 C118.121277,193.793617 121.292553,185.192553 129.788298,150.624468 C134.305319,132.205319 136.095745,122.761702 131.824468,108.192553 Z" id="Path" fill="url(#linearGradient-4)" fill-rule="nonzero"></path>
                        <ellipse id="Oval" fill="url(#linearGradient-5)" fill-rule="nonzero" transform="translate(83.394997, 101.299894) rotate(-59.690000) translate(-83.394997, -101.299894) " cx="83.3949965" cy="101.299894" rx="33.3510638" ry="46.6212766"></ellipse>
                        <path d="M8.26170213,105.231915 C3.83371107,117.954964 3.49817366,131.744733 7.30212766,144.668085 C11.5734043,159.225532 24.8553191,172.601064 31.993617,179.282979 C59.5053191,205.02766 64.6893617,208.690426 71.7808511,227.647872 L122.462766,212.78617 C118.121277,193.793617 121.292553,185.192553 129.788298,150.624468 C130.209574,148.915957 130.595745,147.301064 130.958511,145.732979 C81.493617,200.604255 17.8457447,160.009574 8.26170213,105.231915 Z" id="Path" fill="url(#linearGradient-6)" fill-rule="nonzero"></path>
                        <ellipse id="Oval" fill="#FFFFFF" fill-rule="nonzero" opacity="0.57" transform="translate(88.020504, 80.586449) rotate(-67.650000) translate(-88.020504, -80.586449) " cx="88.0205035" cy="80.586449" rx="11.2691489" ry="26.5404255"></ellipse>
                        <path d="M27.5691489,169.757447 C27.5691489,169.757447 26.7382979,169.031915 25.3223404,167.744681 C24.5968085,167.112766 23.812766,166.235106 22.8882979,165.252128 C21.9638298,164.269149 21.0042553,163.087234 19.962766,161.741489 C18.9212766,160.395745 17.9148936,158.932979 16.8851064,157.329787 C15.8172147,155.625667 14.8444507,153.863753 13.9712766,152.052128 C13.5148936,151.115957 13.0351064,150.156383 12.6489362,149.15 C12.262766,148.143617 11.806383,147.148936 11.4787234,146.107447 C11.1510638,145.065957 10.8234043,143.989362 10.4840426,142.924468 C10.1446809,141.859574 9.93404255,140.759574 9.65319149,139.682979 L9.29042553,138.044681 L9.03297872,136.476596 C8.88085106,135.306383 8.67021277,134.276596 8.57659574,133.176596 C8.3624755,131.030468 8.28040602,128.873214 8.33085106,126.717021 C8.33085106,125.675532 8.33085106,124.645745 8.44787234,123.639362 C8.56489362,122.632979 8.65851064,121.661702 8.75212766,120.71383 C8.91595745,118.806383 9.38404255,117.039362 9.67659574,115.412766 C9.96914894,113.78617 10.4957447,112.335106 10.8468085,111.03617 C11.1682682,109.920669 11.5591003,108.826339 12.0170213,107.759574 C12.7191489,105.969149 13.187234,104.962766 13.187234,104.962766 C13.187234,104.962766 13.0234043,106.051064 12.6723404,107.935106 C12.5085106,108.871277 12.2510638,109.994681 12.1106383,111.317021 C11.9702128,112.639362 11.7010638,114.102128 11.5489362,115.717021 C11.5489362,116.512766 11.4319149,117.355319 11.3734043,118.221277 C11.2704071,119.114838 11.2157176,120.013309 11.2095745,120.912766 C11.2095745,122.75 11.1159574,124.692553 11.2095745,126.681915 C11.3031915,128.671277 11.5255319,130.742553 11.7010638,132.825532 C11.8180851,133.867021 12.0287234,134.896809 12.1925532,135.95 L12.45,137.518085 L12.8244681,139.062766 C13.0702128,140.092553 13.2340426,141.157447 13.5617021,142.16383 C13.8893617,143.170213 14.1585106,144.188298 14.4510638,145.194681 C15.1765957,147.160638 15.75,149.15 16.5925532,150.96383 C17.4351064,152.77766 18.2074468,154.568085 19.0031915,156.229787 C19.4010638,157.060638 19.8808511,157.809574 20.2787234,158.570213 C20.6765957,159.330851 21.0744681,160.091489 21.5191489,160.758511 C22.3851064,162.115957 23.1106383,163.438298 23.8595745,164.503191 C24.6085106,165.568085 25.2053191,166.574468 25.8021277,167.335106 C26.9606383,168.856383 27.5691489,169.757447 27.5691489,169.757447 Z" id="Path" fill="#FEFAD4" fill-rule="nonzero" opacity="0.6"></path>
                        <path d="M90.0010638,217.946809 C87.1698669,206.537728 83.3885794,195.38567 78.6968085,184.607447 C75.993617,178.674468 72.4829787,171.957447 66.9946809,168.037234 C64.162766,165.97766 58.2648936,163.719149 55.55,167.264894 C53.806383,169.605319 53.4202128,173.502128 55.6904255,175.71383 C59.4234043,179.318085 64.4553191,179.587234 69.4170213,179.540426 C80.6276596,179.435106 91.4053191,173.818085 98.7425532,165.497872 C101.75,162.092553 103.540426,157.938298 101.890426,153.526596 C100.790426,150.589362 96.9638298,148.471277 93.9914894,149.86383 C84.7702128,154.158511 89.8489362,169.488298 91.6510638,176.661702 C94.7638298,189.030851 98.3680851,201.23617 101.831915,213.535106 C102.177835,214.55636 103.259927,215.130886 104.299678,214.845342 C105.33943,214.559799 105.976316,213.513195 105.752128,212.458511 C101.773404,198.298936 97.4085106,184.197872 94.1787234,169.851064 C93.3010638,165.965957 92.4468085,161.47234 93.0085106,157.493617 L93.8159574,155.153191 C99.0507092,156.713475 99.7216312,159.186525 95.8287234,162.57234 C94.6945678,163.92881 93.4541165,165.19274 92.1191489,166.352128 C85.5425532,172.448936 76.4265957,175.304255 67.6148936,175.38617 C65.5586382,175.391419 63.5100205,175.135833 61.5180851,174.625532 L59.4117021,169.523404 C59.7660595,169.494042 60.1222384,169.494042 60.4765957,169.523404 C61.6611596,169.629601 62.7999905,170.032015 63.7882979,170.693617 C66.9244681,172.507447 69.1361702,175.889362 71.0085106,178.885106 C78.556383,190.868085 82.3946809,205.402128 85.987234,218.953191 C86.6542553,221.492553 90.5861702,220.415957 89.9074468,217.864894 L90.0010638,217.946809 Z" id="Path" fill="#383373" fill-rule="nonzero"></path>
                        <polygon id="Rectangle" fill="#018085" fill-rule="nonzero" transform="translate(98.553014, 227.605045) rotate(-16.340000) translate(-98.553014, -227.605045) " points="72.6269499 220.876322 124.479078 220.876322 124.479078 234.333768 72.6269499 234.333768"></polygon>
                        <polygon id="Rectangle" fill="#0B696D" fill-rule="nonzero" transform="translate(98.776495, 228.349181) rotate(-16.340000) translate(-98.776495, -228.349181) " points="72.8504307 226.166734 124.702558 226.166734 124.702558 230.531628 72.8504307 230.531628"></polygon>
                        <polygon id="Path" fill="#0B696D" fill-rule="nonzero" points="119.595745 248.618085 92.2478723 256.634043 77.2574468 247.014894 127.014894 232.42234"></polygon>
                        <polygon id="Path" fill="#018085" fill-rule="nonzero" points="127.014894 232.42234 77.2574468 247.014894 82.5585106 250.420213 124.381915 238.156383"></polygon>
                        <polygon id="Path" fill="#018085" fill-rule="nonzero" points="92.2478723 256.634043 119.595745 248.618085 122.018085 243.317021 87.3446809 253.48617"></polygon>
                        <path d="M64.6476063,214.517273 L127.911649,214.517273 C129.187427,214.517273 130.221649,215.551495 130.221649,216.827273 L130.221649,222.165784 C130.221649,223.441562 129.187427,224.475784 127.911649,224.475784 L64.6476063,224.475784 C63.3718286,224.475784 62.3376063,223.441562 62.3376063,222.165784 L62.3376063,216.827273 C62.3376063,215.551495 63.3718286,214.517273 64.6476063,214.517273 Z" id="Rectangle" fill="url(#linearGradient-7)" fill-rule="nonzero" transform="translate(96.279628, 219.496528) rotate(-16.340000) translate(-96.279628, -219.496528) "></path>
                        <path d="M73.0499516,231.932796 L129.713994,231.932796 C130.989772,231.932796 132.023994,232.967018 132.023994,234.242796 L132.023994,239.581306 C132.023994,240.857084 130.989772,241.891306 129.713994,241.891306 L73.0499516,241.891306 C71.7741739,241.891306 70.7399516,240.857084 70.7399516,239.581306 L70.7399516,234.242796 C70.7399516,232.967018 71.7741739,231.932796 73.0499516,231.932796 Z" id="Rectangle" fill="url(#linearGradient-8)" fill-rule="nonzero" transform="translate(101.381973, 236.912051) rotate(-16.340000) translate(-101.381973, -236.912051) "></path>
                        <path d="M96.5542553,260.893617 C96.5542553,260.893617 101.106383,266.171277 110.22234,263.491489 C119.338298,260.811702 120.052128,254.001064 120.052128,254.001064 L96.5542553,260.893617 Z" id="Path" fill="#018085" fill-rule="nonzero"></path>
                        <path d="M119.256383,246.570213 L92.5755319,254.387234 C89.9425532,255.159574 88.3159574,257.558511 88.9595745,259.735106 L88.9595745,259.735106 C89.6031915,261.911702 92.2595745,263.058511 94.8925532,262.28617 L121.573404,254.457447 C124.206383,253.685106 125.832979,251.297872 125.189362,249.109574 L125.189362,249.109574 C124.545745,246.932979 121.889362,245.78617 119.256383,246.570213 Z" id="Path" fill="url(#linearGradient-9)" fill-rule="nonzero"></path>
                        <line x1="39.3191489" y1="39.3606383" x2="12.006383" y2="5.98617021" id="Path" stroke="url(#linearGradient-10)" stroke-width="8.08" stroke-linecap="round"></line>
                        <line x1="91.6861702" y1="36.9734043" x2="115.851064" y2="1.25851064" id="Path" stroke="url(#linearGradient-11)" stroke-width="8.08" stroke-linecap="round"></line>
                        <line x1="65.262766" y1="34.6680851" x2="63.0159574" y2="0.146808511" id="Path" stroke="url(#linearGradient-12)" stroke-width="8.08" stroke-linecap="round"></line>
                    </g>
                </g>
            </g>
        </g>
    </g>
</svg>