<?xml version="1.0" encoding="UTF-8"?>
<svg width="72px" height="72px" viewBox="0 0 72 72" version="1.1" xmlns="http://www.w3.org/2000/svg" xmlns:xlink="http://www.w3.org/1999/xlink">
    <!-- Generator: Sketch 64 (93537) - https://sketch.com -->
    <title>Internship</title>
    <desc>Created with Sketch.</desc>
    <g id="UI" stroke="none" stroke-width="1" fill="none" fill-rule="evenodd">
        <g id="bp-ui-Computer-Science-overview" transform="translate(-732.000000, -4014.000000)" fill="#2D8EF6" fill-rule="nonzero">
            <g id="Benefits" transform="translate(162.000000, 3870.000000)">
                <g id="2" transform="translate(570.000000, 144.000000)">
                    <g id="cover">
                        <g id="Internship">
                            <path d="M67.78125,0 L17.71875,0 C15.3925313,0 13.5,1.89253125 13.5,4.21875 L13.5,9 C13.5,9.77653125 14.1295781,10.40625 14.90625,10.40625 C15.6829219,10.40625 16.3125,9.77653125 16.3125,9 L16.3125,4.21875 C16.3125,3.44334375 16.9433438,2.8125 17.71875,2.8125 L67.78125,2.8125 C68.5566563,2.8125 69.1875,3.44334375 69.1875,4.21875 L69.1875,67.78125 C69.1875,68.5566563 68.5566563,69.1875 67.78125,69.1875 L17.71875,69.1875 C16.9433438,69.1875 16.3125,68.5566563 16.3125,67.78125 L16.3125,63.2341406 C16.3125,62.4576094 15.6829219,61.8278906 14.90625,61.8278906 C14.1295781,61.8278906 13.5,62.4576094 13.5,63.2341406 L13.5,67.78125 C13.5,70.1074688 15.3925313,72 17.71875,72 L67.78125,72 C70.1074688,72 72,70.1074688 72,67.78125 L72,4.21875 C72,1.89253125 70.1074688,0 67.78125,0 Z" id="Path"></path>
                            <path d="M61.0162031,54.28125 L27.2662031,54.28125 C26.4895312,54.28125 25.8599531,54.9109688 25.8599531,55.6875 C25.8599531,56.4640313 26.4895312,57.09375 27.2662031,57.09375 L61.0162031,57.09375 C61.792875,57.09375 62.4224531,56.4640313 62.4224531,55.6875 C62.4224531,54.9109688 61.792875,54.28125 61.0162031,54.28125 Z" id="Path"></path>
                            <path d="M62.01,62.0057813 C61.7484375,61.7440781 61.3870313,61.59375 61.0157813,61.59375 C60.6459375,61.59375 60.283125,61.7440781 60.0215625,62.0057813 C59.76,62.2674844 59.6095313,62.6301563 59.6095313,63 C59.6095313,63.3698438 59.76,63.7326563 60.0215625,63.9940781 C60.283125,64.2556406 60.6459375,64.40625 61.0157813,64.40625 C61.3870313,64.40625 61.7484375,64.2557813 62.01,63.9940781 C62.2715625,63.7326563 62.4220313,63.3698438 62.4220313,63 C62.4220313,62.6301563 62.2715625,62.2673438 62.01,62.0057813 Z" id="Path"></path>
                            <path d="M55.265625,61.59375 L27.2662031,61.59375 C26.4895312,61.59375 25.8599531,62.2234688 25.8599531,63 C25.8599531,63.7765313 26.4895312,64.40625 27.2662031,64.40625 L55.265625,64.40625 C56.0422969,64.40625 56.671875,63.7765313 56.671875,63 C56.671875,62.2234688 56.0422969,61.59375 55.265625,61.59375 Z" id="Path"></path>
                            <path d="M37.1217656,12.3422344 C28.7534531,12.3422344 21.9452344,19.1504531 21.9452344,27.5189062 C21.9452344,31.8625312 23.7798281,35.7854062 26.7145312,38.5544531 C26.7644531,38.6085937 26.8181719,38.6595 26.8769531,38.705625 C29.5786406,41.1818906 33.1765312,42.6952969 37.121625,42.6952969 C41.0667187,42.6952969 44.6644687,41.18175 47.3662969,38.705625 C47.4250781,38.6595 47.4787969,38.6084531 47.5287187,38.5544531 C50.4634219,35.7854062 52.2982969,31.8625312 52.2982969,27.5189062 C52.2982969,19.1504531 45.4900781,12.3422344 37.1217656,12.3422344 Z M37.121625,39.8827969 C34.2327656,39.8827969 31.5725625,38.88675 29.4654375,37.2203437 C30.9583125,34.3963125 33.8671406,32.6195156 37.121625,32.6195156 C40.3761094,32.6195156 43.2849375,34.3963125 44.7778125,37.2203437 C42.6706875,38.88675 40.0104844,39.8827969 37.121625,39.8827969 Z M34.1616094,26.8471406 L34.1616094,25.7554687 C34.1616094,24.123375 35.4893906,22.7954531 37.1214844,22.7954531 C38.7535781,22.7954531 40.0813594,24.1232344 40.0813594,25.7554687 L40.0813594,26.8471406 C40.0813594,28.4790937 38.7535781,29.8070156 37.1214844,29.8070156 C35.4893906,29.8070156 34.1616094,28.4792344 34.1616094,26.8471406 Z M46.8347344,35.1606094 C45.5475938,33.107625 43.6642031,31.5419062 41.4599063,30.6487969 C42.3516094,29.6325 42.894,28.3023281 42.894,26.8472812 L42.894,25.7556094 C42.894,22.5725625 40.3045312,19.9830937 37.121625,19.9830937 C33.9387187,19.9830937 31.34925,22.5725625 31.34925,25.7556094 L31.34925,26.8472812 C31.34925,28.3023281 31.8916406,29.6325 32.7833437,30.6487969 C30.5790469,31.5420469 28.6956562,33.107625 27.4085156,35.1606094 C25.749,33.055875 24.7575937,30.4010156 24.7575937,27.5189062 C24.7575937,20.7012656 30.3039844,15.1547344 37.121625,15.1547344 C43.939125,15.1547344 49.4856563,20.7012656 49.4856563,27.5189062 C49.4856563,30.4010156 48.49425,33.055875 46.8347344,35.1606094 Z" id="Shape"></path>
                            <path d="M37.121625,5.625 C25.0493906,5.625 15.2278594,15.4465312 15.2278594,27.5187656 C15.2278594,34.4984062 18.5108906,40.7258437 23.61375,44.7375937 L7.29196875,61.0592344 C6.26892188,62.0822812 4.60420313,62.0822812 3.58101563,61.0592344 C3.08545313,60.5636719 2.8125,59.9047031 2.8125,59.2038281 C2.8125,58.5029531 3.08545313,57.8439844 3.58115625,57.3484219 L11.9286563,49.0009219 C12.4777969,48.4517812 12.4777969,47.5613437 11.9286563,47.0120625 C11.3795156,46.4630625 10.4890781,46.4630625 9.9399375,47.0120625 L1.59257813,55.3595625 C0.565453125,56.3864062 0,57.7517344 0,59.2038281 C0,60.6559219 0.565453125,62.02125 1.59229688,63.0480937 C2.6521875,64.1078437 4.044375,64.6378594 5.4365625,64.6378594 C6.82875,64.6378594 8.2209375,64.1078437 9.28082813,63.0480937 L25.974,46.3549219 C29.2412813,48.2959687 33.0532031,49.4126719 37.121625,49.4126719 C49.194,49.4126719 59.0153906,39.5911406 59.0153906,27.5189062 C59.0153906,15.4466719 49.1938594,5.625 37.121625,5.625 Z M37.121625,46.6000313 C26.6002031,46.6000313 18.0402188,38.0403281 18.0402188,27.5187656 C18.0402188,16.9973438 26.6000625,8.4375 37.121625,8.4375 C47.6431875,8.4375 56.2028906,16.9973438 56.2028906,27.5187656 C56.2028906,38.0401875 47.6430469,46.6000313 37.121625,46.6000313 Z" id="Shape"></path>
                            <path d="M16.3546875,42.5856094 C16.093125,42.3240469 15.7317187,42.1734375 15.3604687,42.1734375 C14.990625,42.1734375 14.6278125,42.3239063 14.36625,42.5856094 C14.1046875,42.8470313 13.9542187,43.2098438 13.9542187,43.5796875 C13.9542187,43.9496719 14.1046875,44.3123438 14.36625,44.5739063 C14.6278125,44.8354688 14.990625,44.9859375 15.3604687,44.9859375 C15.7317187,44.9857969 16.093125,44.8354688 16.3546875,44.5739063 C16.6176562,44.3123438 16.7667187,43.9496719 16.7667187,43.5796875 C16.7667187,43.2098438 16.6176562,42.8470313 16.3546875,42.5856094 Z" id="Path"></path>
                        </g>
                    </g>
                </g>
            </g>
        </g>
    </g>
</svg>