<?xml version="1.0" encoding="UTF-8"?>
<svg width="72px" height="72px" viewBox="0 0 72 72" version="1.1" xmlns="http://www.w3.org/2000/svg" xmlns:xlink="http://www.w3.org/1999/xlink">
    <!-- Generator: Sketch 64 (93537) - https://sketch.com -->
    <title>labs</title>
    <desc>Created with Sketch.</desc>
    <g id="UI" stroke="none" stroke-width="1" fill="none" fill-rule="evenodd">
        <g id="bp-ui-Computer-Science-overview" transform="translate(-732.000000, -2780.000000)" fill="#2D8EF6" fill-rule="nonzero">
            <g id="Benefits" transform="translate(162.000000, 2636.000000)">
                <g id="2" transform="translate(570.000000, 144.000000)">
                    <g id="cover">
                        <g id="labs">
                            <path d="M57.2442188,53.0170312 C56.9826563,52.7554687 56.6198438,52.605 56.25,52.605 C55.8801563,52.605 55.5173438,52.7554687 55.2557813,53.0170312 C54.9942188,53.2785937 54.84375,53.6414062 54.84375,54.01125 C54.84375,54.3810937 54.9942188,54.7439062 55.2557813,55.0054687 C55.5173438,55.2684375 55.8801563,55.4175 56.25,55.4175 C56.6198438,55.4175 56.9826563,55.2684375 57.2442188,55.0054687 C57.5057813,54.7439062 57.65625,54.3810937 57.65625,54.01125 C57.65625,53.6414062 57.5057813,53.2787344 57.2442188,53.0170312 Z" id="Path"></path>
                            <path d="M66.375,0.000140625 L5.625,0.000140625 C2.523375,0.000140625 0,2.52351562 0,5.62514062 L0,49.7930625 C0,52.8946875 2.523375,55.4180625 5.625,55.4180625 L27.703125,55.4180625 L27.703125,62.4770156 C23.5783125,62.8789219 20.3437969,66.3652969 20.3437969,70.59375 C20.3437969,71.3704219 20.973375,72 21.7500469,72 L50.2500937,72 C51.0267656,72 51.6563437,71.3704219 51.6563437,70.59375 C51.6563437,66.2696719 48.2736094,62.7226875 44.0157656,62.4555 L44.0157656,55.4180625 L50.5783125,55.4180625 C51.3549844,55.4180625 51.9845625,54.7884844 51.9845625,54.0118125 C51.9845625,53.2351406 51.3549844,52.6055625 50.5783125,52.6055625 L5.625,52.6055625 C4.0741875,52.6055625 2.8125,51.343875 2.8125,49.7930625 L2.8125,5.62514062 C2.8125,4.07432812 4.0741875,2.81264062 5.625,2.81264062 L66.375,2.81264062 C67.9258125,2.81264062 69.1875,4.07432812 69.1875,5.62514062 L69.1875,49.7930625 C69.1875,51.343875 67.9258125,52.6055625 66.375,52.6055625 L61.1250469,52.6055625 C60.348375,52.6055625 59.7187969,53.2351406 59.7187969,54.0118125 C59.7187969,54.7884844 60.348375,55.4180625 61.1250469,55.4180625 L66.375,55.4180625 C69.476625,55.4180625 72,52.8946875 72,49.7930625 L72,5.62514062 C72,2.523375 69.476625,0.000140625 66.375,0.000140625 Z M30.515625,55.4180625 L41.203125,55.4180625 L41.203125,62.4376406 L30.515625,62.4376406 L30.515625,55.4180625 Z M43.4999531,65.2501406 C45.9600469,65.2501406 48.0372187,66.9210469 48.6561094,69.1876406 L23.3438906,69.1876406 C23.9626406,66.9210469 26.0398125,65.2501406 28.4999062,65.2501406 L43.4999531,65.2501406 Z" id="Shape"></path>
                            <path d="M36.8535938,48.5171719 C36.5920312,48.2556094 36.2292188,48.1051406 35.859375,48.1051406 C35.4895312,48.1051406 35.1267188,48.2556094 34.8651562,48.5171719 C34.6035938,48.7787344 34.453125,49.1415469 34.453125,49.5113906 C34.453125,49.8826406 34.6035938,50.2440469 34.8651562,50.5056094 C35.1267188,50.7685781 35.4895312,50.9176406 35.859375,50.9176406 C36.2292188,50.9176406 36.5920312,50.7685781 36.8535938,50.5056094 C37.1151562,50.2440469 37.265625,49.8826406 37.265625,49.5113906 C37.265625,49.1415469 37.1151562,48.7787344 36.8535938,48.5171719 Z" id="Path"></path>
                            <path d="M20.5588125,25.7785313 L27.448875,18.8886094 C27.9981563,18.3394688 27.9981563,17.4490313 27.4490156,16.8998906 C26.899875,16.35075 26.0094375,16.35075 25.4601563,16.8998906 L17.575875,24.7841719 C17.0267344,25.3333125 17.0267344,26.22375 17.575875,26.7730313 L25.4601563,34.6573125 C25.7347969,34.9319531 26.0946563,35.0692031 26.4545156,35.0692031 C26.814375,35.0692031 27.174375,34.9319531 27.448875,34.6573125 C27.9980156,34.1081719 27.9980156,33.2177344 27.448875,32.6684531 L20.5588125,25.7785313 Z" id="Path"></path>
                            <path d="M54.4239844,24.7841719 L46.5397031,16.8998906 C45.9905625,16.35075 45.100125,16.35075 44.5508438,16.8998906 C44.0017031,17.4490313 44.0017031,18.3394688 44.5508438,18.88875 L51.4409062,25.7786719 L44.5508438,32.6685937 C44.0018438,33.2177344 44.0018438,34.1081719 44.5509844,34.6573125 C44.825625,34.9319531 45.1854844,35.0692031 45.5453438,35.0692031 C45.9052031,35.0692031 46.2652031,34.9319531 46.5397031,34.6573125 L54.4239844,26.7730313 C54.973125,26.22375 54.973125,25.3334531 54.4239844,24.7841719 Z" id="Path"></path>
                            <path d="M38.4689531,17.0901562 C37.7188594,16.8887813 36.9476719,17.3344219 36.7465781,18.0845156 L32.5365469,33.7966875 C32.3355938,34.5469219 32.7808125,35.3179687 33.5309063,35.5190625 C33.6528281,35.5516875 33.7753125,35.5672969 33.8958281,35.5672969 C34.5166875,35.5672969 35.0849531,35.152875 35.2532813,34.5247031 L39.4633125,18.8125312 C39.6644062,18.0621563 39.2191875,17.29125 38.4689531,17.0901562 Z" id="Path"></path>
                            <path d="M64.96875,5.6368125 L42.609375,5.6368125 C41.8327031,5.6368125 41.203125,6.26639062 41.203125,7.0430625 C41.203125,7.81973437 41.8327031,8.4493125 42.609375,8.4493125 L63.5625,8.4493125 L63.5625,43.6055625 L8.4375,43.6055625 L8.4375,8.4493125 L30.0234375,8.4493125 C30.8001094,8.4493125 31.4296875,7.81973437 31.4296875,7.0430625 C31.4296875,6.26639062 30.8001094,5.6368125 30.0234375,5.6368125 L7.03125,5.6368125 C6.25457813,5.6368125 5.625,6.26639062 5.625,7.0430625 L5.625,45.0118125 C5.625,45.7884844 6.25457813,46.4180625 7.03125,46.4180625 L64.96875,46.4180625 C65.7454219,46.4180625 66.375,45.7884844 66.375,45.0118125 L66.375,7.0430625 C66.375,6.26639062 65.7454219,5.6368125 64.96875,5.6368125 Z" id="Path"></path>
                            <path d="M37.2754688,6.04842187 C37.0139062,5.78685937 36.6510938,5.63639062 36.28125,5.63639062 C35.9114062,5.63639062 35.5485938,5.78685937 35.2870312,6.04842187 C35.0254688,6.30998437 34.875,6.67279687 34.875,7.04264062 C34.875,7.41248437 35.0254688,7.77529687 35.2870312,8.03826562 C35.5485938,8.29982812 35.9114062,8.44889062 36.28125,8.44889062 C36.6510938,8.44889062 37.0139062,8.29982812 37.2754688,8.03826562 C37.5370312,7.77529687 37.6875,7.41389062 37.6875,7.04264062 C37.6875,6.67279687 37.5370312,6.30998437 37.2754688,6.04842187 Z" id="Path"></path>
                        </g>
                    </g>
                </g>
            </g>
        </g>
    </g>
</svg>