<?xml version="1.0" encoding="UTF-8"?>
<svg width="69px" height="72px" viewBox="0 0 69 72" version="1.1" xmlns="http://www.w3.org/2000/svg" xmlns:xlink="http://www.w3.org/1999/xlink">
    <!-- Generator: Sketch 64 (93537) - https://sketch.com -->
    <title>college-guidance</title>
    <desc>Created with Sketch.</desc>
    <g id="Page-1" stroke="none" stroke-width="1" fill="none" fill-rule="evenodd">
        <g id="bp-ui-ACT,-SAT,-CAG-details" transform="translate(-542.000000, -8228.000000)" fill="#3CD8DE" fill-rule="nonzero">
            <g id="Program" transform="translate(162.000000, 2384.000000)">
                <g id="line" transform="translate(380.000000, 0.000000)">
                    <g id="7" transform="translate(0.000000, 5844.000000)">
                        <g id="college-guidance">
                            <path d="M67.564375,18.151714 L35.8747097,0.357192233 C35.026286,-0.119064078 33.9726163,-0.119064078 33.1247415,0.357192233 L1.43507623,18.151714 C0.54988381,18.6488444 0,19.588723 0,20.6044071 C0,21.6206406 0.54988381,22.5605192 1.43507623,23.0576495 L9.63229727,27.6603628 L9.63229727,43.1746765 C9.63229727,44.1123579 10.0965706,44.9841214 10.8731031,45.5076189 L12.5490965,46.6370113 C12.098543,47.420335 11.8400646,48.3267053 11.8400646,49.2935003 L11.8400646,70.5937527 C11.8400646,71.3704847 12.4689737,72 13.2449576,72 L21.1123581,72 C21.8883418,72 22.517251,71.3704847 22.517251,70.5937527 L22.517251,53.3540395 L32.93102,60.3715432 C33.4073665,60.6928927 33.9539577,60.8532927 34.5,60.8532927 C35.0460423,60.8532927 35.5926335,60.6928927 36.06898,60.3715432 L58.1268969,45.5076189 C58.9034296,44.9841214 59.3677027,44.1118086 59.3677027,43.1746765 L59.3677027,27.6603628 L67.5649238,23.0576495 C68.450116,22.5605192 69,21.6206406 69,20.6044071 C69,19.588723 68.450116,18.6488444 67.564375,18.151714 Z M12.4420832,29.2385459 L15.7737649,31.1089647 L15.7737649,44.1381757 C15.3566873,44.2524333 14.9599147,44.41558 14.5900327,44.6215732 L12.4420832,43.1746765 L12.4420832,29.2385459 Z M19.7074651,50.7046915 L19.7074651,50.721171 L19.7074651,52.9964351 L14.6493018,52.9964351 L14.6493018,49.2935003 C14.6493018,47.89769 15.7841917,46.7617059 17.1786578,46.7617059 C18.5731238,46.7617059 19.7074651,47.89769 19.7074651,49.2935003 L19.7074651,50.7046915 Z M14.6493018,69.1875054 L14.6493018,55.8089298 L19.7074651,55.8089298 L19.7074651,69.1875054 L14.6493018,69.1875054 Z M56.5573681,43.1746765 L35.9048929,57.0915812 L35.9048929,51.2616973 C35.9048929,50.4855146 35.2759838,49.85545 34.4999999,49.85545 C33.7240162,49.85545 33.095107,50.4855146 33.095107,51.2616973 L33.095107,57.0915812 L22.517251,49.9636651 L22.517251,49.2929511 C22.517251,46.8331168 20.847843,44.7572542 18.5835508,44.1381757 L18.5835508,32.6865984 L33.1252903,40.8521712 C33.5489533,41.0900247 34.0242023,41.2092262 34.4999999,41.2092262 C34.9752489,41.2092262 35.450498,41.0900247 35.8747097,40.8521712 L56.5573681,29.2385459 L56.5573681,43.1746765 Z M57.4206089,25.5284699 C57.3234738,25.5691194 57.2329239,25.6213042 57.1484109,25.681729 L34.4999999,38.3989289 L20.10314,30.315204 L30.8620955,24.2573543 C31.8411303,24.9610272 33.1044365,25.3861974 34.4835364,25.3861974 C37.5819838,25.3861974 40.1031082,23.2411208 40.1031082,20.6049565 C40.1031082,17.9682428 37.5819838,15.8231662 34.4835364,15.8231662 C31.3845401,15.8231662 28.8634159,17.9682428 28.8634159,20.6049565 C28.8634159,21.0954951 28.9512217,21.5690048 29.1131135,22.0150489 L17.2335364,28.7040621 L11.8515891,25.681729 C11.7670759,25.6213042 11.6759775,25.5696686 11.5788423,25.5290192 L2.80978589,20.6049565 L34.4994512,2.81043469 L66.1896654,20.6044071 L57.4206089,25.5284699 Z M31.6732018,20.6049565 C31.6732018,19.5376367 32.9601056,18.6362102 34.4835364,18.6362102 C36.0064184,18.6362102 37.2933223,19.5376367 37.2933223,20.6049565 C37.2933223,21.6722761 36.0064184,22.5737027 34.4835364,22.5737027 C32.9601056,22.5737027 31.6732018,21.6722761 31.6732018,20.6049565 Z" id="Shape"></path>
                            <path d="M34.5,44 C34.1050782,44 33.7183595,44.1588822 33.4394532,44.4379519 C33.1605469,44.7187806 33,45.1045534 33,45.4991206 C33,45.8954464 33.1605469,46.2812194 33.4394532,46.5620481 C33.7183595,46.8411178 34.1050782,47 34.5,47 C34.894336,47 35.2816407,46.8411178 35.560547,46.5620481 C35.8394532,46.2812194 36,45.8954464 36,45.4991206 C36,45.1045534 35.8394532,44.7176079 35.560547,44.4379519 C35.2816407,44.1588822 34.894336,44 34.5,44 Z" id="Path"></path>
                        </g>
                    </g>
                </g>
            </g>
        </g>
    </g>
</svg>