<?xml version="1.0" encoding="UTF-8"?>
<svg width="72px" height="72px" viewBox="0 0 72 72" version="1.1" xmlns="http://www.w3.org/2000/svg" xmlns:xlink="http://www.w3.org/1999/xlink">
    <!-- Generator: Sketch 64 (93537) - https://sketch.com -->
    <title>financial_tips</title>
    <desc>Created with Sketch.</desc>
    <g id="Page-1" stroke="none" stroke-width="1" fill="none" fill-rule="evenodd">
        <g id="bp-ui-ACT,-SAT,-CAG-overview" transform="translate(-732.000000, -4868.000000)" fill="#2D8EF6" fill-rule="nonzero">
            <g id="Benefits" transform="translate(162.000000, 4600.000000)">
                <g id="2" transform="translate(570.000000, 268.000000)">
                    <g id="cover">
                        <g id="financial_tips">
                            <path d="M12.56035,63.4395 C12.2815,63.16035 11.8945,63 11.5,63 C11.1055,63 10.7185,63.16035 10.4395,63.4395 C10.1605,63.71865 10,64.1055 10,64.5 C10,64.8945 10.16035,65.2815 10.4395,65.56035 C10.7185,65.83935 11.1055,66 11.5,66 C11.8945,66 12.2815,65.8395 12.56035,65.56035 C12.83935,65.2815 13,64.8945 13,64.5 C13,64.1055 12.8395,63.7185 12.56035,63.4395 Z" id="Path"></path>
                            <path d="M66.5593483,25.4395 C66.2804738,25.16035 65.8951472,25 65.4993253,25 C65.1050027,25 64.7181768,25.16035 64.4393023,25.4395 C64.1605777,25.7185 64,26.1055 64,26.5 C64,26.8945 64.1604278,27.2815 64.4393023,27.56035 C64.7181768,27.83935 65.1050027,28 65.4993253,28 C65.8951472,28 66.2804738,27.8395 66.5593483,27.56035 C66.8395722,27.2815 67,26.8945 67,26.5 C67,26.1055 66.8395722,25.7185 66.5593483,25.4395 Z" id="Path"></path>
                            <path d="M71.5880989,0.411889821 C71.3242797,0.148218461 70.9665206,0 70.593433,0 L35.9996484,0.00182812143 C35.2230975,0.00182812143 34.5935034,0.631545642 34.5935034,1.40807537 L34.5935034,5.42952065 L21.2634618,9.00124804 C20.5132083,9.2023414 20.0679783,9.97338677 20.2690771,10.7234791 L27.1777369,36.5058974 L21.2011633,42.4823077 C20.4405034,41.3716536 19.1633147,40.6412487 17.7186374,40.6412487 L4.21871649,40.6412487 C1.89243868,40.6412487 0,42.5337763 0,44.8598499 L0,67.7811176 C0,70.1073318 1.89243868,72 4.21871649,72 L17.718778,72 C19.6950313,72 21.3575423,70.6335495 21.8131789,68.7964281 L23.4852526,70.2545659 C24.7760822,71.3801262 26.4298742,72 28.1425896,72 L70.5937143,72 C71.3702653,72 72,71.3702825 72,70.5937527 L72,1.40624725 C72,1.03331048 71.8517775,0.675561181 71.5880989,0.411889821 Z M19.1249231,67.7812582 C19.1249231,68.5565224 18.4939227,69.1875055 17.7184968,69.1875055 L4.21857586,69.1875055 C3.44314992,69.1875055 2.81229016,68.556663 2.81229016,67.7812582 L2.81229016,44.8599905 C2.81229016,44.0845858 3.44314992,43.4537433 4.21857586,43.4537433 L9.56232092,43.4537433 L9.56232092,59.6530085 C9.56232092,60.4295382 10.1920557,61.0592557 10.9686066,61.0592557 C11.7451576,61.0592557 12.3748923,60.4295382 12.3748923,59.6530085 L12.3748923,43.4537433 L17.7186374,43.4537433 C18.4940633,43.4537433 19.1249231,44.0845858 19.1249231,44.8599905 L19.1249231,67.7812582 L19.1249231,67.7812582 Z M23.3496866,11.3538997 L34.5935034,8.34115558 L34.5935034,13.5520048 L33.6510107,13.8045668 C33.2905796,13.901176 32.9835875,14.1367224 32.797114,14.4597374 C32.6106405,14.7827524 32.5600142,15.1665173 32.656626,15.5267978 C33.1970616,17.543497 31.995953,19.6237585 29.9791987,20.1641794 C29.6184864,20.2609292 29.3109317,20.4968975 29.1245989,20.8206156 C28.938266,21.1441931 28.8880616,21.5286611 28.9855172,21.8892229 L34.4670783,42.1867145 L31.6446629,42.1867145 L30.1901415,36.4964756 C30.1438747,36.3153509 30.0628727,36.1484294 29.9544481,36.0033047 L23.3496866,11.3538997 Z M34.5935034,20.0009141 L34.5935034,31.866969 L32.0285789,22.3698782 C33.1000279,21.8166605 33.9768471,20.9889434 34.5935034,20.0009141 Z M54.7967663,69.1873649 L28.1423083,69.1873649 L28.1423083,69.1873649 C27.1093914,69.1873649 26.111913,68.8135843 25.3333932,68.1347888 L21.9373539,65.1730915 L21.9373539,45.7237076 L28.076916,39.5843133 L29.190413,43.9408673 C29.3496046,44.563413 29.9102907,44.9987871 30.5528226,44.9987871 L58.2009621,45.0004746 C59.2866147,45.0004746 60.1697621,45.8835979 60.1697621,46.9692208 C60.1697621,48.0548436 59.2866147,48.9379669 58.2009621,48.9379669 L44.0340399,48.9379669 C43.257489,48.9379669 42.6277542,49.5676844 42.6277542,50.3442142 C42.6277542,51.1207439 43.257489,51.7504614 44.0340399,51.7504614 L62.6026364,51.7504614 C63.688289,51.7504614 64.5714364,52.6335847 64.5714364,53.7192076 C64.5714364,54.8048305 63.688289,55.6879537 62.6026364,55.6879537 L44.0340399,55.6879537 C43.257489,55.6879537 42.6277542,56.3176713 42.6277542,57.094201 C42.6277542,57.8707307 43.257489,58.5004482 44.0340399,58.5004482 L59.5936069,58.5004482 C60.6792594,58.5004482 61.5624069,59.3835715 61.5624069,60.4691944 C61.5624069,61.5548173 60.6792594,62.4379406 59.5936069,62.4379406 L44.0340399,62.4379406 C43.257489,62.4379406 42.6277542,63.0676581 42.6277542,63.8441878 C42.6277542,64.6207175 43.257489,65.2504351 44.0340399,65.2504351 L54.7967663,65.2504351 C55.8824189,65.2504351 56.7655663,66.1335583 56.7655663,67.2191812 C56.7654257,68.3042416 55.8822783,69.1873649 54.7967663,69.1873649 Z M69.1874286,69.1873649 L69.1874286,69.1873649 L59.1521738,69.1873649 C59.4248526,68.5864754 59.5779971,67.9203361 59.5779971,67.2186187 C59.5779971,66.5169013 59.4248526,65.850762 59.1521738,65.2498726 L59.5936069,65.2498726 C62.2299707,65.2498726 64.3748376,63.1050642 64.3748376,60.4687725 C64.3748376,59.6998365 64.1913174,58.9732286 63.8673091,58.3288861 C65.891798,57.7728559 67.3837265,55.9173127 67.3837265,53.7189263 C67.3837265,52.6524284 67.0324364,51.6665085 66.4399682,50.8705725 L66.4399682,33.0477948 C66.4399682,32.2712651 65.8102335,31.6415476 65.0336825,31.6415476 C64.2571315,31.6415476 63.6273968,32.2712651 63.6273968,33.0477948 L63.6273968,49.0497636 C63.2969196,48.9773418 62.9542078,48.9379669 62.6023551,48.9379669 L62.556229,48.9379669 C62.8289078,48.3370775 62.9820523,47.6709381 62.9820523,46.9692208 C62.9820523,44.3327884 60.8371853,42.1881207 58.2008215,42.1881207 L55.9402172,42.1881207 C58.3406063,41.1587477 60.0264616,38.7729086 60.0264616,35.9999297 C60.0264616,32.2889838 57.0074475,29.2699116 53.2964001,29.2699116 C49.5854934,29.2699116 46.5663386,32.2889838 46.5663386,35.9999297 C46.5663386,38.7729086 48.2523345,41.1587477 50.652583,42.1881207 L42.9654034,42.1881207 L42.9654034,15.4494542 C45.4775922,14.9020021 47.4598925,12.9198966 48.0072189,10.4076359 L58.5854406,10.4076359 C59.132767,12.9198966 61.1150674,14.9020021 63.6272562,15.4494542 L63.6272562,19.8214769 C63.6272562,20.5980066 64.2569909,21.2277242 65.0335419,21.2277242 C65.8100928,21.2277242 66.4398276,20.5980066 66.4398276,19.8214769 L66.4398276,14.1939567 C66.4398276,13.4174269 65.8100928,12.7877094 65.0335419,12.7877094 C62.9456295,12.7877094 61.2472582,11.0891033 61.2472582,9.00138867 C61.2472582,8.22485894 60.6175235,7.59514142 59.8409725,7.59514142 L46.7518277,7.59514142 C45.9752767,7.59514142 45.345542,8.22485894 45.345542,9.00138867 C45.345542,11.089244 43.6470301,12.7877094 41.5592583,12.7877094 C40.7827074,12.7877094 40.1529726,13.4174269 40.1529726,14.1939567 L40.1529726,42.1879801 L37.4062154,42.1879801 L37.4062154,2.81404138 L69.1874286,2.81249451 L69.1874286,69.1873649 Z M53.2966814,39.9174533 C51.1364859,39.9174533 49.3791913,38.1600661 49.3791913,36.0000703 C49.3791913,33.8400745 51.1366265,32.0825467 53.2966814,32.0825467 C55.4567362,32.0825467 57.2141715,33.8399339 57.2141715,35.9999297 C57.2141715,38.1599255 55.4568768,39.9174533 53.2966814,39.9174533 Z" id="Shape"></path>
                        </g>
                    </g>
                </g>
            </g>
        </g>
    </g>
</svg>