<?xml version="1.0" encoding="UTF-8"?>
<svg width="110px" height="110px" viewBox="0 0 110 110" version="1.1" xmlns="http://www.w3.org/2000/svg" xmlns:xlink="http://www.w3.org/1999/xlink">
    <!-- Generator: Sketch 64 (93537) - https://sketch.com -->
    <title>cover</title>
    <desc>Created with Sketch.</desc>
    <g id="Page-1" stroke="none" stroke-width="1" fill="none" fill-rule="evenodd">
        <g id="bp-ui-ACT,-SAT,-CAG-overview" transform="translate(-807.000000, -8289.000000)">
            <g id="Nums" transform="translate(0.000000, 8017.000000)">
                <g id="nums" transform="translate(162.000000, 272.000000)">
                    <g id="1" transform="translate(568.000000, 0.000000)">
                        <g id="cover" transform="translate(77.000000, 0.000000)">
                            <circle id="Oval" fill="#DE3C7D" cx="55" cy="55" r="55"></circle>
                            <g id="mortarboard" transform="translate(35.000000, 35.000000)" fill="#FFFFFF" fill-rule="nonzero">
                                <path d="M4.80263158,20.1315789 C5.71368679,20.1315789 6.44736842,19.3874517 6.44736842,18.4634255 L6.44736842,7.32604817 C6.44736842,6.402022 5.71368679,5.65789474 4.80263158,5.65789474 C3.89157637,5.65789474 3.15789474,6.402022 3.15789474,7.32604817 L3.15789474,18.4634255 C3.15789474,19.3874517 3.89157637,20.1315789 4.80263158,20.1315789 Z" id="Path"></path>
                                <path d="M3.45306122,36.6697276 C4.26122449,31.24171 8.95510204,27.0625446 14.6040816,27.0625446 L25.3795918,27.0625446 C31.0285714,27.0625446 35.7306122,31.24171 36.5387755,36.6697276 L3.45306122,36.6697276 L3.45306122,36.6697276 Z M12.9795918,14.6719722 L27.0204082,14.6719722 C27.1836735,15.1535558 27.2734694,15.6514641 27.2734694,16.1493725 C27.2734694,19.2755841 24.0081633,21.822263 20,21.822263 C15.9836735,21.822263 12.7265306,19.2755841 12.7265306,16.1493725 C12.7265306,15.6514641 12.8081633,15.1535558 12.9795918,14.6719722 L12.9795918,14.6719722 Z M13.8040816,8.22365065 L19.3877551,10.4030201 C19.8938776,10.5989185 20.2040816,10.5989185 20.6040816,10.4030201 L26.1877551,8.22365065 L26.1877551,11.3416998 L13.8040816,11.3416998 L13.8040816,8.22365065 L13.8040816,8.22365065 Z M20,3.3996531 L25.4938776,4.91786552 L20,7.06458525 L14.5061224,4.91786552 L20,3.3996531 Z M40,38.0818284 C39.8693878,30.2540557 33.5510204,23.9118457 25.7306122,23.7241098 C28.6612245,22.1161106 30.6122449,19.3245587 30.6122449,16.1493725 C30.6122449,14.761759 30.2367347,13.3986328 29.5265306,12.1742679 L29.5265306,6.91766146 L31.3795918,6.19120498 C32.0489796,5.93000714 32.4734694,5.26885012 32.4408163,4.55055607 C32.4,3.83226201 31.9102041,3.22007958 31.2163265,3.03234364 L20.4408163,0.061218243 C20.1469388,-0.020406081 19.844898,-0.020406081 19.5510204,0.061218243 L8.78367347,3.04050607 C8.08979592,3.22824202 7.6,3.84042445 7.55918367,4.5587185 C7.52653061,5.27701255 7.95102041,5.93816957 8.62040816,6.19936741 L10.4734694,6.9258239 L10.4734694,12.1824304 C9.76326531,13.4149577 9.3877551,14.7699214 9.3877551,16.1575349 C9.3877551,19.3327212 11.3306122,22.1324355 14.2693878,23.7322722 C6.36734694,23.9118457 -3.63797881e-12,30.3928171 -3.63797881e-12,38.3348638 C-3.63797881e-12,39.2572187 0.742857143,40 1.66530612,40 L38.3346939,40 C38.3428571,40 38.3428571,40 38.3510204,40 C39.2734694,40 40,39.3796551 40,38.0818284 L40,38.0818284 Z" id="Shape"></path>
                            </g>
                        </g>
                    </g>
                </g>
            </g>
        </g>
    </g>
</svg>