<?xml version="1.0" encoding="UTF-8"?>
<svg width="110px" height="110px" viewBox="0 0 110 110" version="1.1" xmlns="http://www.w3.org/2000/svg" xmlns:xlink="http://www.w3.org/1999/xlink">
    <!-- Generator: Sketch 64 (93537) - https://sketch.com -->
    <title>cover</title>
    <desc>Created with Sketch.</desc>
    <g id="Page-1" stroke="none" stroke-width="1" fill="none" fill-rule="evenodd">
        <g id="bp-ui-ACT,-SAT,-CAG-overview" transform="translate(-239.000000, -8289.000000)">
            <g id="Nums" transform="translate(0.000000, 8017.000000)">
                <g id="nums" transform="translate(162.000000, 272.000000)">
                    <g id="1">
                        <g id="cover" transform="translate(77.000000, 0.000000)">
                            <circle id="Oval" fill="#DE3C7D" cx="55" cy="55" r="55"></circle>
                            <g id="business" transform="translate(35.000000, 35.000000)" fill="#FFFFFF" fill-rule="nonzero">
                                <path d="M20,0 C8.93877551,0 0,8.93877551 0,20 C0,31.0612245 8.93877551,40 20,40 C31.0612245,40 40,31.0612245 40,20 C40,8.93877551 31.0612245,0 20,0 Z M20,36.677551 C10.8081633,36.677551 3.32244898,29.1918367 3.32244898,20 C3.32244898,10.8081633 10.8081633,3.32244898 20,3.32244898 C29.1918367,3.32244898 36.677551,10.8081633 36.677551,20 C36.677551,29.1918367 29.1918367,36.677551 20,36.677551 Z" id="Shape"></path>
                                <path d="M26.0653061,24.2285714 C26.0653061,20.8816327 23.3387755,18.1632653 20,18.1632653 C18.677551,18.1632653 17.6081633,17.0938776 17.6081633,15.7714286 C17.6081633,14.4489796 18.677551,13.3795918 20,13.3795918 C20.6693878,13.3795918 21.2897959,13.6489796 21.7469388,14.1306122 C22.4408163,14.8734694 23.6081633,14.9061224 24.3428571,14.2122449 C25.0857143,13.5183673 25.1183673,12.3510204 24.4244898,11.6163265 C23.7142857,10.8571429 22.8163265,10.3020408 21.844898,9.99183673 L21.844898,8.92244898 C21.844898,7.91020408 21.0204082,7.08571429 20.0081633,7.08571429 C18.9959184,7.08571429 18.1714286,7.91020408 18.1714286,8.92244898 L18.1714286,9.99183673 C15.722449,10.7755102 13.9428571,13.0693878 13.9428571,15.7795918 C13.9428571,19.1265306 16.6693878,21.844898 20.0081633,21.844898 C21.3306122,21.844898 22.4,22.9142857 22.4,24.2367347 C22.4,25.5591837 21.3306122,26.6285714 20.0081633,26.6285714 C19.3387755,26.6285714 18.7183673,26.3591837 18.2612245,25.877551 C17.5673469,25.1346939 16.4,25.1020408 15.6653061,25.7959184 C14.922449,26.4897959 14.8897959,27.6571429 15.5836735,28.3918367 C16.2938776,29.1510204 17.1918367,29.7061224 18.1632653,30.0163265 L18.1632653,31.0857143 C18.1632653,32.0979592 18.9877551,32.922449 20,32.922449 C21.0122449,32.922449 21.8367347,32.0979592 21.8367347,31.0857143 L21.8367347,30.0163265 C24.2857143,29.2326531 26.0653061,26.9387755 26.0653061,24.2285714 Z" id="Path"></path>
                            </g>
                        </g>
                    </g>
                </g>
            </g>
        </g>
    </g>
</svg>