<?xml version="1.0" encoding="UTF-8"?>
<svg width="110px" height="110px" viewBox="0 0 110 110" version="1.1" xmlns="http://www.w3.org/2000/svg" xmlns:xlink="http://www.w3.org/1999/xlink">
    <!-- Generator: Sketch 64 (93537) - https://sketch.com -->
    <title>cover</title>
    <desc>Created with Sketch.</desc>
    <g id="Page-1" stroke="none" stroke-width="1" fill="none" fill-rule="evenodd">
        <g id="bp-ui-ACT,-SAT,-CAG-overview" transform="translate(-1091.000000, -8289.000000)">
            <g id="Nums" transform="translate(0.000000, 8017.000000)">
                <g id="nums" transform="translate(162.000000, 272.000000)">
                    <g id="1" transform="translate(852.000000, 0.000000)">
                        <g id="cover" transform="translate(77.000000, 0.000000)">
                            <circle id="Oval" fill="#DE3C7D" cx="55" cy="55" r="55"></circle>
                            <g id="university" transform="translate(35.000000, 35.000000)" fill="#FFFFFF" fill-rule="nonzero">
                                <path d="M36.5947047,28.5213849 L26.1588595,28.5213849 L26.1588595,25.98778 C28.5539715,24.1303462 30.0936864,21.2219959 30.0936864,17.9551935 C30.0936864,12.3503055 25.5560081,7.80448065 19.9674134,7.80448065 C14.3788187,7.80448065 9.84114053,12.3503055 9.84114053,17.9551935 C9.84114053,21.1568228 11.3238289,24.0162933 13.6374745,25.8818737 L13.6374745,28.5213849 L3.32382892,28.5213849 L3.32382892,3.33197556 L36.586558,3.33197556 L36.586558,28.5213849 L36.5947047,28.5213849 L36.5947047,28.5213849 Z M19.9755601,34.1751527 L16.9775967,35.5274949 L16.9775967,27.6659878 C17.9226069,27.9592668 18.9246436,28.114053 19.9674134,28.114053 C20.9613035,28.114053 21.9144603,27.9674134 22.8187373,27.706721 L22.8187373,35.4867617 L19.9755601,34.1751527 Z M19.9592668,24.8553971 C16.1547862,24.8553971 13.0753564,21.7678208 13.0753564,17.9551935 C13.0753564,14.1425662 16.1547862,11.0549898 19.9592668,11.0549898 C23.7637475,11.0549898 26.8431772,14.1425662 26.8431772,17.9551935 C26.8431772,21.7678208 23.7637475,24.8553971 19.9592668,24.8553971 Z M38.2566191,0 L1.66191446,0 C0.741344196,0 3.55271368e-14,0.749490835 3.55271368e-14,1.6700611 L3.55271368e-14,30.191446 C3.55271368e-14,31.1120163 0.741344196,31.8615071 1.66191446,31.8615071 L13.6293279,31.8615071 L13.6293279,38.4847251 C13.6293279,39.5274949 14.7046843,40.2281059 15.6578411,39.796334 L19.9674134,37.8574338 L24.1303462,39.7718941 C25.0835031,40.2118126 26.1670061,39.5112016 26.1670061,38.4602851 L26.1670061,31.8615071 L38.2647658,31.8615071 C39.185336,31.8615071 39.9266802,31.1120163 39.9266802,30.191446 L39.9266802,1.6700611 C39.9185336,0.749490835 39.1771894,0 38.2566191,0 Z" id="Shape"></path>
                            </g>
                        </g>
                    </g>
                </g>
            </g>
        </g>
    </g>
</svg>