<?xml version="1.0" encoding="UTF-8"?>
<svg width="72px" height="72px" viewBox="0 0 72 72" version="1.1" xmlns="http://www.w3.org/2000/svg" xmlns:xlink="http://www.w3.org/1999/xlink">
    <!-- Generator: Sketch 64 (93537) - https://sketch.com -->
    <title>recommendation_letter</title>
    <desc>Created with Sketch.</desc>
    <g id="Page-1" stroke="none" stroke-width="1" fill="none" fill-rule="evenodd">
        <g id="bp-ui-ACT,-SAT,-CAG-overview" transform="translate(-162.000000, -5352.000000)" fill="#5AC8F7" fill-rule="nonzero">
            <g id="Benefits" transform="translate(162.000000, 4600.000000)">
                <g id="2" transform="translate(0.000000, 752.000000)">
                    <g id="cover">
                        <g id="recommendation_letter">
                            <path d="M58.5849057,20.9179688 C59.3663208,20.9179688 60,20.2883906 60,19.5117188 L60,4.21875 C60,1.89253125 58.095566,0 55.754717,0 L4.24528302,0 C1.90443396,0 0,1.89253125 0,4.21875 L0,67.78125 C0,70.1074688 1.90443396,72 4.24528302,72 L55.754717,72 C58.095566,72 60,70.1074687 60,67.78125 L60,57.421125 C60,56.6444531 59.3663208,56.014875 58.5849057,56.014875 C57.8034906,56.014875 57.1698113,56.6444531 57.1698113,57.421125 L57.1698113,67.78125 C57.1698113,68.5566563 56.535,69.1875 55.754717,69.1875 L4.24528302,69.1875 C3.465,69.1875 2.83018868,68.5566563 2.83018868,67.78125 L2.83018868,4.21875 C2.83018868,3.44334375 3.465,2.8125 4.24528302,2.8125 L55.754717,2.8125 C56.535,2.8125 57.1698113,3.44334375 57.1698113,4.21875 L57.1698113,19.5117188 C57.1698113,20.2883906 57.8034906,20.9179688 58.5849057,20.9179688 Z" id="Path"></path>
                            <path d="M30,8 C22.8317717,8 17,13.8318034 17,21.0000707 C17,24.7187974 18.5698913,28.0773374 21.0811522,30.4490024 C21.1282065,30.4993071 21.1782283,30.5469269 21.232913,30.5903076 C23.5462065,32.7069169 26.6248043,34 29.9998587,34 C33.374913,34 36.4535109,32.7067756 38.7668043,30.5903076 C38.8214891,30.5469269 38.8715109,30.4991658 38.9185652,30.4490024 C41.4301087,28.0773374 43,24.7187974 43,21.0000707 C43,13.8318034 37.1682283,8 30,8 Z M30,31.174039 C27.6926413,31.174039 25.5631848,30.4008174 23.8545326,29.1013756 C25.0964565,26.8991353 27.4139891,25.5218344 30,25.5218344 C32.5860109,25.5218344 34.9035435,26.8991353 36.1454674,29.1013756 C34.4366739,30.4008174 32.3073587,31.174039 30,31.174039 Z M27.7391304,20.4348502 L27.7391304,19.5163669 C27.7391304,18.2697732 28.753413,17.2554851 30,17.2554851 C31.246587,17.2554851 32.2608696,18.2697732 32.2608696,19.5163669 L32.2608696,20.4348502 C32.2608696,21.6814439 31.246587,22.695732 30,22.695732 C28.753413,22.695732 27.7391304,21.6814439 27.7391304,20.4348502 Z M38.1871739,27.0313969 C37.1450543,25.4858016 35.7007826,24.2837189 34.0239239,23.5415845 C34.6894674,22.6814602 35.0869565,21.6040087 35.0869565,20.4348502 L35.0869565,19.5163669 C35.0869565,16.7113191 32.8050326,14.4293828 30,14.4293828 C27.1949674,14.4293828 24.9130435,16.7113191 24.9130435,19.5163669 L24.9130435,20.4348502 C24.9130435,21.6040087 25.3105326,22.6814602 25.9760761,23.5415845 C24.2992174,24.2837189 22.8549457,25.4858016 21.8128261,27.0313969 C20.56525,25.3423769 19.826087,23.2562894 19.826087,21.0000707 C19.826087,15.3901163 24.3900761,10.8261023 30,10.8261023 C35.6099239,10.8261023 40.173913,15.3901163 40.173913,21.0000707 C40.173913,23.2562894 39.43475,25.3423769 38.1871739,27.0313969 Z" id="Shape"></path>
                            <path d="M37.6486486,62 L30.3513514,62 C29.6051351,62 29,62.67155 29,63.5 C29,64.32845 29.6051351,65 30.3513514,65 L37.6486486,65 C38.3948649,65 39,64.32845 39,63.5 C39,62.67155 38.3948649,62 37.6486486,62 Z" id="Path"></path>
                            <path d="M37.5802469,54 L17.4197531,54 C16.6357654,54 16,54.67155 16,55.5 C16,56.32845 16.6357654,57 17.4197531,57 L37.5802469,57 C38.3642346,57 39,56.32845 39,55.5 C39,54.67155 38.3642346,54 37.5802469,54 Z" id="Path"></path>
                            <path d="M37.5802469,46 L17.4197531,46 C16.6357654,46 16,46.67155 16,47.5 C16,48.32845 16.6357654,49 17.4197531,49 L37.5802469,49 C38.3642346,49 39,48.32845 39,47.5 C39,46.67155 38.3642346,46 37.5802469,46 Z" id="Path"></path>
                            <path d="M12.5605697,38.4395 C12.2818591,38.1605 11.8950525,38 11.4992504,38 C11.1047976,38 10.717991,38.1605 10.4392804,38.4395 C10.1604198,38.7185 10,39.1055 10,39.5 C10,39.8945 10.1602699,40.2815 10.4392804,40.5605 C10.7196402,40.8395 11.1047976,41 11.4992504,41 C11.8950525,41 12.2803598,40.8395 12.5605697,40.5605 C12.8394303,40.2815 13,39.8945 13,39.5 C13,39.1055 12.8395802,38.7185 12.5605697,38.4395 Z" id="Path"></path>
                            <path d="M12.5605697,46.4395 C12.2803598,46.1605 11.8950525,46 11.4992504,46 C11.1047976,46 10.7196402,46.1605 10.4392804,46.4395 C10.1604198,46.7185 10,47.1055 10,47.5 C10,47.8945 10.1602699,48.2815 10.4392804,48.5605 C10.7196402,48.8395 11.1047976,49 11.4992504,49 C11.8950525,49 12.2803598,48.8395 12.5605697,48.5605 C12.8394303,48.2815 13,47.8945 13,47.5 C13,47.1055 12.8395802,46.7185 12.5605697,46.4395 Z" id="Path"></path>
                            <path d="M12.5605697,54.4395 C12.2803598,54.1605 11.8950525,54 11.4992504,54 C11.1047976,54 10.7196402,54.1605 10.4392804,54.4395 C10.1604198,54.7185 10,55.1055 10,55.5 C10,55.8945 10.1602699,56.2815 10.4392804,56.5605 C10.717991,56.8395 11.1047976,57 11.4992504,57 C11.8950525,57 12.2818591,56.8395 12.5605697,56.5605 C12.8394303,56.2815 13,55.8945 13,55.5 C13,55.1055 12.8395802,54.7185 12.5605697,54.4395 Z" id="Path"></path>
                            <path d="M37.5802469,38 L17.4197531,38 C16.6357654,38 16,38.67155 16,39.5 C16,40.32845 16.6357654,41 17.4197531,41 L37.5802469,41 C38.3642346,41 39,40.32845 39,39.5 C39,38.67155 38.3642346,38 37.5802469,38 Z" id="Path"></path>
                            <path d="M69.0628545,18.7959374 C67.7035046,18.0050506 66.1198585,17.7949558 64.6033753,18.2042881 C63.0871719,18.6137613 61.8197513,19.5937334 61.0350643,20.9635793 L43.4269007,51.6970551 C43.3304939,51.8655539 43.2694875,52.0523831 43.2480793,52.2456985 L42.0086433,63.4334547 C41.9470772,63.9901352 42.2182476,64.5308824 42.699582,64.8110557 C42.9168821,64.9373946 43.1582489,65 43.399056,65 C43.6917745,65 43.9833736,64.9076429 44.2289381,64.7253258 L53.2237347,58.0496713 C53.3791889,57.9343307 53.5093171,57.7878284 53.6057239,57.6193296 L71.2137476,26.8858538 C72.8340535,24.057894 71.8691459,20.4287542 69.0628545,18.7959374 Z M45.1445928,60.5433125 L45.7918756,54.7012688 L49.841521,57.0574319 L45.1445928,60.5433125 Z M51.8818751,54.9880693 L46.5501172,51.8859994 L60.6802201,27.2231334 L66.011978,30.3252033 L51.8818751,54.9880693 Z M68.7902849,25.475681 L67.411066,27.8830282 L62.0793081,24.7809583 L63.458527,22.373611 C63.8696202,21.6560459 64.5334139,21.1427943 65.3276156,20.9283285 C66.1220972,20.7137216 66.9515595,20.8239861 67.6634867,21.2382535 C68.3755537,21.6525208 68.8848727,22.3214399 69.0976953,23.1217739 C69.3105178,23.922108 69.201378,24.7581158 68.7902849,25.475681 Z" id="Shape"></path>
                        </g>
                    </g>
                </g>
            </g>
        </g>
    </g>
</svg>