<svg width="46" height="56" viewBox="0 0 46 56" fill="none" xmlns="http://www.w3.org/2000/svg">
<g id="instruction_resumes">
<path id="Path" d="M39.2778 14.7778C38.6338 14.7778 38.1111 15.3005 38.1111 15.9445C38.1111 16.5885 38.6338 17.1112 39.2778 17.1112C39.9218 17.1112 40.4444 16.5885 40.4444 15.9445C40.4444 15.3005 39.9218 14.7778 39.2778 14.7778Z" fill="#2D8EF6"/>
<path id="Path_2" d="M12.8333 30.3335C12.1893 30.3335 11.6667 30.8562 11.6667 31.5002C11.6667 32.1442 12.1893 32.6668 12.8333 32.6668C13.4773 32.6668 14 32.1442 14 31.5002C14 30.8562 13.4773 30.3335 12.8333 30.3335Z" fill="#2D8EF6"/>
<path id="Path_3" d="M5.83332 49C5.18932 49 4.66666 49.5227 4.66666 50.1667C4.66666 50.8107 5.18932 51.3333 5.83332 51.3333C6.47732 51.3333 6.99999 50.8107 6.99999 50.1667C6.99999 49.5227 6.47732 49 5.83332 49Z" fill="#2D8EF6"/>
<path id="Shape" fill-rule="evenodd" clip-rule="evenodd" d="M35.1044 24.9323L37.5639 26.3546C38.0872 26.6573 38.2665 27.3274 37.9643 27.8516L35.7755 31.648C35.6303 31.8998 35.3913 32.0835 35.1109 32.1586C34.8305 32.2339 34.5319 32.1946 34.2805 32.0492L31.8113 30.6213C31.1809 31.1108 30.4841 31.5094 29.7277 31.8131V34.6817C29.7277 35.287 29.2377 35.7776 28.6333 35.7776H24.2556C23.6511 35.7776 23.1612 35.287 23.1612 34.6817V31.8117C22.4102 31.5079 21.7073 31.1058 21.0797 30.6208L18.6083 32.0493C18.0849 32.3519 17.4157 32.1723 17.1134 31.648L14.9246 27.8516C14.6224 27.3274 14.8017 26.6573 15.3251 26.3546L17.7846 24.9323C17.7206 24.5148 17.6892 24.1143 17.6892 23.7221C17.6892 23.3298 17.7206 22.9294 17.7845 22.5119L15.325 21.0897C14.8017 20.787 14.6224 20.1168 14.9246 19.5926L17.1134 15.7962C17.4156 15.272 18.0847 15.0924 18.6083 15.395L21.0797 16.8234C21.7073 16.3385 22.4102 15.9364 23.1612 15.6326V12.7625C23.1612 12.1572 23.6511 11.6665 24.2556 11.6665H28.6333C29.2377 11.6665 29.7277 12.1572 29.7277 12.7625V15.631C30.4841 15.9348 31.1809 16.3334 31.8113 16.8228L34.2805 15.395C34.5318 15.2496 34.8304 15.2102 35.1109 15.2855C35.3913 15.3607 35.6303 15.5443 35.7755 15.7961L37.9643 19.5925C38.2665 20.1167 38.0872 20.7869 37.5639 21.0896L35.1044 22.5118C35.1684 22.9294 35.1998 23.3299 35.1998 23.7221C35.1998 24.1142 35.1683 24.5148 35.1044 24.9323ZM32.2362 28.3359L34.4272 29.6029L35.5217 27.7048L33.3327 26.4389C32.9136 26.1965 32.7032 25.7072 32.8155 25.2356C32.9472 24.683 33.0111 24.1878 33.0111 23.7221C33.0111 23.2563 32.947 22.7611 32.8154 22.2085C32.7031 21.7369 32.9134 21.2476 33.3326 21.0052L35.5216 19.7393L34.4271 17.8412L32.2361 19.1082C31.8174 19.3503 31.2894 19.2885 30.9377 18.9561C30.2067 18.2653 29.3253 17.7608 28.3176 17.457C27.8554 17.3176 27.5389 16.8912 27.5389 16.4076V13.8584H25.35V16.4076C25.35 16.8912 25.0336 17.3176 24.5712 17.457C23.5633 17.7609 22.6824 18.2652 21.9527 18.9555C21.6011 19.2884 21.0731 19.3504 20.654 19.1082L18.4618 17.841L17.3674 19.7393L19.5564 21.0052C19.9755 21.2476 20.1859 21.7369 20.0736 22.2085C19.9419 22.7611 19.878 23.2563 19.878 23.7221C19.878 24.1878 19.9419 24.683 20.0736 25.2356C20.1859 25.7072 19.9755 26.1965 19.5564 26.4389L17.3675 27.7048L18.462 29.6031L20.6541 28.3359C21.0731 28.0936 21.6013 28.1559 21.9528 28.4886C22.6825 29.179 23.5635 29.6832 24.5713 29.9871C25.0336 30.1265 25.3501 30.553 25.3501 31.0365V33.5857H27.539V31.0365C27.539 30.553 27.8554 30.1265 28.3178 29.9871C29.3254 29.6832 30.2068 29.1788 30.9378 28.4881C31.2894 28.1557 31.8174 28.0938 32.2362 28.3359Z" fill="#2D8EF6"/>
<path id="Shape_2" fill-rule="evenodd" clip-rule="evenodd" d="M21.7778 23.7221C21.7778 21.3633 23.6968 19.4443 26.0555 19.4443C28.4143 19.4443 30.3333 21.3633 30.3333 23.7221C30.3333 26.0809 28.4143 27.9999 26.0555 27.9999C23.6967 27.9999 21.7778 26.0809 21.7778 23.7221ZM23.9167 23.7221C23.9167 24.9015 24.8762 25.861 26.0555 25.861C27.2349 25.861 28.1944 24.9015 28.1944 23.7221C28.1944 22.5427 27.2349 21.5832 26.0555 21.5832C24.8762 21.5832 23.9167 22.5427 23.9167 23.7221Z" fill="#2D8EF6"/>
<path id="Path_4" d="M36.9911 12.109C33.953 9.31607 29.9815 7.77783 25.8081 7.77783C22.9437 7.77783 20.1259 8.51322 17.6593 9.90453C15.2673 11.2537 13.2491 13.1887 11.8229 15.5003C11.5128 16.0028 11.6786 16.6557 12.1931 16.9586C12.3688 17.062 12.5624 17.1112 12.7535 17.1112C13.1223 17.1112 13.482 16.9279 13.6863 16.597C16.2724 12.4052 20.804 9.90262 25.8081 9.90262C29.425 9.90262 32.867 11.2356 35.4999 13.6562C35.9374 14.0584 36.6259 14.038 37.0376 13.6108C37.4494 13.1836 37.4285 12.5111 36.9911 12.109Z" fill="#2D8EF6"/>
<path id="Path_5" d="M39.9179 30.486C39.4035 30.1834 38.735 30.345 38.4247 30.8476C35.8386 35.0394 31.3072 37.542 26.303 37.542C22.6861 37.542 19.2441 36.209 16.6112 33.7885C16.1737 33.3863 15.4852 33.4066 15.0735 33.8338C14.6617 34.261 14.6826 34.9335 15.12 35.3356C18.1581 38.1286 22.1295 39.6668 26.303 39.6668C29.1674 39.6668 31.9852 38.9314 34.4519 37.5401C36.8438 36.191 38.862 34.2559 40.2882 31.9443C40.5982 31.4418 40.4325 30.7889 39.9179 30.486Z" fill="#2D8EF6"/>
<path id="Shape_3" fill-rule="evenodd" clip-rule="evenodd" d="M45.4039 47.0652L45.4025 47.0661C44.2256 47.8521 43.5506 49.1151 43.5506 50.5312C43.5506 51.9474 44.2256 53.2104 45.4025 53.9964C45.8031 54.2638 45.9815 54.7621 45.8418 55.2233C45.7023 55.6846 45.2776 56 44.7962 56H5.46296C2.45068 56 0 53.5467 0 50.5312V5.46875C0 2.45328 2.45068 0 5.46296 0H44.7962C45.3997 0 45.8888 0.489672 45.8888 1.09375V46.1562L45.8886 46.1621L45.8884 46.1644L45.8883 46.168C45.888 46.1969 45.8865 46.2258 45.8839 46.2546L45.8835 46.2616L45.8828 46.271C45.8794 46.3032 45.8744 46.3353 45.8682 46.367C45.8665 46.3757 45.8644 46.3842 45.8623 46.3928L45.8594 46.4049C45.8551 46.4237 45.8504 46.4424 45.845 46.461C45.8408 46.4756 45.8362 46.4901 45.8314 46.5045C45.8258 46.5211 45.8197 46.5374 45.8133 46.5537L45.8114 46.5588C45.8066 46.5711 45.8018 46.5834 45.7965 46.5954C45.7881 46.6145 45.7788 46.6332 45.7693 46.6518C45.7644 46.6617 45.7599 46.6717 45.7547 46.6814C45.7396 46.7089 45.7232 46.7356 45.7058 46.7619C45.7002 46.7702 45.6942 46.7782 45.6884 46.7863C45.6752 46.8051 45.6616 46.8235 45.6471 46.8415C45.6403 46.8501 45.633 46.8584 45.6259 46.8667C45.6116 46.8835 45.5968 46.8999 45.5814 46.9159L45.5812 46.9161L45.581 46.9163C45.5733 46.9241 45.5657 46.932 45.5579 46.9396C45.5468 46.9505 45.5352 46.9611 45.5234 46.9715L45.5084 46.9847L45.5009 46.9912L45.5008 46.9913C45.4952 46.9962 45.4896 47.0012 45.4838 47.0059C45.465 47.021 45.4455 47.0354 45.4256 47.0494L45.416 47.0564C45.412 47.0594 45.4081 47.0624 45.4039 47.0652ZM5.46296 2.1875C3.65559 2.1875 2.18518 3.65947 2.18518 5.46875V46.1567C3.1259 45.4471 4.26493 45.0625 5.46296 45.0625H6.55555V2.1875H5.46296ZM5.46296 53.8125C3.65559 53.8125 2.18518 52.3405 2.18518 50.5312C2.18518 49.6554 2.52629 48.8316 3.14579 48.2115C3.76507 47.5915 4.58801 47.25 5.46296 47.25H42.2756C41.8731 47.918 41.5949 48.6587 41.4597 49.4375H9.83332C9.22988 49.4375 8.74073 49.9272 8.74073 50.5312C8.74073 51.1353 9.22988 51.625 9.83332 51.625H41.4598C41.5951 52.4038 41.8731 53.1445 42.2757 53.8125H5.46296ZM8.74073 45.0625H43.7036V2.1875H8.74073V45.0625Z" fill="#2D8EF6"/>
</g>
</svg>
