<svg width="60" height="56" viewBox="0 0 60 56" fill="none" xmlns="http://www.w3.org/2000/svg">
<g id="instruction">
<path id="Shape" fill-rule="evenodd" clip-rule="evenodd" d="M55.117 34.7489H57.9542C58.5931 34.7489 59.1111 35.2683 59.1111 35.9089V41.0057C59.1111 41.6463 58.5931 42.1658 57.9542 42.1658H57.2967V48.583H57.9542C58.5931 48.583 59.1111 49.1024 59.1111 49.743V54.8399C59.1111 55.4804 58.5931 55.9999 57.9542 55.9999H43.5283C42.8893 55.9999 42.3714 55.4804 42.3714 54.8399C42.3714 54.1993 42.8893 53.6799 43.5283 53.6799H56.7972V50.903H56.1397H11.3191C8.2797 50.903 5.80695 48.4229 5.80695 45.3744C5.80695 42.3258 8.2797 39.8457 11.3191 39.8457H56.1398H56.7973V37.0689H48.518H10.5932C6.02804 37.0689 2.31389 40.7946 2.31389 45.3744C2.31389 49.9541 6.02804 53.68 10.5932 53.68H31.2648C31.9038 53.68 32.4217 54.1994 32.4217 54.84C32.4217 55.4805 31.9038 56 31.2648 56H10.5932C4.75205 56 0 51.2334 0 45.3744C0 41.4289 2.15516 37.9792 5.34637 36.1463C5.33052 36.0697 5.32196 35.9903 5.32196 35.9089V30.812C5.32196 30.1714 5.83992 29.652 6.47891 29.652H7.1364V23.2348H6.47891C5.83992 23.2348 5.32196 22.7153 5.32196 22.0748V16.9779C5.32196 16.3373 5.83992 15.8179 6.47891 15.8179H28.3363V13.2351C28.3363 13.2309 28.3366 13.2267 28.3369 13.2226L28.3373 13.216L28.3375 13.2114H23.3464C20.1106 13.2114 17.4782 10.572 17.4782 7.3277V1.16002C17.4782 0.519455 17.9962 0 18.6352 0H24.782C26.7096 0 28.4228 0.936945 29.4933 2.38024C30.5637 0.936945 32.2769 0 34.2045 0H40.3513C40.9903 0 41.5083 0.519455 41.5083 1.16002V7.32747C41.5083 10.5718 38.8758 13.2112 35.6401 13.2112H30.649C30.6491 13.215 30.6494 13.2187 30.6496 13.2223C30.6499 13.2265 30.6502 13.2306 30.6502 13.2349V15.8176H48.5179C54.3589 15.8176 59.1111 20.5842 59.1111 26.4433C59.1111 29.8015 57.5496 32.8003 55.117 34.7489ZM39.1944 2.32003H34.2045C32.2447 2.32003 30.6502 3.91865 30.6502 5.8836V9.33279L33.3288 6.64596C33.7806 6.19275 34.5131 6.19263 34.965 6.64562C35.4169 7.0986 35.4171 7.83301 34.9654 8.28611L32.3682 10.8914H35.6401C37.6 10.8914 39.1944 9.29266 39.1944 7.3277V2.32003ZM19.7922 7.3277V2.32003H24.7822C26.7419 2.32003 28.3364 3.91865 28.3364 5.88372V9.33279L25.6579 6.64596C25.2061 6.19275 24.4736 6.19263 24.0216 6.64562C23.5697 7.09849 23.5696 7.83289 24.0212 8.28611L26.6185 10.8914H23.3465C21.3866 10.8913 19.7922 9.29266 19.7922 7.3277ZM47.792 23.2348H9.45029V29.652H47.792C49.5555 29.652 50.9903 28.2126 50.9903 26.4434C50.9903 24.6741 49.5555 23.2348 47.792 23.2348ZM10.5932 34.7489H7.63585V31.972H8.29335H47.792C50.8314 31.972 53.3042 29.4919 53.3042 26.4434C53.3042 23.3949 50.8314 20.9147 47.792 20.9147H8.29335H7.63585V18.1379H48.5179C53.0831 18.1379 56.7972 21.8637 56.7972 26.4435C56.7972 31.0232 53.0831 34.7491 48.5179 34.7491H10.5932V34.7489ZM11.3191 48.583H54.9828V42.1658H11.3191C9.55558 42.1658 8.12085 43.6051 8.12085 45.3744C8.12085 47.1436 9.55558 48.583 11.3191 48.583Z" fill="#FD6B3F"/>
<path id="Path" d="M37.7226 55.9998C37.2321 55.9998 36.7907 55.6831 36.6237 55.2245C36.4588 54.7718 36.6009 54.252 36.9669 53.9408C37.3497 53.6153 37.912 53.577 38.3389 53.8393C38.7486 54.091 38.9602 54.5894 38.8672 55.0593C38.7606 55.5985 38.2724 55.9998 37.7226 55.9998Z" fill="#FD6B3F"/>
</g>
</svg>
