<svg width="45" height="56" viewBox="0 0 45 56" fill="none" xmlns="http://www.w3.org/2000/svg">
<g id="practice">
<path id="Shape" fill-rule="evenodd" clip-rule="evenodd" d="M43.8791 0H1.10455C0.494619 0 0 0.489672 0 1.09375V47.1997C0 47.4832 0.118298 47.7679 0.319768 47.9694L8.02723 55.6759C8.23279 55.8815 8.52141 56 8.81345 56H43.8791C44.489 56 44.9836 55.5103 44.9836 54.9062V1.09375C44.9836 0.489672 44.489 0 43.8791 0ZM7.70746 52.2278C7.11587 51.6308 6.44242 50.9519 5.76997 50.2755C5.00164 49.5027 4.34222 48.8412 3.79425 48.2934H7.70746V52.2278ZM40.2135 53.8125H42.7745V2.1875H40.2135V26.3034C40.2135 26.9075 39.7189 27.3971 39.1089 27.3971C38.499 27.3971 38.0044 26.9075 38.0044 26.3034V2.1875H2.20911V46.1059H8.81202C9.42195 46.1059 9.91657 46.5956 9.91657 47.1997V53.8125H38.0044V35.9202C38.0044 35.3161 38.499 34.8264 39.1089 34.8264C39.7189 34.8264 40.2135 35.3161 40.2135 35.9202V53.8125Z" fill="#DE3C7D"/>
<path id="Shape_2" fill-rule="evenodd" clip-rule="evenodd" d="M10.5348 15.8875L9.41729 18.607C9.18905 19.1625 8.55842 19.4256 8.00883 19.1951C7.45924 18.9645 7.19867 18.3271 7.42691 17.7716L8.82093 14.3791L8.82427 14.3709L11.4358 8.01566C11.6028 7.6091 11.9956 7.34424 12.431 7.34424H12.4345C12.8714 7.34576 13.2642 7.61357 13.429 8.02241L15.989 14.3715L15.9923 14.3797L17.3627 17.7783C17.5872 18.3353 17.3225 18.9709 16.7714 19.1979C16.6382 19.2527 16.5004 19.2787 16.3651 19.2787C15.9399 19.2787 15.537 19.0227 15.3667 18.6003L14.2729 15.8875H10.5348ZM13.3946 13.7093L12.4215 11.296L11.4299 13.7093H13.3946Z" fill="#DE3C7D"/>
<path id="Path" d="M18.6315 10.3693H19.0078V10.7456C19.0078 11.4022 19.5402 11.9345 20.1967 11.9345C20.8532 11.9345 21.3856 11.4022 21.3856 10.7456V10.3693H21.7619C22.4184 10.3693 22.9508 9.837 22.9508 9.18037C22.9508 8.52374 22.4184 7.99146 21.7619 7.99146H21.3856V7.61517C21.3856 6.95854 20.8532 6.42627 20.1967 6.42627C19.5402 6.42627 19.0078 6.95854 19.0078 7.61517V7.99146H18.6315C17.975 7.99146 17.4426 8.52374 17.4426 9.18037C17.4426 9.837 17.9749 10.3693 18.6315 10.3693Z" fill="#DE3C7D"/>
<path id="Path_2" d="M31.9644 22.9507H9.34703C8.74802 22.9507 8.26227 23.5672 8.26227 24.3277C8.26227 25.0883 8.74802 25.7048 9.34703 25.7048H31.9644C32.5634 25.7048 33.0492 25.0883 33.0492 24.3277C33.0492 23.5672 32.5635 22.9507 31.9644 22.9507Z" fill="#DE3C7D"/>
<path id="Path_3" d="M31.9644 30.2949H9.34703C8.74802 30.2949 8.26227 30.9114 8.26227 31.672C8.26227 32.4325 8.74802 33.049 9.34703 33.049H31.9644C32.5634 33.049 33.0492 32.4325 33.0492 31.672C33.0492 30.9114 32.5635 30.2949 31.9644 30.2949Z" fill="#DE3C7D"/>
<path id="Path_4" d="M31.9644 37.6392H9.34703C8.74802 37.6392 8.26227 38.2557 8.26227 39.0162C8.26227 39.7768 8.74802 40.3933 9.34703 40.3933H31.9644C32.5634 40.3933 33.0492 39.7768 33.0492 39.0162C33.0492 38.2557 32.5635 37.6392 31.9644 37.6392Z" fill="#DE3C7D"/>
<path id="Path_5" d="M31.9455 44.9834H14.8741C14.2647 44.9834 13.7705 45.5999 13.7705 46.3604C13.7705 47.121 14.2647 47.7375 14.8741 47.7375H31.9456C32.555 47.7375 33.0492 47.121 33.0492 46.3604C33.0492 45.5999 32.555 44.9834 31.9455 44.9834Z" fill="#DE3C7D"/>
<path id="Path_6" d="M31.9786 7.34424H25.8574C25.2663 7.34424 24.7869 7.96074 24.7869 8.72129C24.7869 9.48183 25.2663 10.0983 25.8574 10.0983H31.9786C32.5698 10.0983 33.0492 9.48183 33.0492 8.72129C33.0492 7.96074 32.5699 7.34424 31.9786 7.34424Z" fill="#DE3C7D"/>
<path id="Path_7" d="M31.9681 14.6885H24.0319C23.4349 14.6885 22.9508 15.305 22.9508 16.0655C22.9508 16.8261 23.4349 17.4426 24.0319 17.4426H31.9681C32.5651 17.4426 33.0492 16.8261 33.0492 16.0655C33.0492 15.305 32.5652 14.6885 31.9681 14.6885Z" fill="#DE3C7D"/>
<path id="Path_8" d="M39.3726 30.2262C39.0874 29.5297 38.2633 29.1927 37.5704 29.479C36.8751 29.7664 36.5363 30.5873 36.8239 31.2827C37.1117 31.9785 37.9317 32.3157 38.6261 32.0285C39.319 31.7416 39.6615 30.9203 39.3726 30.2262Z" fill="#DE3C7D"/>
</g>
</svg>
