<svg width="40" height="40" viewBox="0 0 40 40" fill="none" xmlns="http://www.w3.org/2000/svg">
<g id="business">
<path id="Shape" fill-rule="evenodd" clip-rule="evenodd" d="M0 20C0 8.93878 8.93878 0 20 0C31.0612 0 40 8.93878 40 20C40 31.0612 31.0612 40 20 40C8.93878 40 0 31.0612 0 20ZM3.32245 20C3.32245 29.1918 10.8082 36.6776 20 36.6776C29.1918 36.6776 36.6776 29.1918 36.6776 20C36.6776 10.8082 29.1918 3.32245 20 3.32245C10.8082 3.32245 3.32245 10.8082 3.32245 20Z" fill="white"/>
<path id="Path" d="M26.0653 24.2285C26.0653 20.8816 23.3388 18.1632 20 18.1632C18.6775 18.1632 17.6082 17.0939 17.6082 15.7714C17.6082 14.449 18.6775 13.3796 20 13.3796C20.6694 13.3796 21.2898 13.649 21.7469 14.1306C22.4408 14.8734 23.6082 14.9061 24.3429 14.2122C25.0857 13.5183 25.1184 12.351 24.4245 11.6163C23.7143 10.8571 22.8163 10.302 21.8449 9.99182V8.92243C21.8449 7.91018 21.0204 7.08569 20.0082 7.08569C18.9959 7.08569 18.1714 7.91018 18.1714 8.92243V9.99182C15.7224 10.7755 13.9429 13.0694 13.9429 15.7796C13.9429 19.1265 16.6694 21.8449 20.0082 21.8449C21.3306 21.8449 22.4 22.9143 22.4 24.2367C22.4 25.5592 21.3306 26.6285 20.0082 26.6285C19.3388 26.6285 18.7184 26.3592 18.2612 25.8775C17.5673 25.1347 16.4 25.102 15.6653 25.7959C14.9224 26.4898 14.8898 27.6571 15.5837 28.3918C16.2939 29.151 17.1918 29.7061 18.1633 30.0163V31.0857C18.1633 32.0979 18.9878 32.9224 20 32.9224C21.0122 32.9224 21.8367 32.0979 21.8367 31.0857V30.0163C24.2857 29.2326 26.0653 26.9388 26.0653 24.2285Z" fill="white"/>
</g>
</svg>
