<svg width="40" height="40" viewBox="0 0 40 40" fill="none" xmlns="http://www.w3.org/2000/svg">
<g id="contract">
<path id="Shape" fill-rule="evenodd" clip-rule="evenodd" d="M1.66531 0H38.3347C39.2571 0 40 0.734521 40 1.64043V31.2906C40 32.1965 39.2571 32.931 38.3347 32.931H35.1918L35.9347 34.2613C36.2367 34.7918 36.2041 35.4529 35.8612 35.9589C35.5184 36.4649 34.9143 36.7505 34.2939 36.6771L31.2163 36.3425L29.8612 39.0765C29.5918 39.6315 29.0286 39.9824 28.4082 39.9987H28.3673C27.7633 39.9987 27.2 39.6723 26.9061 39.15L24.0898 34.1226L21.2735 39.15C20.9714 39.6886 20.4082 40.0232 19.7714 39.9987C19.151 39.9824 18.5878 39.6233 18.3184 39.0765L16.9633 36.3425L13.8857 36.6771C13.2735 36.7424 12.6612 36.4649 12.3184 35.9589C11.9755 35.4529 11.9429 34.8 12.2449 34.2613L12.9878 32.931H1.66531C0.742857 32.931 0 32.1965 0 31.2906V1.64043C0 0.734521 0.742857 0 1.66531 0ZM33.3551 29.6502H36.6612V3.2727H3.33061V29.6583H14.8245L17.1837 25.4552C16.098 24.0352 15.4612 22.2805 15.4612 20.3789C15.4612 15.7024 19.3306 11.8992 24.0898 11.8992C28.849 11.8992 32.7184 15.7024 32.7184 20.3789C32.7184 22.2723 32.0735 24.0352 30.9959 25.4471L33.3551 29.6502ZM28.7347 33.8614C29.0449 33.233 29.7143 32.8739 30.4163 32.9473L31.4694 33.0616L28.4571 27.6833C25.8367 29.2013 22.351 29.2013 19.7306 27.6833L16.7184 33.0616L17.7633 32.9473C18.4571 32.8739 19.1347 33.233 19.4449 33.8614L19.902 34.7918L22.6286 29.9276C22.9224 29.4053 23.4776 29.0789 24.0898 29.0789C24.702 29.0789 25.2571 29.4053 25.551 29.9276L28.2775 34.7918L28.7347 33.8614ZM24.0898 25.5695C21.1673 25.5695 18.7918 23.2353 18.7918 20.3626C18.7918 17.4898 21.1673 15.1556 24.0898 15.1556C27.0122 15.1556 29.3878 17.4898 29.3878 20.3626C29.3796 23.2353 27.0041 25.5695 24.0898 25.5695Z" fill="white"/>
<path id="Path" d="M10.2718 9.84616H30.0358C30.9534 9.84616 31.6923 9.08841 31.6923 8.15386C31.6923 7.2193 30.9534 6.46155 30.0358 6.46155H10.2718C9.35427 6.46155 8.61536 7.2193 8.61536 8.15386C8.61536 9.08841 9.35427 9.84616 10.2718 9.84616Z" fill="white"/>
</g>
</svg>
