<svg width="40" height="40" viewBox="0 0 40 40" fill="none" xmlns="http://www.w3.org/2000/svg">
<g id="mortarboard">
<path id="Path" d="M4.80263 20.1316C5.71369 20.1316 6.44737 19.3875 6.44737 18.4634V7.32605C6.44737 6.40203 5.71369 5.6579 4.80263 5.6579C3.89158 5.6579 3.1579 6.40203 3.1579 7.32605V18.4634C3.1579 19.3875 3.89158 20.1316 4.80263 20.1316Z" fill="white"/>
<path id="Shape" fill-rule="evenodd" clip-rule="evenodd" d="M25.7306 23.7241C33.551 23.9118 39.8694 30.2541 40 38.0818C40 39.3797 39.2735 40 38.351 40H38.3347H1.66531C0.742857 40 0 39.2572 0 38.3349C0 30.3928 6.36735 23.9118 14.2694 23.7323C11.3306 22.1324 9.38776 19.3327 9.38776 16.1575C9.38776 14.7699 9.76327 13.415 10.4735 12.1824V6.92582L8.62041 6.19937C7.95102 5.93817 7.52653 5.27701 7.55918 4.55872C7.6 3.84042 8.0898 3.22824 8.78367 3.04051L19.551 0.0612182C19.8449 -0.0204061 20.1469 -0.0204061 20.4408 0.0612182L31.2163 3.03234C31.9102 3.22008 32.4 3.83226 32.4408 4.55056C32.4735 5.26885 32.049 5.93001 31.3796 6.19121L29.5265 6.91766V12.1743C30.2367 13.3986 30.6122 14.7618 30.6122 16.1494C30.6122 19.3246 28.6612 22.1161 25.7306 23.7241ZM20 3.39965L25.4939 4.91787L20 7.06459L14.5061 4.91787L20 3.39965ZM19.3878 10.403L13.8041 8.22365V11.3417H26.1878V8.22365L20.6041 10.403C20.2041 10.5989 19.8939 10.5989 19.3878 10.403ZM27.0204 14.672C27.1837 15.1536 27.2735 15.6515 27.2735 16.1494C27.2735 19.2756 24.0082 21.8223 20 21.8223C15.9837 21.8223 12.7265 19.2756 12.7265 16.1494C12.7265 15.6515 12.8082 15.1536 12.9796 14.672H27.0204ZM3.45306 36.6697C4.26122 31.2417 8.9551 27.0625 14.6041 27.0625H25.3796C31.0286 27.0625 35.7306 31.2417 36.5388 36.6697H3.45306Z" fill="white"/>
</g>
</svg>
