<svg width="145" height="145" viewBox="0 0 145 145" fill="none" xmlns="http://www.w3.org/2000/svg">
<circle cx="72.5" cy="72.5001" r="56.5" fill="#FAE2EC"/>
<path d="M45.0569 84.296L46.1129 81.16C47.1155 81.8 48.3529 82.12 49.8249 82.12C51.9582 82.12 53.6115 81.5333 54.7849 80.36C55.9582 79.1867 56.5982 77.5973 56.7049 75.592C56.2995 76.296 55.6489 76.872 54.7529 77.32C53.8782 77.768 52.8435 77.992 51.6489 77.992C49.6862 77.992 48.0009 77.3627 46.5929 76.104C45.1849 74.824 44.4809 73.128 44.4809 71.016C44.4809 68.904 45.2275 67.176 46.7209 65.832C48.2142 64.4667 50.0702 63.784 52.2889 63.784C54.6142 63.784 56.5555 64.616 58.1129 66.28C59.6915 67.944 60.4809 70.344 60.4809 73.48C60.4809 77.2987 59.5742 80.2533 57.7609 82.344C55.9689 84.4347 53.3342 85.48 49.8569 85.48C49.0035 85.48 48.1182 85.3627 47.2009 85.128C46.2835 84.9147 45.5689 84.6373 45.0569 84.296ZM56.1929 70.888C56.1929 69.7787 55.7982 68.8613 55.0089 68.136C54.2195 67.4107 53.2915 67.048 52.2249 67.048C51.1369 67.048 50.1982 67.4107 49.4089 68.136C48.6409 68.84 48.2569 69.7573 48.2569 70.888C48.2569 72.0613 48.6409 73 49.4089 73.704C50.1769 74.408 51.1155 74.76 52.2249 74.76C53.3129 74.76 54.2409 74.408 55.0089 73.704C55.7982 72.9787 56.1929 72.04 56.1929 70.888ZM63.6819 84.296L64.7379 81.16C65.7405 81.8 66.9779 82.12 68.4499 82.12C70.5832 82.12 72.2365 81.5333 73.4099 80.36C74.5832 79.1867 75.2232 77.5973 75.3299 75.592C74.9245 76.296 74.2739 76.872 73.3779 77.32C72.5032 77.768 71.4685 77.992 70.2739 77.992C68.3112 77.992 66.6259 77.3627 65.2179 76.104C63.8099 74.824 63.1059 73.128 63.1059 71.016C63.1059 68.904 63.8525 67.176 65.3459 65.832C66.8392 64.4667 68.6952 63.784 70.9139 63.784C73.2392 63.784 75.1805 64.616 76.7379 66.28C78.3165 67.944 79.1059 70.344 79.1059 73.48C79.1059 77.2987 78.1992 80.2533 76.3859 82.344C74.5939 84.4347 71.9592 85.48 68.4819 85.48C67.6285 85.48 66.7432 85.3627 65.8259 85.128C64.9085 84.9147 64.1939 84.6373 63.6819 84.296ZM74.8179 70.888C74.8179 69.7787 74.4232 68.8613 73.6339 68.136C72.8445 67.4107 71.9165 67.048 70.8499 67.048C69.7619 67.048 68.8232 67.4107 68.0339 68.136C67.2659 68.84 66.8819 69.7573 66.8819 70.888C66.8819 72.0613 67.2659 73 68.0339 73.704C68.8019 74.408 69.7405 74.76 70.8499 74.76C71.9379 74.76 72.8659 74.408 73.6339 73.704C74.4232 72.9787 74.8179 72.04 74.8179 70.888ZM85.1059 67.464C84.6792 67.8907 84.4659 68.4453 84.4659 69.128C84.4659 69.8107 84.6792 70.376 85.1059 70.824C85.5539 71.272 86.0979 71.496 86.7379 71.496C87.3779 71.496 87.9112 71.272 88.3379 70.824C88.7645 70.376 88.9779 69.8107 88.9779 69.128C88.9779 68.4453 88.7645 67.8907 88.3379 67.464C87.9112 67.016 87.3779 66.792 86.7379 66.792C86.0979 66.792 85.5539 67.016 85.1059 67.464ZM83.0259 72.776C82.0019 71.7733 81.4899 70.5573 81.4899 69.128C81.4899 67.6987 82.0019 66.4827 83.0259 65.48C84.0712 64.4773 85.3085 63.976 86.7379 63.976C88.1672 63.976 89.3939 64.4773 90.4179 65.48C91.4632 66.4827 91.9859 67.6987 91.9859 69.128C91.9859 70.5573 91.4632 71.7733 90.4179 72.776C89.3939 73.7573 88.1565 74.248 86.7059 74.248C85.2765 74.248 84.0499 73.7573 83.0259 72.776ZM98.4819 78.504C98.0552 78.9307 97.8419 79.4853 97.8419 80.168C97.8419 80.8507 98.0552 81.416 98.4819 81.864C98.9299 82.312 99.4739 82.536 100.114 82.536C100.754 82.536 101.287 82.312 101.714 81.864C102.141 81.416 102.354 80.8507 102.354 80.168C102.354 79.4853 102.141 78.9307 101.714 78.504C101.287 78.056 100.754 77.832 100.114 77.832C99.4739 77.832 98.9299 78.056 98.4819 78.504ZM96.4019 83.816C95.3779 82.8133 94.8659 81.5973 94.8659 80.168C94.8659 78.7387 95.3779 77.5227 96.4019 76.52C97.4472 75.5173 98.6845 75.016 100.114 75.016C101.543 75.016 102.77 75.5173 103.794 76.52C104.839 77.5227 105.362 78.7387 105.362 80.168C105.362 81.5973 104.839 82.8133 103.794 83.816C102.77 84.7973 101.533 85.288 100.082 85.288C98.6525 85.288 97.4259 84.7973 96.4019 83.816ZM87.7299 85H84.3699L99.1539 64.264H102.482L87.7299 85Z" fill="#DE3C7D"/>
<path fill-rule="evenodd" clip-rule="evenodd" d="M70.5 2.00012C70.5 0.895553 71.3954 0.00012207 72.5 0.00012207C112.541 0.00012207 145 32.4595 145 72.5001C145 112.541 112.541 145 72.5 145C32.4594 145 0 112.541 0 72.5001C0 37.5809 24.685 8.43168 57.5553 1.54253C58.6364 1.31595 59.6964 2.00866 59.923 3.08974C60.1496 4.17082 59.4569 5.23089 58.3758 5.45747C27.3204 11.9662 4 39.5121 4 72.5001C4 110.332 34.6685 141 72.5 141C110.332 141 141 110.332 141 72.5001C141 34.6686 110.332 4.00012 72.5 4.00012C71.3954 4.00012 70.5 3.10469 70.5 2.00012Z" fill="#DE3C7D"/>
</svg>
