<svg width="40" height="40" viewBox="0 0 40 40" fill="none" xmlns="http://www.w3.org/2000/svg">
<g id="watch">
<path id="Shape" fill-rule="evenodd" clip-rule="evenodd" d="M0 20C0 8.97189 8.97189 0 20 0C31.0281 0 40 8.97189 40 20C40 31.0281 31.0281 40 20 40C8.97189 40 0 31.0281 0 20ZM4.21053 20C4.21053 28.7063 11.2937 35.7895 20 35.7895C28.7063 35.7895 35.7895 28.7063 35.7895 20C35.7895 11.2937 28.7063 4.21053 20 4.21053C11.2937 4.21053 4.21053 11.2937 4.21053 20Z" fill="white"/>
<path id="Path" d="M30.7361 19.3823H22.9259C22.6421 18.9199 22.2519 18.5297 21.7895 18.2459V8.85673C21.7895 7.86842 20.9883 7.06726 20 7.06726C19.0117 7.06726 18.2105 7.86842 18.2105 8.85673V18.2459C17.2268 18.8498 16.5692 19.9354 16.5692 21.1718C16.5692 23.0636 18.1083 24.6026 20 24.6026C21.2364 24.6026 22.322 23.9449 22.9259 22.9613H30.7361C31.7244 22.9613 32.5256 22.1601 32.5256 21.1718C32.5256 20.1835 31.7244 19.3823 30.7361 19.3823Z" fill="white"/>
</g>
</svg>
