<?xml version="1.0" encoding="UTF-8"?>
<svg width="70px" height="72px" viewBox="0 0 70 72" version="1.1" xmlns="http://www.w3.org/2000/svg" xmlns:xlink="http://www.w3.org/1999/xlink">
    <!-- Generator: Sketch 64 (93537) - https://sketch.com -->
    <title>support</title>
    <desc>Created with Sketch.</desc>
    <g id="UI" stroke="none" stroke-width="1" fill="none" fill-rule="evenodd">
        <g id="bp-ui-Video_Courses_Platinum" transform="translate(-732.000000, -5332.000000)" fill="#FD6B3F" fill-rule="nonzero">
            <g id="Benefits" transform="translate(162.000000, 1104.000000)">
                <g id="bonuses" transform="translate(0.000000, 3288.000000)">
                    <g id="3" transform="translate(570.000000, 940.000000)">
                        <g id="cover">
                            <g id="support">
                                <path d="M52.8672437,50.4307997 L42.6754975,55.5760736 C41.7929419,54.7021117 40.5708459,54.1599669 39.2220971,54.1599669 L32.1990247,54.1599669 C31.8866144,54.1599669 31.7722808,54.1410564 31.737953,54.1330297 C31.6742806,54.0905832 31.5155147,53.9437892 31.3867856,53.8246126 L31.3196527,53.7624394 C25.6032499,48.4715959 20.7728633,48.8072223 15.2793142,50.9382527 C14.4195975,51.2715663 14.4032642,51.2722465 13.5511606,51.3104756 L12.0040582,51.3123802 C11.5211164,49.9670176 10.2163847,49 8.6858925,49 L3.5184571,49 C1.57838492,49 0,50.5531054 0,52.4621081 L0,65.7820004 C0,67.6889625 1.57838492,69.2402993 3.5184571,69.2402993 L8.68575408,69.2402993 C10.2163847,69.2402993 11.5211164,68.27437 12.0040582,66.9303679 L14.8456494,66.9303679 C15.1673337,66.9577132 15.4809898,67.0220631 15.786756,67.1232816 L29.1492523,70.6351827 C29.7343468,70.7910919 30.2715486,70.9445522 30.7911712,71.0929788 C32.5168333,71.5858748 33.9674581,72 35.4799558,72 C37.1887309,72 38.9764044,71.4711877 41.3281329,69.9293742 C41.3398985,69.9216195 41.3515256,69.9138649 41.3630143,69.9058381 L57.8386787,58.3745475 C60.0043728,56.8558618 60.6356991,54.1146634 59.3066057,51.9972377 C57.9928768,49.9096061 55.2236784,49.2365846 52.8672437,50.4307997 Z M9.43584335,65.7821365 C9.43584335,66.1818407 9.0922889,66.5195078 8.68575408,66.5195078 L3.5184571,66.5195078 C3.11178387,66.5195078 2.76836784,66.1818407 2.76836784,65.7821365 L2.76836784,52.4622442 C2.76836784,52.0604992 3.11192228,51.7210635 3.5184571,51.7210635 L8.68575408,51.7210635 C9.09242732,51.7210635 9.43584335,52.0604992 9.43584335,52.4622442 L9.43584335,65.7821365 Z M56.2316411,56.1590323 L39.7743865,67.6773985 C36.4246614,69.8686975 34.9990904,69.4613746 31.563269,68.4802082 C31.0320192,68.3285165 30.4826367,68.171655 29.8688895,68.0079912 L16.5027943,64.4951378 C15.9650389,64.3312019 15.4124727,64.2359695 14.8453725,64.2095765 L12.2042112,64.2095765 L12.2042112,54.0348042 L13.6771213,54.0286821 C14.7306237,53.981474 15.0572911,53.9493671 16.2953052,53.4693955 C21.0568978,51.6221578 24.7313525,51.4021708 29.4229054,55.744499 L29.4892079,55.8057199 C30.2970176,56.5532947 30.7975385,56.8807583 32.1990247,56.8807583 L39.2220971,56.8807583 C40.3799669,56.8807583 41.3219041,57.8066899 41.3219041,58.9447178 C41.3219041,60.0807051 40.3799669,61.0048681 39.2220971,61.0048681 L27.8362154,61.0048681 C27.0717306,61.0048681 26.4520315,61.6139477 26.4520315,62.3653318 C26.4520315,63.1167159 27.0717306,63.7257956 27.8362154,63.7257956 L39.2220971,63.7257956 C41.9064449,63.7257956 44.0902719,61.5810245 44.0902719,58.9447178 C44.0902719,58.6114042 44.0551136,58.2859813 43.9888112,57.9717142 L54.133772,52.8499763 C55.0585453,52.3815687 56.323551,52.429593 56.9511399,53.4272211 C57.5045367,54.3089376 57.1947563,55.4836981 56.2316411,56.1590323 L56.2316411,56.1590323 Z" id="Shape"></path>
                                <path d="M32.3705637,33.658161 C30.8707426,34.4085113 29.8345152,35.9900385 29.8345152,37.8156111 C29.8345152,39.828451 31.0964432,41.5434561 32.850645,42.1741317 L32.850645,44.2935547 C32.850645,46.8886881 34.9045338,49 37.4289439,49 L43.5671954,49 C46.0938223,49 48.1495123,46.8886881 48.1495123,44.2935547 L48.1495123,42.1741317 C49.9037141,41.5434561 51.1656421,39.8283087 51.1656421,37.8156111 C51.1656421,35.9898962 50.1294147,34.408369 48.6294551,33.6580187 C49.2361725,31.3430749 50.4660951,29.6193894 51.7596128,27.8113198 C53.7494908,25.0299151 56.0048337,21.8773908 55.9999922,16.3244002 C55.9999922,15.8286254 55.980033,15.3197589 55.9406843,14.8118886 C55.8799987,14.0283823 55.2139812,13.4456619 54.449592,13.5061396 C53.6868655,13.5684672 53.1176955,14.2540708 53.1783811,15.0375771 C53.2119106,15.4705974 53.2289525,15.9034754 53.2289525,16.3255386 C53.2329705,20.9451806 51.432631,23.4617641 49.5264381,26.1260555 C48.080098,28.1477181 46.5916382,30.2317083 45.8823926,33.1936923 L35.1172105,33.1936923 C34.4079649,30.2319929 32.9190894,28.148145 31.4724722,26.1266247 C29.5657251,23.4623333 27.7648315,20.9457498 27.7707892,16.3259655 C27.7768855,11.3999506 29.8317442,8.28897802 31.5546333,6.54665124 C33.9269138,4.14746555 37.1763644,2.79902644 40.4802658,2.84683939 C40.4935667,2.84698169 40.5067291,2.84698169 40.5200301,2.84683939 C43.2119491,2.80486075 45.9117655,3.70604954 48.1158443,5.3796452 C48.7308748,5.8468176 49.5987621,5.71319747 50.053627,5.08138345 C50.5084918,4.44942712 50.3785304,3.55834167 49.7632228,3.09116927 C47.0796169,1.05371135 43.7906791,-0.0424290645 40.4998015,0.00125717542 C36.4694741,-0.0492594864 32.5026033,1.59445308 29.6106158,4.51929665 C26.6001667,7.5639572 25.0058535,11.6455612 25.0000171,16.3226925 C24.9928297,21.87796 27.249281,25.0309112 29.2399903,27.8126005 C30.5336466,29.6202432 31.7638462,31.3436441 32.3705637,33.658161 L32.3705637,33.658161 Z M45.3786189,44.293697 C45.3786189,45.319541 44.5661524,46.1541332 43.5673339,46.1541332 L37.4290825,46.1541332 C36.4324809,46.1541332 35.6218155,45.319541 35.6218155,44.293697 L35.6218155,42.4334032 L45.3786189,42.4334032 L45.3786189,44.293697 Z M34.334394,36.039986 L46.6659018,36.039986 C47.6191368,36.039986 48.3947487,36.8365839 48.3947487,37.8156111 C48.3947487,38.7925037 47.6192754,39.5872518 46.6659018,39.5872518 L34.334394,39.5872518 C33.381159,39.5872518 32.6055472,38.7925037 32.6055472,37.8156111 C32.6055472,36.8365839 33.381159,36.039986 34.334394,36.039986 Z" id="Shape"></path>
                                <path d="M42,10.46304 C42,9.65500299 41.32845,9 40.5,9 C39.67155,9 39,9.65500299 39,10.46304 L39,19.53696 C39,20.344997 39.67155,21 40.5,21 C41.32845,21 42,20.344997 42,19.53696 L42,10.46304 Z" id="Path"></path>
                                <path d="M40.5,23 C39.67155,23 39,23.6705777 39,24.4978281 L39,24.5063658 C39,25.3336163 39.67155,26 40.5,26 C41.32845,26 42,25.3252284 42,24.4979779 C42,23.6707274 41.32845,23 40.5,23 Z" id="Path"></path>
                                <path d="M68.5152925,17 L62.4847075,17 C61.6647036,17 61,17.67155 61,18.5 C61,19.32845 61.6647036,20 62.4847075,20 L68.5152925,20 C69.3352964,20 70,19.32845 70,18.5 C70,17.67155 69.3352964,17 68.5152925,17 L68.5152925,17 Z" id="Path"></path>
                                <path d="M60.4912941,7 C60.7767095,7 61.0652531,6.92257489 61.3199819,6.76096756 L66.3403729,3.57668383 C67.0235227,3.14338474 67.2055569,2.26890329 66.7470451,1.62331862 C66.2886823,0.977874722 65.3633168,0.805709426 64.6800181,1.23900851 L59.6596271,4.42329224 C58.9764773,4.85659133 58.7944431,5.73121356 59.2529549,6.37665746 C59.5406047,6.78137964 60.0114805,7 60.4912941,7 L60.4912941,7 Z" id="Path"></path>
                                <path d="M66.3403697,31.4232922 L61.3199542,28.2390085 C60.6368011,27.8057094 59.7112821,27.9778747 59.2529171,28.6233186 C58.7944031,29.2687625 58.9765872,30.1433847 59.6595913,30.5766838 L64.6800068,33.7609676 C64.9347368,33.9225749 65.2232818,34 65.5086986,34 C65.9885146,34 66.4595416,33.7813796 66.7470439,33.3766575 C67.2055579,32.7310728 67.0235228,31.8564506 66.3403697,31.4232922 Z" id="Path"></path>
                                <path d="M12.4853936,20 L18.5146064,20 C19.3349893,20 20,19.32845 20,18.5 C20,17.67155 19.3349893,17 18.5146064,17 L12.4853936,17 C11.6650107,17 11,17.67155 11,18.5 C11,19.32845 11.6650107,20 12.4853936,20 L12.4853936,20 Z" id="Path"></path>
                                <path d="M14.6596303,3.57668383 L19.6800458,6.76096756 C19.9347758,6.92257489 20.2233208,7 20.5087376,7 C20.9885536,7 21.4595806,6.78137964 21.7470829,6.37665746 C22.2055969,5.73121356 22.0234128,4.85659133 21.3404087,4.42329224 L16.3199932,1.23900851 C15.6368401,0.805709426 14.7114701,0.977874722 14.2529561,1.62331862 C13.7944421,2.26876251 13.9764772,3.14338474 14.6596303,3.57668383 L14.6596303,3.57668383 Z" id="Path"></path>
                                <path d="M19.6800181,28.2390085 L14.6596271,31.4232922 C13.9764773,31.8565913 13.7944431,32.7312136 14.2529549,33.3766575 C14.5404557,33.7813796 15.0113315,34 15.4912941,34 C15.7767095,34 16.0652531,33.9225749 16.3199819,33.7609676 L21.3403729,30.5766838 C22.0235227,30.1433847 22.2055569,29.2687625 21.7470451,28.6233186 C21.2885334,27.9778747 20.3630189,27.8057094 19.6800181,28.2390085 Z" id="Path"></path>
                                <path d="M51.443496,10.5621761 C51.7358862,10.8542085 52.1180927,11 52.5005991,11 C52.8844549,11 53.2686107,10.8531597 53.5619006,10.5600784 C54.1474307,9.97496473 54.1453315,9.02409879 53.5598014,8.43883527 C52.9742712,7.85372158 52.0248277,7.85372158 51.4391476,8.43883527 C50.8536175,9.02394896 50.8536175,9.97271717 51.4391476,10.5579807 L51.443496,10.5621761 Z" id="Path"></path>
                            </g>
                        </g>
                    </g>
                </g>
            </g>
        </g>
    </g>
</svg>