<?xml version="1.0" encoding="UTF-8"?>
<svg width="78px" height="70px" viewBox="0 0 78 70" version="1.1" xmlns="http://www.w3.org/2000/svg" xmlns:xlink="http://www.w3.org/1999/xlink">
    <!-- Generator: Sketch 64 (93537) - https://sketch.com -->
    <title>video-library</title>
    <desc>Created with Sketch.</desc>
    <g id="UI" stroke="none" stroke-width="1" fill="none" fill-rule="evenodd">
        <g id="bp-ui-Video_Courses_Platinum" transform="translate(-732.000000, -4962.000000)" fill="#5AC8F7" fill-rule="nonzero">
            <g id="Benefits" transform="translate(162.000000, 1104.000000)">
                <g id="bonuses" transform="translate(0.000000, 3288.000000)">
                    <g id="2" transform="translate(570.000000, 568.000000)">
                        <g id="cover">
                            <g id="video-library" transform="translate(0.000000, 2.000000)">
                                <path d="M70.3828125,0 L45.8554688,0 C45.0140742,0 44.3320312,0.678333333 44.3320312,1.51515152 C44.3320312,2.3519697 45.0140742,3.03030303 45.8554688,3.03030303 L70.3828125,3.03030303 C72.9028828,3.03030303 74.953125,5.06939394 74.953125,7.57575758 L74.953125,62.4242424 C74.953125,64.9306061 72.9028828,66.969697 70.3828125,66.969697 L7.6171875,66.969697 C5.09711719,66.969697 3.046875,64.9306061 3.046875,62.4242424 L3.046875,7.57575758 C3.046875,5.06939394 5.09711719,3.03030303 7.6171875,3.03030303 L32.1445312,3.03030303 C32.9859258,3.03030303 33.6679688,2.3519697 33.6679688,1.51515152 C33.6679688,0.678333333 32.9859258,0 32.1445312,0 L7.6171875,0 C3.41707031,0 0,3.39848485 0,7.57575758 L0,62.4242424 C0,66.6015152 3.41707031,70 7.6171875,70 L70.3828125,70 C74.5829297,70 78,66.6015152 78,62.4242424 L78,7.57575758 C78,3.39848485 74.5829297,0 70.3828125,0 Z" id="XMLID_232_"></path>
                                <path d="M72,48.4642857 L72,8.53571429 C72,7.68753929 71.3136675,7 70.4669811,7 L8.53301887,7 C7.68633255,7 7,7.68753929 7,8.53571429 L7,48.4642857 C7,49.3124607 7.68633255,50 8.53301887,50 L70.4669811,50 C71.3136675,50 72,49.3124607 72,48.4642857 Z M68.9339623,46.9285714 L10.0660377,46.9285714 L10.0660377,10.0714286 L68.9339623,10.0714286 L68.9339623,46.9285714 Z" id="XMLID_235_"></path>
                                <path d="M33.9817405,38.5087627 C34.5526517,38.8369878 35.181581,39 35.8093141,39 C36.5254203,39 37.2400312,38.7877855 37.8650728,38.3666575 L48.2462949,31.3715951 C49.344454,30.6316737 50,29.3712766 50,28.0000564 C50,26.6288361 49.344454,25.368439 48.2462949,24.6285177 L37.8650728,17.6334552 C36.6919984,16.843074 35.2040108,16.788527 33.9817405,17.4911929 C32.7593208,18.1938588 32,19.5402421 32,21.0049939 L32,34.9951188 C32,36.4595563 32.7593208,37.8059396 33.9817405,38.5087627 L33.9817405,38.5087627 Z M34.9904798,21.0048367 C34.9904798,20.5442526 35.2883465,20.3232351 35.416495,20.2496674 C35.4906626,20.2070673 35.6352595,20.1405734 35.8154449,20.1405734 C35.946285,20.1405734 36.095966,20.1756281 36.2511796,20.2801634 L46.6324018,27.2752259 C46.9725859,27.5044175 47.0093706,27.8584228 47.0093706,27.9998992 C47.0093706,28.1413755 46.9725859,28.4953808 46.6324018,28.7245725 L36.2511796,35.719635 C35.882136,35.968319 35.5444939,35.8240131 35.416495,35.750131 C35.288496,35.6765633 34.9904798,35.4555458 34.9904798,34.9949616 L34.9904798,21.0048367 Z" id="XMLID_238_"></path>
                                <path d="M34.2369231,56.4615385 C34.1553846,53.9876923 32.1187692,52 29.6253846,52 C27.132,52 25.0955385,53.9876923 25.0138462,56.4615385 L19.5384615,56.4615385 C18.6887692,56.4615385 18,57.1503077 18,58 C18,58.8496923 18.6887692,59.5384615 19.5384615,59.5384615 L25.0138462,59.5384615 C25.0953846,62.0123077 27.132,64 29.6253846,64 C32.1187692,64 34.1552308,62.0123077 34.2369231,59.5384615 L67.4615385,59.5384615 C68.3112308,59.5384615 69,58.8496923 69,58 C69,57.1503077 68.3112308,56.4615385 67.4615385,56.4615385 L34.2369231,56.4615385 Z M31.1638462,59.3846154 C31.1638462,60.2329231 30.4736923,60.9230769 29.6253846,60.9230769 C28.7770769,60.9230769 28.0869231,60.2329231 28.0869231,59.3846154 L28.0869231,56.6153846 C28.0869231,55.7670769 28.7770769,55.0769231 29.6253846,55.0769231 C30.4736923,55.0769231 31.1638462,55.7670769 31.1638462,56.6153846 L31.1638462,59.3846154 Z" id="XMLID_241_"></path>
                                <path d="M9,55.5 L9,61.5 C9,62.32845 9.67155,63 10.5,63 C11.32845,63 12,62.32845 12,61.5 L12,55.5 C12,54.67155 11.32845,54 10.5,54 C9.67155,54 9,54.67155 9,55.5 Z" id="XMLID_242_"></path>
                                <path d="M14,55.5 L14,61.5 C14,62.32845 14.67155,63 15.5,63 C16.32845,63 17,62.32845 17,61.5 L17,55.5 C17,54.67155 16.32845,54 15.5,54 C14.67155,54 14,54.67155 14,55.5 Z" id="XMLID_243_"></path>
                                <path d="M39.5,3 C39.8945,3 40.2815,2.8395 40.5605,2.5605 C40.8395,2.2815 41,1.8945 41,1.5 C41,1.1055 40.8395,0.7185 40.5605,0.4395 C40.2815,0.1605 39.8945,0 39.5,0 C39.1055,0 38.7185,0.1605 38.4395,0.4395 C38.1605,0.7185 38,1.1055 38,1.5 C38,1.8945 38.1605,2.2815 38.4395,2.5605 C38.7185,2.8395 39.1055,3 39.5,3 Z" id="XMLID_244_"></path>
                            </g>
                        </g>
                    </g>
                </g>
            </g>
        </g>
    </g>
</svg>